%TF.GenerationSoftware,Altium Limited,Altium Designer,19.1.8 (144)*%
G04 Layer_Color=255*
%FSLAX26Y26*%
%MOIN*%
%TF.FileFunction,Pads,Bot*%
%TF.Part,Single*%
G01*
G75*
%TA.AperFunction,ComponentPad*%
%ADD24C,0.031496*%
%ADD25C,0.078740*%
%ADD26C,0.057087*%
%ADD27O,0.037402X0.074803*%
%TA.AperFunction,SMDPad,CuDef*%
%ADD31R,0.062992X0.051181*%
%ADD32R,0.059500X0.017000*%
%ADD33R,0.019685X0.023622*%
%ADD34R,0.051181X0.062992*%
%ADD35R,0.079000X0.059000*%
%ADD36R,0.079000X0.150000*%
%ADD37R,0.059055X0.076772*%
%TA.AperFunction,ConnectorPad*%
%ADD38R,0.059055X0.076772*%
%TA.AperFunction,SMDPad,CuDef*%
%ADD39R,0.051181X0.059055*%
D24*
X115443Y1371387D02*
D03*
Y1322175D02*
D03*
Y1272963D02*
D03*
X154813D02*
D03*
Y1322175D02*
D03*
Y1371387D02*
D03*
D25*
X437175Y1513175D02*
D03*
X337175D02*
D03*
X237175D02*
D03*
X437175Y1613175D02*
D03*
X337175D02*
D03*
X237175D02*
D03*
X644175Y1521323D02*
D03*
Y1421323D02*
D03*
Y1321323D02*
D03*
Y1221323D02*
D03*
Y1121323D02*
D03*
Y1021323D02*
D03*
Y921323D02*
D03*
Y821323D02*
D03*
Y721323D02*
D03*
Y621323D02*
D03*
Y521323D02*
D03*
Y421323D02*
D03*
Y321323D02*
D03*
Y221323D02*
D03*
Y121323D02*
D03*
X30175Y1521323D02*
D03*
Y1421323D02*
D03*
Y1321323D02*
D03*
Y1221323D02*
D03*
Y1121323D02*
D03*
Y1021323D02*
D03*
Y921323D02*
D03*
Y821323D02*
D03*
Y721323D02*
D03*
Y621323D02*
D03*
Y521323D02*
D03*
Y421323D02*
D03*
Y321323D02*
D03*
Y221323D02*
D03*
Y121323D02*
D03*
D26*
X238749Y136175D02*
D03*
X435601D02*
D03*
D27*
X199379Y29875D02*
D03*
X474971D02*
D03*
D31*
X131175Y93577D02*
D03*
Y18773D02*
D03*
X553175Y93577D02*
D03*
Y18773D02*
D03*
X471521Y683921D02*
D03*
Y758725D02*
D03*
D32*
X192425Y568513D02*
D03*
Y542923D02*
D03*
Y517333D02*
D03*
Y491741D02*
D03*
Y466151D02*
D03*
Y440561D02*
D03*
Y414971D02*
D03*
Y389379D02*
D03*
Y363789D02*
D03*
Y338199D02*
D03*
Y312609D02*
D03*
Y287017D02*
D03*
Y261427D02*
D03*
Y235837D02*
D03*
X471925D02*
D03*
Y261427D02*
D03*
Y287017D02*
D03*
Y312609D02*
D03*
Y338199D02*
D03*
Y363789D02*
D03*
Y389379D02*
D03*
Y414971D02*
D03*
Y440561D02*
D03*
Y466151D02*
D03*
Y491741D02*
D03*
Y517333D02*
D03*
Y542923D02*
D03*
Y568513D02*
D03*
D33*
X377033Y836605D02*
D03*
X408529D02*
D03*
X440025D02*
D03*
X471521D02*
D03*
X377033Y885605D02*
D03*
X408529D02*
D03*
X440025D02*
D03*
X471521D02*
D03*
X303671D02*
D03*
X272175D02*
D03*
X240679D02*
D03*
X209183D02*
D03*
X303671Y836605D02*
D03*
X272175D02*
D03*
X240679D02*
D03*
X209183D02*
D03*
D34*
X154773Y1142175D02*
D03*
X229577D02*
D03*
D35*
X383865Y1410825D02*
D03*
Y1320825D02*
D03*
Y1230825D02*
D03*
D36*
X135865Y1321825D02*
D03*
D37*
X502175Y1230825D02*
D03*
Y1122557D02*
D03*
D38*
X537175Y1518041D02*
D03*
Y1626309D02*
D03*
X137175Y1518041D02*
D03*
Y1626309D02*
D03*
D39*
X314967Y1142175D02*
D03*
X383865D02*
D03*
%TF.MD5,6b32a912becbe502ca8213cce1b84a00*%
M02*
