G04*
G04 #@! TF.GenerationSoftware,Altium Limited,Altium Designer,19.1.8 (144)*
G04*
G04 Layer_Color=32768*
%FSLAX44Y44*%
%MOMM*%
G71*
G01*
G75*
D10*
X113582Y324280D02*
X141523D01*
X113582Y273480D02*
X141523D01*
X113582D02*
Y324280D01*
X141523Y273480D02*
Y324280D01*
X127552Y293880D02*
Y303880D01*
X122553Y298880D02*
X132553D01*
X122472Y373932D02*
X150413D01*
X122472Y424733D02*
X150413D01*
Y373932D02*
Y424733D01*
X122472Y373932D02*
Y424733D01*
X136442Y394332D02*
Y404333D01*
X131442Y399333D02*
X141443D01*
X20872Y373932D02*
X48812D01*
X20872Y424733D02*
X48812D01*
Y373932D02*
Y424733D01*
X20872Y373932D02*
Y424733D01*
X34843Y394332D02*
Y404333D01*
X29842Y399333D02*
X39843D01*
X83752Y290112D02*
X93752D01*
X88752Y285112D02*
Y295113D01*
X53973Y333293D02*
X63973D01*
X58973Y328292D02*
Y338293D01*
X75420Y333293D02*
X85420D01*
X80420Y328292D02*
Y338293D01*
X47543Y63305D02*
Y73305D01*
X42543Y68305D02*
X52543D01*
X68116Y63305D02*
Y73305D01*
X63117Y68305D02*
X73117D01*
X101898Y63305D02*
Y73305D01*
X96899Y68305D02*
X106899D01*
X115441D02*
X125441D01*
X120441Y63305D02*
Y73305D01*
X82107Y186714D02*
X89178Y179643D01*
X82107D02*
X89178Y186714D01*
D68*
X114853Y55204D02*
X129965D01*
X114853Y47161D02*
Y55204D01*
X53892Y47161D02*
X114853D01*
X53892D02*
Y55204D01*
X38779D02*
X53892D01*
X38779D02*
Y149101D01*
X53892D01*
Y157143D01*
X114853D01*
Y149101D02*
Y157143D01*
Y149101D02*
X129965D01*
Y55204D02*
Y149101D01*
D71*
X70752Y280112D02*
Y300112D01*
X106752Y280112D02*
Y300112D01*
X70752Y280112D02*
X106752D01*
X70752Y300112D02*
X106752D01*
X48973Y315292D02*
Y351292D01*
X68973Y315292D02*
Y351292D01*
X48973Y315292D02*
X68973D01*
X48973Y351292D02*
X68973D01*
X70420Y315292D02*
Y351292D01*
X90420Y315292D02*
Y351292D01*
X70420Y315292D02*
X90420D01*
X70420Y351292D02*
X90420D01*
X43143Y-15411D02*
Y44588D01*
Y-15411D02*
X128142D01*
Y44588D01*
X43143D02*
X128142D01*
X38542Y85305D02*
X56543D01*
X38542Y51305D02*
X56543D01*
Y85305D01*
X38542Y51305D02*
Y85305D01*
X59116D02*
X77117D01*
X59116Y51305D02*
X77117D01*
Y85305D01*
X59116Y51305D02*
Y85305D01*
X92898D02*
X110899D01*
X92898Y51305D02*
X110899D01*
Y85305D01*
X92898Y51305D02*
Y85305D01*
X111440Y51305D02*
Y85305D01*
X129441Y51305D02*
Y85305D01*
X111440Y51305D02*
X129441D01*
X111440Y85305D02*
X129441D01*
X11750Y183179D02*
X85642Y257071D01*
Y109286D02*
X159535Y183179D01*
X85642Y257071D02*
X159535Y183179D01*
X11750D02*
X85642Y109286D01*
M02*
