G04*
G04 #@! TF.GenerationSoftware,Altium Limited,Altium Designer,19.1.8 (144)*
G04*
G04 Layer_Physical_Order=1*
G04 Layer_Color=255*
%FSLAX44Y44*%
%MOMM*%
G71*
G01*
G75*
G36*
X162160Y423854D02*
X166321Y422131D01*
X170065Y419629D01*
X173249Y416445D01*
X175751Y412701D01*
X177474Y408540D01*
X178353Y404124D01*
Y401872D01*
Y15792D01*
Y13541D01*
X177474Y9125D01*
X175751Y4964D01*
X173249Y1220D01*
X170065Y-1964D01*
X166321Y-4466D01*
X162160Y-6189D01*
X157744Y-7067D01*
X17062D01*
X14686Y-7067D01*
X10024Y-6140D01*
X5633Y-4321D01*
X1681Y-1681D01*
X-1681Y1681D01*
X-4321Y5633D01*
X-6140Y10024D01*
X-7067Y14686D01*
Y17062D01*
X-7067D01*
Y401872D01*
Y404124D01*
X-6189Y408540D01*
X-4466Y412701D01*
X-1964Y416445D01*
X1220Y419629D01*
X4964Y422131D01*
X9125Y423854D01*
X13541Y424733D01*
X157744D01*
X162160Y423854D01*
D02*
G37*
%LPC*%
G36*
X112312Y422228D02*
Y411017D01*
X123524D01*
X123260Y413020D01*
X121996Y416071D01*
X119986Y418690D01*
X117367Y420700D01*
X114316Y421964D01*
X112312Y422228D01*
D02*
G37*
G36*
X109773D02*
X107769Y421964D01*
X104718Y420700D01*
X102099Y418690D01*
X100089Y416071D01*
X98825Y413020D01*
X98484Y410431D01*
X98471Y410326D01*
X97190D01*
X97176Y410431D01*
X96870Y412755D01*
X95709Y415558D01*
X93862Y417966D01*
X91454Y419813D01*
X88651Y420974D01*
X85642Y421370D01*
X82634Y420974D01*
X79831Y419813D01*
X77424Y417966D01*
X75576Y415558D01*
X74415Y412755D01*
X74019Y409747D01*
X74415Y406738D01*
X75576Y403935D01*
X77424Y401527D01*
X79831Y399680D01*
X82634Y398519D01*
X85642Y398123D01*
X88651Y398519D01*
X91454Y399680D01*
X93862Y401527D01*
X95709Y403935D01*
X96870Y406738D01*
X97176Y409062D01*
X97190Y409167D01*
X98471D01*
X98484Y409062D01*
X98825Y406473D01*
X100089Y403422D01*
X102099Y400803D01*
X104718Y398793D01*
X107769Y397529D01*
X110358Y397188D01*
X110463Y397175D01*
Y395894D01*
X110358Y395880D01*
X108034Y395574D01*
X105231Y394413D01*
X102823Y392565D01*
X100976Y390158D01*
X99815Y387355D01*
X99419Y384347D01*
X99815Y381338D01*
X100976Y378535D01*
X102823Y376128D01*
X105231Y374280D01*
X106899Y373589D01*
Y365673D01*
X29678D01*
X28093Y365358D01*
X26748Y364460D01*
X20154Y357865D01*
X18951Y358459D01*
X19288Y361016D01*
X18892Y364025D01*
X17731Y366828D01*
X15884Y369235D01*
X13476Y371082D01*
X10673Y372243D01*
X7664Y372640D01*
X4656Y372243D01*
X1853Y371082D01*
X-554Y369235D01*
X-2402Y366828D01*
X-3563Y364025D01*
X-3959Y361016D01*
X-3563Y358008D01*
X-2402Y355204D01*
X-554Y352797D01*
X1853Y350950D01*
X4656Y349789D01*
X7664Y349393D01*
X10222Y349729D01*
X10815Y348526D01*
X9312Y347023D01*
X7664Y347239D01*
X4656Y346843D01*
X1853Y345682D01*
X-554Y343835D01*
X-2402Y341428D01*
X-3563Y338624D01*
X-3959Y335616D01*
X-3563Y332608D01*
X-2402Y329804D01*
X-554Y327397D01*
X1853Y325550D01*
X4656Y324389D01*
X6980Y324083D01*
X7085Y324069D01*
Y322788D01*
X6980Y322774D01*
X4391Y322433D01*
X1340Y321170D01*
X-1279Y319160D01*
X-3289Y316540D01*
X-4553Y313490D01*
X-4816Y311486D01*
X7664D01*
X20145D01*
X19882Y313490D01*
X18618Y316540D01*
X16608Y319160D01*
X13989Y321170D01*
X10938Y322433D01*
X8349Y322774D01*
X8244Y322788D01*
Y324069D01*
X8349Y324083D01*
X10673Y324389D01*
X13476Y325550D01*
X15884Y327397D01*
X17731Y329804D01*
X18892Y332608D01*
X19288Y335616D01*
X18892Y338624D01*
X17731Y341428D01*
X16735Y342726D01*
X22532Y348523D01*
X23765Y347960D01*
X24119Y346177D01*
X25340Y344350D01*
X27167Y343129D01*
X29323Y342700D01*
X31478Y343129D01*
X33305Y344350D01*
X33688Y344922D01*
X34958D01*
X35340Y344350D01*
X37167Y343129D01*
X39323Y342700D01*
X41478Y343129D01*
X43305Y344350D01*
X44526Y346177D01*
X44955Y348332D01*
X44526Y350488D01*
X43305Y352315D01*
X41478Y353536D01*
X39323Y353965D01*
X37167Y353536D01*
X35340Y352315D01*
X34958Y351743D01*
X33688D01*
X33305Y352315D01*
X31478Y353536D01*
X29695Y353890D01*
X29131Y355123D01*
X31395Y357386D01*
X106899D01*
Y351508D01*
X107214Y349923D01*
X108112Y348578D01*
X111088Y345602D01*
X112433Y344704D01*
X114018Y344389D01*
X118408D01*
Y330499D01*
X139236D01*
Y344389D01*
X148988D01*
X153084Y340293D01*
X152393Y338624D01*
X151997Y335616D01*
X152393Y332608D01*
X152781Y331673D01*
X141426Y320318D01*
X140253Y320804D01*
Y328063D01*
X130092D01*
Y309013D01*
Y289963D01*
X138649D01*
Y269111D01*
X138173Y268792D01*
X137379Y268549D01*
X136250Y269303D01*
X134664Y269618D01*
X133079Y269303D01*
X131735Y268405D01*
X130836Y267060D01*
X130521Y265474D01*
X130836Y263889D01*
X131735Y262544D01*
X133079Y261646D01*
X134664Y261331D01*
X136250Y261646D01*
X137379Y262400D01*
X138173Y262157D01*
X138649Y261838D01*
Y247701D01*
X128853Y237906D01*
X127676Y238498D01*
X127410Y239836D01*
X126652Y240970D01*
X125518Y241728D01*
X124180Y241994D01*
X122842Y241728D01*
X121708Y240970D01*
X116038Y235300D01*
X115051Y236110D01*
X115441Y236693D01*
X115707Y238031D01*
Y246535D01*
X115441Y247873D01*
X114683Y249007D01*
X113549Y249765D01*
X112211Y250031D01*
X110873Y249765D01*
X109739Y249007D01*
X108981Y247873D01*
X108715Y246535D01*
Y245896D01*
X107445Y245217D01*
X107168Y245403D01*
X105830Y245669D01*
X105441D01*
X105441Y245669D01*
X104103Y245403D01*
X102969Y244645D01*
X99025Y240700D01*
X97587Y240414D01*
X96173Y239470D01*
X89455Y232752D01*
X88511Y231338D01*
X88179Y229671D01*
X88511Y228003D01*
X89455Y226589D01*
X90869Y225645D01*
X92537Y225313D01*
X93038Y225413D01*
X93936Y224515D01*
X93836Y224014D01*
X94168Y222346D01*
X95112Y220932D01*
X96526Y219988D01*
X98194Y219656D01*
X98694Y219755D01*
X99592Y218857D01*
X99493Y218357D01*
X99824Y216689D01*
X100769Y215276D01*
X102183Y214331D01*
X103850Y213999D01*
X104351Y214099D01*
X105249Y213201D01*
X105150Y212700D01*
X105482Y211032D01*
X106426Y209619D01*
X107840Y208674D01*
X109508Y208342D01*
X109806Y208402D01*
X110777Y207545D01*
X110783Y206325D01*
X103195Y198737D01*
X102634Y197897D01*
X102437Y196906D01*
Y192079D01*
X101797Y191120D01*
X101531Y189783D01*
X101797Y188445D01*
X102555Y187310D01*
X103689Y186552D01*
X105027Y186286D01*
X106365Y186552D01*
X107499Y187310D01*
X108257Y188445D01*
X108523Y189783D01*
X108257Y191120D01*
X107616Y192079D01*
Y195833D01*
X114584Y202801D01*
X115164Y202686D01*
X115665Y202785D01*
X116563Y201887D01*
X116463Y201386D01*
X116795Y199719D01*
X117740Y198305D01*
X119153Y197360D01*
X120821Y197029D01*
X121120Y197088D01*
X122091Y196231D01*
X122097Y195011D01*
X120068Y192982D01*
X119506Y192142D01*
X119309Y191151D01*
Y188553D01*
X119506Y187562D01*
X120068Y186722D01*
X124578Y182212D01*
X124051Y180942D01*
X106989D01*
X106030Y181583D01*
X104692Y181849D01*
X103355Y181583D01*
X102220Y180825D01*
X101462Y179690D01*
X101196Y178353D01*
X101462Y177015D01*
X102220Y175880D01*
X103199Y175226D01*
X103283Y174543D01*
X103199Y173859D01*
X102220Y173205D01*
X101462Y172070D01*
X101196Y170732D01*
X101462Y169395D01*
X102220Y168260D01*
X102165Y166770D01*
X101488Y166317D01*
X100505Y164847D01*
X100502Y164832D01*
X99232Y164957D01*
Y169477D01*
X99232Y169477D01*
X98917Y171063D01*
X98019Y172407D01*
X86795Y183631D01*
X85450Y184530D01*
X83864Y184845D01*
X82279Y184530D01*
X80934Y183631D01*
X80036Y182287D01*
X79721Y180702D01*
X80036Y179116D01*
X80934Y177771D01*
X90945Y167761D01*
Y145562D01*
X91260Y143976D01*
X92159Y142632D01*
X92554Y142237D01*
X92048Y140947D01*
X90869Y140712D01*
X89455Y139768D01*
X88511Y138354D01*
X88179Y136686D01*
X88511Y135019D01*
X89455Y133605D01*
X96173Y126887D01*
X97587Y125943D01*
X99254Y125611D01*
X99834Y125726D01*
X130117Y95443D01*
Y65497D01*
X129230Y64594D01*
X128847Y64594D01*
X121711D01*
Y56554D01*
Y48514D01*
X128551D01*
X128723Y48305D01*
X129117Y46322D01*
X130240Y44642D01*
X131920Y43519D01*
X132633Y43378D01*
Y48305D01*
X133903D01*
Y49574D01*
X138829D01*
X138688Y50287D01*
X138680Y50298D01*
X139667Y51107D01*
X153811Y36963D01*
X153554Y36628D01*
X152393Y33825D01*
X151997Y30816D01*
X152393Y27808D01*
X153554Y25004D01*
X155401Y22597D01*
X157809Y20750D01*
X160612Y19589D01*
X163620Y19193D01*
X166629Y19589D01*
X169432Y20750D01*
X171840Y22597D01*
X173687Y25004D01*
X174848Y27808D01*
X175244Y30816D01*
X174848Y33825D01*
X173687Y36628D01*
X171840Y39035D01*
X169432Y40882D01*
X166629Y42043D01*
X163620Y42439D01*
X160612Y42043D01*
X157809Y40882D01*
X157474Y40625D01*
X135297Y62802D01*
Y96516D01*
X135100Y97507D01*
X134538Y98348D01*
X108477Y124409D01*
X108895Y125787D01*
X109205Y125849D01*
X110340Y126606D01*
X111098Y127741D01*
X111364Y129079D01*
X111098Y130416D01*
X110340Y131551D01*
X110117Y131699D01*
Y133009D01*
X109920Y134000D01*
X109359Y134840D01*
X109154Y135045D01*
X109269Y135626D01*
X109210Y135925D01*
X110067Y136895D01*
X111287Y136901D01*
X117603Y130585D01*
X118443Y130023D01*
X119434Y129826D01*
X152338D01*
X152393Y129408D01*
X153554Y126604D01*
X155401Y124197D01*
X157809Y122350D01*
X160612Y121189D01*
X163620Y120793D01*
X166629Y121189D01*
X169432Y122350D01*
X171840Y124197D01*
X173687Y126604D01*
X174848Y129408D01*
X175244Y132416D01*
X174848Y135424D01*
X173687Y138228D01*
X171840Y140635D01*
X169432Y142482D01*
X166629Y143644D01*
X163620Y144039D01*
X160612Y143644D01*
X157809Y142482D01*
X155401Y140635D01*
X153554Y138228D01*
X152393Y135424D01*
X152338Y135006D01*
X120507D01*
X114810Y140702D01*
X114926Y141282D01*
X114866Y141582D01*
X115723Y142553D01*
X116943Y142559D01*
X121081Y138421D01*
X121921Y137860D01*
X122912Y137663D01*
X140496D01*
X141455Y137022D01*
X142793Y136756D01*
X144130Y137022D01*
X145265Y137780D01*
X146023Y138915D01*
X146289Y140253D01*
X146023Y141590D01*
X145265Y142725D01*
X144130Y143483D01*
X142793Y143749D01*
X141455Y143483D01*
X140496Y142842D01*
X123985D01*
X120681Y146146D01*
X121145Y147349D01*
X121882Y147202D01*
X123946Y147613D01*
X124619Y148063D01*
X117625Y155057D01*
X119421Y156853D01*
X126415Y149859D01*
X126865Y150532D01*
X127275Y152596D01*
X127128Y153336D01*
X128331Y153798D01*
X134915Y147214D01*
X135755Y146653D01*
X136746Y146456D01*
X141749D01*
X142708Y145816D01*
X144046Y145550D01*
X145384Y145816D01*
X146518Y146574D01*
X147276Y147708D01*
X147542Y149046D01*
X147276Y150384D01*
X146518Y151518D01*
X145384Y152276D01*
X144046Y152542D01*
X142708Y152276D01*
X141749Y151636D01*
X137819D01*
X131781Y157673D01*
X131896Y158253D01*
X131797Y158753D01*
X132695Y159651D01*
X133195Y159552D01*
X134863Y159884D01*
X136277Y160828D01*
X137221Y162242D01*
X137553Y163910D01*
X137453Y164411D01*
X138351Y165309D01*
X138852Y165209D01*
X140520Y165541D01*
X141934Y166485D01*
X142878Y167899D01*
X143210Y169567D01*
X142878Y171234D01*
X141934Y172648D01*
X135225Y179356D01*
X135226Y179396D01*
X135615Y180626D01*
X138221D01*
X139212Y180823D01*
X140052Y181385D01*
X157474Y198807D01*
X157809Y198550D01*
X160612Y197389D01*
X163620Y196993D01*
X166629Y197389D01*
X169432Y198550D01*
X171840Y200397D01*
X173687Y202804D01*
X174848Y205608D01*
X175244Y208616D01*
X174848Y211625D01*
X173687Y214428D01*
X171840Y216835D01*
X169432Y218682D01*
X166629Y219844D01*
X163620Y220240D01*
X160612Y219844D01*
X157809Y218682D01*
X155401Y216835D01*
X153554Y214428D01*
X152393Y211625D01*
X152113Y209499D01*
X150843Y209582D01*
Y221968D01*
X154717Y225842D01*
X155401Y225797D01*
X157809Y223950D01*
X160612Y222789D01*
X163620Y222393D01*
X166629Y222789D01*
X169432Y223950D01*
X171840Y225797D01*
X173687Y228204D01*
X174848Y231008D01*
X175244Y234016D01*
X174848Y237024D01*
X173687Y239828D01*
X171840Y242235D01*
X169432Y244082D01*
X166629Y245243D01*
X163620Y245639D01*
X160612Y245243D01*
X157809Y244082D01*
X155401Y242235D01*
X153554Y239828D01*
X152393Y237024D01*
X151997Y234016D01*
X152393Y231008D01*
X152442Y230891D01*
X147234Y225683D01*
X147066Y225642D01*
X145668Y225914D01*
X145265Y226518D01*
X144130Y227276D01*
X142793Y227542D01*
X141455Y227276D01*
X140320Y226518D01*
X139563Y225384D01*
X139296Y224046D01*
X139354Y223753D01*
X135131Y219530D01*
X133961Y220156D01*
X133982Y220263D01*
X133667Y221848D01*
X132768Y223193D01*
X131424Y224091D01*
X129838Y224406D01*
X128629Y224165D01*
X128001Y225334D01*
X145723Y243055D01*
X146621Y244399D01*
X146936Y245985D01*
Y314108D01*
X158211Y325383D01*
X160612Y324389D01*
X163620Y323993D01*
X166629Y324389D01*
X169432Y325550D01*
X171840Y327397D01*
X173687Y329804D01*
X174848Y332608D01*
X175244Y335616D01*
X174848Y338624D01*
X173687Y341428D01*
X171840Y343835D01*
X169432Y345682D01*
X166629Y346843D01*
X164305Y347149D01*
X164200Y347163D01*
Y348444D01*
X164305Y348458D01*
X166894Y348799D01*
X169945Y350062D01*
X172564Y352072D01*
X174574Y354692D01*
X175838Y357743D01*
X176101Y359746D01*
X163620D01*
X151139D01*
X151403Y357743D01*
X152667Y354692D01*
X154329Y352525D01*
X153449Y351586D01*
X152290Y352361D01*
X150704Y352676D01*
X139236D01*
Y366567D01*
X118408D01*
Y352676D01*
X115735D01*
X115186Y353225D01*
Y361530D01*
Y373589D01*
X116854Y374280D01*
X119262Y376128D01*
X121109Y378535D01*
X122270Y381338D01*
X122666Y384347D01*
X122270Y387355D01*
X121109Y390158D01*
X119262Y392565D01*
X116854Y394413D01*
X114051Y395574D01*
X111727Y395880D01*
X111622Y395894D01*
Y397175D01*
X111727Y397188D01*
X114316Y397529D01*
X117367Y398793D01*
X119986Y400803D01*
X121996Y403422D01*
X123260Y406473D01*
X123524Y408476D01*
X111042D01*
Y409747D01*
X109773D01*
Y422228D01*
D02*
G37*
G36*
X60243Y421370D02*
X57234Y420974D01*
X54431Y419813D01*
X52024Y417966D01*
X50176Y415558D01*
X49015Y412755D01*
X48619Y409747D01*
X49015Y406738D01*
X50176Y403935D01*
X52024Y401527D01*
X54431Y399680D01*
X57234Y398519D01*
X60243Y398123D01*
X63251Y398519D01*
X66054Y399680D01*
X68461Y401527D01*
X70309Y403935D01*
X71470Y406738D01*
X71866Y409747D01*
X71470Y412755D01*
X70309Y415558D01*
X68461Y417966D01*
X66054Y419813D01*
X63251Y420974D01*
X60243Y421370D01*
D02*
G37*
G36*
X138177Y392931D02*
X136591Y392616D01*
X135247Y391718D01*
X134349Y390373D01*
X134033Y388788D01*
X134349Y387202D01*
X135247Y385858D01*
X136591Y384959D01*
X138177Y384644D01*
X139763Y384959D01*
X141107Y385858D01*
X142005Y387202D01*
X142321Y388788D01*
X142005Y390373D01*
X141107Y391718D01*
X139763Y392616D01*
X138177Y392931D01*
D02*
G37*
G36*
X7664Y398040D02*
X4656Y397644D01*
X1853Y396482D01*
X-554Y394635D01*
X-2402Y392228D01*
X-3563Y389425D01*
X-3959Y386416D01*
X-3563Y383408D01*
X-2402Y380604D01*
X-554Y378197D01*
X1853Y376350D01*
X4656Y375189D01*
X7664Y374793D01*
X10673Y375189D01*
X13476Y376350D01*
X15884Y378197D01*
X17731Y380604D01*
X18892Y383408D01*
X19288Y386416D01*
X18892Y389425D01*
X17731Y392228D01*
X15884Y394635D01*
X13476Y396482D01*
X10673Y397644D01*
X7664Y398040D01*
D02*
G37*
G36*
X85642Y395970D02*
X82634Y395574D01*
X79831Y394413D01*
X77424Y392565D01*
X75576Y390158D01*
X74415Y387355D01*
X74019Y384347D01*
X74415Y381338D01*
X75576Y378535D01*
X77424Y376128D01*
X79831Y374280D01*
X82634Y373119D01*
X85642Y372723D01*
X88651Y373119D01*
X91454Y374280D01*
X93862Y376128D01*
X95709Y378535D01*
X96870Y381338D01*
X97266Y384347D01*
X96870Y387355D01*
X95709Y390158D01*
X93862Y392565D01*
X91454Y394413D01*
X88651Y395574D01*
X85642Y395970D01*
D02*
G37*
G36*
X60243D02*
X57234Y395574D01*
X54431Y394413D01*
X52024Y392565D01*
X50176Y390158D01*
X49015Y387355D01*
X48619Y384347D01*
X49015Y381338D01*
X50176Y378535D01*
X52024Y376128D01*
X54431Y374280D01*
X57234Y373119D01*
X60243Y372723D01*
X63251Y373119D01*
X66054Y374280D01*
X68461Y376128D01*
X70309Y378535D01*
X71470Y381338D01*
X71866Y384347D01*
X71470Y387355D01*
X70309Y390158D01*
X68461Y392565D01*
X66054Y394413D01*
X63251Y395574D01*
X60243Y395970D01*
D02*
G37*
G36*
X163620Y398040D02*
X160612Y397644D01*
X157809Y396482D01*
X155401Y394635D01*
X153554Y392228D01*
X152393Y389425D01*
X151997Y386416D01*
X152393Y383408D01*
X153554Y380604D01*
X155401Y378197D01*
X157809Y376350D01*
X160612Y375189D01*
X162936Y374883D01*
X163041Y374869D01*
Y373588D01*
X162936Y373574D01*
X160347Y373233D01*
X157296Y371970D01*
X154677Y369960D01*
X152667Y367340D01*
X151403Y364290D01*
X151139Y362286D01*
X163620D01*
X176101D01*
X175838Y364290D01*
X174574Y367340D01*
X172564Y369960D01*
X169945Y371970D01*
X166894Y373233D01*
X164305Y373574D01*
X164200Y373588D01*
Y374869D01*
X164305Y374883D01*
X166629Y375189D01*
X169432Y376350D01*
X171840Y378197D01*
X173687Y380604D01*
X174848Y383408D01*
X175244Y386416D01*
X174848Y389425D01*
X173687Y392228D01*
X171840Y394635D01*
X169432Y396482D01*
X166629Y397644D01*
X163620Y398040D01*
D02*
G37*
G36*
X90460Y351082D02*
X81690D01*
Y343312D01*
X90460D01*
Y351082D01*
D02*
G37*
G36*
X79150D02*
X70380D01*
Y343312D01*
X79150D01*
Y351082D01*
D02*
G37*
G36*
X69012D02*
X60243D01*
Y343312D01*
X69012D01*
Y351082D01*
D02*
G37*
G36*
X57702D02*
X48932D01*
Y343312D01*
X57702D01*
Y351082D01*
D02*
G37*
G36*
X39323Y341465D02*
X37167Y341036D01*
X35340Y339815D01*
X34958Y339243D01*
X33688D01*
X33305Y339815D01*
X31478Y341036D01*
X29323Y341465D01*
X27167Y341036D01*
X25340Y339815D01*
X24119Y337988D01*
X23690Y335832D01*
X24119Y333677D01*
X25340Y331850D01*
X27167Y330629D01*
X29323Y330200D01*
X31478Y330629D01*
X33305Y331850D01*
X33688Y332422D01*
X34958D01*
X35340Y331850D01*
X37167Y330629D01*
X39323Y330200D01*
X41478Y330629D01*
X43305Y331850D01*
X44526Y333677D01*
X44955Y335832D01*
X44526Y337988D01*
X43305Y339815D01*
X41478Y341036D01*
X39323Y341465D01*
D02*
G37*
G36*
Y328965D02*
X37167Y328536D01*
X35340Y327315D01*
X34958Y326743D01*
X33688D01*
X33305Y327315D01*
X31478Y328536D01*
X29323Y328965D01*
X27167Y328536D01*
X25340Y327315D01*
X24119Y325488D01*
X23690Y323333D01*
X24119Y321177D01*
X25340Y319350D01*
X27167Y318129D01*
X29323Y317700D01*
X31478Y318129D01*
X33305Y319350D01*
X33688Y319922D01*
X34958D01*
X35340Y319350D01*
X37167Y318129D01*
X39323Y317700D01*
X41478Y318129D01*
X43305Y319350D01*
X44526Y321177D01*
X44955Y323333D01*
X44526Y325488D01*
X43305Y327315D01*
X41478Y328536D01*
X39323Y328965D01*
D02*
G37*
G36*
X127552Y328063D02*
X117393D01*
Y310283D01*
X127552D01*
Y328063D01*
D02*
G37*
G36*
X27222Y312172D02*
Y309163D01*
X30232D01*
X30140Y309627D01*
X29157Y311097D01*
X27687Y312080D01*
X27222Y312172D01*
D02*
G37*
G36*
X24683D02*
X24218Y312080D01*
X22748Y311097D01*
X21765Y309627D01*
X21673Y309163D01*
X24683D01*
Y312172D01*
D02*
G37*
G36*
X30232Y306623D02*
X27222D01*
Y303613D01*
X27687Y303705D01*
X29157Y304688D01*
X30140Y306158D01*
X30232Y306623D01*
D02*
G37*
G36*
X24683D02*
X21673D01*
X21765Y306158D01*
X22748Y304688D01*
X24218Y303705D01*
X24683Y303613D01*
Y306623D01*
D02*
G37*
G36*
X48675Y315550D02*
X42828Y309702D01*
X49383Y303147D01*
X55230Y308995D01*
X48675Y315550D01*
D02*
G37*
G36*
X69894Y306563D02*
X68557Y306297D01*
X67422Y305539D01*
X66665Y304404D01*
X66398Y303067D01*
X66665Y301729D01*
X67422Y300594D01*
X68557Y299837D01*
X69894Y299570D01*
X71232Y299837D01*
X72367Y300594D01*
X73124Y301729D01*
X73391Y303067D01*
X73124Y304404D01*
X72367Y305539D01*
X71232Y306297D01*
X69894Y306563D01*
D02*
G37*
G36*
X163620Y321839D02*
X160612Y321443D01*
X157809Y320282D01*
X155401Y318435D01*
X153554Y316028D01*
X152393Y313225D01*
X151997Y310216D01*
X152393Y307208D01*
X153554Y304404D01*
X155401Y301997D01*
X157809Y300150D01*
X160612Y298989D01*
X163620Y298593D01*
X166629Y298989D01*
X169432Y300150D01*
X171840Y301997D01*
X173687Y304404D01*
X174848Y307208D01*
X175244Y310216D01*
X174848Y313225D01*
X173687Y316028D01*
X171840Y318435D01*
X169432Y320282D01*
X166629Y321443D01*
X163620Y321839D01*
D02*
G37*
G36*
X127552Y307743D02*
X117393D01*
Y289963D01*
X127552D01*
Y307743D01*
D02*
G37*
G36*
X90460Y340772D02*
X70380D01*
Y333180D01*
X70380Y333180D01*
Y333002D01*
X71396Y332389D01*
X71396Y331732D01*
Y316519D01*
X77830D01*
Y300854D01*
X62980Y286003D01*
X57354D01*
X56362Y285806D01*
X55522Y285245D01*
X28700Y258422D01*
X27526Y258908D01*
Y276086D01*
X29503Y278063D01*
X34534Y273033D01*
X46588Y285087D01*
X46588D01*
X47640Y285615D01*
X51142D01*
X52133Y285812D01*
X52973Y286373D01*
X64360Y297761D01*
X64922Y298601D01*
X65119Y299592D01*
Y316519D01*
X67997D01*
X67997Y332389D01*
X69013Y333002D01*
X69012Y333180D01*
X69012Y333180D01*
Y340772D01*
X48932D01*
Y333180D01*
X48932Y333180D01*
Y333002D01*
X49949Y332389D01*
X49949Y331732D01*
Y316519D01*
X59939D01*
Y305945D01*
X58766Y305459D01*
X57026Y307199D01*
X50280Y300453D01*
X49383Y301351D01*
X48485Y300453D01*
X41032Y307906D01*
X35184Y302058D01*
X42096Y295146D01*
X41610Y293972D01*
X39922D01*
X38931Y293775D01*
X38314Y293362D01*
X33119Y298556D01*
X21065Y286502D01*
X25841Y281725D01*
X23105Y278990D01*
X22544Y278150D01*
X22347Y277159D01*
Y204286D01*
X22544Y203295D01*
X23105Y202455D01*
X28190Y197370D01*
X28075Y196790D01*
X28407Y195123D01*
X29351Y193709D01*
X36069Y186991D01*
X37483Y186047D01*
X39150Y185715D01*
X40818Y186047D01*
X42232Y186991D01*
X43176Y188405D01*
X43508Y190073D01*
X43408Y190574D01*
X44306Y191472D01*
X44807Y191372D01*
X46475Y191704D01*
X47889Y192648D01*
X48833Y194062D01*
X49165Y195730D01*
X49065Y196230D01*
X49963Y197128D01*
X50464Y197029D01*
X52132Y197360D01*
X53545Y198305D01*
X54490Y199719D01*
X54822Y201386D01*
X55257Y201822D01*
X56121Y201650D01*
X58185Y202060D01*
X58858Y202510D01*
X51864Y209504D01*
X53660Y211300D01*
X60654Y204306D01*
X61104Y204979D01*
X61227Y205595D01*
X62604Y206013D01*
X72621Y195996D01*
X73965Y195098D01*
X75551Y194783D01*
X81833D01*
X83418Y195098D01*
X84762Y195996D01*
X85661Y197341D01*
X85976Y198927D01*
X85661Y200512D01*
X84762Y201856D01*
X83418Y202755D01*
X81833Y203070D01*
X77267D01*
X68464Y211873D01*
X68882Y213251D01*
X69499Y213374D01*
X70172Y213824D01*
X63178Y220818D01*
X64974Y222614D01*
X71968Y215620D01*
X72418Y216293D01*
X72828Y218357D01*
X72656Y219221D01*
X73091Y219656D01*
X74759Y219988D01*
X76173Y220932D01*
X77117Y222346D01*
X77449Y224014D01*
X77349Y224515D01*
X78247Y225413D01*
X78748Y225313D01*
X80416Y225645D01*
X81830Y226589D01*
X82774Y228003D01*
X83106Y229671D01*
X82774Y231338D01*
X81830Y232752D01*
X75112Y239470D01*
X73698Y240414D01*
X72429Y240667D01*
X68451Y244645D01*
X68401Y244678D01*
X68276Y245942D01*
X70080Y247745D01*
X63525Y254300D01*
X57677Y248452D01*
X62727Y243402D01*
X62482Y242173D01*
X62748Y240835D01*
X63141Y240247D01*
X62155Y239437D01*
X57339Y244253D01*
X56205Y245011D01*
X54866Y245277D01*
X54740D01*
X54062Y246547D01*
X54226Y246793D01*
X54492Y248131D01*
X54226Y249469D01*
X53468Y250603D01*
X52334Y251361D01*
X50996Y251627D01*
X49658Y251361D01*
X48524Y250603D01*
X47766Y249469D01*
X47500Y248131D01*
X47766Y246793D01*
X47930Y246547D01*
X47251Y245277D01*
X41448D01*
X40111Y245011D01*
X38976Y244253D01*
X38219Y243119D01*
X37952Y241781D01*
X38219Y240443D01*
X38867Y239473D01*
X38680Y238789D01*
X38346Y238203D01*
X35791D01*
X34206Y237887D01*
X32861Y236989D01*
X32352Y236227D01*
X31082Y236612D01*
Y253480D01*
X58426Y280824D01*
X62980D01*
X68882Y274922D01*
X66319Y272359D01*
X79189Y259490D01*
X79406Y259272D01*
X79360Y258803D01*
X78602Y257668D01*
X78376Y256532D01*
X77828Y256222D01*
X77744Y256175D01*
X77106Y256007D01*
X76996Y256116D01*
X71168Y261944D01*
X65321Y256096D01*
X71876Y249541D01*
X77081Y254747D01*
X77311Y254977D01*
X77311D01*
X78013Y254932D01*
X79089Y254264D01*
X79360Y253858D01*
X80495Y253100D01*
X81833Y252834D01*
X83170Y253100D01*
X84305Y253858D01*
X85063Y254993D01*
X85329Y256331D01*
X85063Y257668D01*
X84305Y258803D01*
X83170Y259561D01*
X82406Y259713D01*
X81943Y261045D01*
X91843Y270945D01*
X78374Y284414D01*
X72544Y278584D01*
X67715Y283414D01*
X82251Y297950D01*
X82812Y298790D01*
X83010Y299781D01*
Y316519D01*
X89444D01*
X89444Y332389D01*
X90460Y333002D01*
X90460Y333180D01*
X90460Y333180D01*
Y340772D01*
D02*
G37*
G36*
X163620Y296439D02*
X160612Y296043D01*
X157809Y294882D01*
X155401Y293035D01*
X153554Y290628D01*
X152393Y287824D01*
X151997Y284816D01*
X152393Y281808D01*
X153554Y279004D01*
X155401Y276597D01*
X157809Y274750D01*
X160612Y273589D01*
X163620Y273193D01*
X166629Y273589D01*
X169432Y274750D01*
X171840Y276597D01*
X173687Y279004D01*
X174848Y281808D01*
X175244Y284816D01*
X174848Y287824D01*
X173687Y290628D01*
X171840Y293035D01*
X169432Y294882D01*
X166629Y296043D01*
X163620Y296439D01*
D02*
G37*
G36*
X20145Y308946D02*
X7664D01*
X-4816D01*
X-4553Y306943D01*
X-3289Y303892D01*
X-1279Y301272D01*
X1340Y299262D01*
X4391Y297999D01*
X6980Y297658D01*
X7085Y297644D01*
Y296363D01*
X6980Y296349D01*
X4656Y296043D01*
X1853Y294882D01*
X-554Y293035D01*
X-2402Y290628D01*
X-3563Y287824D01*
X-3959Y284816D01*
X-3563Y281808D01*
X-2402Y279004D01*
X-554Y276597D01*
X1853Y274750D01*
X4656Y273589D01*
X7664Y273193D01*
X10673Y273589D01*
X13476Y274750D01*
X15884Y276597D01*
X17731Y279004D01*
X18892Y281808D01*
X19288Y284816D01*
X18892Y287824D01*
X17731Y290628D01*
X15884Y293035D01*
X13476Y294882D01*
X10673Y296043D01*
X8349Y296349D01*
X8244Y296363D01*
Y297644D01*
X8349Y297658D01*
X10938Y297999D01*
X13989Y299262D01*
X16608Y301272D01*
X18618Y303892D01*
X19882Y306943D01*
X20145Y308946D01*
D02*
G37*
G36*
X97326Y273035D02*
X95989Y272768D01*
X94854Y272011D01*
X94096Y270876D01*
X93830Y269538D01*
X94096Y268201D01*
X94854Y267066D01*
X95989Y266308D01*
X97326Y266042D01*
X98664Y266308D01*
X99799Y267066D01*
X100556Y268201D01*
X100823Y269538D01*
X100556Y270876D01*
X99799Y272011D01*
X98664Y272768D01*
X97326Y273035D01*
D02*
G37*
G36*
X62818Y270295D02*
X56970Y264447D01*
X63525Y257892D01*
X69373Y263740D01*
X62818Y270295D01*
D02*
G37*
G36*
X55174Y262651D02*
X49326Y256803D01*
X55881Y250249D01*
X61729Y256096D01*
X55174Y262651D01*
D02*
G37*
G36*
X163620Y271040D02*
X160612Y270644D01*
X157809Y269482D01*
X155401Y267635D01*
X153554Y265228D01*
X152393Y262425D01*
X151997Y259416D01*
X152393Y256408D01*
X153554Y253604D01*
X155401Y251197D01*
X157809Y249350D01*
X160612Y248189D01*
X163620Y247793D01*
X166629Y248189D01*
X169432Y249350D01*
X171840Y251197D01*
X173687Y253604D01*
X174848Y256408D01*
X175244Y259416D01*
X174848Y262425D01*
X173687Y265228D01*
X171840Y267635D01*
X169432Y269482D01*
X166629Y270644D01*
X163620Y271040D01*
D02*
G37*
G36*
X7664D02*
X4656Y270644D01*
X1853Y269482D01*
X-554Y267635D01*
X-2402Y265228D01*
X-3563Y262425D01*
X-3959Y259416D01*
X-3563Y256408D01*
X-2402Y253604D01*
X-554Y251197D01*
X1853Y249350D01*
X4656Y248189D01*
X7664Y247793D01*
X10673Y248189D01*
X13476Y249350D01*
X15884Y251197D01*
X17731Y253604D01*
X18892Y256408D01*
X19288Y259416D01*
X18892Y262425D01*
X17731Y265228D01*
X15884Y267635D01*
X13476Y269482D01*
X10673Y270644D01*
X7664Y271040D01*
D02*
G37*
G36*
Y245639D02*
X4656Y245243D01*
X1853Y244082D01*
X-554Y242235D01*
X-2402Y239828D01*
X-3563Y237024D01*
X-3959Y234016D01*
X-3563Y231008D01*
X-2402Y228204D01*
X-554Y225797D01*
X1853Y223950D01*
X4656Y222789D01*
X7664Y222393D01*
X10673Y222789D01*
X13476Y223950D01*
X15884Y225797D01*
X17731Y228204D01*
X18892Y231008D01*
X19288Y234016D01*
X18892Y237024D01*
X17731Y239828D01*
X15884Y242235D01*
X13476Y244082D01*
X10673Y245243D01*
X7664Y245639D01*
D02*
G37*
G36*
X68878Y188199D02*
X67541Y187932D01*
X66406Y187175D01*
X65648Y186040D01*
X65382Y184702D01*
X65648Y183365D01*
X66406Y182230D01*
X67541Y181472D01*
X68878Y181206D01*
X70216Y181472D01*
X71351Y182230D01*
X72108Y183365D01*
X72375Y184702D01*
X72108Y186040D01*
X71351Y187175D01*
X70216Y187932D01*
X68878Y188199D01*
D02*
G37*
G36*
X163620Y194839D02*
X160612Y194443D01*
X157809Y193282D01*
X155401Y191435D01*
X153554Y189028D01*
X152393Y186224D01*
X151997Y183216D01*
X152393Y180208D01*
X153554Y177404D01*
X155401Y174997D01*
X157809Y173150D01*
X160612Y171989D01*
X163620Y171593D01*
X166629Y171989D01*
X169432Y173150D01*
X171840Y174997D01*
X173687Y177404D01*
X174848Y180208D01*
X175244Y183216D01*
X174848Y186224D01*
X173687Y189028D01*
X171840Y191435D01*
X169432Y193282D01*
X166629Y194443D01*
X163620Y194839D01*
D02*
G37*
G36*
X7664Y220240D02*
X4656Y219844D01*
X1853Y218682D01*
X-554Y216835D01*
X-2402Y214428D01*
X-3563Y211625D01*
X-3959Y208616D01*
X-3563Y205608D01*
X-2402Y202804D01*
X-554Y200397D01*
X1853Y198550D01*
X4656Y197389D01*
X7664Y196993D01*
X10673Y197389D01*
X13476Y198550D01*
X13811Y198807D01*
X20823Y191795D01*
Y171276D01*
X20635Y171112D01*
X19632Y170671D01*
X15848Y174455D01*
X15884Y174997D01*
X17731Y177404D01*
X18892Y180208D01*
X19288Y183216D01*
X18892Y186224D01*
X17731Y189028D01*
X15884Y191435D01*
X13476Y193282D01*
X10673Y194443D01*
X7664Y194839D01*
X4656Y194443D01*
X1853Y193282D01*
X-554Y191435D01*
X-2402Y189028D01*
X-3563Y186224D01*
X-3959Y183216D01*
X-3563Y180208D01*
X-2402Y177404D01*
X-554Y174997D01*
X1853Y173150D01*
X4656Y171989D01*
X7664Y171593D01*
X10673Y171989D01*
X10897Y172081D01*
X13894Y169084D01*
X13175Y168007D01*
X10673Y169044D01*
X7664Y169440D01*
X4656Y169044D01*
X1853Y167882D01*
X-554Y166035D01*
X-2402Y163628D01*
X-3563Y160825D01*
X-3959Y157816D01*
X-3563Y154808D01*
X-2402Y152004D01*
X-554Y149597D01*
X1853Y147750D01*
X4656Y146589D01*
X7664Y146193D01*
X10673Y146589D01*
X13476Y147750D01*
X15884Y149597D01*
X17731Y152004D01*
X18892Y154808D01*
X18903Y154893D01*
X20206Y155056D01*
X22870Y152391D01*
X22929Y152352D01*
X22925Y151735D01*
X22752Y150943D01*
X22080Y150494D01*
X13811Y142225D01*
X13476Y142482D01*
X10673Y143644D01*
X7664Y144039D01*
X4656Y143644D01*
X1853Y142482D01*
X-554Y140635D01*
X-2402Y138228D01*
X-3563Y135424D01*
X-3959Y132416D01*
X-3563Y129408D01*
X-2402Y126604D01*
X-554Y124197D01*
X1853Y122350D01*
X4656Y121189D01*
X7664Y120793D01*
X10673Y121189D01*
X13476Y122350D01*
X15884Y124197D01*
X17731Y126604D01*
X18892Y129408D01*
X19288Y132416D01*
X18892Y135424D01*
X17731Y138228D01*
X17474Y138563D01*
X24984Y146073D01*
X45470D01*
X46461Y146270D01*
X47301Y146831D01*
X48823Y148354D01*
X49403Y148238D01*
X49904Y148338D01*
X50802Y147440D01*
X50702Y146939D01*
X50818Y146359D01*
X48571Y144112D01*
X27222D01*
X26231Y143915D01*
X25391Y143354D01*
X21581Y139544D01*
X21020Y138704D01*
X20823Y137712D01*
Y123837D01*
X13811Y116825D01*
X13476Y117082D01*
X10673Y118244D01*
X7664Y118639D01*
X4656Y118244D01*
X1853Y117082D01*
X-554Y115235D01*
X-2402Y112828D01*
X-3563Y110024D01*
X-3959Y107016D01*
X-3563Y104008D01*
X-2402Y101204D01*
X-554Y98797D01*
X1853Y96950D01*
X4656Y95789D01*
X7664Y95393D01*
X10673Y95789D01*
X13476Y96950D01*
X14981Y98104D01*
X16251Y97478D01*
Y93865D01*
X13811Y91425D01*
X13476Y91682D01*
X10673Y92844D01*
X7664Y93239D01*
X4656Y92844D01*
X1853Y91682D01*
X-554Y89835D01*
X-2402Y87428D01*
X-3563Y84625D01*
X-3959Y81616D01*
X-3563Y78608D01*
X-2402Y75804D01*
X-554Y73397D01*
X1853Y71550D01*
X4656Y70389D01*
X7664Y69993D01*
X10673Y70389D01*
X13476Y71550D01*
X15884Y73397D01*
X17731Y75804D01*
X18892Y78608D01*
X19288Y81616D01*
X18892Y84625D01*
X17731Y87428D01*
X17474Y87763D01*
X19553Y89842D01*
X20823Y89316D01*
Y73037D01*
X13811Y66025D01*
X13476Y66282D01*
X10673Y67443D01*
X7664Y67839D01*
X4656Y67443D01*
X1853Y66282D01*
X-554Y64435D01*
X-2402Y62028D01*
X-3563Y59225D01*
X-3959Y56216D01*
X-3563Y53208D01*
X-2402Y50404D01*
X-554Y47997D01*
X1853Y46150D01*
X4656Y44989D01*
X7664Y44593D01*
X10673Y44989D01*
X13476Y46150D01*
X15884Y47997D01*
X17731Y50404D01*
X18892Y53208D01*
X19288Y56216D01*
X18892Y59225D01*
X17731Y62028D01*
X17474Y62363D01*
X23639Y68528D01*
X25017Y68110D01*
X25027Y68059D01*
X21454Y64487D01*
X20893Y63647D01*
X20696Y62656D01*
Y47510D01*
X13811Y40625D01*
X13476Y40882D01*
X10673Y42043D01*
X7664Y42439D01*
X4656Y42043D01*
X1853Y40882D01*
X-554Y39035D01*
X-2402Y36628D01*
X-3563Y33825D01*
X-3959Y30816D01*
X-3563Y27808D01*
X-2402Y25004D01*
X-554Y22597D01*
X1853Y20750D01*
X4656Y19589D01*
X7664Y19193D01*
X10673Y19589D01*
X13476Y20750D01*
X15884Y22597D01*
X17731Y25004D01*
X18892Y27808D01*
X19288Y30816D01*
X18892Y33825D01*
X17731Y36628D01*
X17474Y36963D01*
X25117Y44606D01*
X25678Y45446D01*
X25875Y46437D01*
Y49651D01*
X27145Y50330D01*
X27409Y50155D01*
X28747Y49888D01*
X30084Y50155D01*
X31219Y50912D01*
X31976Y52047D01*
X32243Y53384D01*
X31976Y54722D01*
X31595Y55293D01*
Y60079D01*
X37365Y65848D01*
X37365Y65848D01*
X37982Y66772D01*
X38199Y67863D01*
X38199Y67863D01*
Y77206D01*
X39769D01*
Y73031D01*
X55317D01*
Y87079D01*
X39769D01*
Y82903D01*
X36838D01*
X35748Y82686D01*
X34824Y82069D01*
X34824Y82069D01*
X33336Y80581D01*
X32719Y79657D01*
X32502Y78567D01*
X32502Y78566D01*
Y70281D01*
X32406Y70217D01*
X31136Y70896D01*
Y94722D01*
X41754Y105340D01*
X42315Y106180D01*
X42512Y107171D01*
Y111748D01*
X53187Y122423D01*
X67075D01*
X68066Y122620D01*
X68906Y123181D01*
X71451Y125726D01*
X72031Y125611D01*
X73698Y125943D01*
X75112Y126887D01*
X81830Y133605D01*
X82774Y135019D01*
X83106Y136686D01*
X82991Y137266D01*
X85188Y139463D01*
X85749Y140303D01*
X85946Y141294D01*
Y145830D01*
X86587Y146789D01*
X86853Y148126D01*
X86587Y149464D01*
X85829Y150599D01*
X84694Y151356D01*
X83357Y151623D01*
X82019Y151356D01*
X80884Y150599D01*
X80126Y149464D01*
X79860Y148126D01*
X80126Y146789D01*
X80767Y145830D01*
Y142367D01*
X79328Y140929D01*
X78748Y141044D01*
X78247Y140944D01*
X77349Y141842D01*
X77449Y142343D01*
X77313Y143028D01*
X77621Y143490D01*
X77818Y144481D01*
Y152642D01*
X84072Y158896D01*
X85202Y159121D01*
X86337Y159878D01*
X87094Y161013D01*
X87361Y162351D01*
X87094Y163688D01*
X86337Y164823D01*
X85202Y165581D01*
X83864Y165847D01*
X82527Y165581D01*
X81392Y164823D01*
X80634Y163688D01*
X80410Y162558D01*
X73397Y155546D01*
X72836Y154706D01*
X72639Y153715D01*
Y150723D01*
X72405Y150541D01*
X70693Y150816D01*
X70516Y151081D01*
X69102Y152026D01*
X67435Y152358D01*
X66934Y152258D01*
X66036Y153156D01*
X66135Y153657D01*
X65804Y155325D01*
X64859Y156738D01*
X63445Y157683D01*
X61778Y158015D01*
X61277Y157915D01*
X60379Y158813D01*
X60479Y159313D01*
X60147Y160981D01*
X59202Y162395D01*
X57789Y163340D01*
X56121Y163671D01*
X55620Y163572D01*
X54722Y164470D01*
X54822Y164971D01*
X54490Y166638D01*
X53545Y168052D01*
X52132Y168997D01*
X50464Y169328D01*
X49963Y169229D01*
X49065Y170127D01*
X49165Y170627D01*
X48833Y172295D01*
X47889Y173709D01*
X46475Y174653D01*
X44807Y174985D01*
X44306Y174885D01*
X43408Y175783D01*
X43508Y176284D01*
X43176Y177952D01*
X42232Y179366D01*
X40818Y180310D01*
X39150Y180642D01*
X37483Y180310D01*
X36069Y179366D01*
X29351Y172648D01*
X28576Y171488D01*
X27181Y171088D01*
X26002Y172267D01*
Y192868D01*
X25805Y193859D01*
X25244Y194699D01*
X17474Y202469D01*
X17731Y202804D01*
X18892Y205608D01*
X19288Y208616D01*
X18892Y211625D01*
X17731Y214428D01*
X15884Y216835D01*
X13476Y218682D01*
X10673Y219844D01*
X7664Y220240D01*
D02*
G37*
G36*
X61259Y177277D02*
X59921Y177010D01*
X58786Y176253D01*
X58028Y175118D01*
X57762Y173780D01*
X58028Y172443D01*
X58786Y171308D01*
X59921Y170550D01*
X61259Y170284D01*
X62596Y170550D01*
X63731Y171308D01*
X64489Y172443D01*
X64755Y173780D01*
X64489Y175118D01*
X63731Y176253D01*
X62596Y177010D01*
X61259Y177277D01*
D02*
G37*
G36*
X163620Y169440D02*
X160612Y169044D01*
X157809Y167882D01*
X155401Y166035D01*
X153554Y163628D01*
X152393Y160825D01*
X151997Y157816D01*
X152393Y154808D01*
X153554Y152004D01*
X155401Y149597D01*
X157809Y147750D01*
X160612Y146589D01*
X163620Y146193D01*
X166629Y146589D01*
X169432Y147750D01*
X171840Y149597D01*
X173687Y152004D01*
X174848Y154808D01*
X175244Y157816D01*
X174848Y160825D01*
X173687Y163628D01*
X171840Y166035D01*
X169432Y167882D01*
X166629Y169044D01*
X163620Y169440D01*
D02*
G37*
G36*
X136188Y117100D02*
Y114090D01*
X139198D01*
X139106Y114555D01*
X138123Y116025D01*
X136653Y117008D01*
X136188Y117100D01*
D02*
G37*
G36*
X133649D02*
X133184Y117008D01*
X131714Y116025D01*
X130731Y114555D01*
X130639Y114090D01*
X133649D01*
Y117100D01*
D02*
G37*
G36*
X61134Y115622D02*
X59796Y115356D01*
X58662Y114598D01*
X57904Y113464D01*
X57638Y112126D01*
X57904Y110788D01*
X58662Y109654D01*
X59796Y108896D01*
X61134Y108630D01*
X62472Y108896D01*
X63606Y109654D01*
X64364Y110788D01*
X64630Y112126D01*
X64364Y113464D01*
X63606Y114598D01*
X62472Y115356D01*
X61134Y115622D01*
D02*
G37*
G36*
X139198Y111551D02*
X136188D01*
Y108541D01*
X136653Y108633D01*
X138123Y109616D01*
X139106Y111086D01*
X139198Y111551D01*
D02*
G37*
G36*
X133649D02*
X130639D01*
X130731Y111086D01*
X131714Y109616D01*
X133184Y108633D01*
X133649Y108541D01*
Y111551D01*
D02*
G37*
G36*
X68729Y108899D02*
X67391Y108633D01*
X66257Y107875D01*
X65499Y106741D01*
X65233Y105403D01*
X65499Y104065D01*
X66257Y102930D01*
X67391Y102173D01*
X68729Y101906D01*
X70067Y102173D01*
X71201Y102930D01*
X71959Y104065D01*
X72225Y105403D01*
X71959Y106741D01*
X71201Y107875D01*
X70067Y108633D01*
X68729Y108899D01*
D02*
G37*
G36*
X163620Y118639D02*
X160612Y118244D01*
X157809Y117082D01*
X155401Y115235D01*
X153554Y112828D01*
X152393Y110024D01*
X151997Y107016D01*
X152393Y104008D01*
X153554Y101204D01*
X155401Y98797D01*
X157809Y96950D01*
X160612Y95789D01*
X163620Y95393D01*
X166629Y95789D01*
X169432Y96950D01*
X171840Y98797D01*
X173687Y101204D01*
X174848Y104008D01*
X175244Y107016D01*
X174848Y110024D01*
X173687Y112828D01*
X171840Y115235D01*
X169432Y117082D01*
X166629Y118244D01*
X163620Y118639D01*
D02*
G37*
G36*
X107867Y100012D02*
X106530Y99746D01*
X105395Y98988D01*
X104637Y97854D01*
X104371Y96516D01*
X104597Y95380D01*
X104126Y94873D01*
X103568Y94540D01*
X103299Y94720D01*
X101961Y94986D01*
X100624Y94720D01*
X99489Y93962D01*
X98731Y92828D01*
X98465Y91490D01*
X98731Y90152D01*
X99050Y89675D01*
Y87079D01*
X94124D01*
Y78560D01*
X92854Y78435D01*
X92773Y78846D01*
X91875Y80190D01*
X90530Y81089D01*
X88945Y81404D01*
X87359Y81089D01*
X86014Y80190D01*
X85116Y78846D01*
X85000Y78260D01*
X79876Y73137D01*
X75890D01*
Y87079D01*
X70965D01*
Y89581D01*
X71347Y90152D01*
X71613Y91490D01*
X71347Y92828D01*
X70589Y93962D01*
X69454Y94720D01*
X68116Y94986D01*
X66779Y94720D01*
X65644Y93962D01*
X64886Y92828D01*
X64620Y91490D01*
X64886Y90152D01*
X65268Y89581D01*
Y87079D01*
X60342D01*
Y73031D01*
X69366D01*
X69864Y71761D01*
X65644Y67541D01*
X64886Y66406D01*
X64620Y65068D01*
Y63578D01*
X60342D01*
Y49530D01*
X75890D01*
X76553Y48535D01*
Y42863D01*
X69118D01*
Y40041D01*
X67848Y39610D01*
X66900Y40846D01*
X65067Y42253D01*
X62933Y43137D01*
X60642Y43438D01*
X58352Y43137D01*
X56217Y42253D01*
X54385Y40846D01*
X52978Y39013D01*
X52094Y36879D01*
X51793Y34588D01*
X52094Y32298D01*
X52978Y30164D01*
X54385Y28331D01*
X56217Y26924D01*
X58352Y26040D01*
X60642Y25739D01*
X62933Y26040D01*
X65067Y26924D01*
X66900Y28331D01*
X67848Y29567D01*
X69118Y29135D01*
Y26314D01*
X70203D01*
Y24214D01*
X69713Y23480D01*
X69446Y22143D01*
X69713Y20805D01*
X70329Y19882D01*
X70089Y19096D01*
X69768Y18612D01*
X66618D01*
Y-3436D01*
X84667D01*
Y18612D01*
X76117D01*
X75796Y19096D01*
X75556Y19882D01*
X76172Y20805D01*
X76439Y22143D01*
X76172Y23480D01*
X75415Y24615D01*
X75382Y24636D01*
Y26314D01*
X94103D01*
Y25299D01*
X97373D01*
Y34588D01*
Y43878D01*
X94103D01*
Y42863D01*
X88245D01*
Y50785D01*
X88898Y51762D01*
X89164Y53100D01*
X88898Y54438D01*
X88140Y55572D01*
X87006Y56330D01*
X85668Y56596D01*
X84969Y57752D01*
X85176Y58061D01*
X85442Y59399D01*
X85325Y59984D01*
X86363Y61073D01*
X86404Y61064D01*
X87742Y61330D01*
X88877Y62088D01*
X89635Y63223D01*
X89901Y64560D01*
X89807Y65031D01*
X90602Y65997D01*
X90880Y66144D01*
X95116D01*
X96509Y64752D01*
X96023Y63578D01*
X94124D01*
Y49530D01*
X109672D01*
Y63578D01*
X106319D01*
X105395Y64307D01*
X105128Y65644D01*
X104371Y66779D01*
X99389Y71761D01*
X99887Y73031D01*
X109672D01*
Y87079D01*
X104747D01*
Y89487D01*
X105191Y90152D01*
X105458Y91490D01*
X105232Y92626D01*
X105703Y93133D01*
X106261Y93466D01*
X106530Y93286D01*
X107867Y93020D01*
X109205Y93286D01*
X109389Y93408D01*
X117333D01*
Y87079D01*
X112667D01*
Y73031D01*
X128215D01*
Y87079D01*
X123548D01*
Y94731D01*
X123312Y95920D01*
X122638Y96928D01*
X120852Y98714D01*
X119844Y99387D01*
X118655Y99624D01*
X109389D01*
X109205Y99746D01*
X107867Y100012D01*
D02*
G37*
G36*
X163620Y93239D02*
X160612Y92844D01*
X157809Y91682D01*
X155401Y89835D01*
X153554Y87428D01*
X152393Y84625D01*
X151997Y81616D01*
X152393Y78608D01*
X153554Y75804D01*
X155401Y73397D01*
X157809Y71550D01*
X160612Y70389D01*
X163620Y69993D01*
X166629Y70389D01*
X169432Y71550D01*
X171840Y73397D01*
X173687Y75804D01*
X174848Y78608D01*
X175244Y81616D01*
X174848Y84625D01*
X173687Y87428D01*
X171840Y89835D01*
X169432Y91682D01*
X166629Y92844D01*
X163620Y93239D01*
D02*
G37*
G36*
X119171Y64594D02*
X111650D01*
Y57824D01*
X119171D01*
Y64594D01*
D02*
G37*
G36*
X56333D02*
X48812D01*
Y57824D01*
X56333D01*
Y64594D01*
D02*
G37*
G36*
X46273D02*
X38753D01*
Y57824D01*
X46273D01*
Y64594D01*
D02*
G37*
G36*
X119171Y55284D02*
X111650D01*
Y48514D01*
X119171D01*
Y55284D01*
D02*
G37*
G36*
X56333D02*
X48812D01*
Y48514D01*
X56333D01*
Y55284D01*
D02*
G37*
G36*
X46273D02*
X38753D01*
Y48514D01*
X46273D01*
Y55284D01*
D02*
G37*
G36*
X163620Y67839D02*
X160612Y67443D01*
X157809Y66282D01*
X155401Y64435D01*
X153554Y62028D01*
X152393Y59225D01*
X151997Y56216D01*
X152393Y53208D01*
X153554Y50404D01*
X155401Y47997D01*
X157809Y46150D01*
X160612Y44989D01*
X163620Y44593D01*
X166629Y44989D01*
X169432Y46150D01*
X171840Y47997D01*
X173687Y50404D01*
X174848Y53208D01*
X175244Y56216D01*
X174848Y59225D01*
X173687Y62028D01*
X171840Y64435D01*
X169432Y66282D01*
X166629Y67443D01*
X163620Y67839D01*
D02*
G37*
G36*
X138829Y47035D02*
X135173D01*
Y43378D01*
X135885Y43519D01*
X137565Y44642D01*
X138688Y46322D01*
X138829Y47035D01*
D02*
G37*
G36*
X140506Y40168D02*
X139169Y39902D01*
X138034Y39144D01*
X137276Y38009D01*
X137010Y36672D01*
X137276Y35334D01*
X138034Y34199D01*
X139169Y33442D01*
X140506Y33175D01*
X141844Y33442D01*
X142979Y34199D01*
X143736Y35334D01*
X144003Y36672D01*
X143736Y38009D01*
X142979Y39144D01*
X141844Y39902D01*
X140506Y40168D01*
D02*
G37*
G36*
X103183Y43878D02*
X99913D01*
Y34588D01*
Y25299D01*
X103183D01*
Y27923D01*
X104018Y28206D01*
X104453Y28279D01*
X106218Y26924D01*
X108352Y26040D01*
X110643Y25739D01*
X112933Y26040D01*
X115068Y26924D01*
X116900Y28331D01*
X118307Y30164D01*
X119191Y32298D01*
X119492Y34588D01*
X119191Y36879D01*
X118307Y39013D01*
X116900Y40846D01*
X115068Y42253D01*
X112933Y43137D01*
X110643Y43438D01*
X108352Y43137D01*
X106218Y42253D01*
X104453Y40898D01*
X104018Y40971D01*
X103183Y41254D01*
Y43878D01*
D02*
G37*
G36*
X104667Y18612D02*
X86618D01*
Y-3436D01*
X104667D01*
Y18612D01*
D02*
G37*
G36*
X120643Y18735D02*
X120025Y18612D01*
X107119D01*
Y-3436D01*
X120025D01*
X120643Y-3559D01*
X121261Y-3436D01*
X122167D01*
Y-3255D01*
X123091Y-3072D01*
X125166Y-1685D01*
X126553Y390D01*
X127040Y2838D01*
Y12338D01*
X126553Y14786D01*
X125166Y16862D01*
X123091Y18248D01*
X122167Y18432D01*
Y18612D01*
X121261D01*
X120643Y18735D01*
D02*
G37*
G36*
X50642D02*
X50024Y18612D01*
X49118D01*
Y18432D01*
X48194Y18248D01*
X46119Y16862D01*
X44732Y14786D01*
X44245Y12338D01*
Y2838D01*
X44732Y390D01*
X46119Y-1685D01*
X48194Y-3072D01*
X49118Y-3255D01*
Y-3436D01*
X50024D01*
X50642Y-3559D01*
X51260Y-3436D01*
X64166D01*
Y18612D01*
X51260D01*
X50642Y18735D01*
D02*
G37*
%LPD*%
D15*
X28747Y53384D02*
Y61259D01*
X36838Y80055D02*
X47543D01*
X35350Y78567D02*
X36838Y80055D01*
X35350Y67863D02*
Y78567D01*
X28747Y61259D02*
X35350Y67863D01*
X85655Y53087D02*
X85668Y53100D01*
X68116Y80055D02*
Y91490D01*
X101898Y91427D02*
X101961Y91490D01*
X101898Y80055D02*
Y91427D01*
X85642Y34588D02*
X85655Y34601D01*
D17*
X128822Y309013D02*
D03*
Y348532D02*
D03*
D18*
X58973Y324543D02*
D03*
Y342042D02*
D03*
X80420Y324543D02*
D03*
Y342042D02*
D03*
D19*
X72642Y34588D02*
D03*
X79143D02*
D03*
X85642D02*
D03*
X92142D02*
D03*
X98643D02*
D03*
D20*
X114643Y7588D02*
D03*
X56642D02*
D03*
D21*
X95642D02*
D03*
X75642D02*
D03*
D22*
X47543Y80055D02*
D03*
Y56554D02*
D03*
X68116Y80055D02*
D03*
Y56554D02*
D03*
X101898Y80055D02*
D03*
Y56554D02*
D03*
X120441D02*
D03*
Y80055D02*
D03*
D23*
X49383Y301351D02*
D03*
X79081Y271652D02*
D03*
X63525Y256096D02*
D03*
X33826Y285795D02*
D03*
D24*
X75389Y233030D02*
D03*
X69732Y227372D02*
D03*
X64076Y221716D02*
D03*
X58419Y216059D02*
D03*
X52762Y210402D02*
D03*
X47105Y204745D02*
D03*
X41448Y199089D02*
D03*
X35791Y193431D02*
D03*
X95896Y133327D02*
D03*
X101553Y138984D02*
D03*
X107209Y144641D02*
D03*
X112866Y150298D02*
D03*
X118523Y155955D02*
D03*
X124180Y161612D02*
D03*
X129837Y167268D02*
D03*
X135494Y172925D02*
D03*
D25*
X35791D02*
D03*
X41448Y167268D02*
D03*
X47105Y161612D02*
D03*
X52762Y155955D02*
D03*
X58419Y150298D02*
D03*
X64076Y144641D02*
D03*
X69732Y138984D02*
D03*
X75389Y133327D02*
D03*
X135494Y193431D02*
D03*
X129837Y199089D02*
D03*
X124180Y204745D02*
D03*
X118523Y210402D02*
D03*
X112866Y216059D02*
D03*
X107209Y221716D02*
D03*
X101553Y227372D02*
D03*
X95896Y233030D02*
D03*
D35*
X24936Y204286D02*
Y277159D01*
X79143Y56596D02*
X81946Y59399D01*
X79143Y34588D02*
Y56596D01*
X72792Y22293D02*
X72943Y22143D01*
X72792Y22293D02*
Y34438D01*
X72642Y34588D02*
X72792Y34438D01*
X47121Y288204D02*
X51142D01*
X43943Y291383D02*
X47121Y288204D01*
X39922Y291383D02*
X43943D01*
X34334Y285795D02*
X39922Y291383D01*
X33826Y285795D02*
X34334D01*
X24936Y277159D02*
X33572Y285795D01*
X33826D01*
X51142Y288204D02*
X62529Y299592D01*
X64053Y283414D02*
X75814Y271652D01*
X79081D01*
X62529Y299592D02*
Y320986D01*
X58973Y324543D02*
X62529Y320986D01*
X24936Y204286D02*
X35791Y193431D01*
X75229Y153715D02*
X83864Y162351D01*
X75229Y144481D02*
Y153715D01*
X69732Y138984D02*
X75229Y144481D01*
X83357Y141294D02*
Y148126D01*
X75389Y133327D02*
X83357Y141294D01*
X130067Y178353D02*
X135494Y172925D01*
X104692Y178353D02*
X104692Y178353D01*
X130067D01*
X124180Y204745D02*
Y204916D01*
X142793Y223529D01*
Y224046D01*
X148253Y206191D02*
Y223041D01*
X135494Y193431D02*
X148253Y206191D01*
Y223041D02*
X159229Y234016D01*
X163620D01*
X67075Y125013D02*
X75389Y133327D01*
X28546Y67916D02*
Y95795D01*
X23286Y62656D02*
X28546Y67916D01*
X23412Y71964D02*
Y97127D01*
X7664Y56216D02*
X23412Y71964D01*
X23286Y46437D02*
Y62656D01*
X7664Y30816D02*
X23286Y46437D01*
X18841Y99021D02*
X28493Y108673D01*
X18841Y92792D02*
Y99021D01*
X7664Y81616D02*
X18841Y92792D01*
X28493Y124504D02*
X39160Y135173D01*
X28493Y108673D02*
Y124504D01*
X23412Y137712D02*
X27222Y141523D01*
X23412Y122764D02*
Y137712D01*
X7664Y107016D02*
X23412Y122764D01*
X39160Y135173D02*
X54607D01*
X45257Y130092D02*
X60841D01*
X34843Y119678D02*
X45257Y130092D01*
X34843Y108557D02*
Y119678D01*
X52115Y125013D02*
X67075D01*
X39922Y112821D02*
X52115Y125013D01*
X39922Y107171D02*
Y112821D01*
X23412Y97127D02*
X34843Y108557D01*
X28546Y95795D02*
X39922Y107171D01*
X7664Y81616D02*
Y87845D01*
X28493Y212044D02*
Y254552D01*
X57354Y283414D01*
X64053D01*
X105027Y196906D02*
X118523Y210402D01*
X105027Y189783D02*
Y196906D01*
X105237Y171277D02*
X125828D01*
X104692Y170732D02*
X105237Y171277D01*
X125828D02*
X129837Y167268D01*
X80420Y299781D02*
Y324543D01*
X64053Y283414D02*
X80420Y299781D01*
X101553Y138984D02*
X107527Y133009D01*
Y129419D02*
Y133009D01*
Y129419D02*
X107867Y129079D01*
X101553Y138984D02*
Y138984D01*
X136746Y149046D02*
X144046D01*
X124180Y161612D02*
X136746Y149046D01*
X122912Y140253D02*
X142793D01*
X112866Y150298D02*
X122912Y140253D01*
X127236Y183216D02*
X138221D01*
X163620Y208616D01*
X121899Y188553D02*
X127236Y183216D01*
X121899Y188553D02*
Y191151D01*
X129837Y199089D01*
X162584Y335616D02*
X163620D01*
X85655Y34601D02*
Y53087D01*
X132707Y61729D02*
X163620Y30816D01*
X132707Y61729D02*
Y96516D01*
X95896Y133327D02*
X132707Y96516D01*
X28493Y212044D02*
X41448Y199089D01*
X60841Y130092D02*
X69732Y138984D01*
X54607Y135173D02*
X64076Y144641D01*
X27222Y141523D02*
X49644D01*
X58419Y150298D01*
X23911Y148662D02*
X45470D01*
X7664Y132416D02*
X23911Y148662D01*
X45470D02*
X52762Y155955D01*
X7664Y157816D02*
X21108D01*
X24701Y154222D01*
X39716D01*
X47105Y161612D01*
X33420Y159303D02*
X41385Y167268D01*
X7664Y178976D02*
Y183216D01*
Y178976D02*
X27338Y159303D01*
X33420D01*
X41385Y167268D02*
X41448D01*
X23412Y171194D02*
Y192868D01*
X7664Y208616D02*
X23412Y192868D01*
Y171194D02*
X27283Y167323D01*
X30189D01*
X35791Y172925D01*
X119434Y132416D02*
X163620D01*
X107209Y144641D02*
X119434Y132416D01*
D42*
X25952Y307892D02*
X31787Y302058D01*
X48675D01*
X49383Y301351D01*
X104692Y163113D02*
X104838Y162967D01*
X110847D01*
X117859Y155955D01*
X118523D01*
X133514Y48693D02*
X133903Y48305D01*
X129052Y48693D02*
X133514D01*
X121191Y56554D02*
X129052Y48693D01*
X120441Y56554D02*
X121191D01*
X107867Y96516D02*
X118655D01*
X120441Y94731D01*
Y80055D02*
Y94731D01*
D43*
X95089Y145562D02*
Y169477D01*
X83864Y180702D02*
X95089Y169477D01*
X58419Y216059D02*
X75551Y198927D01*
X81833D01*
X95089Y145562D02*
X101553Y139098D01*
X49419Y225059D02*
X58419Y216059D01*
X40418Y234059D02*
X49419Y225059D01*
X101553Y138984D02*
Y139098D01*
X47105Y204745D02*
X47219D01*
X112866Y216059D02*
X142793Y245985D01*
Y315825D01*
X35791Y234059D02*
X40418D01*
X142793Y315825D02*
X162584Y335616D01*
X7664D02*
Y339515D01*
X29678Y361530D01*
X111042D02*
Y384347D01*
Y351508D02*
Y361530D01*
X29678D02*
X111042D01*
X114018Y348532D02*
X128822D01*
X111042Y351508D02*
X114018Y348532D01*
X128822D02*
X150704D01*
X163620Y335616D01*
D44*
X41954Y218993D02*
X48021Y225059D01*
X41954Y210353D02*
Y218993D01*
Y210353D02*
X47105Y205203D01*
X48021Y225059D02*
X49419D01*
X47105Y204745D02*
Y205203D01*
X81325Y69640D02*
X88945Y77260D01*
X72688Y69640D02*
X81325D01*
X68116Y65068D02*
X72688Y69640D01*
X96565D02*
X101898Y64307D01*
X90723Y69640D02*
X96565D01*
X89187Y71175D02*
X90723Y69640D01*
X68116Y56554D02*
Y65068D01*
X89187Y71175D02*
Y77017D01*
X88945Y77260D02*
X89187Y77017D01*
X101898Y56554D02*
Y64307D01*
X107398Y221716D02*
X124180Y238498D01*
X107209Y221716D02*
X107398D01*
X54866Y241781D02*
X69275Y227372D01*
X41448Y241781D02*
X54866D01*
X112211Y238031D02*
Y246535D01*
X101553Y227372D02*
X112211Y238031D01*
X105441Y242173D02*
X105830D01*
X96298Y233030D02*
X105441Y242173D01*
X95896Y233030D02*
X96298D01*
X65979Y242173D02*
X75122Y233030D01*
X75389D01*
X69275Y227372D02*
X69732D01*
D45*
X29323Y348332D02*
D03*
Y335832D02*
D03*
Y323333D02*
D03*
X39323D02*
D03*
Y335832D02*
D03*
Y348332D02*
D03*
D46*
X111042Y384347D02*
D03*
X85642D02*
D03*
X60243D02*
D03*
X111042Y409747D02*
D03*
X85642D02*
D03*
X60243D02*
D03*
X163620Y386416D02*
D03*
Y361016D02*
D03*
Y335616D02*
D03*
Y310216D02*
D03*
Y284816D02*
D03*
Y259416D02*
D03*
Y234016D02*
D03*
Y208616D02*
D03*
Y183216D02*
D03*
Y157816D02*
D03*
Y132416D02*
D03*
Y107016D02*
D03*
Y81616D02*
D03*
Y56216D02*
D03*
Y30816D02*
D03*
X7664Y386416D02*
D03*
Y361016D02*
D03*
Y335616D02*
D03*
Y310216D02*
D03*
Y284816D02*
D03*
Y259416D02*
D03*
Y234016D02*
D03*
Y208616D02*
D03*
Y183216D02*
D03*
Y157816D02*
D03*
Y132416D02*
D03*
Y107016D02*
D03*
Y81616D02*
D03*
Y56216D02*
D03*
Y30816D02*
D03*
D47*
X60642Y34588D02*
D03*
X110643D02*
D03*
D48*
X50642Y7588D02*
D03*
X120643D02*
D03*
D49*
X28747Y53384D02*
D03*
X72943Y22143D02*
D03*
X81946Y59399D02*
D03*
X128822Y296208D02*
D03*
X25952Y307892D02*
D03*
X69894Y303067D02*
D03*
X83864Y180702D02*
D03*
X83864Y162351D02*
D03*
X83357Y148126D02*
D03*
X35096Y213405D02*
D03*
X61259Y173780D02*
D03*
X68878Y184702D02*
D03*
X134918Y112821D02*
D03*
X104692Y163113D02*
D03*
X34843Y226612D02*
D03*
X97326Y269538D02*
D03*
X86404Y64560D02*
D03*
X85668Y53100D02*
D03*
X81833Y256331D02*
D03*
X142793Y224046D02*
D03*
X104692Y178353D02*
D03*
Y170732D02*
D03*
X105027Y189783D02*
D03*
X107867Y96516D02*
D03*
X35791Y234059D02*
D03*
X41448Y241781D02*
D03*
X50996Y248131D02*
D03*
X107867Y129079D02*
D03*
X68116Y91490D02*
D03*
X101961D02*
D03*
X68729Y105403D02*
D03*
X61134Y112126D02*
D03*
X144046Y149046D02*
D03*
X142793Y140253D02*
D03*
X112211Y246535D02*
D03*
X124180Y238498D02*
D03*
X105830Y242173D02*
D03*
X65979D02*
D03*
X140506Y36672D02*
D03*
D50*
X138177Y388788D02*
D03*
X81833Y198927D02*
D03*
X88945Y77260D02*
D03*
X133903Y48305D02*
D03*
X134664Y265474D02*
D03*
X129838Y220263D02*
D03*
M02*
