G04*
G04 #@! TF.GenerationSoftware,Altium Limited,Altium Designer,19.1.8 (144)*
G04*
G04 Layer_Color=255*
%FSLAX44Y44*%
%MOMM*%
G71*
G01*
G75*
D17*
X128822Y309013D02*
D03*
Y348532D02*
D03*
D18*
X58973Y324543D02*
D03*
Y342042D02*
D03*
X80420Y324543D02*
D03*
Y342042D02*
D03*
D19*
X72642Y34588D02*
D03*
X79143D02*
D03*
X85642D02*
D03*
X92142D02*
D03*
X98643D02*
D03*
D20*
X114643Y7588D02*
D03*
X56642D02*
D03*
D21*
X95642D02*
D03*
X75642D02*
D03*
D22*
X47543Y80055D02*
D03*
Y56554D02*
D03*
X68116Y80055D02*
D03*
Y56554D02*
D03*
X101898Y80055D02*
D03*
Y56554D02*
D03*
X120441D02*
D03*
Y80055D02*
D03*
D23*
X49383Y301351D02*
D03*
X79081Y271652D02*
D03*
X63525Y256096D02*
D03*
X33826Y285795D02*
D03*
D24*
X75389Y233030D02*
D03*
X69732Y227372D02*
D03*
X64076Y221716D02*
D03*
X58419Y216059D02*
D03*
X52762Y210402D02*
D03*
X47105Y204745D02*
D03*
X41448Y199089D02*
D03*
X35791Y193431D02*
D03*
X95896Y133327D02*
D03*
X101553Y138984D02*
D03*
X107209Y144641D02*
D03*
X112866Y150298D02*
D03*
X118523Y155955D02*
D03*
X124180Y161612D02*
D03*
X129837Y167268D02*
D03*
X135494Y172925D02*
D03*
D25*
X35791D02*
D03*
X41448Y167268D02*
D03*
X47105Y161612D02*
D03*
X52762Y155955D02*
D03*
X58419Y150298D02*
D03*
X64076Y144641D02*
D03*
X69732Y138984D02*
D03*
X75389Y133327D02*
D03*
X135494Y193431D02*
D03*
X129837Y199089D02*
D03*
X124180Y204745D02*
D03*
X118523Y210402D02*
D03*
X112866Y216059D02*
D03*
X107209Y221716D02*
D03*
X101553Y227372D02*
D03*
X95896Y233030D02*
D03*
D45*
X29323Y348332D02*
D03*
Y335832D02*
D03*
Y323333D02*
D03*
X39323D02*
D03*
Y335832D02*
D03*
Y348332D02*
D03*
D46*
X111042Y384347D02*
D03*
X85642D02*
D03*
X60243D02*
D03*
X111042Y409747D02*
D03*
X85642D02*
D03*
X60243D02*
D03*
X163620Y386416D02*
D03*
Y361016D02*
D03*
Y335616D02*
D03*
Y310216D02*
D03*
Y284816D02*
D03*
Y259416D02*
D03*
Y234016D02*
D03*
Y208616D02*
D03*
Y183216D02*
D03*
Y157816D02*
D03*
Y132416D02*
D03*
Y107016D02*
D03*
Y81616D02*
D03*
Y56216D02*
D03*
Y30816D02*
D03*
X7664Y386416D02*
D03*
Y361016D02*
D03*
Y335616D02*
D03*
Y310216D02*
D03*
Y284816D02*
D03*
Y259416D02*
D03*
Y234016D02*
D03*
Y208616D02*
D03*
Y183216D02*
D03*
Y157816D02*
D03*
Y132416D02*
D03*
Y107016D02*
D03*
Y81616D02*
D03*
Y56216D02*
D03*
Y30816D02*
D03*
D47*
X60642Y34588D02*
D03*
X110643D02*
D03*
D48*
X50642Y7588D02*
D03*
X120643D02*
D03*
M02*
