M48
;Layer_Color=9474304
;FILE_FORMAT=2:5
INCH,LZ
;TYPE=PLATED
T1F00S00C0.01000
T2F00S00C0.01500
T3F00S00C0.01968
T5F00S00C0.03346
T6F00S00C0.04331
%
T01
X0011317Y0021017
X0033727Y0020906
X0032262Y0023386
X0028717Y0008717
X0055317Y0014438
X0053118Y0044418
X0056217Y0055217
X0056711Y0058679
X0041217Y0064218
Y0067217
Y0070218
X0041349Y0074717
X0033018Y0071142
X0033018Y0063917
X0032818Y0058318
X0042467Y0050818
Y0037999
X0040142Y003602
X0026818
X0027059Y0041497
X0024069Y0044144
X0024117Y0068418
X0027117Y0072717
X0025976Y0095344
X0020077Y0097689
X0016318Y0095189
X0014091Y0092149
X0013717Y0089218
X0013817Y0084017
X0032217Y0100917
X0038317Y0106117
X0041665Y0095344
X0044177Y0097061
X004889Y0093897
X0056217Y0088207
X0050718Y0116618
X0027518Y0119317
X0010217Y0121218
X0034018Y0025418
T02
X0052718Y0019017
X0035017Y0030417
X0032217Y0078317
X0051117Y0086717
X0053017Y0104517
X00544Y0153066
T03
X0011544Y0127296
X0015481
Y0132218
X0011544
Y0137139
X0015481
T05
X0023875Y0013618
X004356
T06
X0003018Y0012132
Y0022132
X0064417
Y0012132
Y0032132
Y0042132
Y0052132
Y0062132
Y0072132
Y0082132
Y0092132
Y0102132
Y0112132
Y0122132
Y0132132
Y0142132
Y0152132
X0043718Y0151318
X0033718
X0023718
Y0161318
X0033718
X0043718
X0003018Y0152132
Y0142132
Y0132132
Y0122132
Y0112132
Y0102132
Y0092132
Y0082132
Y0072132
Y0062132
Y0052132
Y0042132
Y0032132
M30
