%TF.GenerationSoftware,Altium Limited,Altium Designer,19.1.8 (144)*%
G04 Layer_Physical_Order=1*
G04 Layer_Color=255*
%FSLAX26Y26*%
%MOIN*%
%TF.FileFunction,Copper,L1,Top,Signal*%
%TF.Part,Single*%
G01*
G75*
%TA.AperFunction,SMDPad,CuDef*%
%ADD10R,0.070000X0.130000*%
%ADD11R,0.059055X0.051181*%
%TA.AperFunction,ConnectorPad*%
%ADD12R,0.015748X0.053150*%
%ADD13R,0.047244X0.074803*%
%ADD14R,0.059055X0.074803*%
%ADD15R,0.049213X0.043307*%
G04:AMPARAMS|DCode=16|XSize=62.992mil|YSize=55.118mil|CornerRadius=0mil|HoleSize=0mil|Usage=FLASHONLY|Rotation=315.000|XOffset=0mil|YOffset=0mil|HoleType=Round|Shape=Rectangle|*
%AMROTATEDRECTD16*
4,1,4,-0.041758,0.002784,-0.002784,0.041758,0.041758,-0.002784,0.002784,-0.041758,-0.041758,0.002784,0.0*
%
%ADD16ROTATEDRECTD16*%

G04:AMPARAMS|DCode=17|XSize=21.654mil|YSize=59.055mil|CornerRadius=0mil|HoleSize=0mil|Usage=FLASHONLY|Rotation=45.000|XOffset=0mil|YOffset=0mil|HoleType=Round|Shape=Round|*
%AMOVALD17*
21,1,0.037402,0.021654,0.000000,0.000000,135.0*
1,1,0.021654,0.013223,-0.013223*
1,1,0.021654,-0.013223,0.013223*
%
%ADD17OVALD17*%

G04:AMPARAMS|DCode=18|XSize=21.654mil|YSize=59.055mil|CornerRadius=0mil|HoleSize=0mil|Usage=FLASHONLY|Rotation=315.000|XOffset=0mil|YOffset=0mil|HoleType=Round|Shape=Round|*
%AMOVALD18*
21,1,0.037402,0.021654,0.000000,0.000000,45.0*
1,1,0.021654,-0.013223,-0.013223*
1,1,0.021654,0.013223,0.013223*
%
%ADD18OVALD18*%

%TA.AperFunction,Conductor*%
%ADD19C,0.010000*%
%ADD20C,0.008000*%
%ADD21C,0.012000*%
%ADD22C,0.020000*%
%ADD23C,0.015000*%
%TA.AperFunction,ComponentPad*%
%ADD24C,0.031496*%
%ADD25C,0.078740*%
%ADD26C,0.057087*%
%ADD27O,0.037402X0.074803*%
%TA.AperFunction,ViaPad*%
%ADD28C,0.015000*%
%ADD29C,0.020000*%
G36*
X638427Y1668716D02*
X654806Y1661932D01*
X669547Y1652083D01*
X682083Y1639547D01*
X691932Y1624806D01*
X698716Y1608427D01*
X702175Y1591039D01*
Y1582175D01*
Y62175D01*
Y53311D01*
X698716Y35923D01*
X691932Y19544D01*
X682083Y4803D01*
X669547Y-7732D01*
X654806Y-17582D01*
X638427Y-24366D01*
X621039Y-27825D01*
X67175D01*
X57819Y-27825D01*
X39465Y-24174D01*
X22176Y-17013D01*
X6616Y-6616D01*
X-6616Y6616D01*
X-17013Y22176D01*
X-24174Y39465D01*
X-27825Y57819D01*
Y67175D01*
X-27825D01*
Y1582175D01*
Y1591039D01*
X-24366Y1608427D01*
X-17582Y1624806D01*
X-7732Y1639547D01*
X4803Y1652083D01*
X19544Y1661932D01*
X35923Y1668716D01*
X53311Y1672175D01*
X621039D01*
X638427Y1668716D01*
D02*
G37*
%LPC*%
G36*
X442175Y1662313D02*
Y1618175D01*
X486313D01*
X485274Y1626063D01*
X480300Y1638073D01*
X472386Y1648386D01*
X462073Y1656300D01*
X450063Y1661274D01*
X442175Y1662313D01*
D02*
G37*
G36*
X432175D02*
X424287Y1661274D01*
X412277Y1656300D01*
X401964Y1648386D01*
X394050Y1638073D01*
X389076Y1626063D01*
X387734Y1615871D01*
X387679Y1615457D01*
X382637D01*
X382582Y1615871D01*
X381377Y1625019D01*
X376806Y1636056D01*
X369534Y1645534D01*
X360056Y1652806D01*
X349019Y1657378D01*
X337175Y1658937D01*
X325331Y1657378D01*
X314294Y1652806D01*
X304817Y1645534D01*
X297545Y1636056D01*
X292973Y1625019D01*
X291414Y1613175D01*
X292973Y1601331D01*
X297545Y1590294D01*
X304817Y1580817D01*
X314294Y1573544D01*
X325331Y1568973D01*
X337175Y1567414D01*
X349019Y1568973D01*
X360056Y1573544D01*
X369534Y1580817D01*
X376806Y1590294D01*
X381377Y1601331D01*
X382582Y1610480D01*
X382637Y1610893D01*
X387679D01*
X387734Y1610480D01*
X389076Y1600287D01*
X394050Y1588277D01*
X401964Y1577964D01*
X412277Y1570051D01*
X424287Y1565076D01*
X434480Y1563734D01*
X434893Y1563679D01*
Y1558637D01*
X434480Y1558582D01*
X425331Y1557378D01*
X414294Y1552806D01*
X404817Y1545534D01*
X397545Y1536056D01*
X392973Y1525019D01*
X391414Y1513175D01*
X392973Y1501331D01*
X397545Y1490294D01*
X404817Y1480817D01*
X414294Y1473544D01*
X420862Y1470824D01*
Y1439659D01*
X116843D01*
X110600Y1438417D01*
X105308Y1434881D01*
X79347Y1408919D01*
X74611Y1411255D01*
X75937Y1421323D01*
X74377Y1433167D01*
X69806Y1444204D01*
X62533Y1453681D01*
X53056Y1460954D01*
X42019Y1465525D01*
X30175Y1467085D01*
X18331Y1465525D01*
X7294Y1460954D01*
X-2183Y1453681D01*
X-9456Y1444204D01*
X-14027Y1433167D01*
X-15586Y1421323D01*
X-14027Y1409479D01*
X-9456Y1398442D01*
X-2183Y1388965D01*
X7294Y1381693D01*
X18331Y1377121D01*
X30175Y1375562D01*
X40245Y1376887D01*
X42580Y1372152D01*
X36660Y1366231D01*
X30175Y1367085D01*
X18331Y1365525D01*
X7294Y1360954D01*
X-2183Y1353681D01*
X-9456Y1344204D01*
X-14027Y1333167D01*
X-15586Y1321323D01*
X-14027Y1309479D01*
X-9456Y1298442D01*
X-2183Y1288965D01*
X7294Y1281693D01*
X18331Y1277121D01*
X27480Y1275917D01*
X27893Y1275862D01*
Y1270819D01*
X27480Y1270764D01*
X17287Y1269422D01*
X5277Y1264448D01*
X-5036Y1256534D01*
X-12950Y1246221D01*
X-17924Y1234211D01*
X-18963Y1226323D01*
X30175D01*
X79313D01*
X78275Y1234211D01*
X73300Y1246221D01*
X65386Y1256534D01*
X55073Y1264448D01*
X43063Y1269422D01*
X32871Y1270764D01*
X32457Y1270819D01*
Y1275862D01*
X32871Y1275917D01*
X42019Y1277121D01*
X53056Y1281693D01*
X62533Y1288965D01*
X69806Y1298442D01*
X74377Y1309479D01*
X75937Y1321323D01*
X74377Y1333167D01*
X69806Y1344204D01*
X65885Y1349314D01*
X88709Y1372139D01*
X93561Y1369920D01*
X94957Y1362901D01*
X99764Y1355708D01*
X106957Y1350901D01*
X115443Y1349213D01*
X123929Y1350901D01*
X131123Y1355708D01*
X132628Y1357961D01*
X137628D01*
X139134Y1355708D01*
X146327Y1350901D01*
X154813Y1349213D01*
X163299Y1350901D01*
X170493Y1355708D01*
X175299Y1362901D01*
X176987Y1371387D01*
X175299Y1379873D01*
X170493Y1387067D01*
X163299Y1391873D01*
X154813Y1393561D01*
X146327Y1391873D01*
X139134Y1387067D01*
X137628Y1384814D01*
X132628D01*
X131123Y1387067D01*
X123929Y1391873D01*
X116910Y1393270D01*
X114691Y1398121D01*
X123600Y1407032D01*
X420862D01*
Y1383891D01*
X422103Y1377648D01*
X425640Y1372356D01*
X437356Y1360640D01*
X442648Y1357103D01*
X448891Y1355862D01*
X466175D01*
Y1301175D01*
X548175D01*
Y1355862D01*
X586566D01*
X602693Y1339735D01*
X599973Y1333167D01*
X598414Y1321323D01*
X599973Y1309479D01*
X601498Y1305797D01*
X556795Y1261094D01*
X552175Y1263007D01*
Y1291585D01*
X512175D01*
Y1216585D01*
Y1141585D01*
X545862D01*
Y1059493D01*
X543990Y1058238D01*
X540862Y1057278D01*
X536418Y1060247D01*
X530175Y1061489D01*
X523932Y1060247D01*
X518640Y1056711D01*
X515104Y1051418D01*
X513862Y1045175D01*
X515104Y1038932D01*
X518640Y1033640D01*
X523932Y1030103D01*
X530175Y1028862D01*
X536418Y1030103D01*
X540862Y1033073D01*
X543990Y1032112D01*
X545862Y1030858D01*
Y975202D01*
X507296Y936637D01*
X502662Y938968D01*
X501614Y944236D01*
X498630Y948701D01*
X494165Y951685D01*
X488897Y952733D01*
X483630Y951685D01*
X479164Y948701D01*
X456842Y926379D01*
X452958Y929566D01*
X454491Y931861D01*
X455539Y937129D01*
Y970610D01*
X454491Y975877D01*
X451508Y980343D01*
X447042Y983326D01*
X441775Y984374D01*
X436507Y983326D01*
X432042Y980343D01*
X429058Y975877D01*
X428010Y970610D01*
Y968096D01*
X423010Y965423D01*
X421919Y966152D01*
X416652Y967200D01*
X415124D01*
X415123Y967200D01*
X409856Y966152D01*
X405390Y963168D01*
X389861Y947639D01*
X384199Y946513D01*
X378633Y942794D01*
X352186Y916347D01*
X348467Y910781D01*
X347161Y904216D01*
X348467Y897650D01*
X352186Y892084D01*
X357752Y888365D01*
X364318Y887059D01*
X366290Y887452D01*
X369826Y883916D01*
X369433Y881944D01*
X370739Y875378D01*
X374458Y869812D01*
X380024Y866093D01*
X386590Y864787D01*
X388560Y865179D01*
X392095Y861644D01*
X391703Y859674D01*
X393009Y853108D01*
X396728Y847542D01*
X402294Y843823D01*
X408860Y842517D01*
X410832Y842910D01*
X414368Y839374D01*
X413975Y837402D01*
X415281Y830836D01*
X419000Y825270D01*
X424566Y821551D01*
X431132Y820245D01*
X432309Y820479D01*
X436130Y817105D01*
X436153Y812302D01*
X406281Y782431D01*
X404071Y779123D01*
X403295Y775221D01*
Y756215D01*
X400774Y752442D01*
X399726Y747175D01*
X400774Y741908D01*
X403758Y737442D01*
X408224Y734458D01*
X413491Y733411D01*
X418758Y734458D01*
X423224Y737442D01*
X426208Y741908D01*
X427255Y747175D01*
X426208Y752442D01*
X423687Y756215D01*
Y770998D01*
X451119Y798429D01*
X453402Y797975D01*
X455374Y798368D01*
X458910Y794832D01*
X458517Y792860D01*
X459823Y786294D01*
X463542Y780728D01*
X469108Y777009D01*
X475674Y775703D01*
X476851Y775937D01*
X480671Y772563D01*
X480695Y767760D01*
X472708Y759773D01*
X470497Y756465D01*
X469721Y752563D01*
Y742336D01*
X470497Y738434D01*
X472708Y735126D01*
X490463Y717371D01*
X488392Y712371D01*
X421215D01*
X417443Y714892D01*
X412175Y715940D01*
X406908Y714892D01*
X402442Y711908D01*
X399459Y707443D01*
X398411Y702175D01*
X399459Y696908D01*
X402442Y692442D01*
X406295Y689868D01*
X406627Y687175D01*
X406295Y684482D01*
X402442Y681908D01*
X399459Y677443D01*
X398411Y672175D01*
X399459Y666908D01*
X402442Y662442D01*
X402225Y656574D01*
X399558Y654792D01*
X395691Y649003D01*
X395679Y648943D01*
X390679Y649436D01*
Y667233D01*
X390679Y667233D01*
X389437Y673476D01*
X385901Y678769D01*
X341711Y722959D01*
X336418Y726495D01*
X330175Y727737D01*
X323932Y726495D01*
X318640Y722959D01*
X315104Y717666D01*
X313862Y711423D01*
X315104Y705180D01*
X318640Y699888D01*
X358052Y660476D01*
Y573079D01*
X359293Y566836D01*
X362830Y561543D01*
X364386Y559987D01*
X362394Y554908D01*
X357752Y553985D01*
X352186Y550266D01*
X348467Y544700D01*
X347161Y538135D01*
X348467Y531569D01*
X352186Y526003D01*
X378633Y499556D01*
X384199Y495837D01*
X390765Y494531D01*
X393048Y494986D01*
X512273Y375762D01*
Y257862D01*
X508781Y254309D01*
X507273Y254309D01*
X479175D01*
Y222655D01*
Y191002D01*
X506105D01*
X506783Y190175D01*
X508336Y182372D01*
X512756Y175756D01*
X519372Y171336D01*
X522175Y170778D01*
Y190175D01*
X527175D01*
Y195175D01*
X546572D01*
X546015Y197979D01*
X545986Y198023D01*
X549869Y201210D01*
X605556Y145523D01*
X604544Y144204D01*
X599973Y133167D01*
X598414Y121323D01*
X599973Y109479D01*
X604544Y98442D01*
X611817Y88965D01*
X621294Y81692D01*
X632331Y77121D01*
X644175Y75562D01*
X656019Y77121D01*
X667056Y81692D01*
X676534Y88965D01*
X683806Y98442D01*
X688378Y109479D01*
X689937Y121323D01*
X688378Y133167D01*
X683806Y144204D01*
X676534Y153681D01*
X667056Y160954D01*
X656019Y165525D01*
X644175Y167085D01*
X632331Y165525D01*
X621294Y160954D01*
X619976Y159942D01*
X532665Y247252D01*
Y379985D01*
X531889Y383887D01*
X529679Y387195D01*
X427074Y489798D01*
X428720Y495223D01*
X429943Y495466D01*
X434408Y498450D01*
X437392Y502916D01*
X438440Y508183D01*
X437392Y513451D01*
X434408Y517916D01*
X433532Y518502D01*
Y523658D01*
X432756Y527560D01*
X430546Y530868D01*
X429739Y531675D01*
X430193Y533960D01*
X429959Y535137D01*
X433334Y538957D01*
X438136Y538981D01*
X463004Y514114D01*
X466311Y511903D01*
X470213Y511127D01*
X599756D01*
X599973Y509479D01*
X604544Y498442D01*
X611817Y488965D01*
X621294Y481692D01*
X632331Y477121D01*
X644175Y475562D01*
X656019Y477121D01*
X667056Y481692D01*
X676534Y488965D01*
X683806Y498442D01*
X688378Y509479D01*
X689937Y521323D01*
X688378Y533167D01*
X683806Y544204D01*
X676534Y553682D01*
X667056Y560954D01*
X656019Y565525D01*
X644175Y567085D01*
X632331Y565525D01*
X621294Y560954D01*
X611817Y553682D01*
X604544Y544204D01*
X599973Y533167D01*
X599756Y531519D01*
X474437D01*
X452009Y553947D01*
X452463Y556230D01*
X452228Y557412D01*
X455602Y561232D01*
X460406Y561255D01*
X476696Y544966D01*
X480003Y542755D01*
X483905Y541979D01*
X553135D01*
X556908Y539458D01*
X562175Y538411D01*
X567443Y539458D01*
X571908Y542442D01*
X574892Y546908D01*
X575940Y552175D01*
X574892Y557443D01*
X571908Y561908D01*
X567443Y564892D01*
X562175Y565940D01*
X556908Y564892D01*
X553135Y562371D01*
X488128D01*
X475120Y575380D01*
X476948Y580114D01*
X479849Y579537D01*
X487975Y581153D01*
X490625Y582924D01*
X463090Y610460D01*
X470161Y617531D01*
X497696Y589995D01*
X499467Y592646D01*
X501083Y600772D01*
X500504Y603686D01*
X505240Y605505D01*
X531160Y579585D01*
X534468Y577375D01*
X538370Y576598D01*
X558069D01*
X561841Y574078D01*
X567109Y573030D01*
X572376Y574078D01*
X576842Y577061D01*
X579826Y581527D01*
X580873Y586794D01*
X579826Y592062D01*
X576842Y596527D01*
X572376Y599511D01*
X567109Y600559D01*
X561841Y599511D01*
X558069Y596990D01*
X542593D01*
X518823Y620761D01*
X519277Y623044D01*
X518885Y625014D01*
X522421Y628549D01*
X524391Y628157D01*
X530956Y629463D01*
X536522Y633182D01*
X540241Y638748D01*
X541547Y645314D01*
X541155Y647286D01*
X544690Y650822D01*
X546663Y650429D01*
X553228Y651735D01*
X558794Y655454D01*
X562513Y661020D01*
X563819Y667586D01*
X562513Y674151D01*
X558794Y679717D01*
X532384Y706127D01*
X532386Y706285D01*
X533919Y711127D01*
X544175D01*
X548077Y711903D01*
X551385Y714114D01*
X619976Y782704D01*
X621294Y781692D01*
X632331Y777121D01*
X644175Y775562D01*
X656019Y777121D01*
X667056Y781692D01*
X676534Y788965D01*
X683806Y798442D01*
X688378Y809479D01*
X689937Y821323D01*
X688378Y833167D01*
X683806Y844204D01*
X676534Y853682D01*
X667056Y860954D01*
X656019Y865525D01*
X644175Y867085D01*
X632331Y865525D01*
X621294Y860954D01*
X611817Y853682D01*
X604544Y844204D01*
X599973Y833167D01*
X598871Y824798D01*
X593871Y825126D01*
Y873889D01*
X609123Y889141D01*
X611817Y888965D01*
X621294Y881692D01*
X632331Y877121D01*
X644175Y875562D01*
X656019Y877121D01*
X667056Y881692D01*
X676534Y888965D01*
X683806Y898442D01*
X688378Y909479D01*
X689937Y921323D01*
X688378Y933167D01*
X683806Y944204D01*
X676534Y953682D01*
X667056Y960954D01*
X656019Y965525D01*
X644175Y967085D01*
X632331Y965525D01*
X621294Y960954D01*
X611817Y953682D01*
X604544Y944204D01*
X599973Y933167D01*
X598414Y921323D01*
X599973Y909479D01*
X600163Y909020D01*
X579660Y888516D01*
X579000Y888353D01*
X573497Y889425D01*
X571908Y891803D01*
X567443Y894787D01*
X562175Y895835D01*
X556908Y894787D01*
X552442Y891803D01*
X549458Y887338D01*
X548411Y882070D01*
X548640Y880918D01*
X532013Y864292D01*
X527405Y866755D01*
X527489Y867175D01*
X526247Y873418D01*
X522711Y878711D01*
X517418Y882247D01*
X511175Y883489D01*
X506413Y882542D01*
X503941Y887140D01*
X573711Y956910D01*
X577247Y962202D01*
X578489Y968445D01*
Y1236646D01*
X622879Y1281036D01*
X632331Y1277121D01*
X644175Y1275562D01*
X656019Y1277121D01*
X667056Y1281693D01*
X676534Y1288965D01*
X683806Y1298442D01*
X688378Y1309479D01*
X689937Y1321323D01*
X688378Y1333167D01*
X683806Y1344204D01*
X676534Y1353681D01*
X667056Y1360954D01*
X656019Y1365525D01*
X646871Y1366730D01*
X646457Y1366785D01*
Y1371827D01*
X646871Y1371882D01*
X657063Y1373224D01*
X669073Y1378198D01*
X679386Y1386112D01*
X687300Y1396425D01*
X692274Y1408435D01*
X693313Y1416323D01*
X644175D01*
X595037D01*
X596076Y1408435D01*
X601051Y1396425D01*
X607596Y1387895D01*
X604131Y1384196D01*
X599566Y1387247D01*
X593323Y1388489D01*
X548175D01*
Y1443175D01*
X466175D01*
Y1388489D01*
X455649D01*
X453489Y1390649D01*
Y1423345D01*
Y1470824D01*
X460056Y1473544D01*
X469534Y1480817D01*
X476806Y1490294D01*
X481377Y1501331D01*
X482937Y1513175D01*
X481377Y1525019D01*
X476806Y1536056D01*
X469534Y1545534D01*
X460056Y1552806D01*
X449019Y1557378D01*
X439871Y1558582D01*
X439457Y1558637D01*
Y1563679D01*
X439871Y1563734D01*
X450063Y1565076D01*
X462073Y1570051D01*
X472386Y1577964D01*
X480300Y1588277D01*
X485274Y1600287D01*
X486313Y1608175D01*
X437175D01*
Y1613175D01*
X432175D01*
Y1662313D01*
D02*
G37*
G36*
X237175Y1658937D02*
X225331Y1657378D01*
X214294Y1652806D01*
X204817Y1645534D01*
X197544Y1636056D01*
X192973Y1625019D01*
X191414Y1613175D01*
X192973Y1601331D01*
X197544Y1590294D01*
X204817Y1580817D01*
X214294Y1573544D01*
X225331Y1568973D01*
X237175Y1567414D01*
X249019Y1568973D01*
X260056Y1573544D01*
X269534Y1580817D01*
X276806Y1590294D01*
X281377Y1601331D01*
X282937Y1613175D01*
X281377Y1625019D01*
X276806Y1636056D01*
X269534Y1645534D01*
X260056Y1652806D01*
X249019Y1657378D01*
X237175Y1658937D01*
D02*
G37*
G36*
X544004Y1546973D02*
X537761Y1545731D01*
X532469Y1542195D01*
X528933Y1536903D01*
X527691Y1530660D01*
X528933Y1524417D01*
X532469Y1519124D01*
X537761Y1515588D01*
X544004Y1514346D01*
X550247Y1515588D01*
X555540Y1519124D01*
X559076Y1524417D01*
X560318Y1530660D01*
X559076Y1536903D01*
X555540Y1542195D01*
X550247Y1545731D01*
X544004Y1546973D01*
D02*
G37*
G36*
X30175Y1567085D02*
X18331Y1565525D01*
X7294Y1560954D01*
X-2183Y1553681D01*
X-9456Y1544204D01*
X-14027Y1533167D01*
X-15586Y1521323D01*
X-14027Y1509479D01*
X-9456Y1498442D01*
X-2183Y1488965D01*
X7294Y1481693D01*
X18331Y1477121D01*
X30175Y1475562D01*
X42019Y1477121D01*
X53056Y1481693D01*
X62533Y1488965D01*
X69806Y1498442D01*
X74377Y1509479D01*
X75937Y1521323D01*
X74377Y1533167D01*
X69806Y1544204D01*
X62533Y1553681D01*
X53056Y1560954D01*
X42019Y1565525D01*
X30175Y1567085D01*
D02*
G37*
G36*
X337175Y1558937D02*
X325331Y1557378D01*
X314294Y1552806D01*
X304817Y1545534D01*
X297545Y1536056D01*
X292973Y1525019D01*
X291414Y1513175D01*
X292973Y1501331D01*
X297545Y1490294D01*
X304817Y1480817D01*
X314294Y1473544D01*
X325331Y1468973D01*
X337175Y1467414D01*
X349019Y1468973D01*
X360056Y1473544D01*
X369534Y1480817D01*
X376806Y1490294D01*
X381377Y1501331D01*
X382937Y1513175D01*
X381377Y1525019D01*
X376806Y1536056D01*
X369534Y1545534D01*
X360056Y1552806D01*
X349019Y1557378D01*
X337175Y1558937D01*
D02*
G37*
G36*
X237175D02*
X225331Y1557378D01*
X214294Y1552806D01*
X204817Y1545534D01*
X197544Y1536056D01*
X192973Y1525019D01*
X191414Y1513175D01*
X192973Y1501331D01*
X197544Y1490294D01*
X204817Y1480817D01*
X214294Y1473544D01*
X225331Y1468973D01*
X237175Y1467414D01*
X249019Y1468973D01*
X260056Y1473544D01*
X269534Y1480817D01*
X276806Y1490294D01*
X281377Y1501331D01*
X282937Y1513175D01*
X281377Y1525019D01*
X276806Y1536056D01*
X269534Y1545534D01*
X260056Y1552806D01*
X249019Y1557378D01*
X237175Y1558937D01*
D02*
G37*
G36*
X644175Y1567085D02*
X632331Y1565525D01*
X621294Y1560954D01*
X611817Y1553681D01*
X604544Y1544204D01*
X599973Y1533167D01*
X598414Y1521323D01*
X599973Y1509479D01*
X604544Y1498442D01*
X611817Y1488965D01*
X621294Y1481693D01*
X632331Y1477121D01*
X641480Y1475917D01*
X641893Y1475862D01*
Y1470819D01*
X641480Y1470764D01*
X631287Y1469422D01*
X619277Y1464448D01*
X608964Y1456534D01*
X601051Y1446221D01*
X596076Y1434211D01*
X595037Y1426323D01*
X644175D01*
X693313D01*
X692274Y1434211D01*
X687300Y1446221D01*
X679386Y1456534D01*
X669073Y1464448D01*
X657063Y1469422D01*
X646871Y1470764D01*
X646457Y1470819D01*
Y1475862D01*
X646871Y1475917D01*
X656019Y1477121D01*
X667056Y1481693D01*
X676534Y1488965D01*
X683806Y1498442D01*
X688378Y1509479D01*
X689937Y1521323D01*
X688378Y1533167D01*
X683806Y1544204D01*
X676534Y1553681D01*
X667056Y1560954D01*
X656019Y1565525D01*
X644175Y1567085D01*
D02*
G37*
G36*
X356141Y1382214D02*
X321613D01*
Y1351623D01*
X356141D01*
Y1382214D01*
D02*
G37*
G36*
X311613D02*
X277086D01*
Y1351623D01*
X311613D01*
Y1382214D01*
D02*
G37*
G36*
X271703D02*
X237175D01*
Y1351623D01*
X271703D01*
Y1382214D01*
D02*
G37*
G36*
X227175D02*
X192648D01*
Y1351623D01*
X227175D01*
Y1382214D01*
D02*
G37*
G36*
X154813Y1344349D02*
X146327Y1342661D01*
X139134Y1337855D01*
X137628Y1335602D01*
X132628D01*
X131123Y1337855D01*
X123929Y1342661D01*
X115443Y1344349D01*
X106957Y1342661D01*
X99764Y1337855D01*
X94957Y1330661D01*
X93269Y1322175D01*
X94957Y1313689D01*
X99764Y1306496D01*
X106957Y1301689D01*
X115443Y1300001D01*
X123929Y1301689D01*
X131123Y1306496D01*
X132628Y1308749D01*
X137628D01*
X139134Y1306496D01*
X146327Y1301689D01*
X154813Y1300001D01*
X163299Y1301689D01*
X170493Y1306496D01*
X175299Y1313689D01*
X176987Y1322175D01*
X175299Y1330661D01*
X170493Y1337855D01*
X163299Y1342661D01*
X154813Y1344349D01*
D02*
G37*
G36*
Y1295137D02*
X146327Y1293449D01*
X139134Y1288643D01*
X137628Y1286390D01*
X132628D01*
X131123Y1288643D01*
X123929Y1293449D01*
X115443Y1295137D01*
X106957Y1293449D01*
X99764Y1288643D01*
X94957Y1281449D01*
X93269Y1272963D01*
X94957Y1264477D01*
X99764Y1257284D01*
X106957Y1252477D01*
X115443Y1250789D01*
X123929Y1252477D01*
X131123Y1257284D01*
X132628Y1259537D01*
X137628D01*
X139134Y1257284D01*
X146327Y1252477D01*
X154813Y1250789D01*
X163299Y1252477D01*
X170493Y1257284D01*
X175299Y1264477D01*
X176987Y1272963D01*
X175299Y1281449D01*
X170493Y1288643D01*
X163299Y1293449D01*
X154813Y1295137D01*
D02*
G37*
G36*
X502175Y1291585D02*
X462175D01*
Y1221585D01*
X502175D01*
Y1291585D01*
D02*
G37*
G36*
X107175Y1229023D02*
Y1217175D01*
X119023D01*
X118660Y1219003D01*
X114792Y1224792D01*
X109003Y1228660D01*
X107175Y1229023D01*
D02*
G37*
G36*
X97175D02*
X95347Y1228660D01*
X89558Y1224792D01*
X85691Y1219003D01*
X85327Y1217175D01*
X97175D01*
Y1229023D01*
D02*
G37*
G36*
X119023Y1207175D02*
X107175D01*
Y1195327D01*
X109003Y1195691D01*
X114792Y1199558D01*
X118660Y1205347D01*
X119023Y1207175D01*
D02*
G37*
G36*
X97175D02*
X85327D01*
X85691Y1205347D01*
X89558Y1199558D01*
X95347Y1195691D01*
X97175Y1195327D01*
Y1207175D01*
D02*
G37*
G36*
X191635Y1242322D02*
X168613Y1219299D01*
X194419Y1193492D01*
X217442Y1216515D01*
X191635Y1242322D01*
D02*
G37*
G36*
X275175Y1206940D02*
X269908Y1205892D01*
X265442Y1202908D01*
X262459Y1198443D01*
X261411Y1193175D01*
X262459Y1187908D01*
X265442Y1183442D01*
X269908Y1180458D01*
X275175Y1179411D01*
X280443Y1180458D01*
X284908Y1183442D01*
X287892Y1187908D01*
X288940Y1193175D01*
X287892Y1198443D01*
X284908Y1202908D01*
X280443Y1205892D01*
X275175Y1206940D01*
D02*
G37*
G36*
X644175Y1267085D02*
X632331Y1265525D01*
X621294Y1260954D01*
X611817Y1253681D01*
X604544Y1244204D01*
X599973Y1233167D01*
X598414Y1221323D01*
X599973Y1209479D01*
X604544Y1198442D01*
X611817Y1188965D01*
X621294Y1181693D01*
X632331Y1177121D01*
X644175Y1175562D01*
X656019Y1177121D01*
X667056Y1181693D01*
X676534Y1188965D01*
X683806Y1198442D01*
X688378Y1209479D01*
X689937Y1221323D01*
X688378Y1233167D01*
X683806Y1244204D01*
X676534Y1253681D01*
X667056Y1260954D01*
X656019Y1265525D01*
X644175Y1267085D01*
D02*
G37*
G36*
X502175Y1211585D02*
X462175D01*
Y1141585D01*
X502175D01*
Y1211585D01*
D02*
G37*
G36*
X356141Y1341623D02*
X277086D01*
Y1311732D01*
X277086Y1311732D01*
Y1311033D01*
X281086Y1308619D01*
X281086Y1306033D01*
Y1246137D01*
X306417D01*
Y1184463D01*
X247952Y1125997D01*
X225801D01*
X221899Y1125221D01*
X218592Y1123011D01*
X112990Y1017410D01*
X108371Y1019323D01*
Y1086952D01*
X116155Y1094736D01*
X135959Y1074932D01*
X183419Y1122391D01*
X183419D01*
X187559Y1124467D01*
X201345D01*
X205247Y1125243D01*
X208555Y1127453D01*
X253387Y1172285D01*
X255597Y1175593D01*
X256373Y1179495D01*
Y1246137D01*
X267703D01*
X267703Y1308619D01*
X271703Y1311033D01*
X271703Y1311732D01*
X271703Y1311732D01*
Y1341623D01*
X192648D01*
Y1311732D01*
X192648Y1311732D01*
Y1311033D01*
X196648Y1308619D01*
X196648Y1306033D01*
Y1246137D01*
X235982D01*
Y1204508D01*
X231362Y1202595D01*
X224513Y1209444D01*
X197955Y1182886D01*
X194419Y1186421D01*
X190884Y1182886D01*
X161542Y1212228D01*
X138519Y1189205D01*
X165733Y1161991D01*
X163820Y1157371D01*
X157175D01*
X153273Y1156595D01*
X150841Y1154969D01*
X130391Y1175419D01*
X82932Y1127959D01*
X101736Y1109155D01*
X90966Y1098385D01*
X88755Y1095077D01*
X87979Y1091175D01*
Y804277D01*
X88755Y800375D01*
X90966Y797068D01*
X110985Y777048D01*
X110531Y774765D01*
X111837Y768199D01*
X115556Y762633D01*
X142003Y736186D01*
X147569Y732467D01*
X154135Y731161D01*
X160700Y732467D01*
X166266Y736186D01*
X169985Y741752D01*
X171291Y748318D01*
X170899Y750290D01*
X174434Y753826D01*
X176407Y753433D01*
X182972Y754739D01*
X188538Y758458D01*
X192257Y764024D01*
X193563Y770590D01*
X193171Y772560D01*
X196707Y776095D01*
X198677Y775703D01*
X205242Y777009D01*
X210808Y780728D01*
X214527Y786294D01*
X215833Y792860D01*
X217547Y794574D01*
X220949Y793897D01*
X229075Y795513D01*
X231725Y797284D01*
X204190Y824820D01*
X211261Y831891D01*
X238796Y804355D01*
X240567Y807006D01*
X241049Y809429D01*
X246475Y811075D01*
X285910Y771640D01*
X291202Y768104D01*
X297445Y766862D01*
X322175D01*
X328418Y768104D01*
X333711Y771640D01*
X337247Y776932D01*
X338489Y783175D01*
X337247Y789418D01*
X333711Y794711D01*
X328418Y798247D01*
X322175Y799489D01*
X304202D01*
X269544Y834147D01*
X271190Y839573D01*
X273617Y840055D01*
X276267Y841826D01*
X248732Y869362D01*
X255803Y876433D01*
X283338Y848897D01*
X285109Y851548D01*
X286725Y859674D01*
X286049Y863075D01*
X287761Y864787D01*
X294326Y866093D01*
X299892Y869812D01*
X303611Y875378D01*
X304917Y881944D01*
X304525Y883916D01*
X308060Y887452D01*
X310033Y887059D01*
X316598Y888365D01*
X322164Y892084D01*
X325883Y897650D01*
X327189Y904216D01*
X325883Y910781D01*
X322164Y916347D01*
X295717Y942794D01*
X290151Y946513D01*
X285152Y947508D01*
X269491Y963168D01*
X269294Y963300D01*
X268804Y968276D01*
X275904Y975376D01*
X250097Y1001182D01*
X227075Y978159D01*
X246957Y958277D01*
X245994Y953435D01*
X247042Y948168D01*
X248589Y945852D01*
X244705Y942665D01*
X225743Y961627D01*
X221277Y964611D01*
X216010Y965659D01*
X215513D01*
X212841Y970659D01*
X213488Y971627D01*
X214536Y976894D01*
X213488Y982161D01*
X210504Y986627D01*
X206038Y989611D01*
X200771Y990659D01*
X195504Y989611D01*
X191038Y986627D01*
X188054Y982161D01*
X187006Y976894D01*
X188054Y971627D01*
X188701Y970659D01*
X186029Y965659D01*
X163183D01*
X157916Y964611D01*
X153450Y961627D01*
X150466Y957161D01*
X149419Y951894D01*
X150466Y946627D01*
X153019Y942807D01*
X152283Y940114D01*
X150967Y937807D01*
X140911D01*
X134668Y936565D01*
X129376Y933028D01*
X127371Y930028D01*
X122371Y931545D01*
Y997952D01*
X230024Y1105605D01*
X247952D01*
X271188Y1082369D01*
X261100Y1072281D01*
X311767Y1021614D01*
X312624Y1020756D01*
X312442Y1018908D01*
X309459Y1014443D01*
X308569Y1009969D01*
X306408Y1008748D01*
X306077Y1008561D01*
X303566Y1007901D01*
X303135Y1008332D01*
X280191Y1031276D01*
X257168Y1008253D01*
X282975Y982447D01*
X303469Y1002941D01*
X304373Y1003845D01*
X304374D01*
X307137Y1003670D01*
X311375Y1001039D01*
X312442Y999442D01*
X316908Y996458D01*
X322175Y995411D01*
X327443Y996458D01*
X331908Y999442D01*
X334892Y1003908D01*
X335940Y1009175D01*
X334892Y1014443D01*
X331908Y1018908D01*
X327443Y1021892D01*
X324435Y1022490D01*
X322609Y1027736D01*
X361587Y1066713D01*
X308559Y1119741D01*
X285607Y1096789D01*
X266594Y1115801D01*
X323823Y1173030D01*
X326033Y1176337D01*
X326809Y1180239D01*
Y1246137D01*
X352141D01*
X352141Y1308619D01*
X356141Y1311033D01*
X356141Y1311732D01*
X356141Y1311732D01*
Y1341623D01*
D02*
G37*
G36*
X644175Y1167085D02*
X632331Y1165525D01*
X621294Y1160954D01*
X611817Y1153681D01*
X604544Y1144204D01*
X599973Y1133167D01*
X598414Y1121323D01*
X599973Y1109479D01*
X604544Y1098442D01*
X611817Y1088965D01*
X621294Y1081693D01*
X632331Y1077121D01*
X644175Y1075562D01*
X656019Y1077121D01*
X667056Y1081693D01*
X676534Y1088965D01*
X683806Y1098442D01*
X688378Y1109479D01*
X689937Y1121323D01*
X688378Y1133167D01*
X683806Y1144204D01*
X676534Y1153681D01*
X667056Y1160954D01*
X656019Y1165525D01*
X644175Y1167085D01*
D02*
G37*
G36*
X79313Y1216323D02*
X30175D01*
X-18963D01*
X-17924Y1208435D01*
X-12950Y1196425D01*
X-5036Y1186112D01*
X5277Y1178198D01*
X17287Y1173224D01*
X27480Y1171882D01*
X27893Y1171827D01*
Y1166785D01*
X27480Y1166730D01*
X18331Y1165525D01*
X7294Y1160954D01*
X-2183Y1153681D01*
X-9456Y1144204D01*
X-14027Y1133167D01*
X-15586Y1121323D01*
X-14027Y1109479D01*
X-9456Y1098442D01*
X-2183Y1088965D01*
X7294Y1081693D01*
X18331Y1077121D01*
X30175Y1075562D01*
X42019Y1077121D01*
X53056Y1081693D01*
X62533Y1088965D01*
X69806Y1098442D01*
X74377Y1109479D01*
X75937Y1121323D01*
X74377Y1133167D01*
X69806Y1144204D01*
X62533Y1153681D01*
X53056Y1160954D01*
X42019Y1165525D01*
X32871Y1166730D01*
X32457Y1166785D01*
Y1171827D01*
X32871Y1171882D01*
X43063Y1173224D01*
X55073Y1178198D01*
X65386Y1186112D01*
X73300Y1196425D01*
X78275Y1208435D01*
X79313Y1216323D01*
D02*
G37*
G36*
X383175Y1074940D02*
X377908Y1073892D01*
X373442Y1070908D01*
X370459Y1066443D01*
X369411Y1061175D01*
X370459Y1055908D01*
X373442Y1051442D01*
X377908Y1048458D01*
X383175Y1047411D01*
X388443Y1048458D01*
X392908Y1051442D01*
X395892Y1055908D01*
X396940Y1061175D01*
X395892Y1066443D01*
X392908Y1070908D01*
X388443Y1073892D01*
X383175Y1074940D01*
D02*
G37*
G36*
X247313Y1064153D02*
X224291Y1041131D01*
X250097Y1015324D01*
X273120Y1038347D01*
X247313Y1064153D01*
D02*
G37*
G36*
X217220Y1034060D02*
X194197Y1011037D01*
X220004Y985231D01*
X243026Y1008253D01*
X217220Y1034060D01*
D02*
G37*
G36*
X644175Y1067085D02*
X632331Y1065525D01*
X621294Y1060954D01*
X611817Y1053681D01*
X604544Y1044204D01*
X599973Y1033167D01*
X598414Y1021323D01*
X599973Y1009479D01*
X604544Y998442D01*
X611817Y988965D01*
X621294Y981692D01*
X632331Y977121D01*
X644175Y975562D01*
X656019Y977121D01*
X667056Y981692D01*
X676534Y988965D01*
X683806Y998442D01*
X688378Y1009479D01*
X689937Y1021323D01*
X688378Y1033167D01*
X683806Y1044204D01*
X676534Y1053681D01*
X667056Y1060954D01*
X656019Y1065525D01*
X644175Y1067085D01*
D02*
G37*
G36*
X30175D02*
X18331Y1065525D01*
X7294Y1060954D01*
X-2183Y1053681D01*
X-9456Y1044204D01*
X-14027Y1033167D01*
X-15586Y1021323D01*
X-14027Y1009479D01*
X-9456Y998442D01*
X-2183Y988965D01*
X7294Y981692D01*
X18331Y977121D01*
X30175Y975562D01*
X42019Y977121D01*
X53056Y981692D01*
X62533Y988965D01*
X69806Y998442D01*
X74377Y1009479D01*
X75937Y1021323D01*
X74377Y1033167D01*
X69806Y1044204D01*
X62533Y1053681D01*
X53056Y1060954D01*
X42019Y1065525D01*
X30175Y1067085D01*
D02*
G37*
G36*
Y967085D02*
X18331Y965525D01*
X7294Y960954D01*
X-2183Y953682D01*
X-9456Y944204D01*
X-14027Y933167D01*
X-15586Y921323D01*
X-14027Y909479D01*
X-9456Y898442D01*
X-2183Y888965D01*
X7294Y881692D01*
X18331Y877121D01*
X30175Y875562D01*
X42019Y877121D01*
X53056Y881692D01*
X62533Y888965D01*
X69806Y898442D01*
X74377Y909479D01*
X75937Y921323D01*
X74377Y933167D01*
X69806Y944204D01*
X62533Y953682D01*
X53056Y960954D01*
X42019Y965525D01*
X30175Y967085D01*
D02*
G37*
G36*
X271175Y740940D02*
X265908Y739892D01*
X261442Y736908D01*
X258459Y732443D01*
X257411Y727175D01*
X258459Y721908D01*
X261442Y717442D01*
X265908Y714458D01*
X271175Y713411D01*
X276443Y714458D01*
X280908Y717442D01*
X283892Y721908D01*
X284940Y727175D01*
X283892Y732443D01*
X280908Y736908D01*
X276443Y739892D01*
X271175Y740940D01*
D02*
G37*
G36*
X644175Y767085D02*
X632331Y765525D01*
X621294Y760954D01*
X611817Y753682D01*
X604544Y744204D01*
X599973Y733167D01*
X598414Y721323D01*
X599973Y709479D01*
X604544Y698442D01*
X611817Y688965D01*
X621294Y681692D01*
X632331Y677121D01*
X644175Y675562D01*
X656019Y677121D01*
X667056Y681692D01*
X676534Y688965D01*
X683806Y698442D01*
X688378Y709479D01*
X689937Y721323D01*
X688378Y733167D01*
X683806Y744204D01*
X676534Y753682D01*
X667056Y760954D01*
X656019Y765525D01*
X644175Y767085D01*
D02*
G37*
G36*
X30175Y867085D02*
X18331Y865525D01*
X7294Y860954D01*
X-2183Y853682D01*
X-9456Y844204D01*
X-14027Y833167D01*
X-15586Y821323D01*
X-14027Y809479D01*
X-9456Y798442D01*
X-2183Y788965D01*
X7294Y781692D01*
X18331Y777121D01*
X30175Y775562D01*
X42019Y777121D01*
X53056Y781692D01*
X54375Y782704D01*
X81979Y755100D01*
Y674315D01*
X81241Y673667D01*
X77291Y671933D01*
X62394Y686830D01*
X62533Y688965D01*
X69806Y698442D01*
X74377Y709479D01*
X75937Y721323D01*
X74377Y733167D01*
X69806Y744204D01*
X62533Y753682D01*
X53056Y760954D01*
X42019Y765525D01*
X30175Y767085D01*
X18331Y765525D01*
X7294Y760954D01*
X-2183Y753682D01*
X-9456Y744204D01*
X-14027Y733167D01*
X-15586Y721323D01*
X-14027Y709479D01*
X-9456Y698442D01*
X-2183Y688965D01*
X7294Y681692D01*
X18331Y677121D01*
X30175Y675562D01*
X42019Y677121D01*
X42900Y677486D01*
X54700Y665685D01*
X51868Y661446D01*
X42019Y665525D01*
X30175Y667085D01*
X18331Y665525D01*
X7294Y660954D01*
X-2183Y653682D01*
X-9456Y644204D01*
X-14027Y633167D01*
X-15586Y621323D01*
X-14027Y609479D01*
X-9456Y598442D01*
X-2183Y588965D01*
X7294Y581692D01*
X18331Y577121D01*
X30175Y575562D01*
X42019Y577121D01*
X53056Y581692D01*
X62533Y588965D01*
X69806Y598442D01*
X74377Y609479D01*
X74422Y609814D01*
X79549Y610456D01*
X90040Y599966D01*
X90272Y599810D01*
X90255Y597381D01*
X89574Y594263D01*
X86928Y592495D01*
X54375Y559942D01*
X53056Y560954D01*
X42019Y565525D01*
X30175Y567085D01*
X18331Y565525D01*
X7294Y560954D01*
X-2183Y553682D01*
X-9456Y544204D01*
X-14027Y533167D01*
X-15586Y521323D01*
X-14027Y509479D01*
X-9456Y498442D01*
X-2183Y488965D01*
X7294Y481692D01*
X18331Y477121D01*
X30175Y475562D01*
X42019Y477121D01*
X53056Y481692D01*
X62533Y488965D01*
X69806Y498442D01*
X74377Y509479D01*
X75937Y521323D01*
X74377Y533167D01*
X69806Y544204D01*
X68794Y545523D01*
X98361Y575089D01*
X179015D01*
X182917Y575865D01*
X186225Y578076D01*
X192219Y584069D01*
X194502Y583615D01*
X196472Y584007D01*
X200007Y580472D01*
X199615Y578502D01*
X200070Y576218D01*
X191224Y567371D01*
X107175D01*
X103273Y566595D01*
X99966Y564385D01*
X84966Y549385D01*
X82755Y546077D01*
X81979Y542175D01*
Y487546D01*
X54375Y459942D01*
X53056Y460954D01*
X42019Y465526D01*
X30175Y467085D01*
X18331Y465526D01*
X7294Y460954D01*
X-2183Y453682D01*
X-9456Y444204D01*
X-14027Y433167D01*
X-15586Y421323D01*
X-14027Y409479D01*
X-9456Y398442D01*
X-2183Y388965D01*
X7294Y381692D01*
X18331Y377121D01*
X30175Y375562D01*
X42019Y377121D01*
X53056Y381692D01*
X58979Y386238D01*
X63979Y383772D01*
Y369546D01*
X54375Y359942D01*
X53056Y360954D01*
X42019Y365526D01*
X30175Y367085D01*
X18331Y365526D01*
X7294Y360954D01*
X-2183Y353682D01*
X-9456Y344204D01*
X-14027Y333167D01*
X-15586Y321323D01*
X-14027Y309479D01*
X-9456Y298442D01*
X-2183Y288965D01*
X7294Y281692D01*
X18331Y277121D01*
X30175Y275562D01*
X42019Y277121D01*
X53056Y281692D01*
X62533Y288965D01*
X69806Y298442D01*
X74377Y309479D01*
X75937Y321323D01*
X74377Y333167D01*
X69806Y344204D01*
X68794Y345523D01*
X76979Y353708D01*
X81979Y351637D01*
Y287546D01*
X54375Y259942D01*
X53056Y260954D01*
X42019Y265526D01*
X30175Y267085D01*
X18331Y265526D01*
X7294Y260954D01*
X-2183Y253681D01*
X-9456Y244204D01*
X-14027Y233167D01*
X-15586Y221323D01*
X-14027Y209479D01*
X-9456Y198442D01*
X-2183Y188965D01*
X7294Y181692D01*
X18331Y177121D01*
X30175Y175562D01*
X42019Y177121D01*
X53056Y181692D01*
X62533Y188965D01*
X69806Y198442D01*
X74377Y209479D01*
X75937Y221323D01*
X74377Y233167D01*
X69806Y244204D01*
X68794Y245523D01*
X93066Y269795D01*
X98492Y268149D01*
X98531Y267950D01*
X84466Y253885D01*
X82255Y250577D01*
X81479Y246675D01*
Y187047D01*
X54375Y159942D01*
X53056Y160954D01*
X42019Y165525D01*
X30175Y167085D01*
X18331Y165525D01*
X7294Y160954D01*
X-2183Y153681D01*
X-9456Y144204D01*
X-14027Y133167D01*
X-15586Y121323D01*
X-14027Y109479D01*
X-9456Y98442D01*
X-2183Y88965D01*
X7294Y81692D01*
X18331Y77121D01*
X30175Y75562D01*
X42019Y77121D01*
X53056Y81692D01*
X62533Y88965D01*
X69806Y98442D01*
X74377Y109479D01*
X75937Y121323D01*
X74377Y133167D01*
X69806Y144204D01*
X68794Y145523D01*
X98885Y175614D01*
X101095Y178921D01*
X101871Y182823D01*
Y195478D01*
X106871Y198151D01*
X107908Y197458D01*
X113175Y196411D01*
X118443Y197458D01*
X122908Y200442D01*
X125892Y204908D01*
X126940Y210175D01*
X125892Y215443D01*
X124391Y217689D01*
Y236530D01*
X147106Y259244D01*
X147106Y259245D01*
X149537Y262883D01*
X150391Y267175D01*
X150391Y267176D01*
Y303960D01*
X156569D01*
Y287522D01*
X217781D01*
Y342829D01*
X156569D01*
Y326391D01*
X145033D01*
X140741Y325537D01*
X137102Y323106D01*
X137102Y323106D01*
X131245Y317248D01*
X128813Y313609D01*
X127960Y309317D01*
X127960Y309317D01*
Y276697D01*
X127581Y276445D01*
X122581Y279117D01*
Y372922D01*
X164385Y414725D01*
X166595Y418033D01*
X167371Y421935D01*
Y439952D01*
X209399Y481979D01*
X264073D01*
X267975Y482755D01*
X271283Y484966D01*
X281303Y494985D01*
X283586Y494531D01*
X290151Y495837D01*
X295717Y499556D01*
X322164Y526003D01*
X325883Y531569D01*
X327189Y538135D01*
X326735Y540418D01*
X335385Y549068D01*
X337595Y552375D01*
X338371Y556277D01*
Y574135D01*
X340892Y577908D01*
X341940Y583175D01*
X340892Y588443D01*
X337908Y592908D01*
X333443Y595892D01*
X328175Y596940D01*
X322908Y595892D01*
X318442Y592908D01*
X315459Y588443D01*
X314411Y583175D01*
X315459Y577908D01*
X317979Y574135D01*
Y560500D01*
X312316Y554837D01*
X310033Y555291D01*
X308060Y554899D01*
X304525Y558434D01*
X304917Y560407D01*
X304381Y563102D01*
X305595Y564919D01*
X306371Y568821D01*
Y600952D01*
X330993Y625573D01*
X335443Y626458D01*
X339908Y629442D01*
X342892Y633908D01*
X343940Y639175D01*
X342892Y644443D01*
X339908Y648908D01*
X335443Y651892D01*
X330175Y652940D01*
X324908Y651892D01*
X320442Y648908D01*
X317459Y644443D01*
X316573Y639992D01*
X288966Y612385D01*
X286755Y609077D01*
X285979Y605175D01*
Y593399D01*
X285058Y592680D01*
X278319Y593765D01*
X277622Y594808D01*
X272056Y598527D01*
X265491Y599833D01*
X263518Y599441D01*
X259983Y602976D01*
X260375Y604949D01*
X259069Y611514D01*
X255350Y617080D01*
X249784Y620799D01*
X243219Y622105D01*
X241249Y621713D01*
X237713Y625249D01*
X238105Y627219D01*
X236799Y633784D01*
X233080Y639350D01*
X227514Y643069D01*
X220949Y644375D01*
X218976Y643983D01*
X215441Y647518D01*
X215833Y649491D01*
X214527Y656056D01*
X210808Y661622D01*
X205242Y665341D01*
X198677Y666647D01*
X196707Y666255D01*
X193171Y669791D01*
X193563Y671761D01*
X192257Y678326D01*
X188538Y683892D01*
X182972Y687611D01*
X176407Y688917D01*
X174434Y688525D01*
X170899Y692060D01*
X171291Y694033D01*
X169985Y700598D01*
X166266Y706164D01*
X160700Y709883D01*
X154135Y711189D01*
X147569Y709883D01*
X142003Y706164D01*
X115556Y679717D01*
X112505Y675151D01*
X107012Y673573D01*
X102371Y678215D01*
Y759323D01*
X101595Y763225D01*
X99385Y766533D01*
X68794Y797124D01*
X69806Y798442D01*
X74377Y809479D01*
X75937Y821323D01*
X74377Y833167D01*
X69806Y844204D01*
X62533Y853682D01*
X53056Y860954D01*
X42019Y865525D01*
X30175Y867085D01*
D02*
G37*
G36*
X241175Y697940D02*
X235908Y696892D01*
X231442Y693908D01*
X228458Y689443D01*
X227411Y684175D01*
X228458Y678908D01*
X231442Y674442D01*
X235908Y671458D01*
X241175Y670411D01*
X246443Y671458D01*
X250908Y674442D01*
X253892Y678908D01*
X254940Y684175D01*
X253892Y689443D01*
X250908Y693908D01*
X246443Y696892D01*
X241175Y697940D01*
D02*
G37*
G36*
X644175Y667085D02*
X632331Y665525D01*
X621294Y660954D01*
X611817Y653682D01*
X604544Y644204D01*
X599973Y633167D01*
X598414Y621323D01*
X599973Y609479D01*
X604544Y598442D01*
X611817Y588965D01*
X621294Y581692D01*
X632331Y577121D01*
X644175Y575562D01*
X656019Y577121D01*
X667056Y581692D01*
X676534Y588965D01*
X683806Y598442D01*
X688378Y609479D01*
X689937Y621323D01*
X688378Y633167D01*
X683806Y644204D01*
X676534Y653682D01*
X667056Y660954D01*
X656019Y665525D01*
X644175Y667085D01*
D02*
G37*
G36*
X536175Y461023D02*
Y449175D01*
X548023D01*
X547660Y451003D01*
X543792Y456792D01*
X538003Y460660D01*
X536175Y461023D01*
D02*
G37*
G36*
X526175D02*
X524347Y460660D01*
X518558Y456792D01*
X514691Y451003D01*
X514327Y449175D01*
X526175D01*
Y461023D01*
D02*
G37*
G36*
X240685Y455206D02*
X235418Y454158D01*
X230952Y451175D01*
X227969Y446709D01*
X226921Y441442D01*
X227969Y436174D01*
X230952Y431709D01*
X235418Y428725D01*
X240685Y427677D01*
X245953Y428725D01*
X250418Y431709D01*
X253402Y436174D01*
X254450Y441442D01*
X253402Y446709D01*
X250418Y451175D01*
X245953Y454158D01*
X240685Y455206D01*
D02*
G37*
G36*
X548023Y439175D02*
X536175D01*
Y427327D01*
X538003Y427691D01*
X543792Y431558D01*
X547660Y437347D01*
X548023Y439175D01*
D02*
G37*
G36*
X526175D02*
X514327D01*
X514691Y437347D01*
X518558Y431558D01*
X524347Y427691D01*
X526175Y427327D01*
Y439175D01*
D02*
G37*
G36*
X270587Y428736D02*
X265319Y427688D01*
X260854Y424704D01*
X257870Y420239D01*
X256822Y414971D01*
X257870Y409704D01*
X260854Y405238D01*
X265319Y402255D01*
X270587Y401207D01*
X275854Y402255D01*
X280320Y405238D01*
X283303Y409704D01*
X284351Y414971D01*
X283303Y420239D01*
X280320Y424704D01*
X275854Y427688D01*
X270587Y428736D01*
D02*
G37*
G36*
X644175Y467085D02*
X632331Y465526D01*
X621294Y460954D01*
X611817Y453682D01*
X604544Y444204D01*
X599973Y433167D01*
X598414Y421323D01*
X599973Y409479D01*
X604544Y398442D01*
X611817Y388965D01*
X621294Y381692D01*
X632331Y377121D01*
X644175Y375562D01*
X656019Y377121D01*
X667056Y381692D01*
X676534Y388965D01*
X683806Y398442D01*
X688378Y409479D01*
X689937Y421323D01*
X688378Y433167D01*
X683806Y444204D01*
X676534Y453682D01*
X667056Y460954D01*
X656019Y465526D01*
X644175Y467085D01*
D02*
G37*
G36*
X424675Y393750D02*
X419408Y392702D01*
X414942Y389718D01*
X411959Y385253D01*
X410911Y379985D01*
X411801Y375511D01*
X409945Y373516D01*
X407748Y372205D01*
X406690Y372912D01*
X401423Y373960D01*
X396155Y372912D01*
X391690Y369928D01*
X388706Y365463D01*
X387658Y360195D01*
X388706Y354928D01*
X389960Y353052D01*
Y342829D01*
X370569D01*
Y309292D01*
X365569Y308799D01*
X365247Y310418D01*
X361711Y315711D01*
X356418Y319247D01*
X350175Y320489D01*
X343932Y319247D01*
X338640Y315711D01*
X335103Y310418D01*
X334644Y308111D01*
X314474Y287940D01*
X298781D01*
Y342829D01*
X279391D01*
Y352681D01*
X280892Y354928D01*
X281940Y360195D01*
X280892Y365463D01*
X277908Y369928D01*
X273443Y372912D01*
X268175Y373960D01*
X262908Y372912D01*
X258442Y369928D01*
X255458Y365463D01*
X254411Y360195D01*
X255458Y354928D01*
X256960Y352681D01*
Y342829D01*
X237569D01*
Y287522D01*
X273095D01*
X275056Y282522D01*
X258442Y265908D01*
X255458Y261443D01*
X254411Y256175D01*
Y250309D01*
X237569D01*
Y195002D01*
X298781D01*
X301389Y191082D01*
Y168750D01*
X272119D01*
Y157644D01*
X267119Y155946D01*
X263386Y160812D01*
X256170Y166349D01*
X247767Y169829D01*
X238749Y171017D01*
X229732Y169829D01*
X221328Y166349D01*
X214113Y160812D01*
X208576Y153596D01*
X205095Y145193D01*
X203908Y136175D01*
X205095Y127158D01*
X208576Y118754D01*
X214113Y111539D01*
X221328Y106002D01*
X229732Y102521D01*
X238749Y101334D01*
X247767Y102521D01*
X256170Y106002D01*
X263386Y111539D01*
X267119Y116404D01*
X272119Y114707D01*
Y103600D01*
X276388D01*
Y95331D01*
X274459Y92443D01*
X273411Y87175D01*
X274459Y81908D01*
X276885Y78277D01*
X275942Y75183D01*
X274676Y73277D01*
X262278D01*
Y-13526D01*
X333333D01*
Y73277D01*
X299674D01*
X298408Y75183D01*
X297466Y78277D01*
X299892Y81908D01*
X300940Y87175D01*
X299892Y92443D01*
X296908Y96908D01*
X296780Y96994D01*
Y103600D01*
X370483D01*
Y99600D01*
X383357D01*
Y136175D01*
Y172750D01*
X370483D01*
Y168750D01*
X347421D01*
Y199940D01*
X349992Y203788D01*
X351040Y209055D01*
X349992Y214323D01*
X347008Y218788D01*
X342543Y221772D01*
X337275Y222820D01*
X334523Y227370D01*
X335337Y228589D01*
X336385Y233856D01*
X335927Y236158D01*
X340011Y240443D01*
X340175Y240411D01*
X345443Y241458D01*
X349908Y244442D01*
X352892Y248908D01*
X353940Y254175D01*
X353571Y256030D01*
X356699Y259832D01*
X357797Y260411D01*
X374474D01*
X379956Y254928D01*
X378043Y250309D01*
X370569D01*
Y195002D01*
X431781D01*
Y250309D01*
X418580D01*
X414940Y253175D01*
X413892Y258443D01*
X410908Y262908D01*
X391295Y282522D01*
X393256Y287522D01*
X431781D01*
Y342829D01*
X412391D01*
Y352311D01*
X414139Y354928D01*
X415187Y360195D01*
X414297Y364670D01*
X416153Y366665D01*
X418350Y367976D01*
X419408Y367269D01*
X424675Y366221D01*
X429943Y367269D01*
X430663Y367750D01*
X461940D01*
Y342829D01*
X443569D01*
Y287522D01*
X504781D01*
Y342829D01*
X486410D01*
Y372956D01*
X485479Y377638D01*
X482827Y381607D01*
X475797Y388637D01*
X471828Y391289D01*
X467146Y392220D01*
X430663D01*
X429943Y392702D01*
X424675Y393750D01*
D02*
G37*
G36*
X644175Y367085D02*
X632331Y365526D01*
X621294Y360954D01*
X611817Y353682D01*
X604544Y344204D01*
X599973Y333167D01*
X598414Y321323D01*
X599973Y309479D01*
X604544Y298442D01*
X611817Y288965D01*
X621294Y281692D01*
X632331Y277121D01*
X644175Y275562D01*
X656019Y277121D01*
X667056Y281692D01*
X676534Y288965D01*
X683806Y298442D01*
X688378Y309479D01*
X689937Y321323D01*
X688378Y333167D01*
X683806Y344204D01*
X676534Y353682D01*
X667056Y360954D01*
X656019Y365526D01*
X644175Y367085D01*
D02*
G37*
G36*
X469175Y254309D02*
X439569D01*
Y227655D01*
X469175D01*
Y254309D01*
D02*
G37*
G36*
X221781D02*
X192175D01*
Y227655D01*
X221781D01*
Y254309D01*
D02*
G37*
G36*
X182175D02*
X152569D01*
Y227655D01*
X182175D01*
Y254309D01*
D02*
G37*
G36*
X469175Y217655D02*
X439569D01*
Y191002D01*
X469175D01*
Y217655D01*
D02*
G37*
G36*
X221781D02*
X192175D01*
Y191002D01*
X221781D01*
Y217655D01*
D02*
G37*
G36*
X182175D02*
X152569D01*
Y191002D01*
X182175D01*
Y217655D01*
D02*
G37*
G36*
X644175Y267085D02*
X632331Y265526D01*
X621294Y260954D01*
X611817Y253681D01*
X604544Y244204D01*
X599973Y233167D01*
X598414Y221323D01*
X599973Y209479D01*
X604544Y198442D01*
X611817Y188965D01*
X621294Y181692D01*
X632331Y177121D01*
X644175Y175562D01*
X656019Y177121D01*
X667056Y181692D01*
X676534Y188965D01*
X683806Y198442D01*
X688378Y209479D01*
X689937Y221323D01*
X688378Y233167D01*
X683806Y244204D01*
X676534Y253681D01*
X667056Y260954D01*
X656019Y265526D01*
X644175Y267085D01*
D02*
G37*
G36*
X546572Y185175D02*
X532175D01*
Y170778D01*
X534979Y171336D01*
X541594Y175756D01*
X546015Y182372D01*
X546572Y185175D01*
D02*
G37*
G36*
X553175Y158141D02*
X547908Y157093D01*
X543442Y154109D01*
X540458Y149643D01*
X539411Y144376D01*
X540458Y139109D01*
X543442Y134643D01*
X547908Y131659D01*
X553175Y130612D01*
X558443Y131659D01*
X562908Y134643D01*
X565892Y139109D01*
X566940Y144376D01*
X565892Y149643D01*
X562908Y154109D01*
X558443Y157093D01*
X553175Y158141D01*
D02*
G37*
G36*
X406231Y172750D02*
X393357D01*
Y136175D01*
Y99600D01*
X406231D01*
Y109932D01*
X409519Y111048D01*
X411231Y111334D01*
X418180Y106002D01*
X426584Y102521D01*
X435601Y101334D01*
X444619Y102521D01*
X453022Y106002D01*
X460238Y111539D01*
X465775Y118754D01*
X469255Y127158D01*
X470443Y136175D01*
X469255Y145193D01*
X465775Y153596D01*
X460238Y160812D01*
X453022Y166349D01*
X444619Y169829D01*
X435601Y171017D01*
X426584Y169829D01*
X418180Y166349D01*
X411231Y161016D01*
X409519Y161303D01*
X406231Y162419D01*
Y172750D01*
D02*
G37*
G36*
X412073Y73277D02*
X341018D01*
Y-13526D01*
X412073D01*
Y73277D01*
D02*
G37*
G36*
X474971Y73761D02*
X472538Y73277D01*
X421727D01*
Y-13526D01*
X472538D01*
X474971Y-14010D01*
X477404Y-13526D01*
X480971D01*
Y-12817D01*
X484609Y-12093D01*
X492779Y-6634D01*
X498239Y1537D01*
X500156Y11175D01*
Y48576D01*
X498239Y58214D01*
X492779Y66384D01*
X484609Y71844D01*
X480971Y72567D01*
Y73277D01*
X477404D01*
X474971Y73761D01*
D02*
G37*
G36*
X199379D02*
X196946Y73277D01*
X193379D01*
Y72567D01*
X189741Y71844D01*
X181571Y66384D01*
X176112Y58214D01*
X174195Y48576D01*
Y11175D01*
X176112Y1537D01*
X181571Y-6634D01*
X189741Y-12093D01*
X193379Y-12817D01*
Y-13526D01*
X196946D01*
X199379Y-14010D01*
X201812Y-13526D01*
X252623D01*
Y73277D01*
X201812D01*
X199379Y73761D01*
D02*
G37*
%LPD*%
D10*
X507175Y1216585D02*
D03*
Y1372175D02*
D03*
D11*
X232175Y1277727D02*
D03*
Y1346623D02*
D03*
X316613Y1277727D02*
D03*
Y1346623D02*
D03*
D12*
X285993Y136175D02*
D03*
X311585D02*
D03*
X337175D02*
D03*
X362765D02*
D03*
X388357D02*
D03*
D13*
X451349Y29875D02*
D03*
X223001D02*
D03*
D14*
X376545D02*
D03*
X297805D02*
D03*
D15*
X187175Y315175D02*
D03*
Y222655D02*
D03*
X268175Y315175D02*
D03*
Y222655D02*
D03*
X401175Y315175D02*
D03*
Y222655D02*
D03*
X474175D02*
D03*
Y315175D02*
D03*
D16*
X194419Y1186421D02*
D03*
X311343Y1069497D02*
D03*
X250097Y1008253D02*
D03*
X133175Y1125175D02*
D03*
D17*
X296809Y917439D02*
D03*
X274537Y895167D02*
D03*
X252267Y872897D02*
D03*
X229995Y850625D02*
D03*
X207725Y828355D02*
D03*
X185453Y806083D02*
D03*
X163183Y783813D02*
D03*
X140911Y761541D02*
D03*
X377541Y524911D02*
D03*
X399813Y547183D02*
D03*
X422083Y569453D02*
D03*
X444355Y591725D02*
D03*
X466625Y613995D02*
D03*
X488897Y636267D02*
D03*
X511167Y658537D02*
D03*
X533439Y680809D02*
D03*
D18*
X140911D02*
D03*
X163183Y658537D02*
D03*
X185453Y636267D02*
D03*
X207725Y613995D02*
D03*
X229995Y591725D02*
D03*
X252267Y569453D02*
D03*
X274537Y547183D02*
D03*
X296809Y524911D02*
D03*
X533439Y761541D02*
D03*
X511167Y783813D02*
D03*
X488897Y806083D02*
D03*
X466625Y828355D02*
D03*
X444355Y850625D02*
D03*
X422083Y872897D02*
D03*
X399813Y895167D02*
D03*
X377541Y917439D02*
D03*
D19*
X113175Y210175D02*
Y241175D01*
X145033Y315175D02*
X187175D01*
X139175Y309317D02*
X145033Y315175D01*
X139175Y267175D02*
Y309317D01*
X113175Y241175D02*
X139175Y267175D01*
X337225Y209005D02*
X337275Y209055D01*
X268175Y315175D02*
Y360195D01*
X401175Y359948D02*
X401423Y360195D01*
X401175Y315175D02*
Y359948D01*
X337175Y136175D02*
X337225Y136225D01*
D20*
X98175Y804277D02*
Y1091175D01*
X311585Y222821D02*
X322620Y233856D01*
X311585Y136175D02*
Y222821D01*
X286584Y87766D02*
X287175Y87175D01*
X286584Y87766D02*
Y135584D01*
X285993Y136175D02*
X286584Y135584D01*
X185516Y1134663D02*
X201345D01*
X173004Y1147175D02*
X185516Y1134663D01*
X157175Y1147175D02*
X173004D01*
X135175Y1125175D02*
X157175Y1147175D01*
X133175Y1125175D02*
X135175D01*
X98175Y1091175D02*
X132175Y1125175D01*
X133175D01*
X201345Y1134663D02*
X246178Y1179495D01*
X252175Y1115801D02*
X298479Y1069497D01*
X311343D01*
X246178Y1179495D02*
Y1263725D01*
X232175Y1277727D02*
X246178Y1263725D01*
X98175Y804277D02*
X140911Y761541D01*
X296175Y605175D02*
X330175Y639175D01*
X296175Y568821D02*
Y605175D01*
X274537Y547183D02*
X296175Y568821D01*
X328175Y556277D02*
Y583175D01*
X296809Y524911D02*
X328175Y556277D01*
X512073Y702175D02*
X533439Y680809D01*
X412175Y702175D02*
X412175Y702175D01*
X512073D01*
X488897Y806083D02*
Y806757D01*
X562175Y880035D01*
Y882070D01*
X583675Y811777D02*
Y878112D01*
X533439Y761541D02*
X583675Y811777D01*
Y878112D02*
X626886Y921323D01*
X644175D01*
X264073Y492175D02*
X296809Y524911D01*
X112385Y267385D02*
Y377145D01*
X91675Y246675D02*
X112385Y267385D01*
X92175Y283323D02*
Y382391D01*
X30175Y221323D02*
X92175Y283323D01*
X91675Y182823D02*
Y246675D01*
X30175Y121323D02*
X91675Y182823D01*
X74175Y389846D02*
X112175Y427846D01*
X74175Y365323D02*
Y389846D01*
X30175Y321323D02*
X74175Y365323D01*
X112175Y490175D02*
X154175Y532175D01*
X112175Y427846D02*
Y490175D01*
X92175Y542175D02*
X107175Y557175D01*
X92175Y483323D02*
Y542175D01*
X30175Y421323D02*
X92175Y483323D01*
X154175Y532175D02*
X214989D01*
X178175Y512175D02*
X239531D01*
X137175Y471175D02*
X178175Y512175D01*
X137175Y427391D02*
Y471175D01*
X205175Y492175D02*
X264073D01*
X157175Y444175D02*
X205175Y492175D01*
X157175Y421935D02*
Y444175D01*
X92175Y382391D02*
X137175Y427391D01*
X112385Y377145D02*
X157175Y421935D01*
X30175Y321323D02*
Y345846D01*
X112175Y834819D02*
Y1002175D01*
X225801Y1115801D01*
X252175D01*
X413491Y775221D02*
X466625Y828355D01*
X413491Y747175D02*
Y775221D01*
X414317Y674317D02*
X495387D01*
X412175Y672175D02*
X414317Y674317D01*
X495387D02*
X511167Y658537D01*
X316613Y1180239D02*
Y1277727D01*
X252175Y1115801D02*
X316613Y1180239D01*
X399813Y547181D02*
X423336Y523658D01*
Y509522D02*
Y523658D01*
Y509522D02*
X424675Y508183D01*
X399813Y547181D02*
Y547183D01*
X538370Y586794D02*
X567109D01*
X488897Y636267D02*
X538370Y586794D01*
X483905Y552175D02*
X562175D01*
X444355Y591725D02*
X483905Y552175D01*
X500930Y721323D02*
X544175D01*
X644175Y821323D01*
X479917Y742336D02*
X500930Y721323D01*
X479917Y742336D02*
Y752563D01*
X511167Y783813D01*
X640095Y1321323D02*
X644175D01*
X337225Y136225D02*
Y209005D01*
X522469Y243029D02*
X644175Y121323D01*
X522469Y243029D02*
Y379985D01*
X377541Y524911D02*
X522469Y379985D01*
X112175Y834819D02*
X163183Y783813D01*
X239531Y512175D02*
X274537Y547183D01*
X214989Y532175D02*
X252267Y569453D01*
X107175Y557175D02*
X195447D01*
X229995Y591725D01*
X94137Y585285D02*
X179015D01*
X30175Y521323D02*
X94137Y585285D01*
X179015D02*
X207725Y613995D01*
X30175Y621323D02*
X83101D01*
X97249Y607175D01*
X156361D01*
X185453Y636267D01*
X131573Y627175D02*
X162935Y658537D01*
X30175Y704629D02*
Y721323D01*
Y704629D02*
X107629Y627175D01*
X131573D01*
X162935Y658537D02*
X163183D01*
X92175Y673991D02*
Y759323D01*
X30175Y821323D02*
X92175Y759323D01*
Y673991D02*
X107415Y658751D01*
X118853D01*
X140911Y680809D01*
X470213Y521323D02*
X644175D01*
X422083Y569453D02*
X470213Y521323D01*
D21*
X102175Y1212175D02*
X125145Y1189205D01*
X191635D01*
X194419Y1186421D01*
X412175Y642175D02*
X412749Y641601D01*
X436407D01*
X464013Y613995D01*
X466625D01*
X525644Y191706D02*
X527175Y190175D01*
X508077Y191706D02*
X525644D01*
X477128Y222655D02*
X508077Y191706D01*
X474175Y222655D02*
X477128D01*
X424675Y379985D02*
X467146D01*
X474175Y372956D01*
Y315175D02*
Y372956D01*
D22*
X374365Y573079D02*
Y667233D01*
X330175Y711423D02*
X374365Y667233D01*
X229995Y850625D02*
X297445Y783175D01*
X322175D01*
X374365Y573079D02*
X399813Y547631D01*
X194561Y886059D02*
X229995Y850625D01*
X159127Y921493D02*
X194561Y886059D01*
X399813Y547183D02*
Y547631D01*
X185453Y806083D02*
X185901D01*
X444355Y850625D02*
X562175Y968445D01*
Y1243403D01*
X140911Y921493D02*
X159127D01*
X562175Y1243403D02*
X640095Y1321323D01*
X30175D02*
Y1336675D01*
X116843Y1423345D01*
X437175D02*
Y1513175D01*
Y1383891D02*
Y1423345D01*
X116843D02*
X437175D01*
X448891Y1372175D02*
X507175D01*
X437175Y1383891D02*
X448891Y1372175D01*
X507175D02*
X593323D01*
X644175Y1321323D01*
D23*
X165175Y862175D02*
X189059Y886059D01*
X165175Y828162D02*
Y862175D01*
Y828162D02*
X185453Y807884D01*
X189059Y886059D02*
X194561D01*
X185453Y806083D02*
Y807884D01*
X320175Y274175D02*
X350175Y304175D01*
X286175Y274175D02*
X320175D01*
X268175Y256175D02*
X286175Y274175D01*
X380175D02*
X401175Y253175D01*
X357175Y274175D02*
X380175D01*
X351132Y280219D02*
X357175Y274175D01*
X268175Y222655D02*
Y256175D01*
X351132Y280219D02*
Y303219D01*
X350175Y304175D02*
X351132Y303219D01*
X401175Y222655D02*
Y253175D01*
X422826Y872897D02*
X488897Y938968D01*
X422083Y872897D02*
X422826D01*
X216010Y951894D02*
X272737Y895167D01*
X163183Y951894D02*
X216010D01*
X441775Y937129D02*
Y970610D01*
X399813Y895167D02*
X441775Y937129D01*
X415123Y953435D02*
X416652D01*
X379127Y917439D02*
X415123Y953435D01*
X377541Y917439D02*
X379127D01*
X259758Y953435D02*
X295754Y917439D01*
X296809D01*
X272737Y895167D02*
X274537D01*
D24*
X115443Y1371387D02*
D03*
Y1322175D02*
D03*
Y1272963D02*
D03*
X154813D02*
D03*
Y1322175D02*
D03*
Y1371387D02*
D03*
D25*
X437175Y1513175D02*
D03*
X337175D02*
D03*
X237175D02*
D03*
X437175Y1613175D02*
D03*
X337175D02*
D03*
X237175D02*
D03*
X644175Y1521323D02*
D03*
Y1421323D02*
D03*
Y1321323D02*
D03*
Y1221323D02*
D03*
Y1121323D02*
D03*
Y1021323D02*
D03*
Y921323D02*
D03*
Y821323D02*
D03*
Y721323D02*
D03*
Y621323D02*
D03*
Y521323D02*
D03*
Y421323D02*
D03*
Y321323D02*
D03*
Y221323D02*
D03*
Y121323D02*
D03*
X30175Y1521323D02*
D03*
Y1421323D02*
D03*
Y1321323D02*
D03*
Y1221323D02*
D03*
Y1121323D02*
D03*
Y1021323D02*
D03*
Y921323D02*
D03*
Y821323D02*
D03*
Y721323D02*
D03*
Y621323D02*
D03*
Y521323D02*
D03*
Y421323D02*
D03*
Y321323D02*
D03*
Y221323D02*
D03*
Y121323D02*
D03*
D26*
X238749Y136175D02*
D03*
X435601D02*
D03*
D27*
X199379Y29875D02*
D03*
X474971D02*
D03*
D28*
X113175Y210175D02*
D03*
X287175Y87175D02*
D03*
X322620Y233856D02*
D03*
X507175Y1166175D02*
D03*
X102175Y1212175D02*
D03*
X275175Y1193175D02*
D03*
X330175Y711423D02*
D03*
X330175Y639175D02*
D03*
X328175Y583175D02*
D03*
X138175Y840175D02*
D03*
X241175Y684175D02*
D03*
X271175Y727175D02*
D03*
X531175Y444175D02*
D03*
X412175Y642175D02*
D03*
X137175Y892175D02*
D03*
X383175Y1061175D02*
D03*
X340175Y254175D02*
D03*
X337275Y209055D02*
D03*
X322175Y1009175D02*
D03*
X562175Y882070D02*
D03*
X412175Y702175D02*
D03*
Y672175D02*
D03*
X413491Y747175D02*
D03*
X424675Y379985D02*
D03*
X140911Y921493D02*
D03*
X163183Y951894D02*
D03*
X200771Y976894D02*
D03*
X424675Y508183D02*
D03*
X268175Y360195D02*
D03*
X401423D02*
D03*
X270587Y414971D02*
D03*
X240685Y441442D02*
D03*
X567109Y586794D02*
D03*
X562175Y552175D02*
D03*
X441775Y970610D02*
D03*
X488897Y938968D02*
D03*
X416652Y953435D02*
D03*
X259758D02*
D03*
X553175Y144376D02*
D03*
D29*
X544004Y1530660D02*
D03*
X322175Y783175D02*
D03*
X350175Y304175D02*
D03*
X527175Y190175D02*
D03*
X530175Y1045175D02*
D03*
X511175Y867175D02*
D03*
%TF.MD5,9e9fbbb7eda45e389bbda71b7a65f861*%
M02*
