G04*
G04 #@! TF.GenerationSoftware,Altium Limited,Altium Designer,19.1.8 (144)*
G04*
G04 Layer_Color=2752767*
%FSLAX44Y44*%
%MOMM*%
G71*
G01*
G75*
D72*
X27291Y346300D02*
Y350364D01*
X31355D01*
Y346300D01*
X27291D01*
Y333801D02*
Y337864D01*
X31355D01*
Y333801D01*
X27291D01*
Y321301D02*
Y325365D01*
X31355D01*
Y321301D01*
X27291D01*
X37291D02*
Y325365D01*
X41355D01*
Y321301D01*
X37291D01*
Y333801D02*
Y337864D01*
X41355D01*
Y333801D01*
X37291D01*
Y346300D02*
Y350364D01*
X41355D01*
Y346300D01*
X37291D01*
X60642Y32557D02*
X58610Y36621D01*
X62674D01*
X60642Y32557D01*
X110643D02*
X108611Y36621D01*
X112675D01*
X110643Y32557D01*
X50642Y5556D02*
X51658Y6572D01*
X52674D01*
X51658Y7588D01*
X52674Y8604D01*
X51658D01*
X50642Y9620D01*
X49626Y8604D01*
X48610D01*
X49626Y7588D01*
X48610Y6572D01*
X49626D01*
X50642Y5556D01*
X120643D02*
X121659Y6572D01*
X122675D01*
X121659Y7588D01*
X122675Y8604D01*
X121659D01*
X120643Y9620D01*
X119627Y8604D01*
X118611D01*
X119627Y7588D01*
X118611Y6572D01*
X119627D01*
X120643Y5556D01*
X26714Y51353D02*
X27731Y53384D01*
X26714Y55416D01*
X28747Y54401D01*
X30779Y55416D01*
X29762Y53384D01*
X30779Y51353D01*
X28747Y52368D01*
X26714Y51353D01*
X137161Y387772D02*
Y386756D01*
X139193D01*
Y387772D01*
X140209D01*
Y389804D01*
X139193D01*
Y390820D01*
X137161D01*
Y389804D01*
X136145D01*
Y387772D01*
X137161D01*
X70911Y20110D02*
X71926Y22143D01*
X70911Y24174D01*
X72943Y23159D01*
X74974Y24174D01*
X73959Y22143D01*
X74974Y20110D01*
X72943Y21126D01*
X70911Y20110D01*
X79914Y57367D02*
X80930Y59399D01*
X79914Y61431D01*
X81946Y60415D01*
X83978Y61431D01*
X82962Y59399D01*
X83978Y57367D01*
X81946Y58383D01*
X79914Y57367D01*
X126791Y294177D02*
X127807Y296208D01*
X126791Y298241D01*
X128822Y297225D01*
X130855Y298241D01*
X129838Y296208D01*
X130855Y294177D01*
X128822Y295193D01*
X126791Y294177D01*
X23921Y305861D02*
X24936Y307892D01*
X23921Y309925D01*
X25952Y308909D01*
X27984Y309925D01*
X26969Y307892D01*
X27984Y305861D01*
X25952Y306877D01*
X23921Y305861D01*
X67863Y301035D02*
X68878Y303067D01*
X67863Y305098D01*
X69894Y304083D01*
X71926Y305098D01*
X70911Y303067D01*
X71926Y301035D01*
X69894Y302050D01*
X67863Y301035D01*
X81833Y178669D02*
X82849Y180702D01*
X81833Y182733D01*
X83864Y181717D01*
X85897Y182733D01*
X84881Y180702D01*
X85897Y178669D01*
X83864Y179685D01*
X81833Y178669D01*
X81833Y160319D02*
X82849Y162351D01*
X81833Y164382D01*
X83864Y163367D01*
X85897Y164382D01*
X84881Y162351D01*
X85897Y160319D01*
X83864Y161334D01*
X81833Y160319D01*
X81325Y146095D02*
X82340Y148126D01*
X81325Y150159D01*
X83357Y149143D01*
X85388Y150159D01*
X84373Y148126D01*
X85388Y146095D01*
X83357Y147111D01*
X81325Y146095D01*
X80816Y197910D02*
Y196894D01*
X82849D01*
Y197910D01*
X83864D01*
Y199942D01*
X82849D01*
Y200958D01*
X80816D01*
Y199942D01*
X79801D01*
Y197910D01*
X80816D01*
X33064Y211373D02*
X34081Y213405D01*
X33064Y215436D01*
X35096Y214421D01*
X37129Y215436D01*
X36112Y213405D01*
X37129Y211373D01*
X35096Y212388D01*
X33064Y211373D01*
X59226Y171749D02*
X60243Y173780D01*
X59226Y175812D01*
X61259Y174797D01*
X63291Y175812D01*
X62274Y173780D01*
X63291Y171749D01*
X61259Y172764D01*
X59226Y171749D01*
X66846Y182670D02*
X67863Y184702D01*
X66846Y186735D01*
X68878Y185718D01*
X70911Y186735D01*
X69894Y184702D01*
X70911Y182670D01*
X68878Y183687D01*
X66846Y182670D01*
X132886Y110788D02*
X133903Y112821D01*
X132886Y114853D01*
X134918Y113836D01*
X136951Y114853D01*
X135934Y112821D01*
X136951Y110788D01*
X134918Y111805D01*
X132886Y110788D01*
X102661Y161080D02*
X103677Y163113D01*
X102661Y165145D01*
X104692Y164128D01*
X106725Y165145D01*
X105709Y163113D01*
X106725Y161080D01*
X104692Y162097D01*
X102661Y161080D01*
X32810Y224580D02*
X33826Y226612D01*
X32810Y228645D01*
X34843Y227628D01*
X36874Y228645D01*
X35859Y226612D01*
X36874Y224580D01*
X34843Y225597D01*
X32810Y224580D01*
X95295Y267507D02*
X96311Y269538D01*
X95295Y271570D01*
X97326Y270555D01*
X99359Y271570D01*
X98343Y269538D01*
X99359Y267507D01*
X97326Y268522D01*
X95295Y267507D01*
X87928Y76245D02*
Y75229D01*
X89960D01*
Y76245D01*
X90976D01*
Y78277D01*
X89960D01*
Y79292D01*
X87928D01*
Y78277D01*
X86912D01*
Y76245D01*
X87928D01*
X84373Y62529D02*
X85388Y64560D01*
X84373Y66592D01*
X86404Y65577D01*
X88436Y66592D01*
X87421Y64560D01*
X88436Y62529D01*
X86404Y63545D01*
X84373Y62529D01*
X83636Y51068D02*
X84652Y53100D01*
X83636Y55132D01*
X85668Y54116D01*
X87700Y55132D01*
X86684Y53100D01*
X87700Y51068D01*
X85668Y52084D01*
X83636Y51068D01*
X132886Y47288D02*
Y46273D01*
X134918D01*
Y47288D01*
X135934D01*
Y49321D01*
X134918D01*
Y50336D01*
X132886D01*
Y49321D01*
X131870D01*
Y47288D01*
X132886D01*
X79801Y254298D02*
X80816Y256331D01*
X79801Y258363D01*
X81833Y257346D01*
X83864Y258363D01*
X82849Y256331D01*
X83864Y254298D01*
X81833Y255315D01*
X79801Y254298D01*
X133649Y264459D02*
Y263442D01*
X135681D01*
Y264459D01*
X136697D01*
Y266490D01*
X135681D01*
Y267507D01*
X133649D01*
Y266490D01*
X132633D01*
Y264459D01*
X133649D01*
X128822Y219247D02*
Y218230D01*
X130855D01*
Y219247D01*
X131870D01*
Y221278D01*
X130855D01*
Y222295D01*
X128822D01*
Y221278D01*
X127807D01*
Y219247D01*
X128822D01*
X140760Y222014D02*
X141777Y224046D01*
X140760Y226078D01*
X142793Y225062D01*
X144824Y226078D01*
X143808Y224046D01*
X144824Y222014D01*
X142793Y223030D01*
X140760Y222014D01*
X102661Y176320D02*
X103677Y178353D01*
X102661Y180385D01*
X104692Y179368D01*
X106725Y180385D01*
X105709Y178353D01*
X106725Y176320D01*
X104692Y177337D01*
X102661Y176320D01*
Y168701D02*
X103677Y170732D01*
X102661Y172764D01*
X104692Y171749D01*
X106725Y172764D01*
X105709Y170732D01*
X106725Y168701D01*
X104692Y169716D01*
X102661Y168701D01*
X102995Y187750D02*
X104011Y189783D01*
X102995Y191814D01*
X105027Y190798D01*
X107059Y191814D01*
X106043Y189783D01*
X107059Y187750D01*
X105027Y188766D01*
X102995Y187750D01*
X105836Y94484D02*
X106852Y96516D01*
X105836Y98548D01*
X107867Y97532D01*
X109900Y98548D01*
X108883Y96516D01*
X109900Y94484D01*
X107867Y95500D01*
X105836Y94484D01*
X33759Y232027D02*
X34775Y234059D01*
X33759Y236091D01*
X35791Y235075D01*
X37823Y236091D01*
X36807Y234059D01*
X37823Y232027D01*
X35791Y233043D01*
X33759Y232027D01*
X39416Y239749D02*
X40433Y241781D01*
X39416Y243813D01*
X41448Y242797D01*
X43481Y243813D01*
X42464Y241781D01*
X43481Y239749D01*
X41448Y240765D01*
X39416Y239749D01*
X48964Y246099D02*
X49980Y248131D01*
X48964Y250163D01*
X50996Y249147D01*
X53028Y250163D01*
X52012Y248131D01*
X53028Y246099D01*
X50996Y247115D01*
X48964Y246099D01*
X105836Y127046D02*
X106852Y129079D01*
X105836Y131110D01*
X107867Y130094D01*
X109900Y131110D01*
X108883Y129079D01*
X109900Y127046D01*
X107867Y128062D01*
X105836Y127046D01*
X66084Y89458D02*
X67101Y91490D01*
X66084Y93522D01*
X68116Y92506D01*
X70149Y93522D01*
X69132Y91490D01*
X70149Y89458D01*
X68116Y90474D01*
X66084Y89458D01*
X99929D02*
X100945Y91490D01*
X99929Y93522D01*
X101961Y92506D01*
X103993Y93522D01*
X102977Y91490D01*
X103993Y89458D01*
X101961Y90474D01*
X99929Y89458D01*
X66697Y103371D02*
X67713Y105403D01*
X66697Y107435D01*
X68729Y106419D01*
X70761Y107435D01*
X69745Y105403D01*
X70761Y103371D01*
X68729Y104387D01*
X66697Y103371D01*
X59102Y110094D02*
X60118Y112126D01*
X59102Y114158D01*
X61134Y113142D01*
X63166Y114158D01*
X62150Y112126D01*
X63166Y110094D01*
X61134Y111110D01*
X59102Y110094D01*
X142014Y147014D02*
X143030Y149046D01*
X142014Y151078D01*
X144046Y150062D01*
X146078Y151078D01*
X145062Y149046D01*
X146078Y147014D01*
X144046Y148030D01*
X142014Y147014D01*
X140760Y138221D02*
X141777Y140253D01*
X140760Y142284D01*
X142793Y141269D01*
X144824Y142284D01*
X143808Y140253D01*
X144824Y138221D01*
X142793Y139236D01*
X140760Y138221D01*
X110179Y244503D02*
X111195Y246535D01*
X110179Y248567D01*
X112211Y247551D01*
X114243Y248567D01*
X113227Y246535D01*
X114243Y244503D01*
X112211Y245519D01*
X110179Y244503D01*
X122148Y236466D02*
X123164Y238498D01*
X122148Y240530D01*
X124180Y239514D01*
X126212Y240530D01*
X125196Y238498D01*
X126212Y236466D01*
X124180Y237482D01*
X122148Y236466D01*
X103798Y240141D02*
X104814Y242173D01*
X103798Y244205D01*
X105830Y243189D01*
X107862Y244205D01*
X106846Y242173D01*
X107862Y240141D01*
X105830Y241157D01*
X103798Y240141D01*
X63947D02*
X64963Y242173D01*
X63947Y244205D01*
X65979Y243189D01*
X68011Y244205D01*
X66995Y242173D01*
X68011Y240141D01*
X65979Y241157D01*
X63947Y240141D01*
X138475Y34639D02*
X139490Y36672D01*
X138475Y38703D01*
X140506Y37687D01*
X142538Y38703D01*
X141523Y36672D01*
X142538Y34639D01*
X140506Y35656D01*
X138475Y34639D01*
D73*
X113075Y384347D02*
G03*
X113075Y384347I-2032J0D01*
G01*
X87675D02*
G03*
X87675Y384347I-2032J0D01*
G01*
X62274D02*
G03*
X62274Y384347I-2032J0D01*
G01*
X113075Y409747D02*
G03*
X113075Y409747I-2032J0D01*
G01*
X87675D02*
G03*
X87675Y409747I-2032J0D01*
G01*
X62274D02*
G03*
X62274Y409747I-2032J0D01*
G01*
X165653Y386416D02*
G03*
X165653Y386416I-2032J0D01*
G01*
Y361016D02*
G03*
X165653Y361016I-2032J0D01*
G01*
Y335616D02*
G03*
X165653Y335616I-2032J0D01*
G01*
Y310216D02*
G03*
X165653Y310216I-2032J0D01*
G01*
Y284816D02*
G03*
X165653Y284816I-2032J0D01*
G01*
Y259416D02*
G03*
X165653Y259416I-2032J0D01*
G01*
Y234016D02*
G03*
X165653Y234016I-2032J0D01*
G01*
Y208616D02*
G03*
X165653Y208616I-2032J0D01*
G01*
Y183216D02*
G03*
X165653Y183216I-2032J0D01*
G01*
Y157816D02*
G03*
X165653Y157816I-2032J0D01*
G01*
Y132416D02*
G03*
X165653Y132416I-2032J0D01*
G01*
Y107016D02*
G03*
X165653Y107016I-2032J0D01*
G01*
Y81616D02*
G03*
X165653Y81616I-2032J0D01*
G01*
Y56216D02*
G03*
X165653Y56216I-2032J0D01*
G01*
Y30816D02*
G03*
X165653Y30816I-2032J0D01*
G01*
X9696Y386416D02*
G03*
X9696Y386416I-2032J0D01*
G01*
Y361016D02*
G03*
X9696Y361016I-2032J0D01*
G01*
Y335616D02*
G03*
X9696Y335616I-2032J0D01*
G01*
Y310216D02*
G03*
X9696Y310216I-2032J0D01*
G01*
Y284816D02*
G03*
X9696Y284816I-2032J0D01*
G01*
Y259416D02*
G03*
X9696Y259416I-2032J0D01*
G01*
Y234016D02*
G03*
X9696Y234016I-2032J0D01*
G01*
Y208616D02*
G03*
X9696Y208616I-2032J0D01*
G01*
Y183216D02*
G03*
X9696Y183216I-2032J0D01*
G01*
Y157816D02*
G03*
X9696Y157816I-2032J0D01*
G01*
Y132416D02*
G03*
X9696Y132416I-2032J0D01*
G01*
Y107016D02*
G03*
X9696Y107016I-2032J0D01*
G01*
Y81616D02*
G03*
X9696Y81616I-2032J0D01*
G01*
Y56216D02*
G03*
X9696Y56216I-2032J0D01*
G01*
Y30816D02*
G03*
X9696Y30816I-2032J0D01*
G01*
M02*
