%TF.GenerationSoftware,Altium Limited,Altium Designer,19.1.8 (144)*%
G04 Layer_Color=16711935*
%FSLAX26Y26*%
%MOIN*%
%TF.FileFunction,Soldermask,Bot*%
%TF.Part,Single*%
G01*
G75*
%TA.AperFunction,Conductor*%
%ADD20C,0.008000*%
%TA.AperFunction,SMDPad,CuDef*%
%ADD32R,0.059500X0.017000*%
%ADD46R,0.070992X0.059181*%
%ADD47R,0.067500X0.025000*%
%ADD48R,0.027685X0.031622*%
%ADD49R,0.059181X0.070992*%
%ADD50R,0.087000X0.067000*%
%ADD51R,0.087000X0.158000*%
%ADD52R,0.067055X0.084772*%
%TA.AperFunction,ConnectorPad*%
%ADD53R,0.067055X0.084772*%
%TA.AperFunction,SMDPad,CuDef*%
%ADD54R,0.059181X0.067055*%
%TA.AperFunction,ComponentPad*%
%ADD55C,0.039496*%
%ADD56C,0.086740*%
%ADD57C,0.065087*%
%ADD58O,0.045402X0.082803*%
%TA.AperFunction,ViaPad*%
%ADD59C,0.023000*%
%ADD60C,0.028000*%
D20*
X192425Y261427D02*
X295049D01*
X257295Y209055D02*
X337275D01*
X230513Y235837D02*
X257295Y209055D01*
X192425Y235837D02*
X230513D01*
D32*
X192425Y568513D02*
D03*
Y542923D02*
D03*
Y517333D02*
D03*
Y491741D02*
D03*
Y466151D02*
D03*
Y440561D02*
D03*
Y414971D02*
D03*
Y389379D02*
D03*
Y363789D02*
D03*
Y338199D02*
D03*
Y312609D02*
D03*
Y287017D02*
D03*
Y235837D02*
D03*
X471925D02*
D03*
Y261427D02*
D03*
Y287017D02*
D03*
Y312609D02*
D03*
Y338199D02*
D03*
Y363789D02*
D03*
Y389379D02*
D03*
Y414971D02*
D03*
Y440561D02*
D03*
Y466151D02*
D03*
Y491741D02*
D03*
Y517333D02*
D03*
Y542923D02*
D03*
Y568513D02*
D03*
D46*
X131175Y93577D02*
D03*
Y18773D02*
D03*
X553175Y93577D02*
D03*
Y18773D02*
D03*
X471521Y683921D02*
D03*
Y758725D02*
D03*
D47*
X192425Y261427D02*
D03*
D48*
X377033Y836605D02*
D03*
X408529D02*
D03*
X440025D02*
D03*
X471521D02*
D03*
X377033Y885605D02*
D03*
X408529D02*
D03*
X440025D02*
D03*
X471521D02*
D03*
X303671D02*
D03*
X272175D02*
D03*
X240679D02*
D03*
X209183D02*
D03*
X303671Y836605D02*
D03*
X272175D02*
D03*
X240679D02*
D03*
X209183D02*
D03*
D49*
X154773Y1142175D02*
D03*
X229577D02*
D03*
D50*
X383865Y1410825D02*
D03*
Y1320825D02*
D03*
Y1230825D02*
D03*
D51*
X135865Y1321825D02*
D03*
D52*
X502175Y1230825D02*
D03*
Y1122557D02*
D03*
D53*
X537175Y1518041D02*
D03*
Y1626309D02*
D03*
X137175Y1518041D02*
D03*
Y1626309D02*
D03*
D54*
X314967Y1142175D02*
D03*
X383865D02*
D03*
D55*
X115443Y1371387D02*
D03*
Y1322175D02*
D03*
Y1272963D02*
D03*
X154813D02*
D03*
Y1322175D02*
D03*
Y1371387D02*
D03*
D56*
X437175Y1513175D02*
D03*
X337175D02*
D03*
X237175D02*
D03*
X437175Y1613175D02*
D03*
X337175D02*
D03*
X237175D02*
D03*
X644175Y1521323D02*
D03*
Y1421323D02*
D03*
Y1321323D02*
D03*
Y1221323D02*
D03*
Y1121323D02*
D03*
Y1021323D02*
D03*
Y921323D02*
D03*
Y821323D02*
D03*
Y721323D02*
D03*
Y621323D02*
D03*
Y521323D02*
D03*
Y421323D02*
D03*
Y321323D02*
D03*
Y221323D02*
D03*
Y121323D02*
D03*
X30175Y1521323D02*
D03*
Y1421323D02*
D03*
Y1321323D02*
D03*
Y1221323D02*
D03*
Y1121323D02*
D03*
Y1021323D02*
D03*
Y921323D02*
D03*
Y821323D02*
D03*
Y721323D02*
D03*
Y621323D02*
D03*
Y521323D02*
D03*
Y421323D02*
D03*
Y321323D02*
D03*
Y221323D02*
D03*
Y121323D02*
D03*
D57*
X238749Y136175D02*
D03*
X435601D02*
D03*
D58*
X199379Y29875D02*
D03*
X474971D02*
D03*
D59*
X113175Y210175D02*
D03*
X287175Y87175D02*
D03*
X322620Y233856D02*
D03*
X507175Y1166175D02*
D03*
X102175Y1212175D02*
D03*
X275175Y1193175D02*
D03*
X330175Y711423D02*
D03*
X330175Y639175D02*
D03*
X328175Y583175D02*
D03*
X138175Y840175D02*
D03*
X241175Y684175D02*
D03*
X271175Y727175D02*
D03*
X531175Y444175D02*
D03*
X412175Y642175D02*
D03*
X137175Y892175D02*
D03*
X383175Y1061175D02*
D03*
X340175Y254175D02*
D03*
X337275Y209055D02*
D03*
X322175Y1009175D02*
D03*
X562175Y882070D02*
D03*
X412175Y702175D02*
D03*
Y672175D02*
D03*
X413491Y747175D02*
D03*
X424675Y379985D02*
D03*
X140911Y921493D02*
D03*
X163183Y951894D02*
D03*
X200771Y976894D02*
D03*
X424675Y508183D02*
D03*
X268175Y360195D02*
D03*
X401423D02*
D03*
X270587Y414971D02*
D03*
X240685Y441442D02*
D03*
X567109Y586794D02*
D03*
X562175Y552175D02*
D03*
X441775Y970610D02*
D03*
X488897Y938968D02*
D03*
X416652Y953435D02*
D03*
X259758D02*
D03*
X553175Y144376D02*
D03*
D60*
X544004Y1530660D02*
D03*
X322175Y783175D02*
D03*
X350175Y304175D02*
D03*
X527175Y190175D02*
D03*
X530175Y1045175D02*
D03*
X511175Y867175D02*
D03*
%TF.MD5,32ea4a725d432f8acfb5c35b21412623*%
M02*
