G04*
G04 #@! TF.GenerationSoftware,Altium Limited,Altium Designer,19.1.8 (144)*
G04*
G04 Layer_Color=128*
%FSLAX44Y44*%
%MOMM*%
G71*
G01*
G75*
D52*
X33319Y23769D02*
D03*
Y4768D02*
D03*
X140506Y23769D02*
D03*
Y4768D02*
D03*
X119766Y173716D02*
D03*
Y192716D02*
D03*
D53*
X48876Y144402D02*
D03*
Y137902D02*
D03*
Y131403D02*
D03*
Y124902D02*
D03*
Y118402D02*
D03*
Y111903D02*
D03*
Y105403D02*
D03*
Y98902D02*
D03*
Y92402D02*
D03*
Y85903D02*
D03*
Y79403D02*
D03*
Y72902D02*
D03*
Y66403D02*
D03*
Y59903D02*
D03*
X119869D02*
D03*
Y66403D02*
D03*
Y72902D02*
D03*
Y79403D02*
D03*
Y85903D02*
D03*
Y92402D02*
D03*
Y98902D02*
D03*
Y105403D02*
D03*
Y111903D02*
D03*
Y118402D02*
D03*
Y124902D02*
D03*
Y131403D02*
D03*
Y137902D02*
D03*
Y144402D02*
D03*
D54*
X95766Y212498D02*
D03*
X103766D02*
D03*
X111766D02*
D03*
X119766D02*
D03*
X95766Y224944D02*
D03*
X103766D02*
D03*
X111766D02*
D03*
X119766D02*
D03*
X77133D02*
D03*
X69132D02*
D03*
X61132D02*
D03*
X53133D02*
D03*
X77133Y212498D02*
D03*
X69132D02*
D03*
X61132D02*
D03*
X53133D02*
D03*
D55*
X39312Y290112D02*
D03*
X58313D02*
D03*
D56*
X97502Y358350D02*
D03*
Y335490D02*
D03*
Y312630D02*
D03*
D57*
X34510Y335744D02*
D03*
D58*
X127552Y312630D02*
D03*
Y285130D02*
D03*
X136442Y385583D02*
D03*
Y413083D02*
D03*
X34843Y385583D02*
D03*
Y413083D02*
D03*
D59*
X80002Y290112D02*
D03*
X97502D02*
D03*
M02*
