G04*
G04 #@! TF.GenerationSoftware,Altium Limited,Altium Designer,19.1.8 (144)*
G04*
G04 Layer_Physical_Order=3*
G04 Layer_Color=16440176*
%FSLAX44Y44*%
%MOMM*%
G71*
G01*
G75*
D15*
X28747Y53384D02*
Y207055D01*
X74594Y118857D02*
Y224533D01*
Y118857D02*
X101961Y91490D01*
X50996Y248131D02*
X74594Y224533D01*
X28747Y207055D02*
X35096Y213405D01*
X48780Y99696D02*
Y212675D01*
X34843Y226612D02*
X48780Y212675D01*
X81833Y248621D02*
Y256331D01*
Y248621D02*
X94151Y236302D01*
Y110232D02*
Y236302D01*
Y110232D02*
X107867Y96516D01*
X48780Y99696D02*
X56986Y91490D01*
X68116D01*
D35*
X68878Y105552D02*
Y184702D01*
X68729Y105403D02*
X68878Y105552D01*
X61259Y112250D02*
Y173780D01*
X61134Y112126D02*
X61259Y112250D01*
X148253Y221784D02*
Y244049D01*
X104822Y178353D02*
X148253Y221784D01*
X104692Y178353D02*
X104822D01*
X148253Y244049D02*
X163620Y259416D01*
X99232Y176091D02*
X104590Y170732D01*
X104692D01*
X99232Y176091D02*
Y203773D01*
X137631Y242173D01*
X135762Y140945D02*
X143863Y149046D01*
X144046D01*
X137631Y242173D02*
Y258826D01*
X163620Y284816D01*
X135762Y134874D02*
Y140945D01*
Y134874D02*
X163620Y107016D01*
D42*
X86404Y64560D02*
X96565D01*
X104909Y56216D01*
X163620D01*
D43*
X81833Y182733D02*
X83864Y180702D01*
X81833Y182733D02*
Y198927D01*
D44*
X124180Y238498D02*
Y268593D01*
X65322Y327450D02*
X124180Y268593D01*
X65322Y327450D02*
Y357463D01*
X112211Y246535D02*
Y268370D01*
X56432Y324148D02*
X112211Y268370D01*
X56432Y324148D02*
Y349803D01*
X55420Y367366D02*
X65322Y357463D01*
X26714Y367366D02*
X55420D01*
X7664Y361016D02*
X45219D01*
X56432Y349803D01*
X7664Y234016D02*
X21534D01*
X29299Y241781D01*
X41448D01*
X7664Y386416D02*
X26714Y367366D01*
X21815Y270666D02*
X77337D01*
X7664Y284816D02*
X21815Y270666D01*
X77337D02*
X105830Y242173D01*
X7664Y259416D02*
X48735D01*
X65979Y242173D01*
D46*
X163620Y310216D02*
D03*
Y284816D02*
D03*
Y259416D02*
D03*
Y107016D02*
D03*
Y56216D02*
D03*
X7664Y386416D02*
D03*
Y361016D02*
D03*
Y284816D02*
D03*
Y259416D02*
D03*
Y234016D02*
D03*
D49*
X28747Y53384D02*
D03*
X83864Y180702D02*
D03*
X35096Y213405D02*
D03*
X61259Y173780D02*
D03*
X68878Y184702D02*
D03*
X34843Y226612D02*
D03*
X86404Y64560D02*
D03*
X81833Y256331D02*
D03*
X104692Y178353D02*
D03*
Y170732D02*
D03*
X107867Y96516D02*
D03*
X41448Y241781D02*
D03*
X50996Y248131D02*
D03*
X68116Y91490D02*
D03*
X101961D02*
D03*
X68729Y105403D02*
D03*
X61134Y112126D02*
D03*
X144046Y149046D02*
D03*
X112211Y246535D02*
D03*
X124180Y238498D02*
D03*
X105830Y242173D02*
D03*
X65979D02*
D03*
D50*
X138177Y388788D02*
D03*
X81833Y198927D02*
D03*
D51*
X138177Y335659D02*
Y388788D01*
Y335659D02*
X163620Y310216D01*
M02*
