%TF.GenerationSoftware,Altium Limited,Altium Designer,19.1.8 (144)*%
G04 Layer_Physical_Order=3*
G04 Layer_Color=16440176*
%FSLAX26Y26*%
%MOIN*%
%TF.FileFunction,Copper,L3,Inr,Signal*%
%TF.Part,Single*%
G01*
G75*
%TA.AperFunction,Conductor*%
%ADD19C,0.010000*%
%ADD20C,0.008000*%
%ADD21C,0.012000*%
%ADD22C,0.020000*%
%ADD23C,0.015000*%
%TA.AperFunction,ComponentPad*%
%ADD24C,0.031496*%
%ADD25C,0.078740*%
%ADD26C,0.057087*%
%ADD27O,0.037402X0.074803*%
%TA.AperFunction,ViaPad*%
%ADD28C,0.015000*%
%ADD29C,0.020000*%
%TA.AperFunction,Conductor*%
%ADD30C,0.030000*%
D19*
X113175Y210175D02*
Y815175D01*
X293675Y467943D02*
Y883990D01*
Y467943D02*
X401423Y360195D01*
X200771Y976894D02*
X293675Y883990D01*
X113175Y815175D02*
X138175Y840175D01*
X192047Y392503D02*
Y837303D01*
X137175Y892175D02*
X192047Y837303D01*
X322175Y978822D02*
Y1009175D01*
Y978822D02*
X370675Y930322D01*
Y433985D02*
Y930322D01*
Y433985D02*
X424675Y379985D01*
X192047Y392503D02*
X224354Y360195D01*
X268175D01*
D20*
X271175Y415560D02*
Y727175D01*
X270587Y414971D02*
X271175Y415560D01*
X241175Y441931D02*
Y684175D01*
X240685Y441442D02*
X241175Y441931D01*
X583675Y873165D02*
Y960823D01*
X412686Y702175D02*
X583675Y873165D01*
X412175Y702175D02*
X412686D01*
X583675Y960823D02*
X644175Y1021323D01*
X390675Y693270D02*
X411770Y672175D01*
X412175D01*
X390675Y693270D02*
Y802257D01*
X541853Y953435D01*
X534496Y554902D02*
X566389Y586794D01*
X567109D01*
X541853Y953435D02*
Y1019001D01*
X644175Y1121323D01*
X534496Y531002D02*
Y554902D01*
Y531002D02*
X644175Y421323D01*
D21*
X340175Y254175D02*
X380175D01*
X413027Y221323D01*
X644175D01*
D22*
X322175Y719423D02*
X330175Y711423D01*
X322175Y719423D02*
Y783175D01*
D23*
X488897Y938968D02*
Y1057453D01*
X257175Y1289175D02*
X488897Y1057453D01*
X257175Y1289175D02*
Y1407336D01*
X441775Y970610D02*
Y1056576D01*
X222175Y1276175D02*
X441775Y1056576D01*
X222175Y1276175D02*
Y1377175D01*
X218188Y1446323D02*
X257175Y1407336D01*
X105175Y1446323D02*
X218188D01*
X30175Y1421323D02*
X178027D01*
X222175Y1377175D01*
X30175Y921323D02*
X84781D01*
X115351Y951894D01*
X163183D01*
X30175Y1521323D02*
X105175Y1446323D01*
X85886Y1065613D02*
X304474D01*
X30175Y1121323D02*
X85886Y1065613D01*
X304474D02*
X416652Y953435D01*
X30175Y1021323D02*
X191870D01*
X259758Y953435D01*
D24*
X115443Y1371387D02*
D03*
Y1322175D02*
D03*
Y1272963D02*
D03*
X154813D02*
D03*
Y1322175D02*
D03*
Y1371387D02*
D03*
D25*
X437175Y1513175D02*
D03*
X337175D02*
D03*
X237175D02*
D03*
X437175Y1613175D02*
D03*
X337175D02*
D03*
X237175D02*
D03*
X644175Y1521323D02*
D03*
Y1421323D02*
D03*
Y1321323D02*
D03*
Y1221323D02*
D03*
Y1121323D02*
D03*
Y1021323D02*
D03*
Y921323D02*
D03*
Y821323D02*
D03*
Y721323D02*
D03*
Y621323D02*
D03*
Y521323D02*
D03*
Y421323D02*
D03*
Y321323D02*
D03*
Y221323D02*
D03*
Y121323D02*
D03*
X30175Y1521323D02*
D03*
Y1421323D02*
D03*
Y1321323D02*
D03*
Y1221323D02*
D03*
Y1121323D02*
D03*
Y1021323D02*
D03*
Y921323D02*
D03*
Y821323D02*
D03*
Y721323D02*
D03*
Y621323D02*
D03*
Y521323D02*
D03*
Y421323D02*
D03*
Y321323D02*
D03*
Y221323D02*
D03*
Y121323D02*
D03*
D26*
X238749Y136175D02*
D03*
X435601D02*
D03*
D27*
X199379Y29875D02*
D03*
X474971D02*
D03*
D28*
X113175Y210175D02*
D03*
X287175Y87175D02*
D03*
X322620Y233856D02*
D03*
X507175Y1166175D02*
D03*
X102175Y1212175D02*
D03*
X275175Y1193175D02*
D03*
X330175Y711423D02*
D03*
X330175Y639175D02*
D03*
X328175Y583175D02*
D03*
X138175Y840175D02*
D03*
X241175Y684175D02*
D03*
X271175Y727175D02*
D03*
X531175Y444175D02*
D03*
X412175Y642175D02*
D03*
X137175Y892175D02*
D03*
X383175Y1061175D02*
D03*
X340175Y254175D02*
D03*
X337275Y209055D02*
D03*
X322175Y1009175D02*
D03*
X562175Y882070D02*
D03*
X412175Y702175D02*
D03*
Y672175D02*
D03*
X413491Y747175D02*
D03*
X424675Y379985D02*
D03*
X140911Y921493D02*
D03*
X163183Y951894D02*
D03*
X200771Y976894D02*
D03*
X424675Y508183D02*
D03*
X268175Y360195D02*
D03*
X401423D02*
D03*
X270587Y414971D02*
D03*
X240685Y441442D02*
D03*
X567109Y586794D02*
D03*
X562175Y552175D02*
D03*
X441775Y970610D02*
D03*
X488897Y938968D02*
D03*
X416652Y953435D02*
D03*
X259758D02*
D03*
X553175Y144376D02*
D03*
D29*
X544004Y1530660D02*
D03*
X322175Y783175D02*
D03*
X350175Y304175D02*
D03*
X527175Y190175D02*
D03*
X530175Y1045175D02*
D03*
X511175Y867175D02*
D03*
D30*
X544004Y1321494D02*
Y1530660D01*
Y1321494D02*
X644175Y1221323D01*
%TF.MD5,f3cea079670fb3b9dc516fa3ae26b472*%
M02*
