G04*
G04 #@! TF.GenerationSoftware,Altium Limited,Altium Designer,19.1.8 (144)*
G04*
G04 Layer_Color=12632256*
%FSLAX44Y44*%
%MOMM*%
G71*
G01*
G75*
D45*
X29323Y348332D02*
D03*
Y335832D02*
D03*
Y323333D02*
D03*
X39323D02*
D03*
Y335832D02*
D03*
Y348332D02*
D03*
D46*
X111042Y384347D02*
D03*
X85642D02*
D03*
X60243D02*
D03*
X111042Y409747D02*
D03*
X85642D02*
D03*
X60243D02*
D03*
X163620Y386416D02*
D03*
Y361016D02*
D03*
Y335616D02*
D03*
Y310216D02*
D03*
Y284816D02*
D03*
Y259416D02*
D03*
Y234016D02*
D03*
Y208616D02*
D03*
Y183216D02*
D03*
Y157816D02*
D03*
Y132416D02*
D03*
Y107016D02*
D03*
Y81616D02*
D03*
Y56216D02*
D03*
Y30816D02*
D03*
X7664Y386416D02*
D03*
Y361016D02*
D03*
Y335616D02*
D03*
Y310216D02*
D03*
Y284816D02*
D03*
Y259416D02*
D03*
Y234016D02*
D03*
Y208616D02*
D03*
Y183216D02*
D03*
Y157816D02*
D03*
Y132416D02*
D03*
Y107016D02*
D03*
Y81616D02*
D03*
Y56216D02*
D03*
Y30816D02*
D03*
D47*
X60642Y34588D02*
D03*
X110643D02*
D03*
D48*
X50642Y7588D02*
D03*
X120643D02*
D03*
M02*
