G04*
G04 #@! TF.GenerationSoftware,Altium Limited,Altium Designer,19.1.8 (144)*
G04*
G04 Layer_Physical_Order=4*
G04 Layer_Color=16711680*
%FSLAX44Y44*%
%MOMM*%
G71*
G01*
G75*
G36*
X162160Y423854D02*
X166321Y422131D01*
X170065Y419629D01*
X173249Y416445D01*
X175751Y412701D01*
X177474Y408540D01*
X178353Y404124D01*
Y401872D01*
Y15792D01*
Y13541D01*
X177474Y9125D01*
X175751Y4964D01*
X173249Y1220D01*
X170065Y-1964D01*
X166321Y-4466D01*
X162160Y-6189D01*
X157744Y-7067D01*
X17062D01*
X14686Y-7067D01*
X10024Y-6140D01*
X5633Y-4321D01*
X1681Y-1681D01*
X-1681Y1681D01*
X-4321Y5633D01*
X-6140Y10024D01*
X-7067Y14686D01*
Y17062D01*
X-7067D01*
Y401872D01*
Y404124D01*
X-6189Y408540D01*
X-4466Y412701D01*
X-1964Y416445D01*
X1220Y419629D01*
X4964Y422131D01*
X9125Y423854D01*
X13541Y424733D01*
X24802D01*
Y414352D01*
X44882D01*
Y424733D01*
X126403D01*
Y414352D01*
X146482D01*
Y424733D01*
X157744D01*
X162160Y423854D01*
D02*
G37*
%LPC*%
G36*
X112312Y422228D02*
Y411017D01*
X123524D01*
X123260Y413020D01*
X121996Y416071D01*
X119986Y418690D01*
X117367Y420700D01*
X114316Y421964D01*
X112312Y422228D01*
D02*
G37*
G36*
X109773D02*
X107769Y421964D01*
X104718Y420700D01*
X102099Y418690D01*
X100089Y416071D01*
X98825Y413020D01*
X98484Y410431D01*
X98471Y410326D01*
X97190D01*
X97176Y410431D01*
X96870Y412755D01*
X95709Y415558D01*
X93862Y417966D01*
X91454Y419813D01*
X88651Y420974D01*
X85642Y421370D01*
X82634Y420974D01*
X79831Y419813D01*
X77424Y417966D01*
X75576Y415558D01*
X74415Y412755D01*
X74019Y409747D01*
X74415Y406738D01*
X75576Y403935D01*
X77424Y401527D01*
X79831Y399680D01*
X82634Y398519D01*
X85642Y398123D01*
X88651Y398519D01*
X91454Y399680D01*
X93862Y401527D01*
X95709Y403935D01*
X96870Y406738D01*
X97176Y409062D01*
X97190Y409167D01*
X98471D01*
X98484Y409062D01*
X98825Y406473D01*
X100089Y403422D01*
X102099Y400803D01*
X104718Y398793D01*
X107769Y397529D01*
X110358Y397188D01*
X110463Y397175D01*
Y395894D01*
X110358Y395880D01*
X108034Y395574D01*
X105231Y394413D01*
X102823Y392565D01*
X100976Y390158D01*
X99815Y387355D01*
X99419Y384347D01*
X99815Y381338D01*
X100976Y378535D01*
X102823Y376128D01*
X105231Y374280D01*
X108034Y373119D01*
X111042Y372723D01*
X114051Y373119D01*
X116854Y374280D01*
X119262Y376128D01*
X121109Y378535D01*
X122270Y381338D01*
X122666Y384347D01*
X122270Y387355D01*
X121109Y390158D01*
X119262Y392565D01*
X116854Y394413D01*
X114051Y395574D01*
X111727Y395880D01*
X111622Y395894D01*
Y397175D01*
X111727Y397188D01*
X114316Y397529D01*
X117367Y398793D01*
X119986Y400803D01*
X121996Y403422D01*
X123260Y406473D01*
X123524Y408476D01*
X111042D01*
Y409747D01*
X109773D01*
Y422228D01*
D02*
G37*
G36*
X60243Y421370D02*
X57234Y420974D01*
X54431Y419813D01*
X52024Y417966D01*
X50176Y415558D01*
X49015Y412755D01*
X48619Y409747D01*
X49015Y406738D01*
X49706Y405070D01*
X46153Y401516D01*
X44882Y402043D01*
Y411813D01*
X36112D01*
Y400793D01*
X43632D01*
X44159Y399523D01*
X41493Y396856D01*
X25819D01*
Y374309D01*
X34620D01*
Y356318D01*
X22953D01*
Y315170D01*
X35174D01*
Y299636D01*
X31288D01*
Y280588D01*
X47336D01*
Y299636D01*
X43461D01*
Y315170D01*
X46067D01*
Y329454D01*
X46967Y330349D01*
X85945Y330119D01*
Y326473D01*
X109059D01*
Y331346D01*
X111068D01*
X112654Y331661D01*
X113998Y332560D01*
X118097Y336659D01*
X118995Y338003D01*
X119311Y339589D01*
Y354070D01*
X125053Y356872D01*
X128223D01*
X128749Y355602D01*
X124622Y351476D01*
X123724Y350132D01*
X123409Y348546D01*
Y323904D01*
X118528D01*
Y316773D01*
X109059D01*
Y321647D01*
X85945D01*
Y303613D01*
X93358D01*
Y299137D01*
X89478D01*
X89042Y300152D01*
X81272D01*
Y290112D01*
Y280072D01*
X89042D01*
X89478Y281089D01*
X94737D01*
Y271835D01*
X94096Y270876D01*
X93830Y269538D01*
X94096Y268201D01*
X94854Y267066D01*
X95989Y266308D01*
X96923Y266123D01*
X97408Y265018D01*
X97423Y264827D01*
X86658Y254062D01*
X85228Y254428D01*
X85063Y254993D01*
X85329Y256331D01*
X85063Y257668D01*
X84305Y258803D01*
X83170Y259561D01*
X81833Y259827D01*
X80495Y259561D01*
X79360Y258803D01*
X78602Y257668D01*
X78336Y256331D01*
X78602Y254993D01*
X78984Y254422D01*
Y248821D01*
X75118Y244956D01*
X74501Y244031D01*
X74284Y242941D01*
X74284Y242941D01*
Y229468D01*
X73041D01*
X71981Y229994D01*
X71764Y231085D01*
X71147Y232009D01*
X71147Y232009D01*
X65723Y237432D01*
X65841Y238005D01*
X66226Y238726D01*
X67316Y238943D01*
X68451Y239700D01*
X69209Y240835D01*
X69475Y242173D01*
X69209Y243510D01*
X68451Y244645D01*
X67316Y245403D01*
X65979Y245669D01*
X64641Y245403D01*
X63506Y244645D01*
X62748Y243510D01*
X62532Y242420D01*
X61811Y242035D01*
X61238Y241917D01*
X54360Y248796D01*
X54226Y249469D01*
X53468Y250603D01*
X52334Y251361D01*
X50996Y251627D01*
X50964Y251621D01*
X49522Y252619D01*
X49479Y252871D01*
X71726Y275119D01*
X72287Y275959D01*
X72484Y276950D01*
Y280072D01*
X78732D01*
Y290112D01*
Y300152D01*
X73599D01*
X72920Y301423D01*
X73124Y301729D01*
X73391Y303067D01*
X73124Y304404D01*
X72367Y305539D01*
X71232Y306297D01*
X69894Y306563D01*
X68557Y306297D01*
X67422Y305539D01*
X66665Y304404D01*
X66398Y303067D01*
X66626Y301922D01*
X66357Y301320D01*
X65856Y300653D01*
X59583D01*
Y290112D01*
Y279573D01*
X67305D01*
Y278023D01*
X28566Y239284D01*
X28005Y238444D01*
X27808Y237453D01*
Y211817D01*
X28005Y210826D01*
X28566Y209986D01*
X31424Y207128D01*
X32264Y206567D01*
X33255Y206370D01*
X41675D01*
X42666Y206567D01*
X43506Y207128D01*
X46286Y209908D01*
X49109D01*
Y207974D01*
X50543D01*
Y164874D01*
X50740Y163883D01*
X51301Y163043D01*
X92468Y121876D01*
Y81321D01*
X91198Y80642D01*
X90530Y81089D01*
X88945Y81404D01*
X87359Y81089D01*
X86280Y80368D01*
X75191D01*
X68738Y86822D01*
X69156Y88200D01*
X69454Y88260D01*
X70589Y89017D01*
X71347Y90152D01*
X71613Y91490D01*
X71347Y92828D01*
X70589Y93962D01*
X69454Y94720D01*
X68116Y94986D01*
X66779Y94720D01*
X65644Y93962D01*
X64886Y92828D01*
X64827Y92529D01*
X63449Y92111D01*
X61237Y94323D01*
X60228Y94997D01*
X59039Y95233D01*
X58973D01*
Y97632D01*
X48876D01*
X38779D01*
Y94203D01*
X39795D01*
Y84102D01*
X38779D01*
Y80673D01*
X48876D01*
Y78133D01*
X38779D01*
Y76010D01*
X37005D01*
X35816Y75774D01*
X34808Y75100D01*
X32518Y72810D01*
X31844Y71802D01*
X31608Y70613D01*
Y57124D01*
X30338Y56445D01*
X30084Y56614D01*
X28747Y56881D01*
X27409Y56614D01*
X26274Y55857D01*
X25517Y54722D01*
X25250Y53384D01*
X25517Y52047D01*
X26274Y50912D01*
X27409Y50155D01*
X28747Y49888D01*
X30084Y50155D01*
X30338Y50324D01*
X31608Y49645D01*
Y31793D01*
X23795D01*
Y15745D01*
X42842D01*
Y31793D01*
X37823D01*
Y69325D01*
X38293Y69795D01*
X39795D01*
Y62719D01*
Y56220D01*
X57956D01*
X57957Y56220D01*
Y56220D01*
X59043Y55747D01*
X63522Y51269D01*
X64362Y50707D01*
X65353Y50510D01*
X83372D01*
X84330Y49870D01*
X85668Y49604D01*
X87006Y49870D01*
X88140Y50628D01*
X88898Y51762D01*
X89164Y53100D01*
X88898Y54438D01*
X88140Y55572D01*
X87006Y56330D01*
X85668Y56596D01*
X84969Y57752D01*
X85176Y58061D01*
X85442Y59399D01*
X85325Y59984D01*
X86363Y61073D01*
X86404Y61064D01*
X87742Y61330D01*
X88877Y62088D01*
X89635Y63223D01*
X89901Y64560D01*
X89635Y65898D01*
X88877Y67033D01*
X87742Y67790D01*
X87527Y67833D01*
X82477Y72883D01*
X83003Y74153D01*
X86280D01*
X87359Y73432D01*
X88945Y73117D01*
X90530Y73432D01*
X91198Y73879D01*
X92468Y73200D01*
Y67301D01*
X92665Y66310D01*
X93227Y65469D01*
X115070Y43626D01*
X114351Y42550D01*
X112933Y43137D01*
X110643Y43438D01*
X108352Y43137D01*
X106218Y42253D01*
X104385Y40846D01*
X102979Y39013D01*
X102094Y36879D01*
X101793Y34588D01*
X102094Y32298D01*
X102979Y30164D01*
X104385Y28331D01*
X106218Y26924D01*
X108352Y26040D01*
X110643Y25739D01*
X112933Y26040D01*
X115068Y26924D01*
X116900Y28331D01*
X118307Y30164D01*
X119191Y32298D01*
X119492Y34588D01*
X119191Y36879D01*
X118410Y38764D01*
X119061Y39534D01*
X119332Y39721D01*
X120226Y39543D01*
X136774D01*
X137452Y38273D01*
X137276Y38009D01*
X137010Y36672D01*
X137276Y35334D01*
X137917Y34375D01*
Y31793D01*
X130983D01*
Y15745D01*
X150030D01*
Y31793D01*
X143096D01*
Y34375D01*
X143736Y35334D01*
X144003Y36672D01*
X143736Y38009D01*
X143561Y38273D01*
X144240Y39543D01*
X151231D01*
X153811Y36963D01*
X153554Y36628D01*
X152393Y33825D01*
X151997Y30816D01*
X152393Y27808D01*
X153554Y25004D01*
X155401Y22597D01*
X157809Y20750D01*
X160612Y19589D01*
X163620Y19193D01*
X166629Y19589D01*
X169432Y20750D01*
X171840Y22597D01*
X173687Y25004D01*
X174848Y27808D01*
X175244Y30816D01*
X174848Y33825D01*
X173687Y36628D01*
X171840Y39035D01*
X169432Y40882D01*
X166629Y42043D01*
X163620Y42439D01*
X160612Y42043D01*
X157809Y40882D01*
X157474Y40625D01*
X154135Y43964D01*
X153295Y44525D01*
X152304Y44722D01*
X138966D01*
X138367Y45842D01*
X138688Y46322D01*
X138829Y47035D01*
X128976D01*
X129117Y46322D01*
X129438Y45842D01*
X128839Y44722D01*
X121299D01*
X111072Y54950D01*
X111598Y56220D01*
X128949D01*
Y62719D01*
Y69219D01*
Y75720D01*
Y82220D01*
Y88720D01*
Y100704D01*
X129965D01*
Y104133D01*
X119869D01*
X109773D01*
Y100830D01*
X109711Y100713D01*
X108871Y99813D01*
X107867Y100012D01*
X106530Y99746D01*
X105395Y98988D01*
X104637Y97854D01*
X104371Y96516D01*
X104597Y95380D01*
X104126Y94873D01*
X103568Y94540D01*
X103299Y94720D01*
X101961Y94986D01*
X100624Y94720D01*
X99489Y93962D01*
X98918Y93107D01*
X97648Y93395D01*
Y122368D01*
X98918Y122894D01*
X105241Y116571D01*
X106081Y116010D01*
X107072Y115813D01*
X110788D01*
Y110102D01*
X109773D01*
Y106673D01*
X119869D01*
X129965D01*
Y108945D01*
X131218Y109988D01*
X131497Y109940D01*
X131714Y109616D01*
X133184Y108633D01*
X133649Y108541D01*
Y111551D01*
X130458D01*
X129548Y110745D01*
X128949Y110985D01*
Y121219D01*
Y127720D01*
Y135313D01*
X131870D01*
X132862Y135510D01*
X133702Y136071D01*
X138064Y140434D01*
X138455Y140376D01*
X139360Y139933D01*
X139563Y138915D01*
X140203Y137956D01*
Y115053D01*
X138933Y114813D01*
X138123Y116025D01*
X136653Y117008D01*
X136188Y117100D01*
Y112821D01*
Y108541D01*
X136653Y108633D01*
X138123Y109616D01*
X138933Y110828D01*
X140203Y110588D01*
Y102444D01*
X140400Y101453D01*
X140961Y100613D01*
X153811Y87763D01*
X153554Y87428D01*
X152393Y84625D01*
X151997Y81616D01*
X152393Y78608D01*
X153554Y75804D01*
X155401Y73397D01*
X157809Y71550D01*
X160612Y70389D01*
X163620Y69993D01*
X166629Y70389D01*
X169432Y71550D01*
X171840Y73397D01*
X173687Y75804D01*
X174848Y78608D01*
X175244Y81616D01*
X174848Y84625D01*
X173687Y87428D01*
X171840Y89835D01*
X169432Y91682D01*
X166629Y92844D01*
X163620Y93239D01*
X160612Y92844D01*
X157809Y91682D01*
X157474Y91425D01*
X145382Y103517D01*
Y137956D01*
X146023Y138915D01*
X146289Y140253D01*
X146023Y141590D01*
X145265Y142725D01*
X144130Y143483D01*
X142793Y143749D01*
X141455Y143483D01*
X140908Y143118D01*
X139638Y143796D01*
Y146647D01*
X139874Y146832D01*
X141573Y146574D01*
X142708Y145816D01*
X144046Y145550D01*
X145384Y145816D01*
X146518Y146574D01*
X147276Y147708D01*
X147542Y149046D01*
X147276Y150384D01*
X146518Y151518D01*
X145384Y152276D01*
X144046Y152542D01*
X142708Y152276D01*
X141573Y151518D01*
X139874Y151260D01*
X139638Y151444D01*
Y168594D01*
X139441Y169585D01*
X138880Y170425D01*
X133757Y175547D01*
X132917Y176109D01*
X131926Y176306D01*
X129290D01*
Y181740D01*
X110242D01*
Y165692D01*
X129290D01*
Y171126D01*
X130854D01*
X134459Y167521D01*
Y144153D01*
X130798Y140492D01*
X128949D01*
Y148085D01*
X110788D01*
Y146992D01*
X103599D01*
X101653Y148938D01*
Y158451D01*
X102773Y159049D01*
X102958Y158925D01*
X103422Y158833D01*
Y163113D01*
X104692D01*
Y164382D01*
X108972D01*
X108880Y164847D01*
X107897Y166317D01*
X107220Y166770D01*
X107165Y168260D01*
X107922Y169395D01*
X108189Y170732D01*
X107922Y172070D01*
X107165Y173205D01*
X106186Y173859D01*
X106102Y174543D01*
X106186Y175226D01*
X107165Y175880D01*
X107922Y177015D01*
X108189Y178353D01*
X107922Y179690D01*
X107165Y180825D01*
X106030Y181583D01*
X104692Y181849D01*
X103355Y181583D01*
X102923Y181294D01*
X101653Y181973D01*
Y186502D01*
X101747Y186587D01*
X102923Y187064D01*
X103689Y186552D01*
X105027Y186286D01*
X106365Y186552D01*
X107499Y187310D01*
X108257Y188445D01*
X108523Y189783D01*
X108257Y191120D01*
X107499Y192255D01*
X106365Y193013D01*
X106054Y193074D01*
X105636Y194452D01*
X109069Y197885D01*
X110242Y197399D01*
Y184692D01*
X129290D01*
Y190296D01*
X129386D01*
X130377Y190494D01*
X131217Y191055D01*
X138274Y198111D01*
X138835Y198951D01*
X139032Y199942D01*
Y221215D01*
X140302Y221601D01*
X140320Y221574D01*
X141455Y220816D01*
X142793Y220550D01*
X144130Y220816D01*
X145265Y221574D01*
X146023Y222708D01*
X146289Y224046D01*
X146023Y225384D01*
X145265Y226518D01*
X144130Y227276D01*
X142793Y227542D01*
X141455Y227276D01*
X140320Y226518D01*
X139563Y225384D01*
X139428Y224709D01*
X138921Y224464D01*
X138064Y224361D01*
X130703Y231723D01*
X145245Y246265D01*
X145807Y247106D01*
X146004Y248097D01*
Y314337D01*
X157474Y325807D01*
X157809Y325550D01*
X160612Y324389D01*
X163620Y323993D01*
X166629Y324389D01*
X169432Y325550D01*
X171840Y327397D01*
X173687Y329804D01*
X174848Y332608D01*
X175244Y335616D01*
X174848Y338624D01*
X173687Y341428D01*
X171840Y343835D01*
X169432Y345682D01*
X166629Y346843D01*
X164200Y347163D01*
Y348444D01*
X166894Y348799D01*
X169945Y350062D01*
X172564Y352072D01*
X174574Y354692D01*
X175838Y357743D01*
X176101Y359746D01*
X163620D01*
X151139D01*
X151403Y357743D01*
X152667Y354692D01*
X154677Y352072D01*
X157296Y350062D01*
X160347Y348799D01*
X163041Y348444D01*
Y347163D01*
X160612Y346843D01*
X157809Y345682D01*
X155401Y343835D01*
X153554Y341428D01*
X152393Y338624D01*
X151997Y335616D01*
X152393Y332608D01*
X153554Y329804D01*
X153811Y329469D01*
X141583Y317241D01*
X141022Y316401D01*
X140824Y315410D01*
Y249169D01*
X128677Y237022D01*
X127507Y237648D01*
X127676Y238498D01*
Y248645D01*
X127676Y248646D01*
X127410Y249984D01*
X126652Y251118D01*
X126652Y251118D01*
X120256Y257514D01*
X119122Y258272D01*
X117784Y258538D01*
X105830D01*
X104492Y258272D01*
X104166Y258055D01*
X103357Y259041D01*
X105647Y261331D01*
X134664D01*
X136250Y261646D01*
X137594Y262544D01*
X138493Y263889D01*
X138808Y265474D01*
X138493Y267060D01*
X137594Y268405D01*
X136250Y269303D01*
X134664Y269618D01*
X103931D01*
X102345Y269303D01*
X102029Y269091D01*
X101522Y269279D01*
X100774Y269781D01*
X100556Y270876D01*
X99916Y271835D01*
Y281089D01*
X105526D01*
Y299137D01*
X101645D01*
Y303613D01*
X109059D01*
Y308486D01*
X118528D01*
Y301356D01*
X126239D01*
X126624Y300086D01*
X125618Y299413D01*
X124635Y297943D01*
X124531Y297419D01*
X117513D01*
Y286399D01*
X127552D01*
X137592D01*
Y297419D01*
X133114D01*
X133010Y297943D01*
X132027Y299413D01*
X131021Y300086D01*
X131406Y301356D01*
X136576D01*
Y323904D01*
X131696D01*
Y346830D01*
X150646Y365779D01*
X151722Y365060D01*
X151403Y364290D01*
X151139Y362286D01*
X163620D01*
X176101D01*
X175838Y364290D01*
X174574Y367340D01*
X172564Y369960D01*
X169945Y371970D01*
X166894Y373233D01*
X164200Y373588D01*
Y374869D01*
X166629Y375189D01*
X169432Y376350D01*
X171840Y378197D01*
X173687Y380604D01*
X174848Y383408D01*
X175244Y386416D01*
X174848Y389425D01*
X173687Y392228D01*
X171840Y394635D01*
X169432Y396482D01*
X166629Y397644D01*
X163620Y398040D01*
X160612Y397644D01*
X157809Y396482D01*
X155401Y394635D01*
X153554Y392228D01*
X152393Y389425D01*
X151997Y386416D01*
X152393Y383408D01*
X153554Y380604D01*
X153640Y380493D01*
X141856Y368710D01*
X140586Y369236D01*
Y374309D01*
X145466D01*
Y396856D01*
X127418D01*
Y374309D01*
X132299D01*
Y369929D01*
X127530Y365160D01*
X124096D01*
X123970Y365135D01*
X123842Y365152D01*
X123181Y364978D01*
X122510Y364844D01*
X122403Y364773D01*
X122279Y364740D01*
X113350Y360383D01*
X112806Y359969D01*
X112237Y359589D01*
X112165Y359482D01*
X112063Y359404D01*
X111719Y358813D01*
X111339Y358245D01*
X110075Y358400D01*
Y368383D01*
X98772D01*
Y358350D01*
Y348317D01*
X109753D01*
X110075Y348317D01*
X111023Y347541D01*
Y341575D01*
X110262Y340975D01*
X109059Y341508D01*
Y344507D01*
X85945D01*
Y341897D01*
X85044Y341002D01*
X46067Y341231D01*
Y356318D01*
X42907D01*
Y374309D01*
X43867D01*
Y387510D01*
X55566Y399210D01*
X57234Y398519D01*
X60243Y398123D01*
X63251Y398519D01*
X66054Y399680D01*
X68461Y401527D01*
X70309Y403935D01*
X71470Y406738D01*
X71866Y409747D01*
X71470Y412755D01*
X70309Y415558D01*
X68461Y417966D01*
X66054Y419813D01*
X63251Y420974D01*
X60243Y421370D01*
D02*
G37*
G36*
X146482Y411813D02*
X137712D01*
Y400793D01*
X146482D01*
Y411813D01*
D02*
G37*
G36*
X135173D02*
X126403D01*
Y400793D01*
X135173D01*
Y411813D01*
D02*
G37*
G36*
X33572D02*
X24802D01*
Y400793D01*
X33572D01*
Y411813D01*
D02*
G37*
G36*
X7664Y398040D02*
X4656Y397644D01*
X1853Y396482D01*
X-554Y394635D01*
X-2402Y392228D01*
X-3563Y389425D01*
X-3959Y386416D01*
X-3563Y383408D01*
X-2402Y380604D01*
X-554Y378197D01*
X1853Y376350D01*
X4656Y375189D01*
X7664Y374793D01*
X10673Y375189D01*
X13476Y376350D01*
X15884Y378197D01*
X17731Y380604D01*
X18892Y383408D01*
X19288Y386416D01*
X18892Y389425D01*
X17731Y392228D01*
X15884Y394635D01*
X13476Y396482D01*
X10673Y397644D01*
X7664Y398040D01*
D02*
G37*
G36*
X85642Y395970D02*
X82634Y395574D01*
X79831Y394413D01*
X77424Y392565D01*
X75576Y390158D01*
X74415Y387355D01*
X74019Y384347D01*
X74415Y381338D01*
X75576Y378535D01*
X77424Y376128D01*
X79831Y374280D01*
X82634Y373119D01*
X85642Y372723D01*
X88651Y373119D01*
X91454Y374280D01*
X93862Y376128D01*
X95709Y378535D01*
X96870Y381338D01*
X97266Y384347D01*
X96870Y387355D01*
X95709Y390158D01*
X93862Y392565D01*
X91454Y394413D01*
X88651Y395574D01*
X85642Y395970D01*
D02*
G37*
G36*
X60243D02*
X57234Y395574D01*
X54431Y394413D01*
X52024Y392565D01*
X50176Y390158D01*
X49015Y387355D01*
X48619Y384347D01*
X49015Y381338D01*
X50176Y378535D01*
X52024Y376128D01*
X54431Y374280D01*
X57234Y373119D01*
X60243Y372723D01*
X63251Y373119D01*
X66054Y374280D01*
X68461Y376128D01*
X70309Y378535D01*
X71470Y381338D01*
X71866Y384347D01*
X71470Y387355D01*
X70309Y390158D01*
X68461Y392565D01*
X66054Y394413D01*
X63251Y395574D01*
X60243Y395970D01*
D02*
G37*
G36*
X96232Y368383D02*
X84929D01*
Y359620D01*
X96232D01*
Y368383D01*
D02*
G37*
G36*
X7664Y372640D02*
X4656Y372243D01*
X1853Y371082D01*
X-554Y369235D01*
X-2402Y366828D01*
X-3563Y364025D01*
X-3959Y361016D01*
X-3563Y358008D01*
X-2402Y355204D01*
X-554Y352797D01*
X1853Y350950D01*
X4656Y349789D01*
X7664Y349393D01*
X10673Y349789D01*
X13476Y350950D01*
X15884Y352797D01*
X17731Y355204D01*
X18892Y358008D01*
X19288Y361016D01*
X18892Y364025D01*
X17731Y366828D01*
X15884Y369235D01*
X13476Y371082D01*
X10673Y372243D01*
X7664Y372640D01*
D02*
G37*
G36*
X96232Y357080D02*
X84929D01*
Y348317D01*
X96232D01*
Y357080D01*
D02*
G37*
G36*
X7664Y347239D02*
X4656Y346843D01*
X1853Y345682D01*
X-554Y343835D01*
X-2402Y341428D01*
X-3563Y338624D01*
X-3959Y335616D01*
X-3563Y332608D01*
X-2402Y329804D01*
X-554Y327397D01*
X1853Y325550D01*
X4656Y324389D01*
X6980Y324083D01*
X7085Y324069D01*
Y322788D01*
X6980Y322774D01*
X4391Y322433D01*
X1340Y321170D01*
X-1279Y319160D01*
X-3289Y316540D01*
X-4553Y313490D01*
X-4816Y311486D01*
X7664D01*
X20145D01*
X19882Y313490D01*
X18618Y316540D01*
X16608Y319160D01*
X13989Y321170D01*
X10938Y322433D01*
X8349Y322774D01*
X8244Y322788D01*
Y324069D01*
X8349Y324083D01*
X10673Y324389D01*
X13476Y325550D01*
X15884Y327397D01*
X17731Y329804D01*
X18892Y332608D01*
X19288Y335616D01*
X18892Y338624D01*
X17731Y341428D01*
X15884Y343835D01*
X13476Y345682D01*
X10673Y346843D01*
X7664Y347239D01*
D02*
G37*
G36*
X27222Y312172D02*
Y309163D01*
X30232D01*
X30140Y309627D01*
X29157Y311097D01*
X27687Y312080D01*
X27222Y312172D01*
D02*
G37*
G36*
X24683D02*
X24218Y312080D01*
X22748Y311097D01*
X21765Y309627D01*
X21673Y309163D01*
X24683D01*
Y312172D01*
D02*
G37*
G36*
X30232Y306623D02*
X27222D01*
Y303613D01*
X27687Y303705D01*
X29157Y304688D01*
X30140Y306158D01*
X30232Y306623D01*
D02*
G37*
G36*
X24683D02*
X21673D01*
X21765Y306158D01*
X22748Y304688D01*
X24218Y303705D01*
X24683Y303613D01*
Y306623D01*
D02*
G37*
G36*
X163620Y321839D02*
X160612Y321443D01*
X157809Y320282D01*
X155401Y318435D01*
X153554Y316028D01*
X152393Y313225D01*
X151997Y310216D01*
X152393Y307208D01*
X153554Y304404D01*
X155401Y301997D01*
X157809Y300150D01*
X160612Y298989D01*
X163620Y298593D01*
X166629Y298989D01*
X169432Y300150D01*
X171840Y301997D01*
X173687Y304404D01*
X174848Y307208D01*
X175244Y310216D01*
X174848Y313225D01*
X173687Y316028D01*
X171840Y318435D01*
X169432Y320282D01*
X166629Y321443D01*
X163620Y321839D01*
D02*
G37*
G36*
X57043Y300653D02*
X49273D01*
Y291383D01*
X57043D01*
Y300653D01*
D02*
G37*
G36*
Y288843D02*
X49273D01*
Y279573D01*
X57043D01*
Y288843D01*
D02*
G37*
G36*
X163620Y296439D02*
X160612Y296043D01*
X157809Y294882D01*
X155401Y293035D01*
X153554Y290628D01*
X152393Y287824D01*
X151997Y284816D01*
X152393Y281808D01*
X153554Y279004D01*
X155401Y276597D01*
X157809Y274750D01*
X160612Y273589D01*
X163620Y273193D01*
X166629Y273589D01*
X169432Y274750D01*
X171840Y276597D01*
X173687Y279004D01*
X174848Y281808D01*
X175244Y284816D01*
X174848Y287824D01*
X173687Y290628D01*
X171840Y293035D01*
X169432Y294882D01*
X166629Y296043D01*
X163620Y296439D01*
D02*
G37*
G36*
X20145Y308946D02*
X7664D01*
X-4816D01*
X-4553Y306943D01*
X-3289Y303892D01*
X-1279Y301272D01*
X1340Y299262D01*
X4391Y297999D01*
X6980Y297658D01*
X7085Y297644D01*
Y296363D01*
X6980Y296349D01*
X4656Y296043D01*
X1853Y294882D01*
X-554Y293035D01*
X-2402Y290628D01*
X-3563Y287824D01*
X-3959Y284816D01*
X-3563Y281808D01*
X-2402Y279004D01*
X-554Y276597D01*
X1853Y274750D01*
X4656Y273589D01*
X7664Y273193D01*
X10673Y273589D01*
X13476Y274750D01*
X15884Y276597D01*
X17731Y279004D01*
X18892Y281808D01*
X19288Y284816D01*
X18892Y287824D01*
X17731Y290628D01*
X15884Y293035D01*
X13476Y294882D01*
X10673Y296043D01*
X8349Y296349D01*
X8244Y296363D01*
Y297644D01*
X8349Y297658D01*
X10938Y297999D01*
X13989Y299262D01*
X16608Y301272D01*
X18618Y303892D01*
X19882Y306943D01*
X20145Y308946D01*
D02*
G37*
G36*
X137592Y283860D02*
X128822D01*
Y272840D01*
X137592D01*
Y283860D01*
D02*
G37*
G36*
X126283D02*
X117513D01*
Y272840D01*
X126283D01*
Y283860D01*
D02*
G37*
G36*
X163620Y271040D02*
X160612Y270644D01*
X157809Y269482D01*
X155401Y267635D01*
X153554Y265228D01*
X152393Y262425D01*
X151997Y259416D01*
X152393Y256408D01*
X153554Y253604D01*
X155401Y251197D01*
X157809Y249350D01*
X160612Y248189D01*
X163620Y247793D01*
X166629Y248189D01*
X169432Y249350D01*
X171840Y251197D01*
X173687Y253604D01*
X174848Y256408D01*
X175244Y259416D01*
X174848Y262425D01*
X173687Y265228D01*
X171840Y267635D01*
X169432Y269482D01*
X166629Y270644D01*
X163620Y271040D01*
D02*
G37*
G36*
X7664D02*
X4656Y270644D01*
X1853Y269482D01*
X-554Y267635D01*
X-2402Y265228D01*
X-3563Y262425D01*
X-3959Y259416D01*
X-3563Y256408D01*
X-2402Y253604D01*
X-554Y251197D01*
X1853Y249350D01*
X4656Y248189D01*
X7664Y247793D01*
X10673Y248189D01*
X13476Y249350D01*
X15884Y251197D01*
X17731Y253604D01*
X18892Y256408D01*
X19288Y259416D01*
X18892Y262425D01*
X17731Y265228D01*
X15884Y267635D01*
X13476Y269482D01*
X10673Y270644D01*
X7664Y271040D01*
D02*
G37*
G36*
X163620Y245639D02*
X160612Y245243D01*
X157809Y244082D01*
X155401Y242235D01*
X153554Y239828D01*
X152393Y237024D01*
X151997Y234016D01*
X152393Y231008D01*
X153554Y228204D01*
X155401Y225797D01*
X157809Y223950D01*
X160612Y222789D01*
X163620Y222393D01*
X166629Y222789D01*
X169432Y223950D01*
X171840Y225797D01*
X173687Y228204D01*
X174848Y231008D01*
X175244Y234016D01*
X174848Y237024D01*
X173687Y239828D01*
X171840Y242235D01*
X169432Y244082D01*
X166629Y245243D01*
X163620Y245639D01*
D02*
G37*
G36*
X7664D02*
X4656Y245243D01*
X1853Y244082D01*
X-554Y242235D01*
X-2402Y239828D01*
X-3563Y237024D01*
X-3959Y234016D01*
X-3563Y231008D01*
X-2402Y228204D01*
X-554Y225797D01*
X1853Y223950D01*
X4656Y222789D01*
X7664Y222393D01*
X10673Y222789D01*
X13476Y223950D01*
X15884Y225797D01*
X17731Y228204D01*
X18892Y231008D01*
X19288Y234016D01*
X18892Y237024D01*
X17731Y239828D01*
X15884Y242235D01*
X13476Y244082D01*
X10673Y245243D01*
X7664Y245639D01*
D02*
G37*
G36*
X163620Y220240D02*
X160612Y219844D01*
X157809Y218682D01*
X155401Y216835D01*
X153554Y214428D01*
X152393Y211625D01*
X151997Y208616D01*
X152393Y205608D01*
X153554Y202804D01*
X155401Y200397D01*
X157809Y198550D01*
X160612Y197389D01*
X163620Y196993D01*
X166629Y197389D01*
X169432Y198550D01*
X171840Y200397D01*
X173687Y202804D01*
X174848Y205608D01*
X175244Y208616D01*
X174848Y211625D01*
X173687Y214428D01*
X171840Y216835D01*
X169432Y218682D01*
X166629Y219844D01*
X163620Y220240D01*
D02*
G37*
G36*
X7664D02*
X4656Y219844D01*
X1853Y218682D01*
X-554Y216835D01*
X-2402Y214428D01*
X-3563Y211625D01*
X-3959Y208616D01*
X-3563Y205608D01*
X-2402Y202804D01*
X-554Y200397D01*
X1853Y198550D01*
X4656Y197389D01*
X7664Y196993D01*
X10673Y197389D01*
X13476Y198550D01*
X15884Y200397D01*
X17731Y202804D01*
X18892Y205608D01*
X19288Y208616D01*
X18892Y211625D01*
X17731Y214428D01*
X15884Y216835D01*
X13476Y218682D01*
X10673Y219844D01*
X7664Y220240D01*
D02*
G37*
G36*
X163620Y194839D02*
X160612Y194443D01*
X157809Y193282D01*
X155401Y191435D01*
X153554Y189028D01*
X152393Y186224D01*
X151997Y183216D01*
X152393Y180208D01*
X153554Y177404D01*
X155401Y174997D01*
X157809Y173150D01*
X160612Y171989D01*
X163620Y171593D01*
X166629Y171989D01*
X169432Y173150D01*
X171840Y174997D01*
X173687Y177404D01*
X174848Y180208D01*
X175244Y183216D01*
X174848Y186224D01*
X173687Y189028D01*
X171840Y191435D01*
X169432Y193282D01*
X166629Y194443D01*
X163620Y194839D01*
D02*
G37*
G36*
X7664D02*
X4656Y194443D01*
X1853Y193282D01*
X-554Y191435D01*
X-2402Y189028D01*
X-3563Y186224D01*
X-3959Y183216D01*
X-3563Y180208D01*
X-2402Y177404D01*
X-554Y174997D01*
X1853Y173150D01*
X4656Y171989D01*
X7664Y171593D01*
X10673Y171989D01*
X13476Y173150D01*
X15884Y174997D01*
X17731Y177404D01*
X18892Y180208D01*
X19288Y183216D01*
X18892Y186224D01*
X17731Y189028D01*
X15884Y191435D01*
X13476Y193282D01*
X10673Y194443D01*
X7664Y194839D01*
D02*
G37*
G36*
X108972Y161842D02*
X105962D01*
Y158833D01*
X106427Y158925D01*
X107897Y159908D01*
X108880Y161378D01*
X108972Y161842D01*
D02*
G37*
G36*
X163620Y169440D02*
X160612Y169044D01*
X157809Y167882D01*
X155401Y166035D01*
X153554Y163628D01*
X152393Y160825D01*
X151997Y157816D01*
X152393Y154808D01*
X153554Y152004D01*
X155401Y149597D01*
X157809Y147750D01*
X160612Y146589D01*
X163620Y146193D01*
X166629Y146589D01*
X169432Y147750D01*
X171840Y149597D01*
X173687Y152004D01*
X174848Y154808D01*
X175244Y157816D01*
X174848Y160825D01*
X173687Y163628D01*
X171840Y166035D01*
X169432Y167882D01*
X166629Y169044D01*
X163620Y169440D01*
D02*
G37*
G36*
X7664D02*
X4656Y169044D01*
X1853Y167882D01*
X-554Y166035D01*
X-2402Y163628D01*
X-3563Y160825D01*
X-3959Y157816D01*
X-3563Y154808D01*
X-2402Y152004D01*
X-554Y149597D01*
X1853Y147750D01*
X4656Y146589D01*
X7664Y146193D01*
X10673Y146589D01*
X13476Y147750D01*
X15884Y149597D01*
X17731Y152004D01*
X18892Y154808D01*
X19288Y157816D01*
X18892Y160825D01*
X17731Y163628D01*
X15884Y166035D01*
X13476Y167882D01*
X10673Y169044D01*
X7664Y169440D01*
D02*
G37*
G36*
X57957Y148085D02*
X39795D01*
Y140719D01*
Y129601D01*
X38779D01*
Y126172D01*
X48876D01*
X58973D01*
Y129601D01*
X57957D01*
Y140719D01*
Y148085D01*
D02*
G37*
G36*
X163620Y144039D02*
X160612Y143644D01*
X157809Y142482D01*
X155401Y140635D01*
X153554Y138228D01*
X152393Y135424D01*
X151997Y132416D01*
X152393Y129408D01*
X153554Y126604D01*
X155401Y124197D01*
X157809Y122350D01*
X160612Y121189D01*
X163620Y120793D01*
X166629Y121189D01*
X169432Y122350D01*
X171840Y124197D01*
X173687Y126604D01*
X174848Y129408D01*
X175244Y132416D01*
X174848Y135424D01*
X173687Y138228D01*
X171840Y140635D01*
X169432Y142482D01*
X166629Y143644D01*
X163620Y144039D01*
D02*
G37*
G36*
X7664D02*
X4656Y143644D01*
X1853Y142482D01*
X-554Y140635D01*
X-2402Y138228D01*
X-3563Y135424D01*
X-3959Y132416D01*
X-3563Y129408D01*
X-2402Y126604D01*
X-554Y124197D01*
X1853Y122350D01*
X4656Y121189D01*
X7664Y120793D01*
X10673Y121189D01*
X13476Y122350D01*
X15884Y124197D01*
X17731Y126604D01*
X18892Y129408D01*
X19288Y132416D01*
X18892Y135424D01*
X17731Y138228D01*
X15884Y140635D01*
X13476Y142482D01*
X10673Y143644D01*
X7664Y144039D01*
D02*
G37*
G36*
X133649Y117100D02*
X133184Y117008D01*
X131714Y116025D01*
X130731Y114555D01*
X130639Y114090D01*
X133649D01*
Y117100D01*
D02*
G37*
G36*
X58973Y123632D02*
X48876D01*
X38779D01*
Y120203D01*
X39795D01*
Y114719D01*
Y103601D01*
X38779D01*
Y100172D01*
X48876D01*
X58973D01*
Y102813D01*
X66433D01*
X67391Y102173D01*
X68729Y101906D01*
X70067Y102173D01*
X71201Y102930D01*
X71959Y104065D01*
X72225Y105403D01*
X71959Y106741D01*
X71201Y107875D01*
X70067Y108633D01*
X68729Y108899D01*
X67391Y108633D01*
X66433Y107992D01*
X63406D01*
X63020Y109262D01*
X63606Y109654D01*
X64364Y110788D01*
X64630Y112126D01*
X64364Y113464D01*
X63606Y114598D01*
X62472Y115356D01*
X61134Y115622D01*
X59796Y115356D01*
X59226Y114976D01*
X57957Y115654D01*
Y120203D01*
X58973D01*
Y123632D01*
D02*
G37*
G36*
X163620Y118639D02*
X160612Y118244D01*
X157809Y117082D01*
X155401Y115235D01*
X153554Y112828D01*
X152393Y110024D01*
X151997Y107016D01*
X152393Y104008D01*
X153554Y101204D01*
X155401Y98797D01*
X157809Y96950D01*
X160612Y95789D01*
X163620Y95393D01*
X166629Y95789D01*
X169432Y96950D01*
X171840Y98797D01*
X173687Y101204D01*
X174848Y104008D01*
X175244Y107016D01*
X174848Y110024D01*
X173687Y112828D01*
X171840Y115235D01*
X169432Y117082D01*
X166629Y118244D01*
X163620Y118639D01*
D02*
G37*
G36*
X7664D02*
X4656Y118244D01*
X1853Y117082D01*
X-554Y115235D01*
X-2402Y112828D01*
X-3563Y110024D01*
X-3959Y107016D01*
X-3563Y104008D01*
X-2402Y101204D01*
X-554Y98797D01*
X1853Y96950D01*
X4656Y95789D01*
X7664Y95393D01*
X10673Y95789D01*
X13476Y96950D01*
X15884Y98797D01*
X17731Y101204D01*
X18892Y104008D01*
X19288Y107016D01*
X18892Y110024D01*
X17731Y112828D01*
X15884Y115235D01*
X13476Y117082D01*
X10673Y118244D01*
X7664Y118639D01*
D02*
G37*
G36*
Y93239D02*
X4656Y92844D01*
X1853Y91682D01*
X-554Y89835D01*
X-2402Y87428D01*
X-3563Y84625D01*
X-3959Y81616D01*
X-3563Y78608D01*
X-2402Y75804D01*
X-554Y73397D01*
X1853Y71550D01*
X4656Y70389D01*
X7664Y69993D01*
X10673Y70389D01*
X13476Y71550D01*
X15884Y73397D01*
X17731Y75804D01*
X18892Y78608D01*
X19288Y81616D01*
X18892Y84625D01*
X17731Y87428D01*
X15884Y89835D01*
X13476Y91682D01*
X10673Y92844D01*
X7664Y93239D01*
D02*
G37*
G36*
X135173Y53231D02*
Y49574D01*
X138829D01*
X138688Y50287D01*
X137565Y51967D01*
X135885Y53090D01*
X135173Y53231D01*
D02*
G37*
G36*
X132633D02*
X131920Y53090D01*
X130240Y51967D01*
X129117Y50287D01*
X128976Y49574D01*
X132633D01*
Y53231D01*
D02*
G37*
G36*
X163620Y67839D02*
X160612Y67443D01*
X157809Y66282D01*
X155401Y64435D01*
X153554Y62028D01*
X152393Y59225D01*
X151997Y56216D01*
X152393Y53208D01*
X153554Y50404D01*
X155401Y47997D01*
X157809Y46150D01*
X160612Y44989D01*
X163620Y44593D01*
X166629Y44989D01*
X169432Y46150D01*
X171840Y47997D01*
X173687Y50404D01*
X174848Y53208D01*
X175244Y56216D01*
X174848Y59225D01*
X173687Y62028D01*
X171840Y64435D01*
X169432Y66282D01*
X166629Y67443D01*
X163620Y67839D01*
D02*
G37*
G36*
X7664D02*
X4656Y67443D01*
X1853Y66282D01*
X-554Y64435D01*
X-2402Y62028D01*
X-3563Y59225D01*
X-3959Y56216D01*
X-3563Y53208D01*
X-2402Y50404D01*
X-554Y47997D01*
X1853Y46150D01*
X4656Y44989D01*
X7664Y44593D01*
X10673Y44989D01*
X13476Y46150D01*
X15884Y47997D01*
X17731Y50404D01*
X18892Y53208D01*
X19288Y56216D01*
X18892Y59225D01*
X17731Y62028D01*
X15884Y64435D01*
X13476Y66282D01*
X10673Y67443D01*
X7664Y67839D01*
D02*
G37*
G36*
X60642Y43438D02*
X58352Y43137D01*
X56217Y42253D01*
X54385Y40846D01*
X52978Y39013D01*
X52094Y36879D01*
X51793Y34588D01*
X52094Y32298D01*
X52978Y30164D01*
X54385Y28331D01*
X56217Y26924D01*
X58352Y26040D01*
X60642Y25739D01*
X62933Y26040D01*
X65067Y26924D01*
X66900Y28331D01*
X68306Y30164D01*
X69191Y32298D01*
X69492Y34588D01*
X69191Y36879D01*
X68306Y39013D01*
X66900Y40846D01*
X65067Y42253D01*
X62933Y43137D01*
X60642Y43438D01*
D02*
G37*
G36*
X7664Y42439D02*
X4656Y42043D01*
X1853Y40882D01*
X-554Y39035D01*
X-2402Y36628D01*
X-3563Y33825D01*
X-3959Y30816D01*
X-3563Y27808D01*
X-2402Y25004D01*
X-554Y22597D01*
X1853Y20750D01*
X4656Y19589D01*
X7664Y19193D01*
X10673Y19589D01*
X13476Y20750D01*
X15884Y22597D01*
X17731Y25004D01*
X18892Y27808D01*
X19288Y30816D01*
X18892Y33825D01*
X17731Y36628D01*
X15884Y39035D01*
X13476Y40882D01*
X10673Y42043D01*
X7664Y42439D01*
D02*
G37*
G36*
X72943Y25639D02*
X71605Y25373D01*
X70470Y24615D01*
X69713Y23480D01*
X69446Y22143D01*
X69713Y20805D01*
X70470Y19670D01*
X71605Y18913D01*
X72943Y18646D01*
X74280Y18913D01*
X75415Y19670D01*
X76172Y20805D01*
X76439Y22143D01*
X76172Y23480D01*
X75415Y24615D01*
X74280Y25373D01*
X72943Y25639D01*
D02*
G37*
G36*
X151046Y13808D02*
X141777D01*
Y6038D01*
X151046D01*
Y13808D01*
D02*
G37*
G36*
X139236D02*
X129966D01*
Y6038D01*
X139236D01*
Y13808D01*
D02*
G37*
G36*
X32048D02*
X22778D01*
Y6038D01*
X32048D01*
Y13808D01*
D02*
G37*
G36*
X120643Y18735D02*
X118195Y18248D01*
X116119Y16862D01*
X114733Y14786D01*
X114246Y12338D01*
Y2838D01*
X114733Y390D01*
X116119Y-1685D01*
X118195Y-3072D01*
X120643Y-3559D01*
X123091Y-3072D01*
X125166Y-1685D01*
X126553Y390D01*
X127040Y2838D01*
Y12338D01*
X126553Y14786D01*
X125166Y16862D01*
X123091Y18248D01*
X120643Y18735D01*
D02*
G37*
G36*
X50642D02*
X48194Y18248D01*
X46119Y16862D01*
X44732Y14786D01*
X44720Y14722D01*
X43858Y13808D01*
X43243Y13808D01*
X34588D01*
Y4768D01*
Y-4272D01*
X43858D01*
Y-588D01*
X45128Y-203D01*
X46119Y-1685D01*
X48194Y-3072D01*
X50642Y-3559D01*
X53090Y-3072D01*
X55166Y-1685D01*
X56552Y390D01*
X57039Y2838D01*
Y12338D01*
X56552Y14786D01*
X55166Y16862D01*
X53090Y18248D01*
X50642Y18735D01*
D02*
G37*
G36*
X151046Y3498D02*
X141777D01*
Y-4272D01*
X151046D01*
Y3498D01*
D02*
G37*
G36*
X139236D02*
X129966D01*
Y-4272D01*
X139236D01*
Y3498D01*
D02*
G37*
G36*
X32048D02*
X22778D01*
Y-4272D01*
X32048D01*
Y3498D01*
D02*
G37*
%LPD*%
G36*
X84043Y244027D02*
Y219443D01*
X82191Y217591D01*
X81157Y217022D01*
X49109D01*
Y215088D01*
X45213D01*
X44222Y214890D01*
X43382Y214329D01*
X40608Y211555D01*
X39353Y211599D01*
X38558Y212615D01*
X38540Y212819D01*
X47816Y222095D01*
X49109D01*
Y220420D01*
X81157D01*
Y229468D01*
X79981D01*
Y241761D01*
X82773Y244553D01*
X84043Y244027D01*
D02*
G37*
G36*
X133322Y212930D02*
X133853Y212605D01*
Y201015D01*
X130464Y197626D01*
X129290Y198112D01*
Y200740D01*
X113849D01*
X113322Y202010D01*
X113598Y202285D01*
X114159Y203125D01*
X114356Y204116D01*
Y207974D01*
X123790D01*
Y208354D01*
X126138D01*
X127723Y208669D01*
X129068Y209568D01*
X132583Y213083D01*
X133322Y212930D01*
D02*
G37*
G36*
X91742Y213626D02*
Y207974D01*
X101177D01*
Y203845D01*
X92660Y195328D01*
X92098Y194488D01*
X91901Y193497D01*
Y131564D01*
X90631Y131038D01*
X55722Y165947D01*
Y207974D01*
X58669D01*
Y176077D01*
X58028Y175118D01*
X57762Y173780D01*
X58028Y172443D01*
X58786Y171308D01*
X59921Y170550D01*
X61259Y170284D01*
X62596Y170550D01*
X63731Y171308D01*
X64489Y172443D01*
X64755Y173780D01*
X64489Y175118D01*
X63848Y176077D01*
Y207974D01*
X66614D01*
Y187313D01*
X66406Y187175D01*
X65648Y186040D01*
X65382Y184702D01*
X65648Y183365D01*
X66406Y182230D01*
X67541Y181472D01*
X68878Y181206D01*
X70216Y181472D01*
X71351Y182230D01*
X72108Y183365D01*
X72375Y184702D01*
X72108Y186040D01*
X71794Y186512D01*
Y207974D01*
X77689D01*
Y198927D01*
X78004Y197341D01*
X78903Y195996D01*
X80247Y195098D01*
X81833Y194783D01*
X83418Y195098D01*
X84762Y195996D01*
X85661Y197341D01*
X85976Y198927D01*
Y209656D01*
X90472Y214153D01*
X91742Y213626D01*
D02*
G37*
G36*
X100695Y142571D02*
X101535Y142010D01*
X102526Y141813D01*
X110788D01*
Y132778D01*
X109518Y132099D01*
X109205Y132309D01*
X107867Y132575D01*
X106530Y132309D01*
X105395Y131551D01*
X104637Y130416D01*
X104371Y129079D01*
X104637Y127741D01*
X105395Y126606D01*
X106530Y125849D01*
X107137Y125728D01*
X109008Y123856D01*
X109848Y123295D01*
X110788Y123108D01*
Y120992D01*
X108145D01*
X97081Y132056D01*
Y144389D01*
X98351Y144915D01*
X100695Y142571D01*
D02*
G37*
G36*
X110788Y92816D02*
Y82220D01*
Y75720D01*
Y69219D01*
Y57029D01*
X109518Y56503D01*
X97648Y68373D01*
Y89585D01*
X98918Y89873D01*
X99489Y89017D01*
X100624Y88260D01*
X101961Y87993D01*
X103299Y88260D01*
X104434Y89017D01*
X105191Y90152D01*
X105458Y91490D01*
X105232Y92626D01*
X105703Y93133D01*
X106261Y93466D01*
X106530Y93286D01*
X107867Y93020D01*
X109205Y93286D01*
X109518Y93495D01*
X110788Y92816D01*
D02*
G37*
%LPC*%
G36*
X83864Y184198D02*
X82527Y183932D01*
X81392Y183174D01*
X80634Y182039D01*
X80368Y180702D01*
X80634Y179364D01*
X81392Y178229D01*
X82527Y177472D01*
X83864Y177205D01*
X85202Y177472D01*
X86337Y178229D01*
X87095Y179364D01*
X87361Y180702D01*
X87095Y182039D01*
X86337Y183174D01*
X85202Y183932D01*
X83864Y184198D01*
D02*
G37*
G36*
X83864Y165847D02*
X82527Y165581D01*
X81392Y164823D01*
X80634Y163688D01*
X80368Y162351D01*
X80634Y161013D01*
X81392Y159878D01*
X82527Y159121D01*
X83864Y158854D01*
X85202Y159121D01*
X86337Y159878D01*
X87094Y161013D01*
X87361Y162351D01*
X87094Y163688D01*
X86337Y164823D01*
X85202Y165581D01*
X83864Y165847D01*
D02*
G37*
G36*
X83357Y151623D02*
X82019Y151356D01*
X80884Y150599D01*
X80126Y149464D01*
X79860Y148126D01*
X80126Y146789D01*
X80884Y145654D01*
X82019Y144896D01*
X83357Y144630D01*
X84694Y144896D01*
X85829Y145654D01*
X86587Y146789D01*
X86853Y148126D01*
X86587Y149464D01*
X85829Y150599D01*
X84694Y151356D01*
X83357Y151623D01*
D02*
G37*
%LPD*%
D15*
X69132Y224944D02*
Y229994D01*
X50996Y248131D02*
X69132Y229994D01*
X46636Y224944D02*
X53133D01*
X35096Y213405D02*
X46636Y224944D01*
X35504Y227274D02*
X40845D01*
X34843Y226612D02*
X35504Y227274D01*
X40845D02*
X47587Y234016D01*
X81833Y247641D02*
Y256331D01*
X77133Y242941D02*
X81833Y247641D01*
X77133Y224944D02*
Y242941D01*
X47587Y234016D02*
X57336D01*
X61130Y230223D01*
Y224946D02*
Y230223D01*
Y224946D02*
X61132Y224944D01*
D35*
X74942Y66403D02*
X81946Y59399D01*
X48876Y66403D02*
X74942D01*
X69894Y276950D02*
Y303067D01*
X30398Y237453D02*
X69894Y276950D01*
X30398Y211817D02*
Y237453D01*
Y211817D02*
X33255Y208960D01*
X41675D01*
X45213Y212498D01*
X53133D01*
X152304Y42133D02*
X163620Y30816D01*
X120226Y42133D02*
X152304D01*
X95058Y67301D02*
X120226Y42133D01*
X69204Y185028D02*
Y212426D01*
X69132Y212498D02*
X69204Y212426D01*
X68878Y184702D02*
X69204Y185028D01*
X61259Y173780D02*
Y212110D01*
X61005Y212364D02*
X61259Y212110D01*
X97326Y269538D02*
Y289937D01*
X97502Y290112D01*
X65353Y53100D02*
X85668D01*
X58550Y59903D02*
X65353Y53100D01*
X48876Y59903D02*
X58550D01*
X95058Y67301D02*
Y122948D01*
X53133Y164874D02*
X95058Y122948D01*
X61005Y212364D02*
X61132Y212492D01*
X127040Y231723D02*
X136442Y222320D01*
Y199942D02*
Y222320D01*
X129386Y192886D02*
X136442Y199942D01*
X119937Y192886D02*
X129386D01*
X119766Y192716D02*
X119937Y192886D01*
X99063Y147866D02*
Y191542D01*
X94491Y130984D02*
Y193497D01*
X99063Y191542D02*
X110294Y202772D01*
X99063Y147866D02*
X102526Y144402D01*
X119869D01*
X94491Y130984D02*
X107072Y118402D01*
X94491Y193497D02*
X103766Y202772D01*
Y212498D01*
X110294Y202772D02*
X110422D01*
X111766Y204116D01*
Y212498D01*
X143414Y248097D02*
Y315410D01*
X163620Y335616D01*
X127040Y231723D02*
X143414Y248097D01*
X107867Y128660D02*
Y129079D01*
Y128660D02*
X110840Y125688D01*
X119084D01*
X119869Y124902D01*
X48876Y105403D02*
X68729D01*
X60617Y111609D02*
X61134Y112126D01*
X49169Y111609D02*
X60617D01*
X61130Y212495D02*
X61132Y212492D01*
X48876Y111903D02*
X49169Y111609D01*
X61130Y212495D02*
X61132Y212498D01*
X137048Y143080D02*
Y168594D01*
X131870Y137902D02*
X137048Y143080D01*
X131926Y173716D02*
X137048Y168594D01*
X119869Y137902D02*
X131870D01*
X119766Y173716D02*
X131926D01*
X140472Y23803D02*
X140506Y23837D01*
X142793Y102444D02*
Y140253D01*
Y102444D02*
X163620Y81616D01*
X107072Y118402D02*
X119869D01*
X53133Y164874D02*
Y212498D01*
X121266Y231723D02*
X127040D01*
X119766Y230223D02*
X121266Y231723D01*
X119766Y224944D02*
Y230223D01*
X140506Y23837D02*
Y36672D01*
X140472Y23803D02*
X140506Y23769D01*
D42*
X37005Y72902D02*
X48876D01*
X34715Y70613D02*
X37005Y72902D01*
X34715Y25166D02*
Y70613D01*
X33319Y23769D02*
X34715Y25166D01*
X127552Y285130D02*
X128822Y286399D01*
Y296208D01*
X35859Y96840D02*
X37644Y98625D01*
X48599D01*
X48876Y98902D01*
X35859Y81579D02*
Y96840D01*
Y81579D02*
X37757Y79680D01*
X48599D01*
X48876Y79403D01*
X131506Y102729D02*
X133903Y100332D01*
X129109Y105125D02*
X131506Y102729D01*
X134918Y106141D01*
Y112821D01*
X59039Y92126D02*
X73904Y77260D01*
X88945D01*
X25952Y283225D02*
Y307892D01*
Y283225D02*
X31129Y278048D01*
X47749D01*
X58313Y288612D01*
Y290112D01*
X79292Y71673D02*
X86404Y64560D01*
X71590Y71673D02*
X79292D01*
X70396Y72866D02*
X71590Y71673D01*
X48912Y72866D02*
X70396D01*
X120146Y105125D02*
X129109D01*
X133903Y48305D02*
Y100332D01*
X119869Y105403D02*
X120146Y105125D01*
X49153Y92126D02*
X59039D01*
X48876Y92402D02*
X49153Y92126D01*
X48876Y72902D02*
X48912Y72866D01*
D43*
X138177Y387317D02*
Y388788D01*
X136442Y385583D02*
X138177Y387317D01*
X111068Y335490D02*
X115167Y339589D01*
X97502Y335490D02*
X111068D01*
X81833Y198927D02*
Y211373D01*
X82958Y212498D01*
X126138D02*
X129838Y216199D01*
X119766Y212498D02*
X126138D01*
X129838Y216199D02*
Y220263D01*
X88186Y249730D02*
X103931Y265474D01*
X88186Y217726D02*
Y249730D01*
X77133Y212498D02*
X82958D01*
X88186Y217726D01*
X103931Y265474D02*
X134664D01*
X115167Y339589D02*
Y356659D01*
X124096Y361016D01*
X129246D01*
X136442Y368212D01*
Y385583D01*
X127552Y312630D02*
Y348546D01*
X163620Y384614D01*
X97502Y312630D02*
X127552D01*
X34843Y385583D02*
X36079D01*
X39312Y290112D02*
X39318Y290118D01*
Y323328D01*
X39323Y323333D01*
X38764Y348891D02*
X39323Y348332D01*
X38764Y348891D02*
Y381661D01*
X34843Y385583D02*
X38764Y381661D01*
X36079Y385583D02*
X60243Y409747D01*
X97502Y290112D02*
Y312630D01*
X163620Y384614D02*
Y386416D01*
D44*
X97502Y239328D02*
X103766Y233064D01*
Y224944D02*
Y233064D01*
X124180Y238498D02*
Y248646D01*
X117784Y255042D02*
X124180Y248646D01*
X105830Y255042D02*
X117784D01*
X97502Y246714D02*
X105830Y255042D01*
X97502Y239328D02*
Y246714D01*
X112211Y225388D02*
Y246535D01*
X111766Y224944D02*
X112211Y225388D01*
D45*
X29323Y348332D02*
D03*
Y335832D02*
D03*
Y323333D02*
D03*
X39323D02*
D03*
Y335832D02*
D03*
Y348332D02*
D03*
D46*
X111042Y384347D02*
D03*
X85642D02*
D03*
X60243D02*
D03*
X111042Y409747D02*
D03*
X85642D02*
D03*
X60243D02*
D03*
X163620Y386416D02*
D03*
Y361016D02*
D03*
Y335616D02*
D03*
Y310216D02*
D03*
Y284816D02*
D03*
Y259416D02*
D03*
Y234016D02*
D03*
Y208616D02*
D03*
Y183216D02*
D03*
Y157816D02*
D03*
Y132416D02*
D03*
Y107016D02*
D03*
Y81616D02*
D03*
Y56216D02*
D03*
Y30816D02*
D03*
X7664Y386416D02*
D03*
Y361016D02*
D03*
Y335616D02*
D03*
Y310216D02*
D03*
Y284816D02*
D03*
Y259416D02*
D03*
Y234016D02*
D03*
Y208616D02*
D03*
Y183216D02*
D03*
Y157816D02*
D03*
Y132416D02*
D03*
Y107016D02*
D03*
Y81616D02*
D03*
Y56216D02*
D03*
Y30816D02*
D03*
D47*
X60642Y34588D02*
D03*
X110643D02*
D03*
D48*
X50642Y7588D02*
D03*
X120643D02*
D03*
D49*
X28747Y53384D02*
D03*
X72943Y22143D02*
D03*
X81946Y59399D02*
D03*
X128822Y296208D02*
D03*
X25952Y307892D02*
D03*
X69894Y303067D02*
D03*
X83864Y180702D02*
D03*
X83864Y162351D02*
D03*
X83357Y148126D02*
D03*
X35096Y213405D02*
D03*
X61259Y173780D02*
D03*
X68878Y184702D02*
D03*
X134918Y112821D02*
D03*
X104692Y163113D02*
D03*
X34843Y226612D02*
D03*
X97326Y269538D02*
D03*
X86404Y64560D02*
D03*
X85668Y53100D02*
D03*
X81833Y256331D02*
D03*
X142793Y224046D02*
D03*
X104692Y178353D02*
D03*
Y170732D02*
D03*
X105027Y189783D02*
D03*
X107867Y96516D02*
D03*
X35791Y234059D02*
D03*
X41448Y241781D02*
D03*
X50996Y248131D02*
D03*
X107867Y129079D02*
D03*
X68116Y91490D02*
D03*
X101961D02*
D03*
X68729Y105403D02*
D03*
X61134Y112126D02*
D03*
X144046Y149046D02*
D03*
X142793Y140253D02*
D03*
X112211Y246535D02*
D03*
X124180Y238498D02*
D03*
X105830Y242173D02*
D03*
X65979D02*
D03*
X140506Y36672D02*
D03*
D50*
X138177Y388788D02*
D03*
X81833Y198927D02*
D03*
X88945Y77260D02*
D03*
X133903Y48305D02*
D03*
X134664Y265474D02*
D03*
X129838Y220263D02*
D03*
D51*
X39323Y335832D02*
X97502Y335490D01*
D52*
X33319Y23769D02*
D03*
Y4768D02*
D03*
X140506Y23769D02*
D03*
Y4768D02*
D03*
X119766Y173716D02*
D03*
Y192716D02*
D03*
D53*
X48876Y144402D02*
D03*
Y137902D02*
D03*
Y131403D02*
D03*
Y124902D02*
D03*
Y118402D02*
D03*
Y111903D02*
D03*
Y105403D02*
D03*
Y98902D02*
D03*
Y92402D02*
D03*
Y85903D02*
D03*
Y79403D02*
D03*
Y72902D02*
D03*
Y66403D02*
D03*
Y59903D02*
D03*
X119869D02*
D03*
Y66403D02*
D03*
Y72902D02*
D03*
Y79403D02*
D03*
Y85903D02*
D03*
Y92402D02*
D03*
Y98902D02*
D03*
Y105403D02*
D03*
Y111903D02*
D03*
Y118402D02*
D03*
Y124902D02*
D03*
Y131403D02*
D03*
Y137902D02*
D03*
Y144402D02*
D03*
D54*
X95766Y212498D02*
D03*
X103766D02*
D03*
X111766D02*
D03*
X119766D02*
D03*
X95766Y224944D02*
D03*
X103766D02*
D03*
X111766D02*
D03*
X119766D02*
D03*
X77133D02*
D03*
X69132D02*
D03*
X61132D02*
D03*
X53133D02*
D03*
X77133Y212498D02*
D03*
X69132D02*
D03*
X61132D02*
D03*
X53133D02*
D03*
D55*
X39312Y290112D02*
D03*
X58313D02*
D03*
D56*
X97502Y358350D02*
D03*
Y335490D02*
D03*
Y312630D02*
D03*
D57*
X34510Y335744D02*
D03*
D58*
X127552Y312630D02*
D03*
Y285130D02*
D03*
X136442Y385583D02*
D03*
Y413083D02*
D03*
X34843Y385583D02*
D03*
Y413083D02*
D03*
D59*
X80002Y290112D02*
D03*
X97502D02*
D03*
M02*
