G04*
G04 #@! TF.GenerationSoftware,Altium Limited,Altium Designer,19.1.8 (144)*
G04*
G04 Layer_Physical_Order=2*
G04 Layer_Color=36540*
%FSLAX44Y44*%
%MOMM*%
G71*
G01*
G75*
D35*
X70656Y83610D02*
X80055Y93008D01*
X70656Y24429D02*
Y83610D01*
Y24429D02*
X72943Y22143D01*
X69894Y312538D02*
X85642Y328286D01*
X69894Y303067D02*
Y312538D01*
X97326Y110281D02*
Y269538D01*
X80055Y93008D02*
X97326Y110281D01*
X59784Y298576D02*
X89326Y269034D01*
Y160089D02*
Y269034D01*
X83357Y154120D02*
X89326Y160089D01*
X83357Y148126D02*
Y154120D01*
X83864Y162351D02*
Y172979D01*
X75483Y181361D02*
X83864Y172979D01*
X75483Y181361D02*
Y268549D01*
X50865Y293167D02*
X75483Y268549D01*
X142793Y204044D02*
Y224046D01*
Y204044D02*
X163620Y183216D01*
X105027Y189783D02*
X131654D01*
X163620Y157816D01*
X85642Y328286D02*
Y384347D01*
X50865Y293167D02*
Y352790D01*
X25195Y378460D02*
X50865Y352790D01*
X25195Y378460D02*
Y397299D01*
X51198Y423302D02*
X72087D01*
X25195Y397299D02*
X51198Y423302D01*
X72087D02*
X85642Y409747D01*
X59784Y298576D02*
Y383888D01*
X60243Y384347D01*
X140506Y36672D02*
Y58502D01*
X163620Y81616D01*
D42*
X104692Y153207D02*
X134918Y122980D01*
Y112821D02*
Y122980D01*
X104692Y153207D02*
Y163113D01*
X88945Y77260D02*
Y92523D01*
X107867Y111446D01*
X134664Y265346D02*
Y265474D01*
X130149Y260830D02*
X134664Y265346D01*
X130149Y220779D02*
Y260830D01*
X129838Y220469D02*
X130149Y220779D01*
X129838Y220263D02*
Y220469D01*
X107867Y111446D02*
Y129079D01*
D43*
X27222Y269294D02*
X39323Y281394D01*
X27222Y242628D02*
Y269294D01*
Y242628D02*
X35791Y234059D01*
X39323Y281394D02*
Y323333D01*
D45*
D03*
D46*
X85642Y384347D02*
D03*
X60243D02*
D03*
X85642Y409747D02*
D03*
X163620Y183216D02*
D03*
Y157816D02*
D03*
Y81616D02*
D03*
D49*
X72943Y22143D02*
D03*
X69894Y303067D02*
D03*
X83864Y162351D02*
D03*
X83357Y148126D02*
D03*
X134918Y112821D02*
D03*
X104692Y163113D02*
D03*
X97326Y269538D02*
D03*
X142793Y224046D02*
D03*
X105027Y189783D02*
D03*
X35791Y234059D02*
D03*
X107867Y129079D02*
D03*
X140506Y36672D02*
D03*
D50*
X88945Y77260D02*
D03*
X134664Y265474D02*
D03*
X129838Y220263D02*
D03*
M02*
