%TF.GenerationSoftware,Altium Limited,Altium Designer,19.1.8 (144)*%
G04 Layer_Physical_Order=4*
G04 Layer_Color=16711680*
%FSLAX26Y26*%
%MOIN*%
%TF.FileFunction,Copper,L4,Bot,Signal*%
%TF.Part,Single*%
G01*
G75*
%TA.AperFunction,Conductor*%
%ADD19C,0.010000*%
%ADD20C,0.008000*%
%ADD21C,0.012000*%
%ADD22C,0.020000*%
%ADD23C,0.015000*%
%TA.AperFunction,ComponentPad*%
%ADD24C,0.031496*%
%ADD25C,0.078740*%
%ADD26C,0.057087*%
%ADD27O,0.037402X0.074803*%
%TA.AperFunction,ViaPad*%
%ADD28C,0.015000*%
%ADD29C,0.020000*%
%TA.AperFunction,Conductor*%
%ADD30C,0.030000*%
%TA.AperFunction,SMDPad,CuDef*%
%ADD31R,0.062992X0.051181*%
%ADD32R,0.059500X0.017000*%
%ADD33R,0.019685X0.023622*%
%ADD34R,0.051181X0.062992*%
%ADD35R,0.079000X0.059000*%
%ADD36R,0.079000X0.150000*%
%ADD37R,0.059055X0.076772*%
%TA.AperFunction,ConnectorPad*%
%ADD38R,0.059055X0.076772*%
%TA.AperFunction,SMDPad,CuDef*%
%ADD39R,0.051181X0.059055*%
G36*
X638427Y1668716D02*
X654806Y1661932D01*
X669547Y1652083D01*
X682083Y1639547D01*
X691932Y1624806D01*
X698716Y1608427D01*
X702175Y1591039D01*
Y1582175D01*
Y62175D01*
Y53311D01*
X698716Y35923D01*
X691932Y19544D01*
X682083Y4803D01*
X669547Y-7732D01*
X654806Y-17582D01*
X638427Y-24366D01*
X621039Y-27825D01*
X67175D01*
X57819Y-27825D01*
X39465Y-24174D01*
X22176Y-17013D01*
X6616Y-6616D01*
X-6616Y6616D01*
X-17013Y22176D01*
X-24174Y39465D01*
X-27825Y57819D01*
Y67175D01*
X-27825D01*
Y1582175D01*
Y1591039D01*
X-24366Y1608427D01*
X-17582Y1624806D01*
X-7732Y1639547D01*
X4803Y1652083D01*
X19544Y1661932D01*
X35923Y1668716D01*
X53311Y1672175D01*
X97648D01*
Y1631309D01*
X176703D01*
Y1672175D01*
X497648D01*
Y1631309D01*
X576703D01*
Y1672175D01*
X621039D01*
X638427Y1668716D01*
D02*
G37*
%LPC*%
G36*
X442175Y1662313D02*
Y1618175D01*
X486313D01*
X485274Y1626063D01*
X480300Y1638073D01*
X472386Y1648386D01*
X462073Y1656300D01*
X450063Y1661274D01*
X442175Y1662313D01*
D02*
G37*
G36*
X432175D02*
X424287Y1661274D01*
X412277Y1656300D01*
X401964Y1648386D01*
X394050Y1638073D01*
X389076Y1626063D01*
X387734Y1615871D01*
X387679Y1615457D01*
X382637D01*
X382582Y1615871D01*
X381377Y1625019D01*
X376806Y1636056D01*
X369534Y1645534D01*
X360056Y1652806D01*
X349019Y1657378D01*
X337175Y1658937D01*
X325331Y1657378D01*
X314294Y1652806D01*
X304817Y1645534D01*
X297545Y1636056D01*
X292973Y1625019D01*
X291414Y1613175D01*
X292973Y1601331D01*
X297545Y1590294D01*
X304817Y1580817D01*
X314294Y1573544D01*
X325331Y1568973D01*
X337175Y1567414D01*
X349019Y1568973D01*
X360056Y1573544D01*
X369534Y1580817D01*
X376806Y1590294D01*
X381377Y1601331D01*
X382582Y1610480D01*
X382637Y1610893D01*
X387679D01*
X387734Y1610480D01*
X389076Y1600287D01*
X394050Y1588277D01*
X401964Y1577964D01*
X412277Y1570051D01*
X424287Y1565076D01*
X434480Y1563734D01*
X434893Y1563679D01*
Y1558637D01*
X434480Y1558582D01*
X425331Y1557378D01*
X414294Y1552806D01*
X404817Y1545534D01*
X397545Y1536056D01*
X392973Y1525019D01*
X391414Y1513175D01*
X392973Y1501331D01*
X397545Y1490294D01*
X404817Y1480817D01*
X414294Y1473544D01*
X425331Y1468973D01*
X437175Y1467414D01*
X449019Y1468973D01*
X460056Y1473544D01*
X469534Y1480817D01*
X476806Y1490294D01*
X481377Y1501331D01*
X482937Y1513175D01*
X481377Y1525019D01*
X476806Y1536056D01*
X469534Y1545534D01*
X460056Y1552806D01*
X449019Y1557378D01*
X439871Y1558582D01*
X439457Y1558637D01*
Y1563679D01*
X439871Y1563734D01*
X450063Y1565076D01*
X462073Y1570051D01*
X472386Y1577964D01*
X480300Y1588277D01*
X485274Y1600287D01*
X486313Y1608175D01*
X437175D01*
Y1613175D01*
X432175D01*
Y1662313D01*
D02*
G37*
G36*
X237175Y1658937D02*
X225331Y1657378D01*
X214294Y1652806D01*
X204817Y1645534D01*
X197544Y1636056D01*
X192973Y1625019D01*
X191414Y1613175D01*
X192973Y1601331D01*
X195693Y1594764D01*
X181703Y1580774D01*
X176703Y1582845D01*
Y1621309D01*
X142175D01*
Y1577923D01*
X171781D01*
X173853Y1572923D01*
X163356Y1562427D01*
X101648D01*
Y1473655D01*
X136300D01*
Y1402825D01*
X90365D01*
Y1240825D01*
X138480D01*
Y1179671D01*
X123183D01*
Y1104679D01*
X186364D01*
Y1179671D01*
X171107D01*
Y1240825D01*
X181365D01*
Y1297061D01*
X184911Y1300586D01*
X338365Y1299682D01*
Y1285325D01*
X429365D01*
Y1304512D01*
X437275D01*
X443518Y1305754D01*
X448811Y1309290D01*
X464949Y1325428D01*
X468485Y1330720D01*
X469727Y1336963D01*
Y1393978D01*
X492335Y1405010D01*
X504814D01*
X506885Y1400010D01*
X490640Y1383765D01*
X487103Y1378472D01*
X485862Y1372229D01*
Y1275211D01*
X466648D01*
Y1247139D01*
X429365D01*
Y1266325D01*
X338365D01*
Y1195325D01*
X367552D01*
Y1177703D01*
X352275D01*
X350558Y1181703D01*
X319967D01*
Y1142175D01*
Y1102648D01*
X350558D01*
X352275Y1106648D01*
X372979D01*
Y1070215D01*
X370459Y1066443D01*
X369411Y1061175D01*
X370459Y1055908D01*
X373442Y1051442D01*
X377908Y1048458D01*
X381585Y1047727D01*
X383495Y1043379D01*
X383555Y1042625D01*
X341174Y1000245D01*
X335543Y1001685D01*
X334892Y1003908D01*
X335940Y1009175D01*
X334892Y1014443D01*
X331908Y1018908D01*
X327443Y1021892D01*
X322175Y1022940D01*
X316908Y1021892D01*
X312442Y1018908D01*
X309459Y1014443D01*
X308411Y1009175D01*
X309459Y1003908D01*
X310960Y1001661D01*
Y979611D01*
X295741Y964392D01*
X293309Y960754D01*
X292456Y956462D01*
X292456Y956461D01*
Y903416D01*
X287561D01*
X283391Y905490D01*
X282537Y909782D01*
X280106Y913420D01*
X280106Y913421D01*
X258753Y934773D01*
X259216Y937029D01*
X260733Y939865D01*
X265026Y940719D01*
X269491Y943702D01*
X272475Y948168D01*
X273523Y953435D01*
X272475Y958703D01*
X269491Y963168D01*
X265026Y966152D01*
X259758Y967200D01*
X254491Y966152D01*
X250025Y963168D01*
X247042Y958703D01*
X246188Y954410D01*
X243351Y952893D01*
X241096Y952431D01*
X214015Y979511D01*
X213488Y982161D01*
X210504Y986627D01*
X206038Y989611D01*
X200771Y990659D01*
X200648Y990634D01*
X194967Y994562D01*
X194797Y995557D01*
X282385Y1083144D01*
X284595Y1086452D01*
X285371Y1090354D01*
Y1102648D01*
X309967D01*
Y1142175D01*
Y1181703D01*
X289759D01*
X287087Y1186703D01*
X287892Y1187908D01*
X288940Y1193175D01*
X287892Y1198443D01*
X284908Y1202908D01*
X280443Y1205892D01*
X275175Y1206940D01*
X269908Y1205892D01*
X265442Y1202908D01*
X262459Y1198443D01*
X261411Y1193175D01*
X262307Y1188671D01*
X261250Y1186299D01*
X259276Y1183671D01*
X234577D01*
Y1142175D01*
Y1100679D01*
X264979D01*
Y1094577D01*
X112466Y942063D01*
X110255Y938756D01*
X109479Y934854D01*
Y833927D01*
X110255Y830025D01*
X112466Y826717D01*
X123717Y815466D01*
X127025Y813255D01*
X130927Y812479D01*
X164074D01*
X167976Y813255D01*
X171284Y815466D01*
X182227Y826409D01*
X193341D01*
Y818794D01*
X198987D01*
Y649110D01*
X199763Y645208D01*
X201974Y641900D01*
X364048Y479825D01*
Y320162D01*
X359048Y317489D01*
X356418Y319247D01*
X350175Y320489D01*
X343932Y319247D01*
X339687Y316410D01*
X296029D01*
X270620Y341819D01*
X272266Y347245D01*
X273443Y347479D01*
X277908Y350462D01*
X280892Y354928D01*
X281940Y360195D01*
X280892Y365463D01*
X277908Y369928D01*
X273443Y372912D01*
X268175Y373960D01*
X262908Y372912D01*
X258442Y369928D01*
X255458Y365463D01*
X255225Y364286D01*
X249799Y362640D01*
X241089Y371351D01*
X237120Y374003D01*
X232437Y374934D01*
X232175D01*
Y384379D01*
X192425D01*
X152675D01*
Y370879D01*
X156675D01*
Y331109D01*
X152675D01*
Y317609D01*
X192425D01*
Y307609D01*
X152675D01*
Y299252D01*
X145690D01*
X141008Y298321D01*
X137039Y295669D01*
X128024Y286654D01*
X125371Y282685D01*
X124440Y278002D01*
Y224898D01*
X119440Y222226D01*
X118443Y222892D01*
X113175Y223940D01*
X107908Y222892D01*
X103442Y219908D01*
X100459Y215443D01*
X99411Y210175D01*
X100459Y204908D01*
X103442Y200442D01*
X107908Y197458D01*
X113175Y196411D01*
X118443Y197458D01*
X119440Y198125D01*
X124440Y195452D01*
Y125168D01*
X93679D01*
Y61987D01*
X168671D01*
Y125168D01*
X148910D01*
Y272934D01*
X150758Y274782D01*
X156675D01*
Y246927D01*
Y221337D01*
X228175D01*
X228175Y221337D01*
Y221337D01*
X232454Y219477D01*
X250086Y201846D01*
X253393Y199635D01*
X257295Y198859D01*
X328235D01*
X332008Y196339D01*
X337275Y195291D01*
X342543Y196339D01*
X347008Y199322D01*
X349992Y203788D01*
X351040Y209055D01*
X349992Y214323D01*
X347008Y218788D01*
X342543Y221772D01*
X337275Y222820D01*
X334523Y227370D01*
X335337Y228589D01*
X336385Y233856D01*
X335927Y236158D01*
X340011Y240443D01*
X340175Y240411D01*
X345443Y241458D01*
X349908Y244442D01*
X352892Y248908D01*
X353940Y254175D01*
X352892Y259443D01*
X349908Y263908D01*
X345443Y266892D01*
X344592Y267061D01*
X324713Y286940D01*
X326784Y291940D01*
X339687D01*
X343932Y289103D01*
X350175Y287862D01*
X356418Y289103D01*
X359048Y290861D01*
X364048Y288188D01*
Y264963D01*
X364825Y261061D01*
X367035Y257754D01*
X453032Y171757D01*
X450200Y167518D01*
X444619Y169829D01*
X435601Y171017D01*
X426584Y169829D01*
X418180Y166349D01*
X410965Y160812D01*
X405428Y153596D01*
X401947Y145193D01*
X400760Y136175D01*
X401947Y127158D01*
X405428Y118754D01*
X410965Y111539D01*
X418180Y106002D01*
X426584Y102521D01*
X435601Y101334D01*
X444619Y102521D01*
X453022Y106002D01*
X460238Y111539D01*
X465775Y118754D01*
X469255Y127158D01*
X470443Y136175D01*
X469255Y145193D01*
X466182Y152613D01*
X468743Y155644D01*
X469811Y156381D01*
X473332Y155680D01*
X538479D01*
X541151Y150680D01*
X540458Y149643D01*
X539411Y144376D01*
X540458Y139109D01*
X542979Y135336D01*
Y125168D01*
X515679D01*
Y61987D01*
X590671D01*
Y125168D01*
X563371D01*
Y135336D01*
X565892Y139109D01*
X566940Y144376D01*
X565892Y149643D01*
X565199Y150680D01*
X567872Y155680D01*
X595399D01*
X605556Y145523D01*
X604544Y144204D01*
X599973Y133167D01*
X598414Y121323D01*
X599973Y109479D01*
X604544Y98442D01*
X611817Y88965D01*
X621294Y81692D01*
X632331Y77121D01*
X644175Y75562D01*
X656019Y77121D01*
X667056Y81692D01*
X676534Y88965D01*
X683806Y98442D01*
X688378Y109479D01*
X689937Y121323D01*
X688378Y133167D01*
X683806Y144204D01*
X676534Y153681D01*
X667056Y160954D01*
X656019Y165525D01*
X644175Y167085D01*
X632331Y165525D01*
X621294Y160954D01*
X619976Y159942D01*
X606832Y173086D01*
X603524Y175296D01*
X599622Y176072D01*
X547109D01*
X544752Y180482D01*
X546015Y182372D01*
X546572Y185175D01*
X507778D01*
X508336Y182372D01*
X509598Y180482D01*
X507241Y176072D01*
X477555D01*
X437290Y216337D01*
X439361Y221337D01*
X507675D01*
Y246927D01*
Y272517D01*
Y298109D01*
Y323699D01*
Y349289D01*
Y396471D01*
X511675D01*
Y409971D01*
X471925D01*
X432175D01*
Y396968D01*
X431935Y396508D01*
X428628Y392963D01*
X424675Y393750D01*
X419408Y392702D01*
X414942Y389718D01*
X411959Y385253D01*
X410911Y379985D01*
X411801Y375511D01*
X409945Y373516D01*
X407748Y372205D01*
X406690Y372912D01*
X401423Y373960D01*
X396155Y372912D01*
X391690Y369928D01*
X389440Y366562D01*
X384440Y367696D01*
Y481764D01*
X389440Y483835D01*
X414334Y458942D01*
X417642Y456731D01*
X421544Y455955D01*
X436175D01*
Y433471D01*
X432175D01*
Y419971D01*
X471925D01*
X511675D01*
Y428916D01*
X516607Y433024D01*
X517706Y432835D01*
X518558Y431558D01*
X524347Y427691D01*
X526175Y427327D01*
Y439175D01*
X513613D01*
X510032Y436005D01*
X507675Y436950D01*
Y477241D01*
Y502833D01*
Y532727D01*
X519175D01*
X523077Y533503D01*
X526385Y535714D01*
X543559Y552888D01*
X545098Y552662D01*
X548661Y550918D01*
X549458Y546908D01*
X551979Y543135D01*
Y452966D01*
X546979Y452022D01*
X543792Y456792D01*
X538003Y460660D01*
X536175Y461023D01*
Y444175D01*
Y427327D01*
X538003Y427691D01*
X543792Y431558D01*
X546979Y436329D01*
X551979Y435384D01*
Y403323D01*
X552755Y399421D01*
X554966Y396114D01*
X605556Y345523D01*
X604544Y344204D01*
X599973Y333167D01*
X598414Y321323D01*
X599973Y309479D01*
X604544Y298442D01*
X611817Y288965D01*
X621294Y281692D01*
X632331Y277121D01*
X644175Y275562D01*
X656019Y277121D01*
X667056Y281692D01*
X676534Y288965D01*
X683806Y298442D01*
X688378Y309479D01*
X689937Y321323D01*
X688378Y333167D01*
X683806Y344204D01*
X676534Y353682D01*
X667056Y360954D01*
X656019Y365526D01*
X644175Y367085D01*
X632331Y365526D01*
X621294Y360954D01*
X619976Y359942D01*
X572371Y407546D01*
Y543135D01*
X574892Y546908D01*
X575940Y552175D01*
X574892Y557443D01*
X571908Y561908D01*
X567443Y564892D01*
X562175Y565940D01*
X556908Y564892D01*
X554757Y563455D01*
X549757Y566127D01*
Y577351D01*
X550684Y578077D01*
X557376Y577061D01*
X561841Y574078D01*
X567109Y573030D01*
X572376Y574078D01*
X576842Y577061D01*
X579826Y581527D01*
X580873Y586794D01*
X579826Y592062D01*
X576842Y596527D01*
X572376Y599511D01*
X567109Y600559D01*
X561841Y599511D01*
X557376Y596528D01*
X550684Y595511D01*
X549757Y596237D01*
Y663755D01*
X548981Y667657D01*
X546770Y670965D01*
X526604Y691131D01*
X523297Y693341D01*
X519395Y694117D01*
X509017D01*
Y715512D01*
X434025D01*
Y652331D01*
X509017D01*
Y673725D01*
X515172D01*
X529365Y659532D01*
Y567532D01*
X514952Y553119D01*
X507675D01*
Y583013D01*
X436175D01*
Y578709D01*
X407869D01*
X400207Y586371D01*
Y623822D01*
X404617Y626179D01*
X405347Y625691D01*
X407175Y625327D01*
Y642175D01*
X412175D01*
Y647175D01*
X429023D01*
X428660Y649003D01*
X424792Y654792D01*
X422125Y656574D01*
X421908Y662442D01*
X424892Y666908D01*
X425940Y672175D01*
X424892Y677443D01*
X421908Y681908D01*
X418055Y684482D01*
X417724Y687175D01*
X418055Y689868D01*
X421908Y692442D01*
X424892Y696908D01*
X425940Y702175D01*
X424892Y707443D01*
X421908Y711908D01*
X417443Y714892D01*
X412175Y715940D01*
X406908Y714892D01*
X405207Y713756D01*
X400207Y716428D01*
Y734259D01*
X400580Y734593D01*
X405207Y736474D01*
X408224Y734458D01*
X413491Y733411D01*
X418758Y734458D01*
X423224Y737442D01*
X426208Y741908D01*
X427255Y747175D01*
X426208Y752442D01*
X423224Y756908D01*
X418758Y759892D01*
X417536Y760135D01*
X415890Y765560D01*
X429406Y779076D01*
X434025Y777163D01*
Y727135D01*
X509017D01*
Y749199D01*
X509395D01*
X513297Y749975D01*
X516604Y752185D01*
X544385Y779966D01*
X546595Y783273D01*
X547371Y787175D01*
Y870927D01*
X552371Y872444D01*
X552442Y872337D01*
X556908Y869354D01*
X562175Y868306D01*
X567443Y869354D01*
X571908Y872337D01*
X574892Y876803D01*
X575940Y882070D01*
X574892Y887338D01*
X571908Y891803D01*
X567443Y894787D01*
X562175Y895835D01*
X556908Y894787D01*
X552442Y891803D01*
X549458Y887338D01*
X548930Y884683D01*
X546932Y883717D01*
X543559Y883311D01*
X514577Y912294D01*
X571832Y969549D01*
X574043Y972857D01*
X574819Y976759D01*
Y1237547D01*
X619976Y1282704D01*
X621294Y1281693D01*
X632331Y1277121D01*
X644175Y1275562D01*
X656019Y1277121D01*
X667056Y1281693D01*
X676534Y1288965D01*
X683806Y1298442D01*
X688378Y1309479D01*
X689937Y1321323D01*
X688378Y1333167D01*
X683806Y1344204D01*
X676534Y1353681D01*
X667056Y1360954D01*
X656019Y1365525D01*
X646457Y1366784D01*
Y1371828D01*
X657063Y1373224D01*
X669073Y1378198D01*
X679386Y1386112D01*
X687300Y1396425D01*
X692274Y1408435D01*
X693313Y1416323D01*
X644175D01*
X595037D01*
X596076Y1408435D01*
X601051Y1396425D01*
X608964Y1386112D01*
X619277Y1378198D01*
X631287Y1373224D01*
X641893Y1371828D01*
Y1366784D01*
X632331Y1365525D01*
X621294Y1360954D01*
X611817Y1353681D01*
X604544Y1344204D01*
X599973Y1333167D01*
X598414Y1321323D01*
X599973Y1309479D01*
X604544Y1298442D01*
X605556Y1297124D01*
X557413Y1248980D01*
X555203Y1245673D01*
X554427Y1241771D01*
Y980982D01*
X506604Y933159D01*
X501996Y935622D01*
X502662Y938968D01*
Y978919D01*
X502662Y978920D01*
X501614Y984187D01*
X498630Y988653D01*
X498630Y988653D01*
X473449Y1013834D01*
X468983Y1016818D01*
X463716Y1017866D01*
X416652D01*
X411385Y1016818D01*
X410104Y1015963D01*
X406917Y1019846D01*
X415933Y1028862D01*
X530175D01*
X536418Y1030103D01*
X541711Y1033640D01*
X545247Y1038932D01*
X546489Y1045175D01*
X545247Y1051418D01*
X541711Y1056711D01*
X536418Y1060247D01*
X530175Y1061489D01*
X409175D01*
X402932Y1060247D01*
X401688Y1059415D01*
X399692Y1060155D01*
X396750Y1062130D01*
X395892Y1066443D01*
X393371Y1070215D01*
Y1106648D01*
X415456D01*
Y1177703D01*
X400179D01*
Y1195325D01*
X429365D01*
Y1214512D01*
X466648D01*
Y1186439D01*
X497004D01*
X498521Y1181439D01*
X494558Y1178792D01*
X490691Y1173003D01*
X490281Y1170943D01*
X462648D01*
Y1127557D01*
X502175D01*
X541703D01*
Y1170943D01*
X524070D01*
X523660Y1173003D01*
X519792Y1178792D01*
X515830Y1181439D01*
X517347Y1186439D01*
X537703D01*
Y1275211D01*
X518489D01*
Y1365472D01*
X593093Y1440076D01*
X597332Y1437244D01*
X596076Y1434211D01*
X595037Y1426323D01*
X644175D01*
X693313D01*
X692274Y1434211D01*
X687300Y1446221D01*
X679386Y1456534D01*
X669073Y1464448D01*
X657063Y1469422D01*
X646457Y1470819D01*
Y1475862D01*
X656019Y1477121D01*
X667056Y1481693D01*
X676534Y1488965D01*
X683806Y1498442D01*
X688378Y1509479D01*
X689937Y1521323D01*
X688378Y1533167D01*
X683806Y1544204D01*
X676534Y1553681D01*
X667056Y1560954D01*
X656019Y1565525D01*
X644175Y1567085D01*
X632331Y1565525D01*
X621294Y1560954D01*
X611817Y1553681D01*
X604544Y1544204D01*
X599973Y1533167D01*
X598414Y1521323D01*
X599973Y1509479D01*
X604544Y1498442D01*
X604880Y1498005D01*
X558489Y1451613D01*
X553489Y1453685D01*
Y1473655D01*
X572703D01*
Y1562427D01*
X501648D01*
Y1473655D01*
X520862D01*
Y1456412D01*
X502086Y1437637D01*
X488567D01*
X488070Y1437538D01*
X487568Y1437606D01*
X484965Y1436920D01*
X482324Y1436395D01*
X481903Y1436113D01*
X481413Y1435984D01*
X446259Y1418830D01*
X444117Y1417201D01*
X441878Y1415705D01*
X441596Y1415283D01*
X441193Y1414976D01*
X439838Y1412651D01*
X438341Y1410412D01*
X433365Y1411024D01*
Y1450325D01*
X388865D01*
Y1410825D01*
Y1371325D01*
X432100D01*
X433365Y1371325D01*
X437100Y1368270D01*
Y1344784D01*
X434103Y1342423D01*
X429365Y1344520D01*
Y1356325D01*
X338365D01*
Y1346051D01*
X334819Y1342526D01*
X181365Y1343430D01*
Y1402825D01*
X168927D01*
Y1473655D01*
X172703D01*
Y1525632D01*
X218764Y1571693D01*
X225331Y1568973D01*
X237175Y1567414D01*
X249019Y1568973D01*
X260056Y1573544D01*
X269534Y1580817D01*
X276806Y1590294D01*
X281377Y1601331D01*
X282937Y1613175D01*
X281377Y1625019D01*
X276806Y1636056D01*
X269534Y1645534D01*
X260056Y1652806D01*
X249019Y1657378D01*
X237175Y1658937D01*
D02*
G37*
G36*
X576703Y1621309D02*
X542175D01*
Y1577923D01*
X576703D01*
Y1621309D01*
D02*
G37*
G36*
X532175D02*
X497648D01*
Y1577923D01*
X532175D01*
Y1621309D01*
D02*
G37*
G36*
X132175D02*
X97648D01*
Y1577923D01*
X132175D01*
Y1621309D01*
D02*
G37*
G36*
X30175Y1567085D02*
X18331Y1565525D01*
X7294Y1560954D01*
X-2183Y1553681D01*
X-9456Y1544204D01*
X-14027Y1533167D01*
X-15586Y1521323D01*
X-14027Y1509479D01*
X-9456Y1498442D01*
X-2183Y1488965D01*
X7294Y1481693D01*
X18331Y1477121D01*
X30175Y1475562D01*
X42019Y1477121D01*
X53056Y1481693D01*
X62533Y1488965D01*
X69806Y1498442D01*
X74377Y1509479D01*
X75937Y1521323D01*
X74377Y1533167D01*
X69806Y1544204D01*
X62533Y1553681D01*
X53056Y1560954D01*
X42019Y1565525D01*
X30175Y1567085D01*
D02*
G37*
G36*
X337175Y1558937D02*
X325331Y1557378D01*
X314294Y1552806D01*
X304817Y1545534D01*
X297545Y1536056D01*
X292973Y1525019D01*
X291414Y1513175D01*
X292973Y1501331D01*
X297545Y1490294D01*
X304817Y1480817D01*
X314294Y1473544D01*
X325331Y1468973D01*
X337175Y1467414D01*
X349019Y1468973D01*
X360056Y1473544D01*
X369534Y1480817D01*
X376806Y1490294D01*
X381377Y1501331D01*
X382937Y1513175D01*
X381377Y1525019D01*
X376806Y1536056D01*
X369534Y1545534D01*
X360056Y1552806D01*
X349019Y1557378D01*
X337175Y1558937D01*
D02*
G37*
G36*
X237175D02*
X225331Y1557378D01*
X214294Y1552806D01*
X204817Y1545534D01*
X197544Y1536056D01*
X192973Y1525019D01*
X191414Y1513175D01*
X192973Y1501331D01*
X197544Y1490294D01*
X204817Y1480817D01*
X214294Y1473544D01*
X225331Y1468973D01*
X237175Y1467414D01*
X249019Y1468973D01*
X260056Y1473544D01*
X269534Y1480817D01*
X276806Y1490294D01*
X281377Y1501331D01*
X282937Y1513175D01*
X281377Y1525019D01*
X276806Y1536056D01*
X269534Y1545534D01*
X260056Y1552806D01*
X249019Y1557378D01*
X237175Y1558937D01*
D02*
G37*
G36*
X378865Y1450325D02*
X334365D01*
Y1415825D01*
X378865D01*
Y1450325D01*
D02*
G37*
G36*
X30175Y1467085D02*
X18331Y1465525D01*
X7294Y1460954D01*
X-2183Y1453681D01*
X-9456Y1444204D01*
X-14027Y1433167D01*
X-15586Y1421323D01*
X-14027Y1409479D01*
X-9456Y1398442D01*
X-2183Y1388965D01*
X7294Y1381693D01*
X18331Y1377121D01*
X30175Y1375562D01*
X42019Y1377121D01*
X53056Y1381693D01*
X62533Y1388965D01*
X69806Y1398442D01*
X74377Y1409479D01*
X75937Y1421323D01*
X74377Y1433167D01*
X69806Y1444204D01*
X62533Y1453681D01*
X53056Y1460954D01*
X42019Y1465525D01*
X30175Y1467085D01*
D02*
G37*
G36*
X378865Y1405825D02*
X334365D01*
Y1371325D01*
X378865D01*
Y1405825D01*
D02*
G37*
G36*
X30175Y1367085D02*
X18331Y1365525D01*
X7294Y1360954D01*
X-2183Y1353681D01*
X-9456Y1344204D01*
X-14027Y1333167D01*
X-15586Y1321323D01*
X-14027Y1309479D01*
X-9456Y1298442D01*
X-2183Y1288965D01*
X7294Y1281693D01*
X18331Y1277121D01*
X27480Y1275917D01*
X27893Y1275862D01*
Y1270819D01*
X27480Y1270764D01*
X17287Y1269422D01*
X5277Y1264448D01*
X-5036Y1256534D01*
X-12950Y1246221D01*
X-17924Y1234211D01*
X-18963Y1226323D01*
X30175D01*
X79313D01*
X78275Y1234211D01*
X73300Y1246221D01*
X65386Y1256534D01*
X55073Y1264448D01*
X43063Y1269422D01*
X32871Y1270764D01*
X32457Y1270819D01*
Y1275862D01*
X32871Y1275917D01*
X42019Y1277121D01*
X53056Y1281693D01*
X62533Y1288965D01*
X69806Y1298442D01*
X74377Y1309479D01*
X75937Y1321323D01*
X74377Y1333167D01*
X69806Y1344204D01*
X62533Y1353681D01*
X53056Y1360954D01*
X42019Y1365525D01*
X30175Y1367085D01*
D02*
G37*
G36*
X107175Y1229023D02*
Y1217175D01*
X119023D01*
X118660Y1219003D01*
X114792Y1224792D01*
X109003Y1228660D01*
X107175Y1229023D01*
D02*
G37*
G36*
X97175D02*
X95347Y1228660D01*
X89558Y1224792D01*
X85691Y1219003D01*
X85327Y1217175D01*
X97175D01*
Y1229023D01*
D02*
G37*
G36*
X119023Y1207175D02*
X107175D01*
Y1195327D01*
X109003Y1195691D01*
X114792Y1199558D01*
X118660Y1205347D01*
X119023Y1207175D01*
D02*
G37*
G36*
X97175D02*
X85327D01*
X85691Y1205347D01*
X89558Y1199558D01*
X95347Y1195691D01*
X97175Y1195327D01*
Y1207175D01*
D02*
G37*
G36*
X644175Y1267085D02*
X632331Y1265525D01*
X621294Y1260954D01*
X611817Y1253681D01*
X604544Y1244204D01*
X599973Y1233167D01*
X598414Y1221323D01*
X599973Y1209479D01*
X604544Y1198442D01*
X611817Y1188965D01*
X621294Y1181693D01*
X632331Y1177121D01*
X644175Y1175562D01*
X656019Y1177121D01*
X667056Y1181693D01*
X676534Y1188965D01*
X683806Y1198442D01*
X688378Y1209479D01*
X689937Y1221323D01*
X688378Y1233167D01*
X683806Y1244204D01*
X676534Y1253681D01*
X667056Y1260954D01*
X656019Y1265525D01*
X644175Y1267085D01*
D02*
G37*
G36*
X224577Y1183671D02*
X193987D01*
Y1147175D01*
X224577D01*
Y1183671D01*
D02*
G37*
G36*
Y1137175D02*
X193987D01*
Y1100679D01*
X224577D01*
Y1137175D01*
D02*
G37*
G36*
X644175Y1167085D02*
X632331Y1165525D01*
X621294Y1160954D01*
X611817Y1153681D01*
X604544Y1144204D01*
X599973Y1133167D01*
X598414Y1121323D01*
X599973Y1109479D01*
X604544Y1098442D01*
X611817Y1088965D01*
X621294Y1081693D01*
X632331Y1077121D01*
X644175Y1075562D01*
X656019Y1077121D01*
X667056Y1081693D01*
X676534Y1088965D01*
X683806Y1098442D01*
X688378Y1109479D01*
X689937Y1121323D01*
X688378Y1133167D01*
X683806Y1144204D01*
X676534Y1153681D01*
X667056Y1160954D01*
X656019Y1165525D01*
X644175Y1167085D01*
D02*
G37*
G36*
X79313Y1216323D02*
X30175D01*
X-18963D01*
X-17924Y1208435D01*
X-12950Y1196425D01*
X-5036Y1186112D01*
X5277Y1178198D01*
X17287Y1173224D01*
X27480Y1171882D01*
X27893Y1171827D01*
Y1166785D01*
X27480Y1166730D01*
X18331Y1165525D01*
X7294Y1160954D01*
X-2183Y1153681D01*
X-9456Y1144204D01*
X-14027Y1133167D01*
X-15586Y1121323D01*
X-14027Y1109479D01*
X-9456Y1098442D01*
X-2183Y1088965D01*
X7294Y1081693D01*
X18331Y1077121D01*
X30175Y1075562D01*
X42019Y1077121D01*
X53056Y1081693D01*
X62533Y1088965D01*
X69806Y1098442D01*
X74377Y1109479D01*
X75937Y1121323D01*
X74377Y1133167D01*
X69806Y1144204D01*
X62533Y1153681D01*
X53056Y1160954D01*
X42019Y1165525D01*
X32871Y1166730D01*
X32457Y1166785D01*
Y1171827D01*
X32871Y1171882D01*
X43063Y1173224D01*
X55073Y1178198D01*
X65386Y1186112D01*
X73300Y1196425D01*
X78275Y1208435D01*
X79313Y1216323D01*
D02*
G37*
G36*
X541703Y1117557D02*
X507175D01*
Y1074171D01*
X541703D01*
Y1117557D01*
D02*
G37*
G36*
X497175D02*
X462648D01*
Y1074171D01*
X497175D01*
Y1117557D01*
D02*
G37*
G36*
X644175Y1067085D02*
X632331Y1065525D01*
X621294Y1060954D01*
X611817Y1053681D01*
X604544Y1044204D01*
X599973Y1033167D01*
X598414Y1021323D01*
X599973Y1009479D01*
X604544Y998442D01*
X611817Y988965D01*
X621294Y981692D01*
X632331Y977121D01*
X644175Y975562D01*
X656019Y977121D01*
X667056Y981692D01*
X676534Y988965D01*
X683806Y998442D01*
X688378Y1009479D01*
X689937Y1021323D01*
X688378Y1033167D01*
X683806Y1044204D01*
X676534Y1053681D01*
X667056Y1060954D01*
X656019Y1065525D01*
X644175Y1067085D01*
D02*
G37*
G36*
X30175D02*
X18331Y1065525D01*
X7294Y1060954D01*
X-2183Y1053681D01*
X-9456Y1044204D01*
X-14027Y1033167D01*
X-15586Y1021323D01*
X-14027Y1009479D01*
X-9456Y998442D01*
X-2183Y988965D01*
X7294Y981692D01*
X18331Y977121D01*
X30175Y975562D01*
X42019Y977121D01*
X53056Y981692D01*
X62533Y988965D01*
X69806Y998442D01*
X74377Y1009479D01*
X75937Y1021323D01*
X74377Y1033167D01*
X69806Y1044204D01*
X62533Y1053681D01*
X53056Y1060954D01*
X42019Y1065525D01*
X30175Y1067085D01*
D02*
G37*
G36*
X644175Y967085D02*
X632331Y965525D01*
X621294Y960954D01*
X611817Y953682D01*
X604544Y944204D01*
X599973Y933167D01*
X598414Y921323D01*
X599973Y909479D01*
X604544Y898442D01*
X611817Y888965D01*
X621294Y881692D01*
X632331Y877121D01*
X644175Y875562D01*
X656019Y877121D01*
X667056Y881692D01*
X676534Y888965D01*
X683806Y898442D01*
X688378Y909479D01*
X689937Y921323D01*
X688378Y933167D01*
X683806Y944204D01*
X676534Y953682D01*
X667056Y960954D01*
X656019Y965525D01*
X644175Y967085D01*
D02*
G37*
G36*
X30175D02*
X18331Y965525D01*
X7294Y960954D01*
X-2183Y953682D01*
X-9456Y944204D01*
X-14027Y933167D01*
X-15586Y921323D01*
X-14027Y909479D01*
X-9456Y898442D01*
X-2183Y888965D01*
X7294Y881692D01*
X18331Y877121D01*
X30175Y875562D01*
X42019Y877121D01*
X53056Y881692D01*
X62533Y888965D01*
X69806Y898442D01*
X74377Y909479D01*
X75937Y921323D01*
X74377Y933167D01*
X69806Y944204D01*
X62533Y953682D01*
X53056Y960954D01*
X42019Y965525D01*
X30175Y967085D01*
D02*
G37*
G36*
X644175Y867085D02*
X632331Y865525D01*
X621294Y860954D01*
X611817Y853682D01*
X604544Y844204D01*
X599973Y833167D01*
X598414Y821323D01*
X599973Y809479D01*
X604544Y798442D01*
X611817Y788965D01*
X621294Y781692D01*
X632331Y777121D01*
X644175Y775562D01*
X656019Y777121D01*
X667056Y781692D01*
X676534Y788965D01*
X683806Y798442D01*
X688378Y809479D01*
X689937Y821323D01*
X688378Y833167D01*
X683806Y844204D01*
X676534Y853682D01*
X667056Y860954D01*
X656019Y865525D01*
X644175Y867085D01*
D02*
G37*
G36*
X30175D02*
X18331Y865525D01*
X7294Y860954D01*
X-2183Y853682D01*
X-9456Y844204D01*
X-14027Y833167D01*
X-15586Y821323D01*
X-14027Y809479D01*
X-9456Y798442D01*
X-2183Y788965D01*
X7294Y781692D01*
X18331Y777121D01*
X30175Y775562D01*
X42019Y777121D01*
X53056Y781692D01*
X62533Y788965D01*
X69806Y798442D01*
X74377Y809479D01*
X75937Y821323D01*
X74377Y833167D01*
X69806Y844204D01*
X62533Y853682D01*
X53056Y860954D01*
X42019Y865525D01*
X30175Y867085D01*
D02*
G37*
G36*
X644175Y767085D02*
X632331Y765525D01*
X621294Y760954D01*
X611817Y753682D01*
X604544Y744204D01*
X599973Y733167D01*
X598414Y721323D01*
X599973Y709479D01*
X604544Y698442D01*
X611817Y688965D01*
X621294Y681692D01*
X632331Y677121D01*
X644175Y675562D01*
X656019Y677121D01*
X667056Y681692D01*
X676534Y688965D01*
X683806Y698442D01*
X688378Y709479D01*
X689937Y721323D01*
X688378Y733167D01*
X683806Y744204D01*
X676534Y753682D01*
X667056Y760954D01*
X656019Y765525D01*
X644175Y767085D01*
D02*
G37*
G36*
X30175D02*
X18331Y765525D01*
X7294Y760954D01*
X-2183Y753682D01*
X-9456Y744204D01*
X-14027Y733167D01*
X-15586Y721323D01*
X-14027Y709479D01*
X-9456Y698442D01*
X-2183Y688965D01*
X7294Y681692D01*
X18331Y677121D01*
X30175Y675562D01*
X42019Y677121D01*
X53056Y681692D01*
X62533Y688965D01*
X69806Y698442D01*
X74377Y709479D01*
X75937Y721323D01*
X74377Y733167D01*
X69806Y744204D01*
X62533Y753682D01*
X53056Y760954D01*
X42019Y765525D01*
X30175Y767085D01*
D02*
G37*
G36*
X429023Y637175D02*
X417175D01*
Y625327D01*
X419003Y625691D01*
X424792Y629558D01*
X428660Y635347D01*
X429023Y637175D01*
D02*
G37*
G36*
X644175Y667085D02*
X632331Y665525D01*
X621294Y660954D01*
X611817Y653682D01*
X604544Y644204D01*
X599973Y633167D01*
X598414Y621323D01*
X599973Y609479D01*
X604544Y598442D01*
X611817Y588965D01*
X621294Y581692D01*
X632331Y577121D01*
X644175Y575562D01*
X656019Y577121D01*
X667056Y581692D01*
X676534Y588965D01*
X683806Y598442D01*
X688378Y609479D01*
X689937Y621323D01*
X688378Y633167D01*
X683806Y644204D01*
X676534Y653682D01*
X667056Y660954D01*
X656019Y665525D01*
X644175Y667085D01*
D02*
G37*
G36*
X30175D02*
X18331Y665525D01*
X7294Y660954D01*
X-2183Y653682D01*
X-9456Y644204D01*
X-14027Y633167D01*
X-15586Y621323D01*
X-14027Y609479D01*
X-9456Y598442D01*
X-2183Y588965D01*
X7294Y581692D01*
X18331Y577121D01*
X30175Y575562D01*
X42019Y577121D01*
X53056Y581692D01*
X62533Y588965D01*
X69806Y598442D01*
X74377Y609479D01*
X75937Y621323D01*
X74377Y633167D01*
X69806Y644204D01*
X62533Y653682D01*
X53056Y660954D01*
X42019Y665525D01*
X30175Y667085D01*
D02*
G37*
G36*
X228175Y583013D02*
X156675D01*
Y554013D01*
Y510241D01*
X152675D01*
Y496741D01*
X192425D01*
X232175D01*
Y510241D01*
X228175D01*
Y554013D01*
Y583013D01*
D02*
G37*
G36*
X644175Y567085D02*
X632331Y565525D01*
X621294Y560954D01*
X611817Y553682D01*
X604544Y544204D01*
X599973Y533167D01*
X598414Y521323D01*
X599973Y509479D01*
X604544Y498442D01*
X611817Y488965D01*
X621294Y481692D01*
X632331Y477121D01*
X644175Y475562D01*
X656019Y477121D01*
X667056Y481692D01*
X676534Y488965D01*
X683806Y498442D01*
X688378Y509479D01*
X689937Y521323D01*
X688378Y533167D01*
X683806Y544204D01*
X676534Y553682D01*
X667056Y560954D01*
X656019Y565525D01*
X644175Y567085D01*
D02*
G37*
G36*
X30175D02*
X18331Y565525D01*
X7294Y560954D01*
X-2183Y553682D01*
X-9456Y544204D01*
X-14027Y533167D01*
X-15586Y521323D01*
X-14027Y509479D01*
X-9456Y498442D01*
X-2183Y488965D01*
X7294Y481692D01*
X18331Y477121D01*
X30175Y475562D01*
X42019Y477121D01*
X53056Y481692D01*
X62533Y488965D01*
X69806Y498442D01*
X74377Y509479D01*
X75937Y521323D01*
X74377Y533167D01*
X69806Y544204D01*
X62533Y553682D01*
X53056Y560954D01*
X42019Y565525D01*
X30175Y567085D01*
D02*
G37*
G36*
X526175Y461023D02*
X524347Y460660D01*
X518558Y456792D01*
X514691Y451003D01*
X514327Y449175D01*
X526175D01*
Y461023D01*
D02*
G37*
G36*
X232175Y486741D02*
X192425D01*
X152675D01*
Y473241D01*
X156675D01*
Y451651D01*
Y407879D01*
X152675D01*
Y394379D01*
X192425D01*
X232175D01*
Y404775D01*
X261547D01*
X265319Y402255D01*
X270587Y401207D01*
X275854Y402255D01*
X280320Y405238D01*
X283303Y409704D01*
X284351Y414971D01*
X283303Y420239D01*
X280320Y424704D01*
X275854Y427688D01*
X270587Y428736D01*
X265319Y427688D01*
X261547Y425167D01*
X249628D01*
X248112Y430167D01*
X250418Y431709D01*
X253402Y436174D01*
X254450Y441442D01*
X253402Y446709D01*
X250418Y451175D01*
X245953Y454158D01*
X240685Y455206D01*
X235418Y454158D01*
X233175Y452660D01*
X228175Y455332D01*
Y473241D01*
X232175D01*
Y486741D01*
D02*
G37*
G36*
X644175Y467085D02*
X632331Y465526D01*
X621294Y460954D01*
X611817Y453682D01*
X604544Y444204D01*
X599973Y433167D01*
X598414Y421323D01*
X599973Y409479D01*
X604544Y398442D01*
X611817Y388965D01*
X621294Y381692D01*
X632331Y377121D01*
X644175Y375562D01*
X656019Y377121D01*
X667056Y381692D01*
X676534Y388965D01*
X683806Y398442D01*
X688378Y409479D01*
X689937Y421323D01*
X688378Y433167D01*
X683806Y444204D01*
X676534Y453682D01*
X667056Y460954D01*
X656019Y465526D01*
X644175Y467085D01*
D02*
G37*
G36*
X30175D02*
X18331Y465526D01*
X7294Y460954D01*
X-2183Y453682D01*
X-9456Y444204D01*
X-14027Y433167D01*
X-15586Y421323D01*
X-14027Y409479D01*
X-9456Y398442D01*
X-2183Y388965D01*
X7294Y381692D01*
X18331Y377121D01*
X30175Y375562D01*
X42019Y377121D01*
X53056Y381692D01*
X62533Y388965D01*
X69806Y398442D01*
X74377Y409479D01*
X75937Y421323D01*
X74377Y433167D01*
X69806Y444204D01*
X62533Y453682D01*
X53056Y460954D01*
X42019Y465526D01*
X30175Y467085D01*
D02*
G37*
G36*
Y367085D02*
X18331Y365526D01*
X7294Y360954D01*
X-2183Y353682D01*
X-9456Y344204D01*
X-14027Y333167D01*
X-15586Y321323D01*
X-14027Y309479D01*
X-9456Y298442D01*
X-2183Y288965D01*
X7294Y281692D01*
X18331Y277121D01*
X30175Y275562D01*
X42019Y277121D01*
X53056Y281692D01*
X62533Y288965D01*
X69806Y298442D01*
X74377Y309479D01*
X75937Y321323D01*
X74377Y333167D01*
X69806Y344204D01*
X62533Y353682D01*
X53056Y360954D01*
X42019Y365526D01*
X30175Y367085D01*
D02*
G37*
G36*
X532175Y209572D02*
Y195175D01*
X546572D01*
X546015Y197979D01*
X541594Y204594D01*
X534979Y209015D01*
X532175Y209572D01*
D02*
G37*
G36*
X522175D02*
X519372Y209015D01*
X512756Y204594D01*
X508336Y197979D01*
X507778Y195175D01*
X522175D01*
Y209572D01*
D02*
G37*
G36*
X644175Y267085D02*
X632331Y265526D01*
X621294Y260954D01*
X611817Y253681D01*
X604544Y244204D01*
X599973Y233167D01*
X598414Y221323D01*
X599973Y209479D01*
X604544Y198442D01*
X611817Y188965D01*
X621294Y181692D01*
X632331Y177121D01*
X644175Y175562D01*
X656019Y177121D01*
X667056Y181692D01*
X676534Y188965D01*
X683806Y198442D01*
X688378Y209479D01*
X689937Y221323D01*
X688378Y233167D01*
X683806Y244204D01*
X676534Y253681D01*
X667056Y260954D01*
X656019Y265526D01*
X644175Y267085D01*
D02*
G37*
G36*
X30175D02*
X18331Y265526D01*
X7294Y260954D01*
X-2183Y253681D01*
X-9456Y244204D01*
X-14027Y233167D01*
X-15586Y221323D01*
X-14027Y209479D01*
X-9456Y198442D01*
X-2183Y188965D01*
X7294Y181692D01*
X18331Y177121D01*
X30175Y175562D01*
X42019Y177121D01*
X53056Y181692D01*
X62533Y188965D01*
X69806Y198442D01*
X74377Y209479D01*
X75937Y221323D01*
X74377Y233167D01*
X69806Y244204D01*
X62533Y253681D01*
X53056Y260954D01*
X42019Y265526D01*
X30175Y267085D01*
D02*
G37*
G36*
X238749Y171017D02*
X229732Y169829D01*
X221328Y166349D01*
X214113Y160812D01*
X208576Y153596D01*
X205095Y145193D01*
X203908Y136175D01*
X205095Y127158D01*
X208576Y118754D01*
X214113Y111539D01*
X221328Y106002D01*
X229732Y102521D01*
X238749Y101334D01*
X247767Y102521D01*
X256170Y106002D01*
X263386Y111539D01*
X268923Y118754D01*
X272403Y127158D01*
X273591Y136175D01*
X272403Y145193D01*
X268923Y153596D01*
X263386Y160812D01*
X256170Y166349D01*
X247767Y169829D01*
X238749Y171017D01*
D02*
G37*
G36*
X30175Y167085D02*
X18331Y165525D01*
X7294Y160954D01*
X-2183Y153681D01*
X-9456Y144204D01*
X-14027Y133167D01*
X-15586Y121323D01*
X-14027Y109479D01*
X-9456Y98442D01*
X-2183Y88965D01*
X7294Y81692D01*
X18331Y77121D01*
X30175Y75562D01*
X42019Y77121D01*
X53056Y81692D01*
X62533Y88965D01*
X69806Y98442D01*
X74377Y109479D01*
X75937Y121323D01*
X74377Y133167D01*
X69806Y144204D01*
X62533Y153681D01*
X53056Y160954D01*
X42019Y165525D01*
X30175Y167085D01*
D02*
G37*
G36*
X287175Y100940D02*
X281908Y99892D01*
X277442Y96908D01*
X274459Y92443D01*
X273411Y87175D01*
X274459Y81908D01*
X277442Y77442D01*
X281908Y74459D01*
X287175Y73411D01*
X292443Y74459D01*
X296908Y77442D01*
X299892Y81908D01*
X300940Y87175D01*
X299892Y92443D01*
X296908Y96908D01*
X292443Y99892D01*
X287175Y100940D01*
D02*
G37*
G36*
X594671Y54364D02*
X558175D01*
Y23773D01*
X594671D01*
Y54364D01*
D02*
G37*
G36*
X548175D02*
X511679D01*
Y23773D01*
X548175D01*
Y54364D01*
D02*
G37*
G36*
X126175D02*
X89679D01*
Y23773D01*
X126175D01*
Y54364D01*
D02*
G37*
G36*
X474971Y73761D02*
X465333Y71844D01*
X457163Y66384D01*
X451704Y58214D01*
X449786Y48576D01*
Y11175D01*
X451704Y1537D01*
X457163Y-6634D01*
X465333Y-12093D01*
X474971Y-14010D01*
X484609Y-12093D01*
X492779Y-6634D01*
X498239Y1537D01*
X500156Y11175D01*
Y48576D01*
X498239Y58214D01*
X492779Y66384D01*
X484609Y71844D01*
X474971Y73761D01*
D02*
G37*
G36*
X199379D02*
X189741Y71844D01*
X181571Y66384D01*
X176112Y58214D01*
X176061Y57960D01*
X172671Y54364D01*
X170248Y54364D01*
X136175D01*
Y18773D01*
Y-16817D01*
X172671D01*
Y-2314D01*
X177671Y-798D01*
X181571Y-6634D01*
X189741Y-12093D01*
X199379Y-14010D01*
X209017Y-12093D01*
X217188Y-6634D01*
X222647Y1537D01*
X224564Y11175D01*
Y48576D01*
X222647Y58214D01*
X217188Y66384D01*
X209017Y71844D01*
X199379Y73761D01*
D02*
G37*
G36*
X594671Y13773D02*
X558175D01*
Y-16817D01*
X594671D01*
Y13773D01*
D02*
G37*
G36*
X548175D02*
X511679D01*
Y-16817D01*
X548175D01*
Y13773D01*
D02*
G37*
G36*
X126175D02*
X89679D01*
Y-16817D01*
X126175D01*
Y13773D01*
D02*
G37*
%LPD*%
G36*
X330877Y960735D02*
Y863948D01*
X323586Y856657D01*
X319514Y854416D01*
X193341D01*
Y846801D01*
X178004D01*
X174102Y846025D01*
X170794Y843815D01*
X159875Y832895D01*
X154932Y833068D01*
X151804Y837067D01*
X151732Y837871D01*
X188251Y874390D01*
X193341D01*
Y867794D01*
X319514D01*
Y903416D01*
X314887D01*
Y951816D01*
X325877Y962806D01*
X330877Y960735D01*
D02*
G37*
G36*
X524890Y838306D02*
X526979Y837029D01*
Y791399D01*
X513637Y778056D01*
X509017Y779969D01*
Y790316D01*
X448223D01*
X446152Y795316D01*
X447235Y796399D01*
X449445Y799707D01*
X450221Y803608D01*
Y818794D01*
X487364D01*
Y820292D01*
X496605D01*
X502848Y821534D01*
X508141Y825070D01*
X521979Y838909D01*
X524890Y838306D01*
D02*
G37*
G36*
X361191Y841049D02*
Y818794D01*
X398333D01*
Y802539D01*
X364802Y769007D01*
X362591Y765700D01*
X361815Y761798D01*
Y517968D01*
X356815Y515897D01*
X219379Y653333D01*
Y818794D01*
X230979D01*
Y693215D01*
X228458Y689443D01*
X227411Y684175D01*
X228458Y678908D01*
X231442Y674442D01*
X235908Y671458D01*
X241175Y670411D01*
X246443Y671458D01*
X250908Y674442D01*
X253892Y678908D01*
X254940Y684175D01*
X253892Y689443D01*
X251371Y693215D01*
Y818794D01*
X262260D01*
Y737455D01*
X261442Y736908D01*
X258459Y732443D01*
X257411Y727175D01*
X258459Y721908D01*
X261442Y717442D01*
X265908Y714458D01*
X271175Y713411D01*
X276443Y714458D01*
X280908Y717442D01*
X283892Y721908D01*
X284940Y727175D01*
X283892Y732443D01*
X282652Y734298D01*
Y818794D01*
X305862D01*
Y783175D01*
X307103Y776932D01*
X310640Y771640D01*
X315932Y768104D01*
X322175Y766862D01*
X328418Y768104D01*
X333711Y771640D01*
X337247Y776932D01*
X338489Y783175D01*
Y825418D01*
X356191Y843120D01*
X361191Y841049D01*
D02*
G37*
G36*
X396436Y561304D02*
X399744Y559093D01*
X403646Y558317D01*
X436175D01*
Y522749D01*
X431175Y520076D01*
X429943Y520900D01*
X424675Y521948D01*
X419408Y520900D01*
X414942Y517916D01*
X411959Y513451D01*
X410911Y508183D01*
X411959Y502916D01*
X414942Y498450D01*
X419408Y495466D01*
X421800Y494991D01*
X429167Y487624D01*
X432474Y485413D01*
X436175Y484677D01*
Y476347D01*
X425767D01*
X382207Y519907D01*
Y568462D01*
X387207Y570533D01*
X396436Y561304D01*
D02*
G37*
G36*
X436175Y365419D02*
Y323699D01*
Y298109D01*
Y272517D01*
Y224523D01*
X431175Y222452D01*
X384440Y269187D01*
Y352695D01*
X389440Y353829D01*
X391690Y350462D01*
X396155Y347479D01*
X401423Y346431D01*
X406690Y347479D01*
X411156Y350462D01*
X414139Y354928D01*
X415187Y360195D01*
X414297Y364670D01*
X416153Y366665D01*
X418350Y367976D01*
X419408Y367269D01*
X424675Y366221D01*
X429943Y367269D01*
X431175Y368092D01*
X436175Y365419D01*
D02*
G37*
%LPC*%
G36*
X330175Y725188D02*
X324908Y724140D01*
X320442Y721156D01*
X317459Y716691D01*
X316411Y711423D01*
X317459Y706156D01*
X320442Y701690D01*
X324908Y698707D01*
X330175Y697659D01*
X335443Y698707D01*
X339908Y701690D01*
X342892Y706156D01*
X343940Y711423D01*
X342892Y716691D01*
X339908Y721156D01*
X335443Y724140D01*
X330175Y725188D01*
D02*
G37*
G36*
X330175Y652940D02*
X324908Y651892D01*
X320442Y648908D01*
X317459Y644443D01*
X316411Y639175D01*
X317459Y633908D01*
X320442Y629442D01*
X324908Y626458D01*
X330175Y625411D01*
X335443Y626458D01*
X339908Y629442D01*
X342892Y633908D01*
X343940Y639175D01*
X342892Y644443D01*
X339908Y648908D01*
X335443Y651892D01*
X330175Y652940D01*
D02*
G37*
G36*
X328175Y596940D02*
X322908Y595892D01*
X318442Y592908D01*
X315459Y588443D01*
X314411Y583175D01*
X315459Y577908D01*
X318442Y573442D01*
X322908Y570458D01*
X328175Y569411D01*
X333443Y570458D01*
X337908Y573442D01*
X340892Y577908D01*
X341940Y583175D01*
X340892Y588443D01*
X337908Y592908D01*
X333443Y595892D01*
X328175Y596940D01*
D02*
G37*
%LPD*%
D19*
X272175Y885605D02*
Y905490D01*
X200771Y976894D02*
X272175Y905490D01*
X183605Y885605D02*
X209183D01*
X138175Y840175D02*
X183605Y885605D01*
X139781Y894781D02*
X160807D01*
X137175Y892175D02*
X139781Y894781D01*
X160807D02*
X187349Y921323D01*
X322175Y974966D02*
Y1009175D01*
X303671Y956462D02*
X322175Y974966D01*
X303671Y885605D02*
Y956462D01*
X187349Y921323D02*
X225733D01*
X240668Y906388D01*
Y885616D02*
Y906388D01*
Y885616D02*
X240679Y885605D01*
D20*
X295049Y261427D02*
X322620Y233856D01*
X192425Y261427D02*
X295049D01*
X275175Y1090354D02*
Y1193175D01*
X119675Y934854D02*
X275175Y1090354D01*
X119675Y833927D02*
Y934854D01*
Y833927D02*
X130927Y822675D01*
X164074D01*
X178004Y836605D01*
X209183D01*
X599622Y165876D02*
X644175Y121323D01*
X473332Y165876D02*
X599622D01*
X374244Y264963D02*
X473332Y165876D01*
X272456Y728456D02*
Y836324D01*
X272175Y836605D02*
X272456Y836324D01*
X271175Y727175D02*
X272456Y728456D01*
X241175Y684175D02*
Y835079D01*
X240175Y836079D02*
X241175Y835079D01*
X383175Y1061175D02*
Y1141485D01*
X383865Y1142175D01*
X257295Y209055D02*
X337275D01*
X230513Y235837D02*
X257295Y209055D01*
X192425Y235837D02*
X230513D01*
X374244Y264963D02*
Y484049D01*
X209183Y649110D02*
X374244Y484049D01*
X240175Y836079D02*
X240679Y836583D01*
X500158Y912294D02*
X537175Y875276D01*
Y787175D02*
Y875276D01*
X509395Y759395D02*
X537175Y787175D01*
X472191Y759395D02*
X509395D01*
X471521Y758725D02*
X472191Y759395D01*
X390011Y582148D02*
Y754101D01*
X372011Y515684D02*
Y761798D01*
X390011Y754101D02*
X434226Y798316D01*
X390011Y582148D02*
X403646Y568513D01*
X471925D01*
X372011Y515684D02*
X421544Y466151D01*
X372011Y761798D02*
X408529Y798316D01*
Y836605D01*
X434226Y798316D02*
X434733D01*
X440025Y803608D01*
Y836605D01*
X564623Y976759D02*
Y1241771D01*
X644175Y1321323D01*
X500158Y912294D02*
X564623Y976759D01*
X424675Y506534D02*
Y508183D01*
Y506534D02*
X436376Y494833D01*
X468833D01*
X471925Y491741D01*
X192425Y414971D02*
X270587D01*
X238651Y439407D02*
X240685Y441442D01*
X193579Y439407D02*
X238651D01*
X240668Y836594D02*
X240679Y836583D01*
X192425Y440561D02*
X193579Y439407D01*
X240668Y836594D02*
X240679Y836605D01*
X539561Y563309D02*
Y663755D01*
X519175Y542923D02*
X539561Y563309D01*
X519395Y683921D02*
X539561Y663755D01*
X471925Y542923D02*
X519175D01*
X471521Y683921D02*
X519395D01*
X553041Y93711D02*
X553175Y93845D01*
X562175Y403323D02*
Y552175D01*
Y403323D02*
X644175Y321323D01*
X421544Y466151D02*
X471925D01*
X209183Y649110D02*
Y836605D01*
X477427Y912294D02*
X500158D01*
X471521Y906388D02*
X477427Y912294D01*
X471521Y885605D02*
Y906388D01*
X553175Y93845D02*
Y144376D01*
X553041Y93711D02*
X553175Y93577D01*
D21*
X145690Y287017D02*
X192425D01*
X136675Y278002D02*
X145690Y287017D01*
X136675Y99077D02*
Y278002D01*
X131175Y93577D02*
X136675Y99077D01*
X502175Y1122557D02*
X507175Y1127557D01*
Y1166175D01*
X141175Y381260D02*
X148205Y388289D01*
X191335D01*
X192425Y389379D01*
X141175Y321175D02*
Y381260D01*
Y321175D02*
X148651Y313699D01*
X191335D01*
X192425Y312609D01*
X517739Y404443D02*
X527175Y395007D01*
X508303Y413879D02*
X517739Y404443D01*
X531175Y417879D01*
Y444175D01*
X232437Y362699D02*
X290961Y304175D01*
X350175D01*
X102175Y1115059D02*
Y1212175D01*
Y1115059D02*
X122555Y1094679D01*
X187987D01*
X229577Y1136270D01*
Y1142175D01*
X312175Y282175D02*
X340175Y254175D01*
X281849Y282175D02*
X312175D01*
X277149Y286875D02*
X281849Y282175D01*
X192567Y286875D02*
X277149D01*
X473017Y413879D02*
X508303D01*
X527175Y190175D02*
Y395007D01*
X471925Y414971D02*
X473017Y413879D01*
X193515Y362699D02*
X232437D01*
X192425Y363789D02*
X193515Y362699D01*
X192425Y287017D02*
X192567Y286875D01*
D22*
X544004Y1524870D02*
Y1530660D01*
X537175Y1518041D02*
X544004Y1524870D01*
X437275Y1320825D02*
X453413Y1336963D01*
X383865Y1320825D02*
X437275D01*
X322175Y783175D02*
Y832175D01*
X326605Y836605D01*
X496605D02*
X511175Y851175D01*
X471521Y836605D02*
X496605D01*
X511175Y851175D02*
Y867175D01*
X347191Y983191D02*
X409175Y1045175D01*
X347191Y857191D02*
Y983191D01*
X303671Y836605D02*
X326605D01*
X347191Y857191D01*
X409175Y1045175D02*
X530175D01*
X453413Y1336963D02*
Y1404169D01*
X488567Y1421323D01*
X508843D01*
X537175Y1449655D01*
Y1518041D01*
X502175Y1230825D02*
Y1372229D01*
X644175Y1514229D01*
X383865Y1230825D02*
X502175D01*
X137175Y1518041D02*
X142041D01*
X154773Y1142175D02*
X154793Y1142195D01*
Y1272943D01*
X154813Y1272963D01*
X152613Y1373587D02*
X154813Y1371387D01*
X152613Y1373587D02*
Y1502603D01*
X137175Y1518041D02*
X152613Y1502603D01*
X142041Y1518041D02*
X237175Y1613175D01*
X383865Y1142175D02*
Y1230825D01*
X644175Y1514229D02*
Y1521323D01*
D23*
X383865Y942238D02*
X408529Y917574D01*
Y885605D02*
Y917574D01*
X488897Y938968D02*
Y978920D01*
X463716Y1004101D02*
X488897Y978920D01*
X416652Y1004101D02*
X463716D01*
X383865Y971314D02*
X416652Y1004101D01*
X383865Y942238D02*
Y971314D01*
X441775Y887355D02*
Y970610D01*
X440025Y885605D02*
X441775Y887355D01*
D24*
X115443Y1371387D02*
D03*
Y1322175D02*
D03*
Y1272963D02*
D03*
X154813D02*
D03*
Y1322175D02*
D03*
Y1371387D02*
D03*
D25*
X437175Y1513175D02*
D03*
X337175D02*
D03*
X237175D02*
D03*
X437175Y1613175D02*
D03*
X337175D02*
D03*
X237175D02*
D03*
X644175Y1521323D02*
D03*
Y1421323D02*
D03*
Y1321323D02*
D03*
Y1221323D02*
D03*
Y1121323D02*
D03*
Y1021323D02*
D03*
Y921323D02*
D03*
Y821323D02*
D03*
Y721323D02*
D03*
Y621323D02*
D03*
Y521323D02*
D03*
Y421323D02*
D03*
Y321323D02*
D03*
Y221323D02*
D03*
Y121323D02*
D03*
X30175Y1521323D02*
D03*
Y1421323D02*
D03*
Y1321323D02*
D03*
Y1221323D02*
D03*
Y1121323D02*
D03*
Y1021323D02*
D03*
Y921323D02*
D03*
Y821323D02*
D03*
Y721323D02*
D03*
Y621323D02*
D03*
Y521323D02*
D03*
Y421323D02*
D03*
Y321323D02*
D03*
Y221323D02*
D03*
Y121323D02*
D03*
D26*
X238749Y136175D02*
D03*
X435601D02*
D03*
D27*
X199379Y29875D02*
D03*
X474971D02*
D03*
D28*
X113175Y210175D02*
D03*
X287175Y87175D02*
D03*
X322620Y233856D02*
D03*
X507175Y1166175D02*
D03*
X102175Y1212175D02*
D03*
X275175Y1193175D02*
D03*
X330175Y711423D02*
D03*
X330175Y639175D02*
D03*
X328175Y583175D02*
D03*
X138175Y840175D02*
D03*
X241175Y684175D02*
D03*
X271175Y727175D02*
D03*
X531175Y444175D02*
D03*
X412175Y642175D02*
D03*
X137175Y892175D02*
D03*
X383175Y1061175D02*
D03*
X340175Y254175D02*
D03*
X337275Y209055D02*
D03*
X322175Y1009175D02*
D03*
X562175Y882070D02*
D03*
X412175Y702175D02*
D03*
Y672175D02*
D03*
X413491Y747175D02*
D03*
X424675Y379985D02*
D03*
X140911Y921493D02*
D03*
X163183Y951894D02*
D03*
X200771Y976894D02*
D03*
X424675Y508183D02*
D03*
X268175Y360195D02*
D03*
X401423D02*
D03*
X270587Y414971D02*
D03*
X240685Y441442D02*
D03*
X567109Y586794D02*
D03*
X562175Y552175D02*
D03*
X441775Y970610D02*
D03*
X488897Y938968D02*
D03*
X416652Y953435D02*
D03*
X259758D02*
D03*
X553175Y144376D02*
D03*
D29*
X544004Y1530660D02*
D03*
X322175Y783175D02*
D03*
X350175Y304175D02*
D03*
X527175Y190175D02*
D03*
X530175Y1045175D02*
D03*
X511175Y867175D02*
D03*
D30*
X154813Y1322175D02*
X383865Y1320825D01*
D31*
X131175Y93577D02*
D03*
Y18773D02*
D03*
X553175Y93577D02*
D03*
Y18773D02*
D03*
X471521Y683921D02*
D03*
Y758725D02*
D03*
D32*
X192425Y568513D02*
D03*
Y542923D02*
D03*
Y517333D02*
D03*
Y491741D02*
D03*
Y466151D02*
D03*
Y440561D02*
D03*
Y414971D02*
D03*
Y389379D02*
D03*
Y363789D02*
D03*
Y338199D02*
D03*
Y312609D02*
D03*
Y287017D02*
D03*
Y261427D02*
D03*
Y235837D02*
D03*
X471925D02*
D03*
Y261427D02*
D03*
Y287017D02*
D03*
Y312609D02*
D03*
Y338199D02*
D03*
Y363789D02*
D03*
Y389379D02*
D03*
Y414971D02*
D03*
Y440561D02*
D03*
Y466151D02*
D03*
Y491741D02*
D03*
Y517333D02*
D03*
Y542923D02*
D03*
Y568513D02*
D03*
D33*
X377033Y836605D02*
D03*
X408529D02*
D03*
X440025D02*
D03*
X471521D02*
D03*
X377033Y885605D02*
D03*
X408529D02*
D03*
X440025D02*
D03*
X471521D02*
D03*
X303671D02*
D03*
X272175D02*
D03*
X240679D02*
D03*
X209183D02*
D03*
X303671Y836605D02*
D03*
X272175D02*
D03*
X240679D02*
D03*
X209183D02*
D03*
D34*
X154773Y1142175D02*
D03*
X229577D02*
D03*
D35*
X383865Y1410825D02*
D03*
Y1320825D02*
D03*
Y1230825D02*
D03*
D36*
X135865Y1321825D02*
D03*
D37*
X502175Y1230825D02*
D03*
Y1122557D02*
D03*
D38*
X537175Y1518041D02*
D03*
Y1626309D02*
D03*
X137175Y1518041D02*
D03*
Y1626309D02*
D03*
D39*
X314967Y1142175D02*
D03*
X383865D02*
D03*
%TF.MD5,3522192254d522f420b63dab505d679d*%
M02*
