%TF.GenerationSoftware,Altium Limited,Altium Designer,19.1.8 (144)*%
G04 Layer_Color=255*
%FSLAX26Y26*%
%MOIN*%
%TF.FileFunction,Pads,Top*%
%TF.Part,Single*%
G01*
G75*
%TA.AperFunction,SMDPad,CuDef*%
%ADD10R,0.070000X0.130000*%
%ADD11R,0.059055X0.051181*%
%TA.AperFunction,ConnectorPad*%
%ADD12R,0.015748X0.053150*%
%ADD13R,0.047244X0.074803*%
%ADD14R,0.059055X0.074803*%
%ADD15R,0.049213X0.043307*%
G04:AMPARAMS|DCode=16|XSize=62.992mil|YSize=55.118mil|CornerRadius=0mil|HoleSize=0mil|Usage=FLASHONLY|Rotation=315.000|XOffset=0mil|YOffset=0mil|HoleType=Round|Shape=Rectangle|*
%AMROTATEDRECTD16*
4,1,4,-0.041758,0.002784,-0.002784,0.041758,0.041758,-0.002784,0.002784,-0.041758,-0.041758,0.002784,0.0*
%
%ADD16ROTATEDRECTD16*%

G04:AMPARAMS|DCode=17|XSize=21.654mil|YSize=59.055mil|CornerRadius=0mil|HoleSize=0mil|Usage=FLASHONLY|Rotation=45.000|XOffset=0mil|YOffset=0mil|HoleType=Round|Shape=Round|*
%AMOVALD17*
21,1,0.037402,0.021654,0.000000,0.000000,135.0*
1,1,0.021654,0.013223,-0.013223*
1,1,0.021654,-0.013223,0.013223*
%
%ADD17OVALD17*%

G04:AMPARAMS|DCode=18|XSize=21.654mil|YSize=59.055mil|CornerRadius=0mil|HoleSize=0mil|Usage=FLASHONLY|Rotation=315.000|XOffset=0mil|YOffset=0mil|HoleType=Round|Shape=Round|*
%AMOVALD18*
21,1,0.037402,0.021654,0.000000,0.000000,45.0*
1,1,0.021654,-0.013223,-0.013223*
1,1,0.021654,0.013223,0.013223*
%
%ADD18OVALD18*%

%TA.AperFunction,ComponentPad*%
%ADD24C,0.031496*%
%ADD25C,0.078740*%
%ADD26C,0.057087*%
%ADD27O,0.037402X0.074803*%
D10*
X507175Y1216585D02*
D03*
Y1372175D02*
D03*
D11*
X232175Y1277727D02*
D03*
Y1346623D02*
D03*
X316613Y1277727D02*
D03*
Y1346623D02*
D03*
D12*
X285993Y136175D02*
D03*
X311585D02*
D03*
X337175D02*
D03*
X362765D02*
D03*
X388357D02*
D03*
D13*
X451349Y29875D02*
D03*
X223001D02*
D03*
D14*
X376545D02*
D03*
X297805D02*
D03*
D15*
X187175Y315175D02*
D03*
Y222655D02*
D03*
X268175Y315175D02*
D03*
Y222655D02*
D03*
X401175Y315175D02*
D03*
Y222655D02*
D03*
X474175D02*
D03*
Y315175D02*
D03*
D16*
X194419Y1186421D02*
D03*
X311343Y1069497D02*
D03*
X250097Y1008253D02*
D03*
X133175Y1125175D02*
D03*
D17*
X296809Y917439D02*
D03*
X274537Y895167D02*
D03*
X252267Y872897D02*
D03*
X229995Y850625D02*
D03*
X207725Y828355D02*
D03*
X185453Y806083D02*
D03*
X163183Y783813D02*
D03*
X140911Y761541D02*
D03*
X377541Y524911D02*
D03*
X399813Y547183D02*
D03*
X422083Y569453D02*
D03*
X444355Y591725D02*
D03*
X466625Y613995D02*
D03*
X488897Y636267D02*
D03*
X511167Y658537D02*
D03*
X533439Y680809D02*
D03*
D18*
X140911D02*
D03*
X163183Y658537D02*
D03*
X185453Y636267D02*
D03*
X207725Y613995D02*
D03*
X229995Y591725D02*
D03*
X252267Y569453D02*
D03*
X274537Y547183D02*
D03*
X296809Y524911D02*
D03*
X533439Y761541D02*
D03*
X511167Y783813D02*
D03*
X488897Y806083D02*
D03*
X466625Y828355D02*
D03*
X444355Y850625D02*
D03*
X422083Y872897D02*
D03*
X399813Y895167D02*
D03*
X377541Y917439D02*
D03*
D24*
X115443Y1371387D02*
D03*
Y1322175D02*
D03*
Y1272963D02*
D03*
X154813D02*
D03*
Y1322175D02*
D03*
Y1371387D02*
D03*
D25*
X437175Y1513175D02*
D03*
X337175D02*
D03*
X237175D02*
D03*
X437175Y1613175D02*
D03*
X337175D02*
D03*
X237175D02*
D03*
X644175Y1521323D02*
D03*
Y1421323D02*
D03*
Y1321323D02*
D03*
Y1221323D02*
D03*
Y1121323D02*
D03*
Y1021323D02*
D03*
Y921323D02*
D03*
Y821323D02*
D03*
Y721323D02*
D03*
Y621323D02*
D03*
Y521323D02*
D03*
Y421323D02*
D03*
Y321323D02*
D03*
Y221323D02*
D03*
Y121323D02*
D03*
X30175Y1521323D02*
D03*
Y1421323D02*
D03*
Y1321323D02*
D03*
Y1221323D02*
D03*
Y1121323D02*
D03*
Y1021323D02*
D03*
Y921323D02*
D03*
Y821323D02*
D03*
Y721323D02*
D03*
Y621323D02*
D03*
Y521323D02*
D03*
Y421323D02*
D03*
Y321323D02*
D03*
Y221323D02*
D03*
Y121323D02*
D03*
D26*
X238749Y136175D02*
D03*
X435601D02*
D03*
D27*
X199379Y29875D02*
D03*
X474971D02*
D03*
%TF.MD5,b7f0cdc8631dea53714052469478b15b*%
M02*
