G04*
G04 #@! TF.GenerationSoftware,Altium Limited,Altium Designer,19.1.8 (144)*
G04*
G04 Layer_Color=16711935*
%FSLAX44Y44*%
%MOMM*%
G71*
G01*
G75*
D35*
X48876Y66403D02*
X74942D01*
X65353Y53100D02*
X85668D01*
X58550Y59903D02*
X65353Y53100D01*
X48876Y59903D02*
X58550D01*
D36*
X29323Y348332D02*
D03*
Y335832D02*
D03*
Y323333D02*
D03*
X39323D02*
D03*
Y335832D02*
D03*
Y348332D02*
D03*
D37*
X111042Y384347D02*
D03*
X85642D02*
D03*
X60243D02*
D03*
X111042Y409747D02*
D03*
X85642D02*
D03*
X60243D02*
D03*
X163620Y386416D02*
D03*
Y361016D02*
D03*
Y335616D02*
D03*
Y310216D02*
D03*
Y284816D02*
D03*
Y259416D02*
D03*
Y234016D02*
D03*
Y208616D02*
D03*
Y183216D02*
D03*
Y157816D02*
D03*
Y132416D02*
D03*
Y107016D02*
D03*
Y81616D02*
D03*
Y56216D02*
D03*
Y30816D02*
D03*
X7664Y386416D02*
D03*
Y361016D02*
D03*
Y335616D02*
D03*
Y310216D02*
D03*
Y284816D02*
D03*
Y259416D02*
D03*
Y234016D02*
D03*
Y208616D02*
D03*
Y183216D02*
D03*
Y157816D02*
D03*
Y132416D02*
D03*
Y107016D02*
D03*
Y81616D02*
D03*
Y56216D02*
D03*
Y30816D02*
D03*
D38*
X60642Y34588D02*
D03*
X110643D02*
D03*
D39*
X50642Y7588D02*
D03*
X120643D02*
D03*
D40*
X28747Y53384D02*
D03*
X72943Y22143D02*
D03*
X81946Y59399D02*
D03*
X128822Y296208D02*
D03*
X25952Y307892D02*
D03*
X69894Y303067D02*
D03*
X83864Y180702D02*
D03*
X83864Y162351D02*
D03*
X83357Y148126D02*
D03*
X35096Y213405D02*
D03*
X61259Y173780D02*
D03*
X68878Y184702D02*
D03*
X134918Y112821D02*
D03*
X104692Y163113D02*
D03*
X34843Y226612D02*
D03*
X97326Y269538D02*
D03*
X86404Y64560D02*
D03*
X85668Y53100D02*
D03*
X81833Y256331D02*
D03*
X142793Y224046D02*
D03*
X104692Y178353D02*
D03*
Y170732D02*
D03*
X105027Y189783D02*
D03*
X107867Y96516D02*
D03*
X35791Y234059D02*
D03*
X41448Y241781D02*
D03*
X50996Y248131D02*
D03*
X107867Y129079D02*
D03*
X68116Y91490D02*
D03*
X101961D02*
D03*
X68729Y105403D02*
D03*
X61134Y112126D02*
D03*
X144046Y149046D02*
D03*
X142793Y140253D02*
D03*
X112211Y246535D02*
D03*
X124180Y238498D02*
D03*
X105830Y242173D02*
D03*
X65979D02*
D03*
X140506Y36672D02*
D03*
D41*
X138177Y388788D02*
D03*
X81833Y198927D02*
D03*
X88945Y77260D02*
D03*
X133903Y48305D02*
D03*
X134664Y265474D02*
D03*
X129838Y220263D02*
D03*
D53*
X48876Y144402D02*
D03*
Y137902D02*
D03*
Y131403D02*
D03*
Y124902D02*
D03*
Y118402D02*
D03*
Y111903D02*
D03*
Y105403D02*
D03*
Y98902D02*
D03*
Y92402D02*
D03*
Y85903D02*
D03*
Y79403D02*
D03*
Y72902D02*
D03*
Y59903D02*
D03*
X119869D02*
D03*
Y66403D02*
D03*
Y72902D02*
D03*
Y79403D02*
D03*
Y85903D02*
D03*
Y92402D02*
D03*
Y98902D02*
D03*
Y105403D02*
D03*
Y111903D02*
D03*
Y118402D02*
D03*
Y124902D02*
D03*
Y131403D02*
D03*
Y137902D02*
D03*
Y144402D02*
D03*
D60*
X33319Y23769D02*
D03*
Y4768D02*
D03*
X140506Y23769D02*
D03*
Y4768D02*
D03*
X119766Y173716D02*
D03*
Y192716D02*
D03*
D61*
X48876Y66403D02*
D03*
D62*
X95766Y212498D02*
D03*
X103766D02*
D03*
X111766D02*
D03*
X119766D02*
D03*
X95766Y224944D02*
D03*
X103766D02*
D03*
X111766D02*
D03*
X119766D02*
D03*
X77133D02*
D03*
X69132D02*
D03*
X61132D02*
D03*
X53133D02*
D03*
X77133Y212498D02*
D03*
X69132D02*
D03*
X61132D02*
D03*
X53133D02*
D03*
D63*
X39312Y290112D02*
D03*
X58313D02*
D03*
D64*
X97502Y358350D02*
D03*
Y335490D02*
D03*
Y312630D02*
D03*
D65*
X34510Y335744D02*
D03*
D66*
X127552Y312630D02*
D03*
Y285130D02*
D03*
X136442Y385583D02*
D03*
Y413083D02*
D03*
X34843Y385583D02*
D03*
Y413083D02*
D03*
D67*
X80002Y290112D02*
D03*
X97502D02*
D03*
M02*
