G04*
G04 #@! TF.GenerationSoftware,Altium Limited,Altium Designer,19.1.8 (144)*
G04*
G04 Layer_Color=16711935*
%FSLAX44Y44*%
%MOMM*%
G71*
G01*
G75*
D10*
X90642Y219948D02*
G03*
X90642Y219948I-5000J0D01*
G01*
X116123Y314120D02*
X138982D01*
X116123Y283640D02*
X138982D01*
X116123D02*
Y314120D01*
X138982Y283640D02*
Y314120D01*
X125013Y384092D02*
X147872D01*
X125013Y414572D02*
X147872D01*
Y384092D02*
Y414572D01*
X125013Y384092D02*
Y414572D01*
X23412Y384092D02*
X46273D01*
X23412Y414572D02*
X46273D01*
Y384092D02*
Y414572D01*
X23412Y384092D02*
Y414572D01*
X77752Y282862D02*
Y297363D01*
X99752Y282862D02*
Y297363D01*
X77752Y282862D02*
X99752D01*
X77752Y297363D02*
X99752D01*
X51722Y322292D02*
Y344293D01*
X66223Y322292D02*
Y344293D01*
X51722Y322292D02*
X66223D01*
X51722Y344293D02*
X66223D01*
X73170Y322292D02*
Y344293D01*
X87669Y322292D02*
Y344293D01*
X73170Y322292D02*
X87669D01*
X73170Y344293D02*
X87669D01*
X41293Y78304D02*
X53792D01*
X41293Y58305D02*
X53792D01*
Y78304D01*
X41293Y58305D02*
Y78304D01*
X61867D02*
X74366D01*
X61867Y58305D02*
X74366D01*
Y78304D01*
X61867Y58305D02*
Y78304D01*
X95649D02*
X108148D01*
X95649Y58305D02*
X108148D01*
Y78304D01*
X95649Y58305D02*
Y78304D01*
X114191Y58305D02*
Y78304D01*
X126690Y58305D02*
Y78304D01*
X114191Y58305D02*
X126690D01*
X114191Y78304D02*
X126690D01*
X36145Y183179D02*
X85642Y232676D01*
Y133681D02*
X135140Y183179D01*
X85642Y232676D02*
X135140Y183179D01*
X36145D02*
X85642Y133681D01*
D11*
X73643Y30089D02*
G03*
X73643Y30089I-1000J0D01*
G01*
D16*
X48142Y36089D02*
X123143D01*
Y-6912D02*
Y36089D01*
X48142Y-6912D02*
X123143D01*
X48142D02*
Y36089D01*
X123143Y-13911D02*
Y-6912D01*
X25643D02*
X48142D01*
X123143D02*
X145642D01*
D69*
X81325Y154604D02*
G03*
X87421Y154604I3048J0D01*
G01*
D70*
X112312Y49701D02*
Y154604D01*
X56432D02*
X112312D01*
X56432Y49701D02*
Y154604D01*
Y49701D02*
X112312D01*
X44875Y146307D02*
X56432D01*
X44875Y142497D02*
Y146307D01*
Y142497D02*
X56432D01*
Y146307D01*
X44875Y139808D02*
X56432D01*
X44875Y135997D02*
Y139808D01*
Y135997D02*
X56432D01*
Y139808D01*
X44875Y133308D02*
X56432D01*
X44875Y129498D02*
Y133308D01*
Y129498D02*
X56432D01*
Y133308D01*
X44875Y126807D02*
X56432D01*
X44875Y122997D02*
Y126807D01*
Y122997D02*
X56432D01*
Y126807D01*
X44875Y120307D02*
X56432D01*
X44875Y116497D02*
Y120307D01*
Y116497D02*
X56432D01*
Y120307D01*
X44875Y113807D02*
X56432D01*
X44875Y109998D02*
Y113807D01*
Y109998D02*
X56432D01*
Y113807D01*
X44875Y107308D02*
X56432D01*
X44875Y103498D02*
Y107308D01*
Y103498D02*
X56432D01*
Y107308D01*
X44875Y100807D02*
X56432D01*
X44875Y96997D02*
Y100807D01*
Y96997D02*
X56432D01*
Y100807D01*
X44875Y94307D02*
X56432D01*
X44875Y90498D02*
Y94307D01*
Y90498D02*
X56432D01*
Y94307D01*
X44875Y87808D02*
X56432D01*
X44875Y83998D02*
Y87808D01*
Y83998D02*
X56432D01*
Y87808D01*
X44875Y81308D02*
X56432D01*
X44875Y77498D02*
Y81308D01*
Y77498D02*
X56432D01*
Y81308D01*
X44875Y74807D02*
X56432D01*
X44875Y70997D02*
Y74807D01*
Y70997D02*
X56432D01*
Y74807D01*
X44875Y68307D02*
X56432D01*
X44875Y64497D02*
Y68307D01*
Y64497D02*
X56432D01*
Y68307D01*
X44875Y61808D02*
X56432D01*
X44875Y57998D02*
Y61808D01*
Y57998D02*
X56432D01*
Y61808D01*
X112312Y57998D02*
X123869D01*
Y61808D01*
X112312D02*
X123869D01*
X112312Y57998D02*
Y61808D01*
Y64497D02*
X123869D01*
Y68307D01*
X112312D02*
X123869D01*
X112312Y64497D02*
Y68307D01*
Y70997D02*
X123869D01*
Y74807D01*
X112312D02*
X123869D01*
X112312Y70997D02*
Y74807D01*
Y77498D02*
X123869D01*
Y81308D01*
X112312D02*
X123869D01*
X112312Y77498D02*
Y81308D01*
Y83998D02*
X123869D01*
Y87808D01*
X112312D02*
X123869D01*
X112312Y83998D02*
Y87808D01*
Y90498D02*
X123869D01*
Y94307D01*
X112312D02*
X123869D01*
X112312Y90498D02*
Y94307D01*
Y96997D02*
X123869D01*
Y100807D01*
X112312D02*
X123869D01*
X112312Y96997D02*
Y100807D01*
Y103498D02*
X123869D01*
Y107308D01*
X112312D02*
X123869D01*
X112312Y103498D02*
Y107308D01*
Y109998D02*
X123869D01*
Y113807D01*
X112312D02*
X123869D01*
X112312Y109998D02*
Y113807D01*
Y116497D02*
X123869D01*
Y120307D01*
X112312D02*
X123869D01*
X112312Y116497D02*
Y120307D01*
Y122997D02*
X123869D01*
Y126807D01*
X112312D02*
X123869D01*
X112312Y122997D02*
Y126807D01*
Y129498D02*
X123869D01*
Y133308D01*
X112312D02*
X123869D01*
X112312Y129498D02*
Y133308D01*
Y135997D02*
X123869D01*
Y139808D01*
X112312D02*
X123869D01*
X112312Y135997D02*
Y139808D01*
Y142497D02*
X123869D01*
Y146307D01*
X112312D02*
X123869D01*
X112312Y142497D02*
Y146307D01*
M02*
