G04*
G04 #@! TF.GenerationSoftware,Altium Limited,Altium Designer,19.1.8 (144)*
G04*
G04 Layer_Color=65535*
%FSLAX44Y44*%
%MOMM*%
G71*
G01*
G75*
G36*
X137059Y416103D02*
X137115Y416089D01*
X137186Y416046D01*
X137284Y415990D01*
X137383Y415891D01*
X137482Y415764D01*
X137595Y415581D01*
X137609Y415553D01*
X137651Y415497D01*
X137707Y415384D01*
X137778Y415243D01*
X137877Y415060D01*
X137975Y414862D01*
X138074Y414622D01*
X138173Y414383D01*
X138187Y414369D01*
X138201Y414312D01*
X138229Y414214D01*
X138285Y414087D01*
X138342Y413918D01*
X138398Y413706D01*
X138483Y413467D01*
X138567Y413199D01*
Y413185D01*
X138581Y413171D01*
X138596Y413128D01*
X138610Y413072D01*
X138652Y412945D01*
X138694Y412790D01*
X138751Y412621D01*
X138793Y412466D01*
X138835Y412339D01*
X138863Y412240D01*
X138877D01*
X138906Y412254D01*
X138962Y412268D01*
X139032Y412282D01*
X139047Y412296D01*
X139103Y412311D01*
X139145Y412325D01*
X139188Y412339D01*
X139216Y412353D01*
X139244Y412381D01*
X139286Y412409D01*
X139300Y412423D01*
X139329Y412438D01*
X139385Y412480D01*
X139455Y412508D01*
X139469Y412522D01*
X139526Y412536D01*
X139596D01*
X139695Y412508D01*
X139709D01*
X139737Y412480D01*
X139808Y412409D01*
X139850Y412353D01*
X139893Y412282D01*
X139907Y412198D01*
X139921Y412099D01*
Y412085D01*
Y412029D01*
X139893Y411958D01*
X139864Y411860D01*
X139850Y411845D01*
X139822Y411789D01*
X139766Y411733D01*
X139695Y411676D01*
X139681Y411662D01*
X139611Y411620D01*
X139554Y411606D01*
X139498Y411578D01*
X139413Y411549D01*
X139314Y411521D01*
X139300D01*
X139272Y411507D01*
X139173Y411493D01*
X139131D01*
X139089Y411479D01*
X139047D01*
Y411465D01*
Y411423D01*
X139018Y411324D01*
X138990Y411282D01*
X138976Y411253D01*
X138934Y411239D01*
X138892Y411268D01*
X138906Y411253D01*
X138948Y411197D01*
X139004Y411112D01*
X139075Y410985D01*
X139145Y410830D01*
X139216Y410647D01*
X139272Y410422D01*
X139329Y410182D01*
Y410168D01*
X139343Y410140D01*
X139357Y410083D01*
X139371Y409999D01*
X139385Y409900D01*
X139413Y409801D01*
X139469Y409534D01*
X139526Y409238D01*
X139596Y408913D01*
X139681Y408575D01*
X139766Y408251D01*
Y408237D01*
X139780Y408208D01*
X139794Y408166D01*
X139808Y408110D01*
X139822Y407997D01*
X139836Y407955D01*
Y407926D01*
Y407912D01*
Y407898D01*
X139822Y407828D01*
X139780Y407729D01*
X139695Y407630D01*
X139667Y407616D01*
X139596Y407574D01*
X139498Y407518D01*
X139371Y407504D01*
X139343D01*
X139258Y407532D01*
X139159Y407574D01*
X139117Y407616D01*
X139061Y407673D01*
Y407687D01*
X139047Y407701D01*
X139004Y407771D01*
X138948Y407856D01*
X138906Y407941D01*
Y407955D01*
X138892Y408011D01*
X138863Y408096D01*
X138835Y408208D01*
X138807Y408349D01*
X138779Y408504D01*
X138708Y408843D01*
Y408871D01*
X138694Y408927D01*
X138680Y409040D01*
X138652Y409181D01*
X138624Y409350D01*
X138581Y409562D01*
X138539Y409787D01*
X138497Y410055D01*
Y410069D01*
X138483Y410112D01*
X138469Y410182D01*
X138455Y410281D01*
X138426Y410393D01*
X138398Y410534D01*
X138370Y410675D01*
X138328Y410844D01*
Y410859D01*
X138314Y410915D01*
X138300Y411000D01*
X138271Y411084D01*
X138257Y411183D01*
X138243Y411268D01*
X138229Y411324D01*
X138215Y411366D01*
X138187D01*
X138144Y411352D01*
X138102D01*
X138032Y411338D01*
X137947Y411324D01*
X137834Y411296D01*
X137707Y411282D01*
X137566Y411253D01*
X137397Y411225D01*
X137200Y411197D01*
X136988Y411155D01*
X136749Y411112D01*
X136495Y411070D01*
X136199Y411028D01*
X135889Y410971D01*
X135269Y410873D01*
X135043Y410224D01*
X134691Y409223D01*
Y409209D01*
X134677Y409167D01*
X134648Y409111D01*
X134620Y409026D01*
X134592Y408913D01*
X134550Y408801D01*
X134465Y408518D01*
X134366Y408194D01*
X134268Y407870D01*
X134183Y407546D01*
X134099Y407236D01*
Y407222D01*
X134085Y407207D01*
X134056Y407137D01*
X134000Y407038D01*
X133915Y406926D01*
X133887Y406897D01*
X133817Y406855D01*
X133704Y406799D01*
X133633Y406785D01*
X133563Y406771D01*
X133535D01*
X133464Y406785D01*
X133365Y406813D01*
X133253Y406883D01*
X133239Y406897D01*
X133196Y406954D01*
X133140Y407052D01*
X133126Y407179D01*
Y407193D01*
Y407207D01*
X133140Y407250D01*
Y407306D01*
X133154Y407377D01*
X133182Y407490D01*
X133225Y407602D01*
X133267Y407757D01*
X133281Y407771D01*
X133295Y407828D01*
X133323Y407898D01*
X133351Y407983D01*
X133380Y408067D01*
X133408Y408152D01*
X133436Y408223D01*
X133450Y408265D01*
X133464Y408293D01*
X133478Y408335D01*
X133492Y408378D01*
X133521Y408462D01*
X133549Y408561D01*
X133591Y408674D01*
X133633Y408829D01*
X133647Y408857D01*
X133662Y408913D01*
X133704Y409012D01*
X133746Y409153D01*
X133803Y409322D01*
X133873Y409505D01*
X133958Y409717D01*
X134042Y409942D01*
Y409956D01*
X134056Y409971D01*
X134085Y410041D01*
X134127Y410140D01*
X134169Y410267D01*
X134226Y410393D01*
X134282Y410520D01*
X134324Y410619D01*
X134366Y410690D01*
X134352D01*
X134296Y410661D01*
X134211Y410647D01*
X134099Y410605D01*
X133873Y410534D01*
X133746Y410506D01*
X133647Y410478D01*
X133619D01*
X133563Y410450D01*
X133478Y410436D01*
X133380Y410407D01*
X133267Y410379D01*
X133168Y410365D01*
X133084Y410337D01*
X132985D01*
X132900Y410351D01*
X132802Y410393D01*
X132717Y410478D01*
Y410492D01*
X132703Y410506D01*
X132675Y410577D01*
X132633Y410675D01*
X132618Y410788D01*
Y410802D01*
Y410816D01*
X132633Y410901D01*
X132661Y410985D01*
X132717Y411056D01*
X132745Y411070D01*
X132802Y411112D01*
X132900Y411155D01*
X133027Y411197D01*
X133041D01*
X133112Y411211D01*
X133196Y411239D01*
X133309Y411268D01*
X133450Y411296D01*
X133619Y411338D01*
X133972Y411408D01*
X134000D01*
X134056Y411423D01*
X134141Y411451D01*
X134240Y411465D01*
X134465Y411521D01*
X134564Y411535D01*
X134634Y411549D01*
Y411563D01*
X134648Y411592D01*
X134663Y411648D01*
X134691Y411719D01*
X134747Y411874D01*
X134789Y412057D01*
X134803Y412085D01*
X134832Y412156D01*
X134874Y412282D01*
X134916Y412438D01*
Y412452D01*
X134930Y412480D01*
X134944Y412536D01*
X134973Y412607D01*
X135001Y412705D01*
X135029Y412818D01*
X135057Y412931D01*
X135099Y413072D01*
X135283Y413706D01*
Y413720D01*
X135297Y413777D01*
X135325Y413861D01*
X135353Y413960D01*
X135395Y414087D01*
X135438Y414228D01*
X135522Y414538D01*
X135621Y414848D01*
X135663Y415003D01*
X135706Y415144D01*
X135734Y415257D01*
X135762Y415370D01*
X135790Y415440D01*
X135804Y415497D01*
Y415511D01*
X135818Y415525D01*
X135847Y415609D01*
X135889Y415708D01*
X135945Y415807D01*
X135959Y415835D01*
X136002Y415877D01*
X136086Y415919D01*
X136199Y415948D01*
X136340D01*
X136467Y415919D01*
X136580Y415894D01*
Y415905D01*
X136608Y415948D01*
X136622Y415962D01*
X136650Y415990D01*
X136706Y416032D01*
X136763Y416074D01*
X136777Y416089D01*
X136833Y416103D01*
X136904Y416117D01*
X137017D01*
X137059Y416103D01*
D02*
G37*
G36*
X163998Y417005D02*
X164069Y416991D01*
X164139Y416934D01*
X164153Y416920D01*
X164182Y416878D01*
X164196Y416808D01*
X164210Y416709D01*
Y416681D01*
Y416638D01*
Y416582D01*
Y416511D01*
Y416413D01*
Y416300D01*
X164224Y416159D01*
Y415990D01*
Y415807D01*
X164238Y415595D01*
Y415356D01*
X164252Y415088D01*
Y414792D01*
X164266Y414468D01*
X164280Y414101D01*
Y414073D01*
Y414016D01*
X164294Y413918D01*
Y413777D01*
Y413622D01*
X164308Y413438D01*
X164323Y413227D01*
Y413016D01*
X164351Y412564D01*
X164365Y412113D01*
X164379Y411902D01*
Y411704D01*
X164393Y411535D01*
Y411380D01*
X164407Y411394D01*
X164421Y411408D01*
X164506Y411493D01*
X164633Y411620D01*
X164802Y411775D01*
X165013Y411972D01*
X165267Y412184D01*
X165535Y412423D01*
X165817Y412663D01*
X166127Y412889D01*
X166437Y413128D01*
X166747Y413340D01*
X167071Y413537D01*
X167382Y413692D01*
X167678Y413819D01*
X167960Y413904D01*
X168086Y413932D01*
X168312D01*
X168382Y413918D01*
X168552Y413875D01*
X168721Y413805D01*
X168735D01*
X168763Y413791D01*
X168834Y413734D01*
X168918Y413650D01*
X168932Y413593D01*
X168946Y413537D01*
Y413523D01*
Y413495D01*
X168932Y413452D01*
X168918Y413410D01*
X168862Y413269D01*
X168820Y413185D01*
X168749Y413100D01*
X168735Y413086D01*
X168721Y413072D01*
X168622Y412987D01*
X168495Y412917D01*
X168425Y412889D01*
X168354Y412874D01*
X168326D01*
X168270Y412889D01*
X168185Y412917D01*
X168086Y412973D01*
X168072Y412987D01*
X168030Y413030D01*
X167974Y413058D01*
X167960Y413072D01*
X167903D01*
X167833Y413044D01*
X167734Y413016D01*
X167593Y412959D01*
X167424Y412889D01*
X167212Y412776D01*
X166973Y412635D01*
X166959D01*
X166945Y412621D01*
X166902Y412593D01*
X166860Y412564D01*
X166719Y412466D01*
X166536Y412339D01*
X166324Y412184D01*
X166071Y412015D01*
X165817Y411817D01*
X165535Y411592D01*
X165521D01*
X165507Y411563D01*
X165422Y411493D01*
X165281Y411380D01*
X165126Y411253D01*
X164943Y411098D01*
X164774Y410943D01*
X164604Y410774D01*
X164449Y410633D01*
X164464Y410534D01*
X164478D01*
X164506Y410520D01*
X164548Y410492D01*
X164619Y410464D01*
X164703Y410422D01*
X164802Y410379D01*
X164915Y410323D01*
X165042Y410267D01*
X165323Y410140D01*
X165662Y409985D01*
X166042Y409830D01*
X166437Y409646D01*
X166451D01*
X166479Y409632D01*
X166536Y409604D01*
X166620Y409576D01*
X166705Y409534D01*
X166804Y409491D01*
X167043Y409407D01*
X167283Y409308D01*
X167537Y409223D01*
X167748Y409153D01*
X167847Y409125D01*
X167931Y409111D01*
X167960D01*
X168044Y409096D01*
X168157Y409082D01*
X168270Y409068D01*
X168354D01*
X168439Y409054D01*
X168580D01*
X168664Y409040D01*
X168749Y409026D01*
X168777D01*
X168820Y408998D01*
X168862Y408955D01*
X168890Y408885D01*
Y408871D01*
Y408843D01*
X168876Y408815D01*
X168862Y408758D01*
X168820Y408702D01*
X168777Y408631D01*
X168707Y408561D01*
X168622Y408490D01*
X168608D01*
X168580Y408462D01*
X168509Y408434D01*
X168425Y408406D01*
X168326Y408378D01*
X168199Y408349D01*
X168044Y408335D01*
X167875Y408321D01*
X167790D01*
X167706Y408335D01*
X167565Y408363D01*
X167410Y408392D01*
X167212Y408448D01*
X167001Y408518D01*
X166747Y408617D01*
X166733D01*
X166719Y408631D01*
X166677Y408645D01*
X166620Y408674D01*
X166479Y408744D01*
X166296Y408829D01*
X166056Y408941D01*
X165789Y409082D01*
X165478Y409223D01*
X165154Y409393D01*
X164548Y409773D01*
Y409759D01*
X164562Y409717D01*
Y409646D01*
X164576Y409548D01*
X164590Y409449D01*
X164604Y409322D01*
X164633Y409054D01*
X164661Y408772D01*
X164675Y408518D01*
X164689Y408420D01*
X164703Y408335D01*
Y408265D01*
Y408223D01*
Y408208D01*
Y408194D01*
X164675Y408110D01*
X164633Y408011D01*
X164576Y407955D01*
X164520Y407912D01*
X164506D01*
X164492Y407898D01*
X164407Y407856D01*
X164294Y407814D01*
X164153Y407800D01*
X164125D01*
X164083Y407814D01*
X164041Y407842D01*
X163998Y407884D01*
X163956Y407941D01*
X163914Y408025D01*
X163885Y408138D01*
Y408152D01*
X163871Y408208D01*
X163857Y408279D01*
X163843Y408406D01*
X163815Y408561D01*
X163787Y408772D01*
X163759Y409012D01*
X163731Y409308D01*
X163660Y409985D01*
X163646Y409999D01*
X163589Y410027D01*
X163505Y410083D01*
X163406Y410168D01*
X163392Y410196D01*
X163350Y410252D01*
X163293Y410351D01*
X163279Y410464D01*
Y410478D01*
Y410492D01*
X163308Y410591D01*
X163336Y410647D01*
X163378Y410704D01*
X163434Y410774D01*
X163519Y410844D01*
Y410859D01*
Y410873D01*
Y410915D01*
Y410957D01*
Y411028D01*
Y411098D01*
X163505Y411296D01*
X163491Y411549D01*
Y411860D01*
X163463Y412226D01*
X163449Y412649D01*
Y412663D01*
Y412705D01*
Y412762D01*
Y412846D01*
X163434Y412945D01*
Y413058D01*
X163420Y413326D01*
X163406Y413608D01*
Y413904D01*
X163392Y414171D01*
X163378Y414298D01*
Y414411D01*
X163322Y416089D01*
Y416103D01*
Y416145D01*
Y416216D01*
X163336Y416314D01*
X163364Y416511D01*
X163420Y416737D01*
Y416751D01*
X163449Y416779D01*
X163477Y416822D01*
X163519Y416878D01*
X163575Y416934D01*
X163660Y416977D01*
X163773Y417005D01*
X163900Y417019D01*
X163928D01*
X163998Y417005D01*
D02*
G37*
G36*
X161517Y414298D02*
X161700Y414256D01*
X161898Y414171D01*
X161912D01*
X161940Y414143D01*
X161997Y414115D01*
X162053Y414087D01*
X162194Y413974D01*
X162321Y413833D01*
X162335Y413819D01*
X162349Y413791D01*
X162377Y413749D01*
X162405Y413706D01*
X162462Y413565D01*
X162490Y413495D01*
Y413410D01*
Y413382D01*
X162462Y413312D01*
X162419Y413199D01*
X162363Y413142D01*
X162307Y413072D01*
X162293D01*
X162278Y413044D01*
X162194Y412987D01*
X162081Y412931D01*
X162025Y412917D01*
X161954Y412903D01*
X161940D01*
X161884Y412917D01*
X161799Y412945D01*
X161729Y412987D01*
X161715Y413001D01*
X161672Y413058D01*
X161602Y413128D01*
X161517Y413227D01*
X161503Y413241D01*
X161475Y413297D01*
X161404Y413340D01*
X161334Y413396D01*
X161320Y413410D01*
X161264Y413438D01*
X161193Y413452D01*
X161108Y413467D01*
X161094D01*
X161052Y413452D01*
X160996Y413424D01*
X160897Y413354D01*
X160784Y413255D01*
X160714Y413185D01*
X160643Y413086D01*
X160559Y412987D01*
X160460Y412874D01*
X160361Y412733D01*
X160263Y412579D01*
Y412564D01*
X160234Y412536D01*
X160206Y412494D01*
X160164Y412423D01*
X160122Y412339D01*
X160051Y412226D01*
X159981Y412113D01*
X159910Y411972D01*
X159826Y411817D01*
X159741Y411648D01*
X159656Y411465D01*
X159558Y411253D01*
X159360Y410816D01*
X159149Y410323D01*
Y410309D01*
Y410281D01*
Y410224D01*
Y410154D01*
X159163Y410069D01*
Y409942D01*
Y409815D01*
X159177Y409660D01*
Y409646D01*
X159191Y409590D01*
Y409519D01*
X159205Y409421D01*
X159219Y409223D01*
X159234Y409125D01*
Y409040D01*
X159262Y408533D01*
Y408518D01*
Y408504D01*
X159248Y408420D01*
X159219Y408307D01*
X159163Y408180D01*
X159149Y408152D01*
X159079Y408096D01*
X159036Y408067D01*
X158966Y408039D01*
X158895Y408025D01*
X158797Y408011D01*
X158782D01*
X158754Y408025D01*
X158698Y408039D01*
X158627Y408082D01*
X158571Y408152D01*
X158500Y408265D01*
X158458Y408406D01*
X158416Y408603D01*
Y408617D01*
Y408631D01*
X158402Y408716D01*
X158388Y408857D01*
X158374Y409040D01*
X158359Y409280D01*
X158345Y409562D01*
Y409886D01*
X158331Y410267D01*
Y410281D01*
Y410309D01*
Y410379D01*
Y410450D01*
Y410563D01*
Y410690D01*
X158317Y410844D01*
Y411014D01*
Y411042D01*
Y411098D01*
Y411211D01*
Y411352D01*
Y411535D01*
X158303Y411733D01*
Y411958D01*
X158289Y412212D01*
Y412226D01*
Y412254D01*
Y412311D01*
Y412381D01*
X158275Y412466D01*
Y412564D01*
Y412790D01*
X158261Y413030D01*
Y413269D01*
X158247Y413495D01*
Y413692D01*
Y413706D01*
X158261Y413749D01*
X158275Y413819D01*
X158303Y413890D01*
X158359Y413960D01*
X158444Y414030D01*
X158557Y414073D01*
X158712Y414087D01*
X158768D01*
X158811Y414073D01*
X158881Y414059D01*
X158938Y414030D01*
X158994Y413988D01*
X159050Y413932D01*
X159079Y413861D01*
Y413847D01*
X159093Y413819D01*
Y413763D01*
X159107Y413692D01*
X159121Y413579D01*
Y413452D01*
X159135Y413312D01*
Y413128D01*
Y411380D01*
X159149Y411423D01*
X159163Y411479D01*
X159191Y411648D01*
X159248Y411845D01*
X159318Y412085D01*
X159403Y412339D01*
X159530Y412607D01*
X159670Y412874D01*
Y412889D01*
X159685Y412903D01*
X159741Y412987D01*
X159826Y413114D01*
X159938Y413269D01*
X160079Y413438D01*
X160220Y413608D01*
X160375Y413777D01*
X160530Y413932D01*
X160545Y413946D01*
X160601Y413988D01*
X160686Y414059D01*
X160798Y414129D01*
X160925Y414185D01*
X161052Y414256D01*
X161193Y414298D01*
X161334Y414312D01*
X161447D01*
X161517Y414298D01*
D02*
G37*
G36*
X144742Y414157D02*
X144855Y414115D01*
X144911Y414059D01*
X144967Y414002D01*
X144981Y413988D01*
X144996Y413974D01*
X145052Y413904D01*
X145094Y413791D01*
X145122Y413734D01*
Y413664D01*
Y413650D01*
Y413608D01*
Y413523D01*
X145108Y413396D01*
X145094Y413241D01*
X145066Y413016D01*
X145052Y412889D01*
X145024Y412748D01*
X145010Y412579D01*
X144981Y412409D01*
Y412395D01*
Y412367D01*
X144967Y412311D01*
X144953Y412240D01*
X144939Y412071D01*
X144911Y411874D01*
X144883Y411662D01*
X144855Y411479D01*
X144840Y411394D01*
Y411324D01*
X144826Y411268D01*
Y411239D01*
Y411225D01*
Y411169D01*
X144812Y411098D01*
X144798Y411000D01*
X144784Y410873D01*
X144770Y410732D01*
X144756Y410577D01*
X144742Y410407D01*
X144699Y410041D01*
X144671Y409674D01*
X144629Y409308D01*
X144615Y409153D01*
X144601Y408998D01*
Y408984D01*
Y408970D01*
Y408927D01*
X144587Y408871D01*
Y408730D01*
X144573Y408547D01*
X144559Y408335D01*
Y408096D01*
X144544Y407616D01*
Y407588D01*
Y407532D01*
Y407447D01*
X144559Y407334D01*
X144573Y407066D01*
X144587Y406940D01*
X144615Y406827D01*
Y406813D01*
X144629Y406785D01*
X144643Y406728D01*
X144671Y406658D01*
X144728Y406503D01*
X144784Y406348D01*
Y406334D01*
X144798Y406319D01*
X144840Y406249D01*
X144869Y406164D01*
X144883Y406108D01*
Y406094D01*
Y406080D01*
X144855Y406009D01*
X144826Y405953D01*
X144784Y405911D01*
X144728Y405868D01*
X144643Y405826D01*
X144629D01*
X144601Y405812D01*
X144559Y405798D01*
X144488Y405770D01*
X144347Y405727D01*
X144164Y405713D01*
X144150D01*
X144122Y405727D01*
X144079Y405741D01*
X144023Y405770D01*
X143967Y405826D01*
X143896Y405911D01*
X143840Y406037D01*
X143797Y406193D01*
Y406221D01*
X143783Y406277D01*
X143769Y406390D01*
X143755Y406545D01*
X143727Y406728D01*
X143713Y406968D01*
X143699Y407250D01*
Y407574D01*
Y407588D01*
Y407602D01*
Y407645D01*
Y407701D01*
Y407771D01*
X143713Y407856D01*
Y407955D01*
Y408053D01*
X143727Y408321D01*
X143755Y408645D01*
X143797Y409012D01*
X143840Y409421D01*
X144001Y410850D01*
X143995Y410816D01*
X143952Y410704D01*
X143910Y410549D01*
X143826Y410379D01*
X143727Y410168D01*
X143586Y409956D01*
X143417Y409731D01*
X143389Y409703D01*
X143332Y409632D01*
X143233Y409548D01*
X143107Y409435D01*
X142937Y409322D01*
X142768Y409238D01*
X142571Y409167D01*
X142359Y409139D01*
X142331D01*
X142275Y409153D01*
X142162Y409181D01*
X142035Y409252D01*
X141894Y409350D01*
X141810Y409421D01*
X141725Y409505D01*
X141655Y409604D01*
X141570Y409717D01*
X141485Y409844D01*
X141415Y409999D01*
Y410013D01*
X141401Y410041D01*
X141373Y410083D01*
X141344Y410154D01*
X141316Y410224D01*
X141274Y410323D01*
X141232Y410436D01*
X141189Y410563D01*
X141091Y410844D01*
X140992Y411169D01*
X140893Y411535D01*
X140809Y411916D01*
Y411930D01*
X140795Y411958D01*
Y412015D01*
X140781Y412085D01*
X140766Y412170D01*
X140738Y412282D01*
X140710Y412508D01*
X140668Y412762D01*
X140625Y413016D01*
X140611Y413255D01*
X140597Y413467D01*
Y413481D01*
Y413537D01*
X140611Y413593D01*
X140640Y413678D01*
X140668Y413749D01*
X140724Y413819D01*
X140795Y413861D01*
X140893Y413875D01*
X140907D01*
X140950Y413861D01*
X141020Y413847D01*
X141091Y413805D01*
X141175Y413734D01*
X141246Y413636D01*
X141316Y413495D01*
X141358Y413312D01*
Y413297D01*
Y413269D01*
X141373Y413227D01*
X141387Y413171D01*
Y413100D01*
X141401Y413016D01*
X141443Y412804D01*
X141485Y412550D01*
X141542Y412282D01*
X141598Y411986D01*
X141669Y411676D01*
X141753Y411366D01*
X141838Y411070D01*
X141937Y410802D01*
X142035Y410549D01*
X142148Y410337D01*
X142204Y410252D01*
X142261Y410182D01*
X142317Y410126D01*
X142388Y410083D01*
X142444Y410055D01*
X142514Y410041D01*
X142557D01*
X142613Y410055D01*
X142684Y410069D01*
X142754Y410097D01*
X142839Y410140D01*
X142923Y410196D01*
X143008Y410267D01*
X143022Y410281D01*
X143050Y410309D01*
X143092Y410365D01*
X143163Y410450D01*
X143247Y410563D01*
X143332Y410690D01*
X143445Y410859D01*
X143558Y411042D01*
X143572Y411056D01*
X143586Y411084D01*
X143614Y411141D01*
X143656Y411211D01*
X143699Y411310D01*
X143755Y411423D01*
X143826Y411549D01*
X143882Y411690D01*
X143896Y411704D01*
X143910Y411761D01*
X143952Y411831D01*
X143981Y411930D01*
X144079Y412156D01*
X144164Y412381D01*
X144248Y413593D01*
Y413608D01*
Y413636D01*
X144263Y413692D01*
Y413749D01*
X144291Y413904D01*
X144333Y414030D01*
Y414045D01*
X144347Y414059D01*
X144403Y414115D01*
X144488Y414157D01*
X144559Y414185D01*
X144657D01*
X144742Y414157D01*
D02*
G37*
G36*
X155653Y414312D02*
X155780Y414298D01*
X155907Y414270D01*
X156048Y414228D01*
X156189Y414171D01*
X156330Y414101D01*
X156344Y414087D01*
X156386Y414059D01*
X156442Y414002D01*
X156513Y413932D01*
X156569Y413847D01*
X156626Y413720D01*
X156668Y413593D01*
X156682Y413438D01*
Y413424D01*
X156668Y413354D01*
X156654Y413269D01*
X156626Y413142D01*
X156555Y413001D01*
X156470Y412860D01*
X156344Y412691D01*
X156174Y412536D01*
X156146Y412522D01*
X156090Y412466D01*
X155977Y412381D01*
X155822Y412282D01*
X155639Y412170D01*
X155413Y412043D01*
X155160Y411930D01*
X154878Y411803D01*
X154864D01*
X154849Y411789D01*
X154807Y411775D01*
X154751Y411747D01*
X154596Y411704D01*
X154398Y411634D01*
X154173Y411563D01*
X153919Y411493D01*
X153651Y411437D01*
X153369Y411380D01*
Y411366D01*
X153355Y411296D01*
X153341Y411211D01*
X153313Y411084D01*
X153299Y410943D01*
X153271Y410774D01*
X153256Y410605D01*
Y410407D01*
Y410393D01*
Y410379D01*
Y410295D01*
X153271Y410182D01*
X153299Y410027D01*
X153327Y409872D01*
X153383Y409703D01*
X153454Y409534D01*
X153552Y409393D01*
X153567Y409379D01*
X153609Y409336D01*
X153679Y409280D01*
X153764Y409223D01*
X153891Y409153D01*
X154032Y409096D01*
X154201Y409054D01*
X154398Y409040D01*
X154483D01*
X154539Y409054D01*
X154708Y409068D01*
X154906Y409125D01*
X155131Y409195D01*
X155371Y409308D01*
X155597Y409463D01*
X155709Y409562D01*
X155822Y409674D01*
Y409689D01*
X155850Y409703D01*
X155921Y409787D01*
X156019Y409928D01*
X156146Y410097D01*
X156287Y410323D01*
X156442Y410563D01*
X156597Y410844D01*
X156753Y411141D01*
Y411155D01*
X156781Y411197D01*
X156809Y411253D01*
X156851Y411366D01*
Y411380D01*
X156865Y411394D01*
X156908Y411451D01*
X156978Y411507D01*
X157020Y411535D01*
X157091D01*
X157175Y411493D01*
X157204Y411465D01*
X157246Y411408D01*
X157260Y411338D01*
X157274Y411239D01*
Y411225D01*
Y411197D01*
X157260Y411127D01*
X157232Y411028D01*
X157190Y410887D01*
X157133Y410718D01*
X157049Y410506D01*
X156936Y410238D01*
Y410224D01*
X156922Y410210D01*
X156908Y410168D01*
X156879Y410112D01*
X156795Y409971D01*
X156696Y409773D01*
X156555Y409562D01*
X156372Y409322D01*
X156174Y409082D01*
X155935Y408829D01*
X155921D01*
X155907Y408801D01*
X155864Y408772D01*
X155822Y408730D01*
X155667Y408617D01*
X155484Y408504D01*
X155244Y408392D01*
X154962Y408279D01*
X154638Y408208D01*
X154469Y408194D01*
X154285Y408180D01*
X154201D01*
X154144Y408194D01*
X153989Y408208D01*
X153806Y408251D01*
X153581Y408307D01*
X153355Y408392D01*
X153115Y408518D01*
X152904Y408688D01*
X152876Y408716D01*
X152819Y408786D01*
X152735Y408899D01*
X152636Y409068D01*
X152523Y409294D01*
X152439Y409562D01*
X152382Y409886D01*
X152354Y410252D01*
Y410267D01*
Y410295D01*
Y410351D01*
X152368Y410422D01*
Y410506D01*
X152382Y410605D01*
X152411Y410859D01*
X152467Y411155D01*
X152537Y411479D01*
X152650Y411817D01*
X152791Y412170D01*
Y412184D01*
X152819Y412212D01*
X152833Y412254D01*
X152876Y412325D01*
X152918Y412409D01*
X152975Y412494D01*
X153101Y412719D01*
X153271Y412959D01*
X153482Y413227D01*
X153708Y413481D01*
X153961Y413720D01*
X153975Y413734D01*
X153989Y413749D01*
X154032Y413777D01*
X154088Y413819D01*
X154229Y413918D01*
X154426Y414030D01*
X154652Y414129D01*
X154920Y414228D01*
X155188Y414298D01*
X155343Y414327D01*
X155568D01*
X155653Y414312D01*
D02*
G37*
G36*
X146588Y417273D02*
X146659Y417245D01*
X146729Y417216D01*
X146800Y417160D01*
X146870Y417075D01*
X146927Y416977D01*
X146941Y416963D01*
X146955Y416920D01*
X146983Y416864D01*
X147011Y416779D01*
X147040Y416695D01*
X147054Y416582D01*
X147082Y416455D01*
Y416328D01*
Y415694D01*
Y415680D01*
Y415666D01*
Y415623D01*
Y415567D01*
Y415412D01*
Y415215D01*
Y414975D01*
Y414693D01*
X147096Y414383D01*
Y414059D01*
Y413706D01*
Y413340D01*
X147124Y412621D01*
Y412254D01*
X147138Y411916D01*
X147152Y411592D01*
X147167Y411296D01*
Y411282D01*
Y411268D01*
Y411183D01*
X147181Y411056D01*
Y410929D01*
X147172Y410839D01*
X147195Y410901D01*
X147251Y411042D01*
X147336Y411197D01*
X147434Y411380D01*
X147448Y411408D01*
X147491Y411465D01*
X147547Y411563D01*
X147632Y411690D01*
X147745Y411845D01*
X147857Y412015D01*
X147998Y412198D01*
X148153Y412381D01*
Y412395D01*
X148181Y412409D01*
X148238Y412508D01*
X148337Y412635D01*
X148477Y412804D01*
X148647Y412987D01*
X148844Y413185D01*
X149056Y413396D01*
X149309Y413579D01*
X149323D01*
X149337Y413593D01*
X149422Y413650D01*
X149563Y413734D01*
X149732Y413819D01*
X149930Y413904D01*
X150141Y413988D01*
X150352Y414045D01*
X150578Y414059D01*
X150648D01*
X150733Y414045D01*
X150818Y414030D01*
X150930Y413988D01*
X151043Y413946D01*
X151156Y413875D01*
X151269Y413777D01*
X151283Y413763D01*
X151311Y413734D01*
X151353Y413664D01*
X151410Y413579D01*
X151466Y413467D01*
X151508Y413340D01*
X151537Y413185D01*
X151551Y413001D01*
Y412987D01*
Y412959D01*
Y412903D01*
X151537Y412818D01*
X151523Y412719D01*
X151508Y412607D01*
X151480Y412466D01*
X151452Y412325D01*
X151396Y412156D01*
X151339Y411972D01*
X151283Y411789D01*
X151198Y411592D01*
X151100Y411380D01*
X150987Y411155D01*
X150860Y410929D01*
X150705Y410704D01*
X150691Y410690D01*
X150663Y410647D01*
X150620Y410591D01*
X150550Y410492D01*
X150479Y410393D01*
X150381Y410267D01*
X150268Y410126D01*
X150141Y409985D01*
X150000Y409815D01*
X149831Y409646D01*
X149493Y409294D01*
X149084Y408941D01*
X148647Y408603D01*
X148618Y408589D01*
X148548Y408533D01*
X148435Y408448D01*
X148294Y408363D01*
X148153Y408279D01*
X147998Y408194D01*
X147843Y408138D01*
X147716Y408124D01*
X147688D01*
X147604Y408138D01*
X147505Y408180D01*
X147406Y408251D01*
X147392Y408279D01*
X147350Y408335D01*
X147308Y408434D01*
X147293Y408561D01*
Y408575D01*
Y408589D01*
X147308Y408660D01*
X147350Y408772D01*
X147434Y408885D01*
X147448Y408899D01*
X147463Y408913D01*
X147491Y408941D01*
X147547Y408984D01*
X147604Y409026D01*
X147688Y409082D01*
X147773Y409139D01*
X147886Y409181D01*
X147900D01*
X147914Y409195D01*
X147956Y409209D01*
X148012Y409238D01*
X148153Y409322D01*
X148337Y409421D01*
X148562Y409562D01*
X148802Y409731D01*
X149041Y409942D01*
X149295Y410168D01*
X149309Y410182D01*
X149323Y410196D01*
X149408Y410281D01*
X149535Y410422D01*
X149676Y410605D01*
X149845Y410816D01*
X150028Y411042D01*
X150197Y411310D01*
X150352Y411578D01*
Y411592D01*
X150366Y411606D01*
X150395Y411648D01*
X150409Y411704D01*
X150479Y411845D01*
X150550Y412015D01*
X150606Y412226D01*
X150677Y412438D01*
X150719Y412663D01*
X150733Y412874D01*
Y412889D01*
Y412903D01*
X150719Y412973D01*
X150705Y413058D01*
X150663Y413128D01*
X150648Y413142D01*
X150606Y413171D01*
X150536Y413185D01*
X150423Y413199D01*
X150338D01*
X150254Y413185D01*
X150127Y413157D01*
X149986Y413100D01*
X149817Y413030D01*
X149634Y412931D01*
X149450Y412804D01*
X149422Y412790D01*
X149366Y412733D01*
X149267Y412649D01*
X149140Y412536D01*
X148999Y412381D01*
X148844Y412212D01*
X148675Y412001D01*
X148506Y411775D01*
X148492Y411747D01*
X148449Y411690D01*
X148379Y411578D01*
X148294Y411437D01*
X148181Y411268D01*
X148069Y411056D01*
X147956Y410830D01*
X147829Y410577D01*
Y410563D01*
X147815Y410549D01*
X147801Y410506D01*
X147773Y410450D01*
X147716Y410309D01*
X147660Y410126D01*
X147575Y409900D01*
X147491Y409646D01*
X147420Y409364D01*
X147350Y409068D01*
Y409054D01*
X147322Y408998D01*
X147293Y408913D01*
X147237Y408829D01*
X147167Y408730D01*
X147082Y408660D01*
X146955Y408603D01*
X146814Y408575D01*
X146786D01*
X146715Y408603D01*
X146631Y408660D01*
X146574Y408702D01*
X146532Y408772D01*
Y408786D01*
X146518Y408801D01*
X146476Y408885D01*
X146433Y408998D01*
X146419Y409125D01*
Y409139D01*
Y409195D01*
Y409266D01*
Y409393D01*
Y409534D01*
Y409703D01*
X146405Y409914D01*
Y410168D01*
Y410436D01*
X146391Y410746D01*
Y411070D01*
X146377Y411451D01*
X146363Y411845D01*
X146349Y412268D01*
X146335Y412733D01*
X146321Y413227D01*
Y413241D01*
Y413255D01*
Y413340D01*
X146307Y413481D01*
Y413650D01*
X146292Y413861D01*
Y414101D01*
X146278Y414355D01*
X146264Y414637D01*
X146250Y415172D01*
X146236Y415440D01*
X146222Y415680D01*
X146208Y415891D01*
X146194Y416089D01*
Y416230D01*
X146180Y416328D01*
Y416342D01*
Y416371D01*
X146166Y416455D01*
Y416469D01*
Y416497D01*
X146152Y416568D01*
Y416582D01*
X146137Y416624D01*
X146123Y416723D01*
Y416737D01*
Y416779D01*
X146109Y416836D01*
Y416906D01*
Y416920D01*
Y416963D01*
X146123Y417033D01*
X146152Y417104D01*
X146208Y417160D01*
X146264Y417230D01*
X146363Y417273D01*
X146490Y417287D01*
X146532D01*
X146588Y417273D01*
D02*
G37*
G36*
X34256Y423465D02*
X34322D01*
X34501Y423447D01*
X34698Y423418D01*
X34905Y423371D01*
X35131Y423315D01*
X35337Y423240D01*
X35347D01*
X35366Y423230D01*
X35394Y423212D01*
X35431Y423193D01*
X35525Y423146D01*
X35647Y423061D01*
X35788Y422967D01*
X35929Y422845D01*
X36061Y422704D01*
X36183Y422544D01*
Y422535D01*
X36193Y422525D01*
X36211Y422497D01*
X36230Y422469D01*
X36277Y422375D01*
X36333Y422253D01*
X36399Y422103D01*
X36446Y421924D01*
X36493Y421736D01*
X36512Y421529D01*
X35685Y421464D01*
Y421473D01*
Y421492D01*
X35676Y421520D01*
X35666Y421567D01*
X35638Y421670D01*
X35600Y421811D01*
X35544Y421962D01*
X35459Y422112D01*
X35356Y422253D01*
X35224Y422384D01*
X35206Y422394D01*
X35159Y422431D01*
X35065Y422488D01*
X34943Y422544D01*
X34783Y422601D01*
X34595Y422657D01*
X34360Y422695D01*
X34097Y422704D01*
X33965D01*
X33909Y422695D01*
X33834Y422685D01*
X33664Y422667D01*
X33477Y422629D01*
X33289Y422582D01*
X33110Y422507D01*
X33035Y422460D01*
X32960Y422413D01*
X32941Y422403D01*
X32903Y422366D01*
X32847Y422300D01*
X32790Y422225D01*
X32725Y422121D01*
X32668Y422009D01*
X32631Y421877D01*
X32612Y421727D01*
Y421708D01*
Y421670D01*
X32621Y421604D01*
X32640Y421529D01*
X32668Y421435D01*
X32715Y421341D01*
X32772Y421247D01*
X32856Y421153D01*
X32866Y421144D01*
X32913Y421116D01*
X32950Y421088D01*
X32988Y421069D01*
X33044Y421041D01*
X33110Y421003D01*
X33194Y420975D01*
X33289Y420937D01*
X33392Y420900D01*
X33514Y420853D01*
X33646Y420815D01*
X33796Y420768D01*
X33965Y420731D01*
X34153Y420684D01*
X34162D01*
X34200Y420674D01*
X34256Y420665D01*
X34322Y420646D01*
X34407Y420627D01*
X34510Y420599D01*
X34614Y420571D01*
X34726Y420542D01*
X34971Y420477D01*
X35206Y420411D01*
X35319Y420373D01*
X35422Y420336D01*
X35516Y420308D01*
X35591Y420270D01*
X35600D01*
X35619Y420261D01*
X35647Y420242D01*
X35685Y420223D01*
X35788Y420167D01*
X35911Y420091D01*
X36051Y419988D01*
X36193Y419875D01*
X36324Y419744D01*
X36437Y419603D01*
X36446Y419584D01*
X36484Y419537D01*
X36521Y419452D01*
X36578Y419340D01*
X36625Y419208D01*
X36672Y419048D01*
X36700Y418870D01*
X36709Y418682D01*
Y418672D01*
Y418663D01*
Y418635D01*
Y418597D01*
X36691Y418494D01*
X36672Y418362D01*
X36634Y418212D01*
X36587Y418052D01*
X36512Y417883D01*
X36409Y417704D01*
Y417695D01*
X36399Y417686D01*
X36352Y417629D01*
X36286Y417545D01*
X36193Y417451D01*
X36070Y417338D01*
X35920Y417216D01*
X35751Y417103D01*
X35553Y417000D01*
X35544D01*
X35525Y416990D01*
X35497Y416981D01*
X35459Y416962D01*
X35403Y416943D01*
X35337Y416915D01*
X35187Y416877D01*
X35008Y416830D01*
X34792Y416783D01*
X34557Y416755D01*
X34304Y416746D01*
X34153D01*
X34078Y416755D01*
X33993D01*
X33899Y416764D01*
X33787Y416774D01*
X33552Y416811D01*
X33307Y416849D01*
X33063Y416915D01*
X32828Y417000D01*
X32819D01*
X32800Y417009D01*
X32772Y417028D01*
X32734Y417047D01*
X32621Y417103D01*
X32490Y417187D01*
X32339Y417300D01*
X32180Y417432D01*
X32029Y417592D01*
X31888Y417770D01*
Y417780D01*
X31869Y417798D01*
X31860Y417826D01*
X31832Y417864D01*
X31813Y417911D01*
X31785Y417967D01*
X31719Y418108D01*
X31653Y418287D01*
X31597Y418484D01*
X31559Y418710D01*
X31541Y418945D01*
X32349Y419020D01*
Y419011D01*
Y419001D01*
X32358Y418973D01*
Y418936D01*
X32377Y418851D01*
X32405Y418729D01*
X32443Y418606D01*
X32480Y418466D01*
X32546Y418334D01*
X32612Y418212D01*
X32621Y418202D01*
X32650Y418165D01*
X32696Y418099D01*
X32772Y418033D01*
X32866Y417949D01*
X32969Y417864D01*
X33110Y417780D01*
X33260Y417704D01*
X33270D01*
X33279Y417695D01*
X33307Y417686D01*
X33335Y417676D01*
X33430Y417648D01*
X33552Y417610D01*
X33702Y417573D01*
X33871Y417545D01*
X34059Y417526D01*
X34266Y417516D01*
X34351D01*
X34444Y417526D01*
X34557Y417535D01*
X34689Y417554D01*
X34839Y417573D01*
X34990Y417610D01*
X35131Y417657D01*
X35149Y417667D01*
X35196Y417686D01*
X35262Y417723D01*
X35347Y417761D01*
X35431Y417826D01*
X35525Y417892D01*
X35619Y417967D01*
X35694Y418061D01*
X35704Y418071D01*
X35723Y418108D01*
X35751Y418155D01*
X35788Y418231D01*
X35826Y418306D01*
X35854Y418400D01*
X35873Y418503D01*
X35882Y418616D01*
Y418625D01*
Y418672D01*
X35873Y418729D01*
X35864Y418804D01*
X35835Y418879D01*
X35807Y418973D01*
X35760Y419067D01*
X35694Y419152D01*
X35685Y419161D01*
X35657Y419189D01*
X35619Y419227D01*
X35553Y419283D01*
X35478Y419340D01*
X35375Y419405D01*
X35253Y419471D01*
X35112Y419528D01*
X35102Y419537D01*
X35055Y419546D01*
X34980Y419575D01*
X34933Y419584D01*
X34867Y419603D01*
X34802Y419631D01*
X34717Y419650D01*
X34623Y419678D01*
X34510Y419706D01*
X34397Y419734D01*
X34266Y419772D01*
X34116Y419809D01*
X33956Y419847D01*
X33946D01*
X33918Y419856D01*
X33871Y419866D01*
X33815Y419885D01*
X33740Y419903D01*
X33655Y419922D01*
X33467Y419979D01*
X33260Y420044D01*
X33044Y420110D01*
X32856Y420176D01*
X32772Y420214D01*
X32696Y420251D01*
X32687D01*
X32678Y420261D01*
X32621Y420298D01*
X32537Y420345D01*
X32443Y420420D01*
X32330Y420505D01*
X32217Y420608D01*
X32104Y420731D01*
X32010Y420862D01*
X32001Y420881D01*
X31973Y420928D01*
X31935Y421003D01*
X31898Y421097D01*
X31860Y421219D01*
X31822Y421360D01*
X31794Y421511D01*
X31785Y421670D01*
Y421680D01*
Y421689D01*
Y421717D01*
Y421755D01*
X31804Y421849D01*
X31822Y421971D01*
X31851Y422112D01*
X31898Y422272D01*
X31963Y422431D01*
X32057Y422591D01*
Y422601D01*
X32067Y422610D01*
X32114Y422667D01*
X32180Y422742D01*
X32264Y422836D01*
X32377Y422939D01*
X32518Y423052D01*
X32687Y423155D01*
X32875Y423249D01*
X32884D01*
X32903Y423259D01*
X32931Y423268D01*
X32969Y423287D01*
X33016Y423306D01*
X33082Y423324D01*
X33223Y423362D01*
X33401Y423400D01*
X33608Y423437D01*
X33824Y423465D01*
X34069Y423475D01*
X34191D01*
X34256Y423465D01*
D02*
G37*
G36*
X40572Y416858D02*
X39773D01*
Y421943D01*
X39764Y421933D01*
X39717Y421896D01*
X39660Y421839D01*
X39566Y421774D01*
X39463Y421689D01*
X39331Y421595D01*
X39181Y421492D01*
X39012Y421388D01*
X39002D01*
X38993Y421379D01*
X38937Y421341D01*
X38843Y421294D01*
X38730Y421238D01*
X38598Y421172D01*
X38457Y421106D01*
X38317Y421041D01*
X38175Y420984D01*
Y421755D01*
X38185D01*
X38204Y421774D01*
X38241Y421783D01*
X38288Y421811D01*
X38345Y421839D01*
X38410Y421877D01*
X38570Y421971D01*
X38758Y422074D01*
X38946Y422206D01*
X39144Y422356D01*
X39341Y422516D01*
X39350Y422525D01*
X39360Y422535D01*
X39388Y422563D01*
X39425Y422591D01*
X39510Y422685D01*
X39623Y422798D01*
X39736Y422930D01*
X39858Y423080D01*
X39961Y423230D01*
X40055Y423390D01*
X40572D01*
Y416858D01*
D02*
G37*
G36*
X129103Y376204D02*
X129244Y376195D01*
X129394Y376176D01*
X129554Y376138D01*
X129723Y376101D01*
X129883Y376045D01*
X129892D01*
X129902Y376035D01*
X129949Y376016D01*
X130024Y375979D01*
X130118Y375932D01*
X130221Y375866D01*
X130324Y375791D01*
X130418Y375706D01*
X130503Y375612D01*
X130512Y375603D01*
X130531Y375565D01*
X130569Y375499D01*
X130616Y375424D01*
X130663Y375312D01*
X130710Y375189D01*
X130747Y375048D01*
X130785Y374889D01*
X130005Y374785D01*
Y374804D01*
X129995Y374842D01*
X129977Y374907D01*
X129949Y374992D01*
X129902Y375076D01*
X129845Y375171D01*
X129779Y375265D01*
X129685Y375349D01*
X129676Y375359D01*
X129638Y375377D01*
X129582Y375415D01*
X129497Y375452D01*
X129403Y375490D01*
X129281Y375528D01*
X129131Y375546D01*
X128971Y375556D01*
X128877D01*
X128783Y375546D01*
X128661Y375537D01*
X128539Y375509D01*
X128407Y375481D01*
X128285Y375434D01*
X128182Y375368D01*
X128172Y375359D01*
X128144Y375340D01*
X128106Y375302D01*
X128069Y375246D01*
X128022Y375189D01*
X127984Y375114D01*
X127956Y375029D01*
X127947Y374945D01*
Y374935D01*
Y374917D01*
X127956Y374889D01*
Y374851D01*
X127984Y374757D01*
X128041Y374663D01*
X128050Y374654D01*
X128060Y374644D01*
X128078Y374616D01*
X128116Y374588D01*
X128153Y374560D01*
X128210Y374522D01*
X128276Y374494D01*
X128351Y374456D01*
X128360D01*
X128379Y374447D01*
X128417Y374437D01*
X128482Y374409D01*
X128576Y374381D01*
X128699Y374353D01*
X128774Y374325D01*
X128858Y374306D01*
X128952Y374278D01*
X129056Y374249D01*
X129065D01*
X129093Y374240D01*
X129140Y374231D01*
X129197Y374212D01*
X129262Y374193D01*
X129347Y374174D01*
X129526Y374118D01*
X129723Y374062D01*
X129920Y373996D01*
X130099Y373930D01*
X130174Y373902D01*
X130240Y373874D01*
X130259Y373864D01*
X130296Y373845D01*
X130353Y373817D01*
X130437Y373770D01*
X130522Y373714D01*
X130606Y373639D01*
X130691Y373554D01*
X130766Y373460D01*
X130775Y373451D01*
X130794Y373413D01*
X130832Y373357D01*
X130870Y373272D01*
X130898Y373169D01*
X130935Y373056D01*
X130954Y372924D01*
X130963Y372774D01*
Y372755D01*
Y372708D01*
X130954Y372633D01*
X130935Y372530D01*
X130907Y372417D01*
X130860Y372295D01*
X130804Y372154D01*
X130729Y372022D01*
X130719Y372003D01*
X130681Y371966D01*
X130634Y371900D01*
X130559Y371825D01*
X130456Y371740D01*
X130343Y371646D01*
X130212Y371562D01*
X130052Y371477D01*
X130042D01*
X130033Y371468D01*
X129977Y371449D01*
X129883Y371421D01*
X129761Y371383D01*
X129610Y371345D01*
X129441Y371317D01*
X129262Y371298D01*
X129056Y371289D01*
X128971D01*
X128905Y371298D01*
X128830D01*
X128736Y371308D01*
X128642Y371317D01*
X128539Y371336D01*
X128313Y371383D01*
X128078Y371449D01*
X127853Y371543D01*
X127749Y371599D01*
X127655Y371665D01*
X127646Y371674D01*
X127637Y371684D01*
X127580Y371740D01*
X127496Y371825D01*
X127402Y371956D01*
X127298Y372116D01*
X127195Y372304D01*
X127110Y372539D01*
X127044Y372802D01*
X127834Y372924D01*
Y372915D01*
Y372906D01*
X127853Y372849D01*
X127872Y372755D01*
X127909Y372652D01*
X127956Y372539D01*
X128013Y372417D01*
X128097Y372295D01*
X128201Y372191D01*
X128219Y372182D01*
X128257Y372154D01*
X128332Y372116D01*
X128426Y372069D01*
X128548Y372022D01*
X128689Y371985D01*
X128858Y371956D01*
X129056Y371947D01*
X129150D01*
X129244Y371956D01*
X129366Y371975D01*
X129497Y372003D01*
X129638Y372041D01*
X129761Y372088D01*
X129873Y372163D01*
X129883Y372173D01*
X129920Y372201D01*
X129958Y372248D01*
X130014Y372313D01*
X130061Y372389D01*
X130108Y372483D01*
X130136Y372577D01*
X130146Y372689D01*
Y372699D01*
Y372736D01*
X130136Y372783D01*
X130118Y372849D01*
X130090Y372915D01*
X130042Y372981D01*
X129986Y373056D01*
X129902Y373112D01*
X129892Y373122D01*
X129864Y373131D01*
X129817Y373159D01*
X129742Y373187D01*
X129629Y373225D01*
X129563Y373253D01*
X129488Y373272D01*
X129403Y373300D01*
X129309Y373329D01*
X129206Y373357D01*
X129084Y373385D01*
X129074D01*
X129046Y373394D01*
X128999Y373404D01*
X128943Y373423D01*
X128868Y373441D01*
X128783Y373470D01*
X128605Y373516D01*
X128398Y373582D01*
X128201Y373639D01*
X128013Y373704D01*
X127928Y373742D01*
X127862Y373770D01*
X127843Y373780D01*
X127806Y373798D01*
X127749Y373836D01*
X127674Y373883D01*
X127590Y373949D01*
X127505Y374024D01*
X127420Y374109D01*
X127345Y374212D01*
X127336Y374221D01*
X127317Y374259D01*
X127289Y374325D01*
X127261Y374400D01*
X127233Y374494D01*
X127204Y374607D01*
X127185Y374719D01*
X127176Y374851D01*
Y374870D01*
Y374907D01*
X127185Y374964D01*
X127195Y375048D01*
X127214Y375133D01*
X127233Y375236D01*
X127270Y375330D01*
X127317Y375434D01*
X127326Y375443D01*
X127345Y375481D01*
X127373Y375528D01*
X127420Y375593D01*
X127477Y375659D01*
X127543Y375744D01*
X127618Y375819D01*
X127712Y375885D01*
X127721Y375894D01*
X127749Y375904D01*
X127787Y375932D01*
X127843Y375960D01*
X127919Y375998D01*
X128003Y376035D01*
X128106Y376073D01*
X128219Y376110D01*
X128238Y376120D01*
X128276Y376129D01*
X128341Y376148D01*
X128426Y376167D01*
X128529Y376185D01*
X128642Y376195D01*
X128774Y376214D01*
X128999D01*
X129103Y376204D01*
D02*
G37*
G36*
X136311Y371393D02*
X135493D01*
X134741Y374212D01*
X134553Y375020D01*
X133604Y371393D01*
X132759D01*
X131330Y376110D01*
X132166D01*
X132918Y373385D01*
X133181Y372370D01*
Y372379D01*
X133191Y372398D01*
X133200Y372445D01*
X133210Y372473D01*
X133219Y372520D01*
X133228Y372577D01*
X133247Y372642D01*
X133266Y372718D01*
X133294Y372812D01*
X133322Y372915D01*
X133351Y373037D01*
X133388Y373178D01*
X133426Y373338D01*
X134178Y376110D01*
X134995D01*
X135700Y373366D01*
X135935Y372464D01*
X136208Y373376D01*
X137016Y376110D01*
X137796D01*
X136311Y371393D01*
D02*
G37*
G36*
X141254D02*
X140455D01*
Y376477D01*
X140446Y376467D01*
X140399Y376430D01*
X140343Y376373D01*
X140249Y376308D01*
X140145Y376223D01*
X140014Y376129D01*
X139863Y376026D01*
X139694Y375922D01*
X139685D01*
X139675Y375913D01*
X139619Y375875D01*
X139525Y375828D01*
X139412Y375772D01*
X139281Y375706D01*
X139140Y375640D01*
X138999Y375575D01*
X138858Y375518D01*
Y376289D01*
X138867D01*
X138886Y376308D01*
X138924Y376317D01*
X138971Y376345D01*
X139027Y376373D01*
X139093Y376411D01*
X139253Y376505D01*
X139440Y376608D01*
X139628Y376740D01*
X139826Y376890D01*
X140023Y377050D01*
X140033Y377060D01*
X140042Y377069D01*
X140070Y377097D01*
X140108Y377125D01*
X140192Y377219D01*
X140305Y377332D01*
X140418Y377464D01*
X140540Y377614D01*
X140643Y377764D01*
X140737Y377924D01*
X141254D01*
Y371393D01*
D02*
G37*
G36*
X49261Y306481D02*
X48916Y304461D01*
X48909Y304454D01*
X48916Y304434D01*
X48909Y304401D01*
X48903Y304354D01*
X48876Y304248D01*
X48856Y304108D01*
X48823Y303955D01*
X48790Y303803D01*
X48756Y303663D01*
X48723Y303537D01*
X48743Y303543D01*
X48790Y303550D01*
X48876Y303570D01*
X48989Y303590D01*
X49115Y303610D01*
X49275Y303636D01*
X49434Y303663D01*
X49614Y303683D01*
X51754Y303989D01*
X52418Y303324D01*
X48637Y302733D01*
X47946Y298599D01*
X47195Y299350D01*
X47667Y302148D01*
Y302161D01*
X47673Y302194D01*
X47687Y302234D01*
X47693Y302294D01*
X47726Y302447D01*
X47760Y302613D01*
X47746D01*
X47700Y302607D01*
X47633Y302593D01*
X47547Y302573D01*
X47368Y302540D01*
X47288Y302527D01*
X47221Y302514D01*
X44464Y302082D01*
X43733Y302812D01*
X47886Y303417D01*
X48537Y307205D01*
X49261Y306481D01*
D02*
G37*
G36*
X52159Y301311D02*
X52185D01*
X52219Y301291D01*
X52272Y301277D01*
X52332Y301257D01*
X52405Y301238D01*
X52584Y301191D01*
X52790Y301131D01*
X53016Y301091D01*
X53262Y301058D01*
X53514Y301031D01*
X53528D01*
X53541D01*
X53581D01*
X53628Y301025D01*
X53754Y301031D01*
X53913D01*
X54086Y301045D01*
X54279Y301065D01*
X54458Y301098D01*
X54638Y301145D01*
X55003Y300779D01*
X50384Y296161D01*
X49820Y296725D01*
X53415Y300320D01*
X53401D01*
X53342Y300327D01*
X53262D01*
X53149Y300347D01*
X53016Y300360D01*
X52857Y300387D01*
X52677Y300420D01*
X52484Y300467D01*
X52478Y300473D01*
X52464D01*
X52398Y300487D01*
X52298Y300520D01*
X52179Y300560D01*
X52039Y300606D01*
X51893Y300659D01*
X51747Y300713D01*
X51607Y300772D01*
X52152Y301317D01*
X52159Y301311D01*
D02*
G37*
G36*
X94863Y195035D02*
X94985Y195016D01*
X95135Y194988D01*
X95304Y194941D01*
X95474Y194884D01*
X95643Y194809D01*
X95652D01*
X95661Y194800D01*
X95718Y194772D01*
X95802Y194715D01*
X95897Y194649D01*
X96009Y194555D01*
X96122Y194452D01*
X96235Y194330D01*
X96329Y194189D01*
X96338Y194170D01*
X96366Y194123D01*
X96404Y194039D01*
X96451Y193935D01*
X96498Y193813D01*
X96536Y193672D01*
X96564Y193512D01*
X96573Y193353D01*
Y193334D01*
Y193277D01*
X96564Y193202D01*
X96545Y193099D01*
X96517Y192977D01*
X96470Y192845D01*
X96413Y192713D01*
X96338Y192582D01*
X96329Y192563D01*
X96301Y192525D01*
X96244Y192460D01*
X96169Y192384D01*
X96075Y192300D01*
X95962Y192206D01*
X95831Y192121D01*
X95671Y192037D01*
X95680D01*
X95699Y192027D01*
X95727Y192018D01*
X95765Y192009D01*
X95868Y191971D01*
X96000Y191915D01*
X96150Y191839D01*
X96301Y191745D01*
X96442Y191623D01*
X96573Y191482D01*
X96582Y191464D01*
X96620Y191407D01*
X96677Y191313D01*
X96733Y191191D01*
X96789Y191041D01*
X96846Y190862D01*
X96883Y190655D01*
X96893Y190430D01*
Y190420D01*
Y190392D01*
Y190345D01*
X96883Y190289D01*
X96874Y190214D01*
X96855Y190129D01*
X96836Y190035D01*
X96818Y189932D01*
X96742Y189706D01*
X96686Y189584D01*
X96629Y189471D01*
X96554Y189349D01*
X96470Y189227D01*
X96376Y189105D01*
X96263Y188992D01*
X96254Y188982D01*
X96235Y188964D01*
X96197Y188935D01*
X96150Y188898D01*
X96094Y188851D01*
X96019Y188804D01*
X95934Y188748D01*
X95831Y188701D01*
X95727Y188644D01*
X95605Y188588D01*
X95483Y188541D01*
X95342Y188494D01*
X95192Y188456D01*
X95032Y188428D01*
X94872Y188409D01*
X94693Y188400D01*
X94609D01*
X94553Y188409D01*
X94477Y188419D01*
X94393Y188428D01*
X94299Y188447D01*
X94195Y188465D01*
X93970Y188522D01*
X93735Y188616D01*
X93613Y188672D01*
X93500Y188738D01*
X93387Y188823D01*
X93274Y188907D01*
X93265Y188917D01*
X93246Y188935D01*
X93218Y188964D01*
X93190Y189001D01*
X93143Y189048D01*
X93096Y189114D01*
X93040Y189180D01*
X92983Y189264D01*
X92927Y189358D01*
X92870Y189452D01*
X92767Y189678D01*
X92682Y189941D01*
X92654Y190082D01*
X92635Y190232D01*
X93434Y190336D01*
Y190326D01*
X93444Y190308D01*
X93453Y190270D01*
X93462Y190223D01*
X93472Y190166D01*
X93491Y190101D01*
X93538Y189960D01*
X93603Y189791D01*
X93688Y189631D01*
X93782Y189480D01*
X93895Y189349D01*
X93913Y189340D01*
X93951Y189302D01*
X94026Y189255D01*
X94120Y189208D01*
X94233Y189152D01*
X94374Y189105D01*
X94534Y189067D01*
X94703Y189058D01*
X94759D01*
X94797Y189067D01*
X94900Y189076D01*
X95032Y189105D01*
X95182Y189152D01*
X95342Y189217D01*
X95502Y189311D01*
X95652Y189443D01*
X95671Y189462D01*
X95718Y189518D01*
X95774Y189603D01*
X95850Y189715D01*
X95925Y189856D01*
X95981Y190016D01*
X96028Y190204D01*
X96047Y190411D01*
Y190420D01*
Y190439D01*
Y190467D01*
X96038Y190505D01*
X96028Y190608D01*
X96000Y190730D01*
X95962Y190881D01*
X95897Y191031D01*
X95802Y191182D01*
X95680Y191322D01*
X95661Y191341D01*
X95615Y191379D01*
X95539Y191435D01*
X95436Y191501D01*
X95304Y191567D01*
X95145Y191623D01*
X94966Y191661D01*
X94769Y191680D01*
X94684D01*
X94618Y191670D01*
X94534Y191661D01*
X94440Y191642D01*
X94327Y191623D01*
X94205Y191595D01*
X94299Y192300D01*
X94346D01*
X94383Y192290D01*
X94506D01*
X94609Y192309D01*
X94731Y192328D01*
X94872Y192356D01*
X95032Y192403D01*
X95182Y192469D01*
X95342Y192554D01*
X95351D01*
X95361Y192563D01*
X95408Y192601D01*
X95474Y192666D01*
X95549Y192751D01*
X95624Y192873D01*
X95690Y193014D01*
X95737Y193174D01*
X95756Y193268D01*
Y193371D01*
Y193381D01*
Y193390D01*
Y193447D01*
X95737Y193522D01*
X95718Y193625D01*
X95680Y193738D01*
X95633Y193860D01*
X95558Y193982D01*
X95455Y194095D01*
X95445Y194104D01*
X95398Y194142D01*
X95333Y194189D01*
X95248Y194245D01*
X95135Y194292D01*
X95004Y194339D01*
X94853Y194377D01*
X94684Y194386D01*
X94609D01*
X94524Y194368D01*
X94412Y194349D01*
X94289Y194311D01*
X94167Y194264D01*
X94036Y194189D01*
X93913Y194095D01*
X93904Y194086D01*
X93867Y194039D01*
X93810Y193973D01*
X93744Y193879D01*
X93679Y193757D01*
X93613Y193606D01*
X93556Y193428D01*
X93519Y193221D01*
X92720Y193362D01*
Y193371D01*
X92729Y193400D01*
X92739Y193437D01*
X92748Y193493D01*
X92767Y193559D01*
X92795Y193634D01*
X92851Y193813D01*
X92945Y194020D01*
X93058Y194226D01*
X93199Y194424D01*
X93378Y194602D01*
X93387Y194612D01*
X93406Y194621D01*
X93434Y194640D01*
X93472Y194668D01*
X93519Y194706D01*
X93585Y194743D01*
X93650Y194781D01*
X93735Y194828D01*
X93923Y194903D01*
X94139Y194978D01*
X94393Y195025D01*
X94524Y195044D01*
X94759D01*
X94863Y195035D01*
D02*
G37*
G36*
X91517Y191257D02*
Y191247D01*
Y191210D01*
Y191163D01*
Y191097D01*
X91508Y191012D01*
Y190918D01*
X91498Y190806D01*
X91489Y190693D01*
X91461Y190439D01*
X91423Y190176D01*
X91367Y189922D01*
X91329Y189800D01*
X91292Y189687D01*
Y189678D01*
X91282Y189659D01*
X91263Y189631D01*
X91244Y189593D01*
X91188Y189490D01*
X91103Y189358D01*
X90991Y189208D01*
X90859Y189058D01*
X90690Y188898D01*
X90483Y188757D01*
X90474D01*
X90455Y188738D01*
X90427Y188729D01*
X90380Y188701D01*
X90323Y188672D01*
X90248Y188644D01*
X90173Y188616D01*
X90079Y188578D01*
X89976Y188541D01*
X89863Y188512D01*
X89741Y188484D01*
X89600Y188456D01*
X89459Y188437D01*
X89309Y188419D01*
X88970Y188400D01*
X88886D01*
X88820Y188409D01*
X88745D01*
X88651Y188419D01*
X88547Y188428D01*
X88444Y188437D01*
X88209Y188475D01*
X87955Y188531D01*
X87711Y188606D01*
X87476Y188710D01*
X87466D01*
X87448Y188729D01*
X87420Y188748D01*
X87382Y188766D01*
X87278Y188841D01*
X87156Y188945D01*
X87015Y189076D01*
X86884Y189227D01*
X86752Y189415D01*
X86649Y189622D01*
Y189631D01*
X86639Y189650D01*
X86630Y189687D01*
X86611Y189734D01*
X86593Y189791D01*
X86574Y189866D01*
X86545Y189950D01*
X86527Y190054D01*
X86508Y190166D01*
X86480Y190289D01*
X86461Y190420D01*
X86442Y190561D01*
X86423Y190721D01*
X86414Y190890D01*
X86404Y191069D01*
Y191257D01*
Y195016D01*
X87269D01*
Y191257D01*
Y191247D01*
Y191219D01*
Y191172D01*
Y191116D01*
X87278Y191050D01*
Y190965D01*
X87288Y190787D01*
X87307Y190580D01*
X87335Y190373D01*
X87373Y190176D01*
X87391Y190091D01*
X87420Y190007D01*
X87429Y189988D01*
X87448Y189941D01*
X87495Y189875D01*
X87551Y189781D01*
X87617Y189687D01*
X87711Y189584D01*
X87824Y189480D01*
X87955Y189396D01*
X87974Y189387D01*
X88021Y189358D01*
X88105Y189330D01*
X88218Y189293D01*
X88350Y189245D01*
X88519Y189217D01*
X88698Y189189D01*
X88895Y189180D01*
X88989D01*
X89045Y189189D01*
X89130D01*
X89214Y189199D01*
X89421Y189236D01*
X89647Y189283D01*
X89863Y189358D01*
X90070Y189462D01*
X90164Y189527D01*
X90248Y189603D01*
X90258Y189612D01*
X90267Y189622D01*
X90286Y189650D01*
X90314Y189687D01*
X90342Y189744D01*
X90380Y189800D01*
X90417Y189885D01*
X90455Y189969D01*
X90493Y190073D01*
X90521Y190195D01*
X90558Y190336D01*
X90587Y190486D01*
X90615Y190655D01*
X90634Y190834D01*
X90652Y191041D01*
Y191257D01*
Y195016D01*
X91517D01*
Y191257D01*
D02*
G37*
G36*
X42013Y29173D02*
X42136Y29154D01*
X42286Y29126D01*
X42455Y29079D01*
X42624Y29022D01*
X42793Y28947D01*
X42803D01*
X42812Y28938D01*
X42869Y28910D01*
X42953Y28853D01*
X43047Y28787D01*
X43160Y28693D01*
X43273Y28590D01*
X43386Y28468D01*
X43479Y28327D01*
X43489Y28308D01*
X43517Y28261D01*
X43555Y28177D01*
X43602Y28073D01*
X43649Y27951D01*
X43686Y27810D01*
X43714Y27650D01*
X43724Y27490D01*
Y27472D01*
Y27415D01*
X43714Y27340D01*
X43696Y27237D01*
X43667Y27115D01*
X43621Y26983D01*
X43564Y26851D01*
X43489Y26720D01*
X43479Y26701D01*
X43451Y26663D01*
X43395Y26598D01*
X43320Y26523D01*
X43226Y26438D01*
X43113Y26344D01*
X42981Y26259D01*
X42822Y26175D01*
X42831D01*
X42850Y26165D01*
X42878Y26156D01*
X42916Y26147D01*
X43019Y26109D01*
X43151Y26053D01*
X43301Y25977D01*
X43451Y25883D01*
X43592Y25761D01*
X43724Y25620D01*
X43733Y25601D01*
X43771Y25545D01*
X43827Y25451D01*
X43884Y25329D01*
X43940Y25179D01*
X43996Y25000D01*
X44034Y24793D01*
X44043Y24568D01*
Y24558D01*
Y24530D01*
Y24483D01*
X44034Y24427D01*
X44025Y24351D01*
X44006Y24267D01*
X43987Y24173D01*
X43968Y24070D01*
X43893Y23844D01*
X43837Y23722D01*
X43780Y23609D01*
X43705Y23487D01*
X43621Y23365D01*
X43527Y23243D01*
X43414Y23130D01*
X43404Y23120D01*
X43386Y23102D01*
X43348Y23073D01*
X43301Y23036D01*
X43245Y22989D01*
X43169Y22942D01*
X43085Y22885D01*
X42981Y22838D01*
X42878Y22782D01*
X42756Y22726D01*
X42634Y22679D01*
X42493Y22632D01*
X42342Y22594D01*
X42183Y22566D01*
X42023Y22547D01*
X41844Y22538D01*
X41760D01*
X41703Y22547D01*
X41628Y22557D01*
X41543Y22566D01*
X41449Y22585D01*
X41346Y22603D01*
X41121Y22660D01*
X40886Y22754D01*
X40764Y22810D01*
X40651Y22876D01*
X40538Y22961D01*
X40425Y23045D01*
X40416Y23055D01*
X40397Y23073D01*
X40369Y23102D01*
X40341Y23139D01*
X40294Y23186D01*
X40247Y23252D01*
X40190Y23318D01*
X40134Y23402D01*
X40077Y23496D01*
X40021Y23590D01*
X39918Y23816D01*
X39833Y24079D01*
X39805Y24220D01*
X39786Y24370D01*
X40585Y24474D01*
Y24464D01*
X40594Y24446D01*
X40604Y24408D01*
X40613Y24361D01*
X40623Y24304D01*
X40641Y24239D01*
X40688Y24098D01*
X40754Y23929D01*
X40839Y23769D01*
X40933Y23619D01*
X41045Y23487D01*
X41064Y23477D01*
X41102Y23440D01*
X41177Y23393D01*
X41271Y23346D01*
X41384Y23290D01*
X41525Y23243D01*
X41684Y23205D01*
X41854Y23196D01*
X41910D01*
X41948Y23205D01*
X42051Y23214D01*
X42183Y23243D01*
X42333Y23290D01*
X42493Y23355D01*
X42653Y23449D01*
X42803Y23581D01*
X42822Y23600D01*
X42869Y23656D01*
X42925Y23741D01*
X43000Y23853D01*
X43075Y23994D01*
X43132Y24154D01*
X43179Y24342D01*
X43198Y24549D01*
Y24558D01*
Y24577D01*
Y24605D01*
X43188Y24643D01*
X43179Y24746D01*
X43151Y24868D01*
X43113Y25019D01*
X43047Y25169D01*
X42953Y25319D01*
X42831Y25461D01*
X42812Y25479D01*
X42765Y25517D01*
X42690Y25573D01*
X42587Y25639D01*
X42455Y25705D01*
X42295Y25761D01*
X42117Y25799D01*
X41919Y25818D01*
X41835D01*
X41769Y25808D01*
X41684Y25799D01*
X41590Y25780D01*
X41478Y25761D01*
X41356Y25733D01*
X41449Y26438D01*
X41497D01*
X41534Y26428D01*
X41656D01*
X41760Y26447D01*
X41882Y26466D01*
X42023Y26494D01*
X42183Y26541D01*
X42333Y26607D01*
X42493Y26692D01*
X42502D01*
X42512Y26701D01*
X42558Y26739D01*
X42624Y26804D01*
X42699Y26889D01*
X42775Y27011D01*
X42840Y27152D01*
X42887Y27312D01*
X42906Y27406D01*
Y27509D01*
Y27519D01*
Y27528D01*
Y27585D01*
X42887Y27660D01*
X42869Y27763D01*
X42831Y27876D01*
X42784Y27998D01*
X42709Y28120D01*
X42606Y28233D01*
X42596Y28242D01*
X42549Y28280D01*
X42483Y28327D01*
X42399Y28383D01*
X42286Y28430D01*
X42154Y28477D01*
X42004Y28515D01*
X41835Y28524D01*
X41760D01*
X41675Y28505D01*
X41562Y28487D01*
X41440Y28449D01*
X41318Y28402D01*
X41186Y28327D01*
X41064Y28233D01*
X41055Y28224D01*
X41017Y28177D01*
X40961Y28111D01*
X40895Y28017D01*
X40829Y27895D01*
X40764Y27744D01*
X40707Y27566D01*
X40669Y27359D01*
X39871Y27500D01*
Y27509D01*
X39880Y27538D01*
X39890Y27575D01*
X39899Y27631D01*
X39918Y27697D01*
X39946Y27772D01*
X40002Y27951D01*
X40096Y28158D01*
X40209Y28365D01*
X40350Y28562D01*
X40528Y28740D01*
X40538Y28750D01*
X40557Y28759D01*
X40585Y28778D01*
X40623Y28806D01*
X40669Y28844D01*
X40735Y28881D01*
X40801Y28919D01*
X40886Y28966D01*
X41074Y29041D01*
X41290Y29116D01*
X41543Y29163D01*
X41675Y29182D01*
X41910D01*
X42013Y29173D01*
D02*
G37*
G36*
X38696Y24718D02*
Y24709D01*
Y24681D01*
Y24643D01*
Y24587D01*
X38686Y24511D01*
Y24436D01*
X38668Y24258D01*
X38649Y24051D01*
X38611Y23835D01*
X38555Y23637D01*
X38489Y23449D01*
Y23440D01*
X38480Y23431D01*
X38452Y23374D01*
X38405Y23299D01*
X38339Y23196D01*
X38245Y23092D01*
X38142Y22979D01*
X38010Y22867D01*
X37859Y22773D01*
X37841Y22763D01*
X37784Y22735D01*
X37700Y22698D01*
X37578Y22660D01*
X37427Y22613D01*
X37258Y22575D01*
X37070Y22547D01*
X36863Y22538D01*
X36779D01*
X36722Y22547D01*
X36647Y22557D01*
X36572Y22566D01*
X36375Y22603D01*
X36168Y22660D01*
X35952Y22745D01*
X35839Y22801D01*
X35736Y22867D01*
X35642Y22942D01*
X35548Y23026D01*
X35538Y23036D01*
X35529Y23045D01*
X35510Y23083D01*
X35482Y23120D01*
X35444Y23167D01*
X35407Y23233D01*
X35369Y23308D01*
X35322Y23393D01*
X35285Y23487D01*
X35247Y23600D01*
X35209Y23712D01*
X35172Y23844D01*
X35153Y23985D01*
X35125Y24145D01*
X35115Y24304D01*
Y24483D01*
X35895Y24596D01*
Y24587D01*
Y24568D01*
Y24530D01*
X35905Y24474D01*
X35914Y24417D01*
Y24351D01*
X35942Y24192D01*
X35970Y24023D01*
X36027Y23853D01*
X36083Y23703D01*
X36121Y23637D01*
X36168Y23581D01*
X36177Y23572D01*
X36215Y23543D01*
X36271Y23496D01*
X36346Y23449D01*
X36450Y23393D01*
X36563Y23355D01*
X36704Y23318D01*
X36854Y23308D01*
X36910D01*
X36967Y23318D01*
X37051Y23327D01*
X37136Y23346D01*
X37230Y23365D01*
X37324Y23402D01*
X37418Y23449D01*
X37427Y23459D01*
X37455Y23477D01*
X37493Y23515D01*
X37549Y23553D01*
X37596Y23619D01*
X37653Y23684D01*
X37700Y23760D01*
X37737Y23853D01*
Y23863D01*
X37756Y23900D01*
X37766Y23966D01*
X37784Y24051D01*
X37803Y24164D01*
X37812Y24304D01*
X37831Y24474D01*
Y24671D01*
Y29154D01*
X38696D01*
Y24718D01*
D02*
G37*
G36*
X145993Y27072D02*
X146068Y27062D01*
X146143Y27053D01*
X146340Y27016D01*
X146547Y26959D01*
X146763Y26874D01*
X146876Y26818D01*
X146979Y26752D01*
X147073Y26677D01*
X147167Y26593D01*
X147177Y26583D01*
X147186Y26574D01*
X147205Y26536D01*
X147233Y26499D01*
X147271Y26452D01*
X147308Y26386D01*
X147346Y26311D01*
X147393Y26226D01*
X147430Y26132D01*
X147468Y26019D01*
X147506Y25907D01*
X147543Y25775D01*
X147562Y25634D01*
X147590Y25474D01*
X147600Y25315D01*
Y25136D01*
X146820Y25023D01*
Y25032D01*
Y25051D01*
Y25089D01*
X146810Y25145D01*
X146801Y25202D01*
Y25268D01*
X146773Y25427D01*
X146744Y25596D01*
X146688Y25766D01*
X146632Y25916D01*
X146594Y25982D01*
X146547Y26038D01*
X146538Y26047D01*
X146500Y26076D01*
X146444Y26123D01*
X146369Y26170D01*
X146265Y26226D01*
X146152Y26264D01*
X146011Y26301D01*
X145861Y26311D01*
X145805D01*
X145748Y26301D01*
X145664Y26292D01*
X145579Y26273D01*
X145485Y26254D01*
X145391Y26217D01*
X145297Y26170D01*
X145288Y26160D01*
X145260Y26142D01*
X145222Y26104D01*
X145166Y26066D01*
X145119Y26000D01*
X145062Y25935D01*
X145015Y25859D01*
X144978Y25766D01*
Y25756D01*
X144959Y25719D01*
X144950Y25653D01*
X144931Y25568D01*
X144912Y25455D01*
X144902Y25315D01*
X144884Y25145D01*
Y24948D01*
Y20465D01*
X144019D01*
Y24901D01*
Y24910D01*
Y24938D01*
Y24976D01*
Y25032D01*
X144029Y25108D01*
Y25183D01*
X144047Y25361D01*
X144066Y25568D01*
X144104Y25784D01*
X144160Y25982D01*
X144226Y26170D01*
Y26179D01*
X144235Y26188D01*
X144263Y26245D01*
X144310Y26320D01*
X144376Y26423D01*
X144470Y26527D01*
X144573Y26640D01*
X144705Y26752D01*
X144855Y26846D01*
X144874Y26856D01*
X144931Y26884D01*
X145015Y26922D01*
X145137Y26959D01*
X145288Y27006D01*
X145457Y27044D01*
X145645Y27072D01*
X145852Y27081D01*
X145936D01*
X145993Y27072D01*
D02*
G37*
G36*
X143051Y26959D02*
Y26922D01*
Y26865D01*
X143042Y26790D01*
X143032Y26705D01*
X143013Y26611D01*
X142995Y26517D01*
X142957Y26414D01*
Y26405D01*
X142948Y26395D01*
X142929Y26339D01*
X142891Y26254D01*
X142835Y26142D01*
X142760Y26010D01*
X142666Y25859D01*
X142562Y25709D01*
X142431Y25549D01*
Y25540D01*
X142412Y25531D01*
X142365Y25474D01*
X142280Y25390D01*
X142158Y25268D01*
X142017Y25127D01*
X141839Y24957D01*
X141623Y24769D01*
X141388Y24572D01*
X141378Y24563D01*
X141341Y24534D01*
X141284Y24487D01*
X141219Y24431D01*
X141134Y24356D01*
X141031Y24271D01*
X140927Y24177D01*
X140805Y24074D01*
X140570Y23848D01*
X140335Y23623D01*
X140222Y23510D01*
X140119Y23397D01*
X140025Y23294D01*
X139950Y23191D01*
Y23181D01*
X139931Y23172D01*
X139912Y23143D01*
X139893Y23106D01*
X139828Y23003D01*
X139752Y22880D01*
X139687Y22730D01*
X139621Y22570D01*
X139583Y22392D01*
X139564Y22222D01*
Y22213D01*
Y22204D01*
X139574Y22147D01*
X139583Y22053D01*
X139611Y21950D01*
X139649Y21818D01*
X139715Y21687D01*
X139799Y21555D01*
X139912Y21424D01*
X139931Y21405D01*
X139978Y21367D01*
X140044Y21320D01*
X140147Y21254D01*
X140279Y21198D01*
X140429Y21142D01*
X140608Y21104D01*
X140805Y21095D01*
X140861D01*
X140899Y21104D01*
X141012Y21114D01*
X141143Y21142D01*
X141284Y21179D01*
X141444Y21245D01*
X141594Y21330D01*
X141735Y21442D01*
X141754Y21461D01*
X141792Y21508D01*
X141848Y21583D01*
X141904Y21696D01*
X141970Y21828D01*
X142027Y21997D01*
X142064Y22185D01*
X142083Y22401D01*
X142901Y22317D01*
Y22307D01*
X142891Y22279D01*
Y22232D01*
X142882Y22166D01*
X142863Y22091D01*
X142844Y22006D01*
X142816Y21903D01*
X142788Y21800D01*
X142713Y21574D01*
X142600Y21349D01*
X142534Y21236D01*
X142450Y21123D01*
X142365Y21020D01*
X142271Y20926D01*
X142262Y20916D01*
X142243Y20907D01*
X142215Y20879D01*
X142168Y20850D01*
X142111Y20813D01*
X142045Y20775D01*
X141970Y20728D01*
X141876Y20681D01*
X141773Y20634D01*
X141660Y20587D01*
X141538Y20550D01*
X141406Y20512D01*
X141265Y20484D01*
X141115Y20456D01*
X140955Y20446D01*
X140786Y20437D01*
X140692D01*
X140626Y20446D01*
X140551Y20456D01*
X140457Y20465D01*
X140354Y20484D01*
X140251Y20503D01*
X140006Y20568D01*
X139762Y20662D01*
X139640Y20719D01*
X139517Y20785D01*
X139405Y20869D01*
X139301Y20963D01*
X139292Y20973D01*
X139273Y20982D01*
X139254Y21020D01*
X139217Y21057D01*
X139170Y21104D01*
X139123Y21170D01*
X139076Y21236D01*
X139019Y21320D01*
X138925Y21499D01*
X138831Y21724D01*
X138794Y21837D01*
X138775Y21969D01*
X138756Y22100D01*
X138747Y22241D01*
Y22260D01*
Y22307D01*
X138756Y22382D01*
X138766Y22486D01*
X138784Y22598D01*
X138822Y22730D01*
X138860Y22871D01*
X138916Y23012D01*
X138925Y23031D01*
X138944Y23078D01*
X138982Y23153D01*
X139038Y23256D01*
X139113Y23369D01*
X139207Y23510D01*
X139320Y23651D01*
X139452Y23811D01*
X139470Y23830D01*
X139517Y23886D01*
X139564Y23933D01*
X139611Y23980D01*
X139668Y24036D01*
X139743Y24111D01*
X139818Y24187D01*
X139912Y24271D01*
X140006Y24365D01*
X140119Y24469D01*
X140241Y24572D01*
X140373Y24694D01*
X140523Y24816D01*
X140673Y24948D01*
X140683Y24957D01*
X140702Y24976D01*
X140739Y25004D01*
X140786Y25042D01*
X140843Y25098D01*
X140908Y25155D01*
X141059Y25277D01*
X141219Y25418D01*
X141369Y25559D01*
X141500Y25681D01*
X141557Y25728D01*
X141604Y25775D01*
X141613Y25784D01*
X141641Y25812D01*
X141679Y25850D01*
X141726Y25907D01*
X141773Y25972D01*
X141829Y26038D01*
X141942Y26198D01*
X138737D01*
Y26969D01*
X143051D01*
Y26959D01*
D02*
G37*
G36*
X30931Y29866D02*
X31006Y29857D01*
X31081Y29847D01*
X31278Y29810D01*
X31485Y29753D01*
X31701Y29669D01*
X31814Y29612D01*
X31917Y29546D01*
X32011Y29471D01*
X32105Y29387D01*
X32115Y29377D01*
X32124Y29368D01*
X32143Y29330D01*
X32171Y29293D01*
X32209Y29246D01*
X32246Y29180D01*
X32284Y29105D01*
X32331Y29020D01*
X32369Y28926D01*
X32406Y28813D01*
X32444Y28700D01*
X32481Y28569D01*
X32500Y28428D01*
X32528Y28268D01*
X32538Y28108D01*
Y27930D01*
X31758Y27817D01*
Y27826D01*
Y27845D01*
Y27883D01*
X31748Y27939D01*
X31739Y27996D01*
Y28061D01*
X31711Y28221D01*
X31683Y28390D01*
X31626Y28560D01*
X31570Y28710D01*
X31532Y28776D01*
X31485Y28832D01*
X31476Y28842D01*
X31438Y28870D01*
X31382Y28917D01*
X31307Y28964D01*
X31203Y29020D01*
X31090Y29058D01*
X30949Y29095D01*
X30799Y29105D01*
X30743D01*
X30686Y29095D01*
X30602Y29086D01*
X30517Y29067D01*
X30423Y29048D01*
X30329Y29011D01*
X30235Y28964D01*
X30226Y28954D01*
X30198Y28935D01*
X30160Y28898D01*
X30104Y28860D01*
X30057Y28795D01*
X30000Y28729D01*
X29953Y28654D01*
X29916Y28560D01*
Y28550D01*
X29897Y28513D01*
X29887Y28447D01*
X29869Y28362D01*
X29850Y28249D01*
X29841Y28108D01*
X29822Y27939D01*
Y27742D01*
Y23259D01*
X28957D01*
Y27695D01*
Y27704D01*
Y27733D01*
Y27770D01*
Y27826D01*
X28967Y27902D01*
Y27977D01*
X28985Y28155D01*
X29004Y28362D01*
X29042Y28578D01*
X29098Y28776D01*
X29164Y28964D01*
Y28973D01*
X29173Y28983D01*
X29201Y29039D01*
X29248Y29114D01*
X29314Y29217D01*
X29408Y29321D01*
X29511Y29434D01*
X29643Y29546D01*
X29794Y29640D01*
X29812Y29650D01*
X29869Y29678D01*
X29953Y29715D01*
X30075Y29753D01*
X30226Y29800D01*
X30395Y29838D01*
X30583Y29866D01*
X30790Y29875D01*
X30874D01*
X30931Y29866D01*
D02*
G37*
G36*
X25668Y24678D02*
X25677Y24688D01*
X25724Y24725D01*
X25780Y24782D01*
X25875Y24847D01*
X25978Y24932D01*
X26109Y25026D01*
X26260Y25129D01*
X26429Y25233D01*
X26438D01*
X26448Y25242D01*
X26504Y25280D01*
X26598Y25327D01*
X26711Y25383D01*
X26843Y25449D01*
X26983Y25515D01*
X27125Y25580D01*
X27265Y25637D01*
Y24866D01*
X27256D01*
X27237Y24847D01*
X27200Y24838D01*
X27153Y24810D01*
X27096Y24782D01*
X27030Y24744D01*
X26871Y24650D01*
X26683Y24547D01*
X26495Y24415D01*
X26297Y24265D01*
X26100Y24105D01*
X26091Y24095D01*
X26081Y24086D01*
X26053Y24058D01*
X26016Y24030D01*
X25931Y23936D01*
X25818Y23823D01*
X25705Y23691D01*
X25583Y23541D01*
X25480Y23391D01*
X25386Y23231D01*
X24869D01*
Y29762D01*
X25668D01*
Y24678D01*
D02*
G37*
G36*
X124946Y79300D02*
X125830D01*
Y78567D01*
X124946D01*
Y77007D01*
X124148D01*
Y78567D01*
X121319D01*
Y79300D01*
X124298Y83510D01*
X124946D01*
Y79300D01*
D02*
G37*
G36*
X118029Y83500D02*
X118217Y83491D01*
X118406Y83472D01*
X118593Y83444D01*
X118753Y83416D01*
X118763D01*
X118781Y83406D01*
X118810D01*
X118847Y83388D01*
X118951Y83359D01*
X119082Y83313D01*
X119233Y83247D01*
X119392Y83162D01*
X119552Y83068D01*
X119702Y82946D01*
X119712Y82937D01*
X119721Y82927D01*
X119749Y82899D01*
X119787Y82871D01*
X119881Y82777D01*
X119994Y82645D01*
X120116Y82486D01*
X120247Y82298D01*
X120370Y82081D01*
X120473Y81837D01*
Y81828D01*
X120482Y81809D01*
X120501Y81771D01*
X120511Y81715D01*
X120539Y81649D01*
X120558Y81574D01*
X120576Y81489D01*
X120605Y81386D01*
X120633Y81283D01*
X120652Y81160D01*
X120699Y80897D01*
X120727Y80606D01*
X120736Y80286D01*
Y80277D01*
Y80258D01*
Y80211D01*
Y80164D01*
X120727Y80098D01*
Y80023D01*
X120717Y79845D01*
X120689Y79638D01*
X120661Y79422D01*
X120614Y79196D01*
X120558Y78971D01*
Y78961D01*
X120548Y78942D01*
X120539Y78914D01*
X120529Y78877D01*
X120492Y78773D01*
X120435Y78642D01*
X120379Y78491D01*
X120304Y78341D01*
X120210Y78181D01*
X120116Y78031D01*
X120106Y78012D01*
X120069Y77965D01*
X120013Y77899D01*
X119937Y77815D01*
X119853Y77721D01*
X119749Y77627D01*
X119646Y77523D01*
X119524Y77439D01*
X119505Y77429D01*
X119467Y77401D01*
X119402Y77364D01*
X119308Y77317D01*
X119195Y77260D01*
X119063Y77213D01*
X118913Y77157D01*
X118744Y77110D01*
X118725D01*
X118697Y77101D01*
X118669Y77091D01*
X118575Y77082D01*
X118443Y77063D01*
X118293Y77044D01*
X118114Y77025D01*
X117917Y77016D01*
X117701Y77007D01*
X115360D01*
Y83510D01*
X117860D01*
X118029Y83500D01*
D02*
G37*
G36*
X105286Y84037D02*
X105408Y84018D01*
X105559Y83990D01*
X105728Y83943D01*
X105897Y83886D01*
X106066Y83811D01*
X106075D01*
X106085Y83802D01*
X106141Y83774D01*
X106226Y83717D01*
X106320Y83651D01*
X106433Y83557D01*
X106545Y83454D01*
X106658Y83332D01*
X106752Y83191D01*
X106762Y83172D01*
X106790Y83125D01*
X106827Y83041D01*
X106874Y82937D01*
X106921Y82815D01*
X106959Y82674D01*
X106987Y82514D01*
X106996Y82354D01*
Y82336D01*
Y82279D01*
X106987Y82204D01*
X106968Y82101D01*
X106940Y81979D01*
X106893Y81847D01*
X106837Y81715D01*
X106762Y81584D01*
X106752Y81565D01*
X106724Y81527D01*
X106668Y81462D01*
X106592Y81386D01*
X106498Y81302D01*
X106386Y81208D01*
X106254Y81123D01*
X106094Y81039D01*
X106104D01*
X106123Y81029D01*
X106151Y81020D01*
X106188Y81011D01*
X106292Y80973D01*
X106423Y80917D01*
X106574Y80841D01*
X106724Y80747D01*
X106865Y80625D01*
X106996Y80484D01*
X107006Y80465D01*
X107044Y80409D01*
X107100Y80315D01*
X107156Y80193D01*
X107213Y80043D01*
X107269Y79864D01*
X107307Y79657D01*
X107316Y79432D01*
Y79422D01*
Y79394D01*
Y79347D01*
X107307Y79291D01*
X107297Y79215D01*
X107278Y79131D01*
X107260Y79037D01*
X107241Y78934D01*
X107166Y78708D01*
X107109Y78586D01*
X107053Y78473D01*
X106978Y78351D01*
X106893Y78229D01*
X106799Y78107D01*
X106686Y77994D01*
X106677Y77984D01*
X106658Y77966D01*
X106621Y77937D01*
X106574Y77900D01*
X106517Y77853D01*
X106442Y77806D01*
X106357Y77750D01*
X106254Y77702D01*
X106151Y77646D01*
X106028Y77590D01*
X105906Y77543D01*
X105765Y77496D01*
X105615Y77458D01*
X105455Y77430D01*
X105295Y77411D01*
X105117Y77402D01*
X105032D01*
X104976Y77411D01*
X104901Y77421D01*
X104816Y77430D01*
X104722Y77449D01*
X104619Y77467D01*
X104393Y77524D01*
X104158Y77618D01*
X104036Y77674D01*
X103923Y77740D01*
X103811Y77825D01*
X103698Y77909D01*
X103688Y77919D01*
X103670Y77937D01*
X103641Y77966D01*
X103613Y78003D01*
X103566Y78050D01*
X103519Y78116D01*
X103463Y78182D01*
X103406Y78266D01*
X103350Y78360D01*
X103294Y78454D01*
X103190Y78680D01*
X103106Y78943D01*
X103078Y79084D01*
X103059Y79234D01*
X103858Y79338D01*
Y79328D01*
X103867Y79310D01*
X103876Y79272D01*
X103886Y79225D01*
X103895Y79169D01*
X103914Y79103D01*
X103961Y78962D01*
X104027Y78793D01*
X104111Y78633D01*
X104205Y78482D01*
X104318Y78351D01*
X104337Y78341D01*
X104375Y78304D01*
X104450Y78257D01*
X104544Y78210D01*
X104656Y78154D01*
X104797Y78107D01*
X104957Y78069D01*
X105126Y78060D01*
X105183D01*
X105220Y78069D01*
X105324Y78078D01*
X105455Y78107D01*
X105606Y78154D01*
X105765Y78219D01*
X105925Y78313D01*
X106075Y78445D01*
X106094Y78464D01*
X106141Y78520D01*
X106198Y78605D01*
X106273Y78717D01*
X106348Y78858D01*
X106404Y79018D01*
X106452Y79206D01*
X106470Y79413D01*
Y79422D01*
Y79441D01*
Y79469D01*
X106461Y79507D01*
X106452Y79610D01*
X106423Y79732D01*
X106386Y79883D01*
X106320Y80033D01*
X106226Y80183D01*
X106104Y80324D01*
X106085Y80343D01*
X106038Y80381D01*
X105963Y80437D01*
X105859Y80503D01*
X105728Y80569D01*
X105568Y80625D01*
X105389Y80663D01*
X105192Y80682D01*
X105107D01*
X105042Y80672D01*
X104957Y80663D01*
X104863Y80644D01*
X104750Y80625D01*
X104628Y80597D01*
X104722Y81302D01*
X104769D01*
X104807Y81292D01*
X104929D01*
X105032Y81311D01*
X105154Y81330D01*
X105295Y81358D01*
X105455Y81405D01*
X105606Y81471D01*
X105765Y81556D01*
X105775D01*
X105784Y81565D01*
X105831Y81603D01*
X105897Y81668D01*
X105972Y81753D01*
X106047Y81875D01*
X106113Y82016D01*
X106160Y82176D01*
X106179Y82270D01*
Y82373D01*
Y82383D01*
Y82392D01*
Y82449D01*
X106160Y82524D01*
X106141Y82627D01*
X106104Y82740D01*
X106057Y82862D01*
X105982Y82984D01*
X105878Y83097D01*
X105869Y83106D01*
X105822Y83144D01*
X105756Y83191D01*
X105671Y83247D01*
X105559Y83294D01*
X105427Y83341D01*
X105277Y83379D01*
X105107Y83388D01*
X105032D01*
X104948Y83370D01*
X104835Y83351D01*
X104713Y83313D01*
X104591Y83266D01*
X104459Y83191D01*
X104337Y83097D01*
X104327Y83088D01*
X104290Y83041D01*
X104234Y82975D01*
X104168Y82881D01*
X104102Y82759D01*
X104036Y82608D01*
X103980Y82430D01*
X103942Y82223D01*
X103143Y82364D01*
Y82373D01*
X103153Y82402D01*
X103162Y82439D01*
X103172Y82495D01*
X103190Y82561D01*
X103218Y82636D01*
X103275Y82815D01*
X103369Y83022D01*
X103482Y83229D01*
X103623Y83426D01*
X103801Y83604D01*
X103811Y83614D01*
X103829Y83623D01*
X103858Y83642D01*
X103895Y83670D01*
X103942Y83708D01*
X104008Y83745D01*
X104074Y83783D01*
X104158Y83830D01*
X104346Y83905D01*
X104563Y83980D01*
X104816Y84027D01*
X104948Y84046D01*
X105183D01*
X105286Y84037D01*
D02*
G37*
G36*
X99487Y84009D02*
X99676Y83999D01*
X99864Y83980D01*
X100051Y83952D01*
X100211Y83924D01*
X100221D01*
X100239Y83914D01*
X100268D01*
X100305Y83896D01*
X100408Y83868D01*
X100540Y83821D01*
X100690Y83755D01*
X100850Y83670D01*
X101010Y83576D01*
X101160Y83454D01*
X101170Y83445D01*
X101179Y83435D01*
X101207Y83407D01*
X101245Y83379D01*
X101339Y83285D01*
X101452Y83153D01*
X101574Y82993D01*
X101706Y82806D01*
X101828Y82589D01*
X101931Y82345D01*
Y82336D01*
X101940Y82317D01*
X101959Y82279D01*
X101969Y82223D01*
X101997Y82157D01*
X102016Y82082D01*
X102034Y81997D01*
X102063Y81894D01*
X102091Y81791D01*
X102110Y81668D01*
X102157Y81405D01*
X102185Y81114D01*
X102194Y80794D01*
Y80785D01*
Y80766D01*
Y80719D01*
Y80672D01*
X102185Y80606D01*
Y80531D01*
X102175Y80353D01*
X102147Y80146D01*
X102119Y79930D01*
X102072Y79704D01*
X102016Y79479D01*
Y79469D01*
X102006Y79450D01*
X101997Y79422D01*
X101987Y79385D01*
X101950Y79281D01*
X101893Y79150D01*
X101837Y78999D01*
X101762Y78849D01*
X101668Y78689D01*
X101574Y78539D01*
X101565Y78520D01*
X101527Y78473D01*
X101470Y78407D01*
X101395Y78323D01*
X101311Y78229D01*
X101207Y78135D01*
X101104Y78031D01*
X100982Y77947D01*
X100963Y77937D01*
X100925Y77909D01*
X100860Y77872D01*
X100766Y77825D01*
X100653Y77768D01*
X100521Y77721D01*
X100371Y77665D01*
X100202Y77618D01*
X100183D01*
X100155Y77608D01*
X100127Y77599D01*
X100033Y77590D01*
X99901Y77571D01*
X99751Y77552D01*
X99572Y77533D01*
X99375Y77524D01*
X99159Y77515D01*
X96819D01*
Y84018D01*
X99318D01*
X99487Y84009D01*
D02*
G37*
G36*
X71325Y83275D02*
X71400Y83265D01*
X71494Y83256D01*
X71598Y83237D01*
X71701Y83218D01*
X71946Y83153D01*
X72190Y83059D01*
X72312Y83002D01*
X72434Y82936D01*
X72547Y82852D01*
X72650Y82758D01*
X72660Y82748D01*
X72679Y82739D01*
X72697Y82701D01*
X72735Y82664D01*
X72782Y82617D01*
X72829Y82551D01*
X72876Y82485D01*
X72932Y82401D01*
X73026Y82222D01*
X73120Y81997D01*
X73158Y81884D01*
X73177Y81752D01*
X73196Y81621D01*
X73205Y81480D01*
Y81461D01*
Y81414D01*
X73196Y81339D01*
X73186Y81235D01*
X73167Y81123D01*
X73130Y80991D01*
X73092Y80850D01*
X73036Y80709D01*
X73026Y80690D01*
X73007Y80643D01*
X72970Y80568D01*
X72913Y80465D01*
X72838Y80352D01*
X72744Y80211D01*
X72632Y80070D01*
X72500Y79910D01*
X72481Y79891D01*
X72434Y79835D01*
X72387Y79788D01*
X72340Y79741D01*
X72284Y79685D01*
X72209Y79609D01*
X72133Y79534D01*
X72039Y79450D01*
X71946Y79356D01*
X71833Y79252D01*
X71711Y79149D01*
X71579Y79027D01*
X71429Y78905D01*
X71278Y78773D01*
X71269Y78764D01*
X71250Y78745D01*
X71213Y78717D01*
X71165Y78679D01*
X71109Y78623D01*
X71043Y78566D01*
X70893Y78444D01*
X70733Y78303D01*
X70583Y78162D01*
X70451Y78040D01*
X70395Y77993D01*
X70348Y77946D01*
X70339Y77937D01*
X70310Y77909D01*
X70273Y77871D01*
X70226Y77814D01*
X70179Y77749D01*
X70122Y77683D01*
X70010Y77523D01*
X73214D01*
Y76753D01*
X68901D01*
Y76762D01*
Y76800D01*
Y76856D01*
X68910Y76931D01*
X68919Y77016D01*
X68938Y77110D01*
X68957Y77204D01*
X68995Y77307D01*
Y77316D01*
X69004Y77326D01*
X69023Y77382D01*
X69060Y77467D01*
X69117Y77579D01*
X69192Y77711D01*
X69286Y77861D01*
X69389Y78012D01*
X69521Y78172D01*
Y78181D01*
X69540Y78190D01*
X69587Y78247D01*
X69671Y78331D01*
X69793Y78453D01*
X69934Y78594D01*
X70113Y78764D01*
X70329Y78952D01*
X70564Y79149D01*
X70573Y79158D01*
X70611Y79187D01*
X70667Y79234D01*
X70733Y79290D01*
X70818Y79365D01*
X70921Y79450D01*
X71024Y79544D01*
X71147Y79647D01*
X71382Y79873D01*
X71617Y80098D01*
X71729Y80211D01*
X71833Y80324D01*
X71927Y80427D01*
X72002Y80531D01*
Y80540D01*
X72021Y80549D01*
X72039Y80577D01*
X72058Y80615D01*
X72124Y80718D01*
X72199Y80841D01*
X72265Y80991D01*
X72331Y81151D01*
X72368Y81329D01*
X72387Y81498D01*
Y81508D01*
Y81517D01*
X72378Y81574D01*
X72368Y81668D01*
X72340Y81771D01*
X72303Y81903D01*
X72237Y82034D01*
X72152Y82166D01*
X72039Y82297D01*
X72021Y82316D01*
X71974Y82354D01*
X71908Y82401D01*
X71805Y82466D01*
X71673Y82523D01*
X71523Y82579D01*
X71344Y82617D01*
X71147Y82626D01*
X71090D01*
X71053Y82617D01*
X70940Y82607D01*
X70808Y82579D01*
X70667Y82542D01*
X70508Y82476D01*
X70357Y82391D01*
X70216Y82278D01*
X70198Y82260D01*
X70160Y82213D01*
X70104Y82138D01*
X70047Y82025D01*
X69981Y81893D01*
X69925Y81724D01*
X69887Y81536D01*
X69869Y81320D01*
X69051Y81404D01*
Y81414D01*
X69060Y81442D01*
Y81489D01*
X69070Y81555D01*
X69089Y81630D01*
X69107Y81715D01*
X69135Y81818D01*
X69164Y81921D01*
X69239Y82147D01*
X69352Y82373D01*
X69418Y82485D01*
X69502Y82598D01*
X69587Y82701D01*
X69681Y82795D01*
X69690Y82805D01*
X69709Y82814D01*
X69737Y82842D01*
X69784Y82871D01*
X69840Y82908D01*
X69906Y82946D01*
X69981Y82993D01*
X70075Y83040D01*
X70179Y83087D01*
X70292Y83134D01*
X70414Y83171D01*
X70545Y83209D01*
X70686Y83237D01*
X70837Y83265D01*
X70996Y83275D01*
X71165Y83284D01*
X71259D01*
X71325Y83275D01*
D02*
G37*
G36*
X65451Y83246D02*
X65640Y83237D01*
X65827Y83218D01*
X66015Y83190D01*
X66175Y83162D01*
X66185D01*
X66203Y83153D01*
X66232D01*
X66269Y83134D01*
X66372Y83105D01*
X66504Y83059D01*
X66655Y82993D01*
X66814Y82908D01*
X66974Y82814D01*
X67124Y82692D01*
X67134Y82683D01*
X67143Y82673D01*
X67171Y82645D01*
X67209Y82617D01*
X67303Y82523D01*
X67416Y82391D01*
X67538Y82232D01*
X67670Y82044D01*
X67792Y81827D01*
X67895Y81583D01*
Y81574D01*
X67904Y81555D01*
X67923Y81517D01*
X67933Y81461D01*
X67961Y81395D01*
X67980Y81320D01*
X67998Y81235D01*
X68027Y81132D01*
X68055Y81029D01*
X68074Y80906D01*
X68121Y80643D01*
X68149Y80352D01*
X68158Y80032D01*
Y80023D01*
Y80004D01*
Y79957D01*
Y79910D01*
X68149Y79844D01*
Y79769D01*
X68139Y79591D01*
X68111Y79384D01*
X68083Y79168D01*
X68036Y78942D01*
X67980Y78717D01*
Y78707D01*
X67970Y78689D01*
X67961Y78660D01*
X67951Y78623D01*
X67914Y78519D01*
X67857Y78388D01*
X67801Y78237D01*
X67726Y78087D01*
X67632Y77927D01*
X67538Y77777D01*
X67529Y77758D01*
X67491Y77711D01*
X67435Y77645D01*
X67359Y77561D01*
X67275Y77467D01*
X67171Y77373D01*
X67068Y77269D01*
X66946Y77185D01*
X66927Y77175D01*
X66889Y77147D01*
X66824Y77110D01*
X66730Y77063D01*
X66617Y77006D01*
X66485Y76959D01*
X66335Y76903D01*
X66166Y76856D01*
X66147D01*
X66119Y76846D01*
X66091Y76837D01*
X65997Y76828D01*
X65865Y76809D01*
X65715Y76790D01*
X65536Y76771D01*
X65339Y76762D01*
X65123Y76753D01*
X62783D01*
Y83256D01*
X65282D01*
X65451Y83246D01*
D02*
G37*
G36*
X52463Y77515D02*
X51664D01*
Y82599D01*
X51655Y82589D01*
X51607Y82552D01*
X51551Y82495D01*
X51457Y82430D01*
X51354Y82345D01*
X51222Y82251D01*
X51072Y82148D01*
X50903Y82044D01*
X50893D01*
X50884Y82035D01*
X50827Y81997D01*
X50733Y81950D01*
X50621Y81894D01*
X50489Y81828D01*
X50348Y81762D01*
X50207Y81697D01*
X50066Y81640D01*
Y82411D01*
X50076D01*
X50094Y82430D01*
X50132Y82439D01*
X50179Y82467D01*
X50235Y82495D01*
X50301Y82533D01*
X50461Y82627D01*
X50649Y82730D01*
X50837Y82862D01*
X51034Y83012D01*
X51232Y83172D01*
X51241Y83181D01*
X51250Y83191D01*
X51279Y83219D01*
X51316Y83247D01*
X51401Y83341D01*
X51514Y83454D01*
X51626Y83586D01*
X51748Y83736D01*
X51852Y83886D01*
X51946Y84046D01*
X52463D01*
Y77515D01*
D02*
G37*
G36*
X45894Y84009D02*
X46082Y83999D01*
X46269Y83980D01*
X46457Y83952D01*
X46617Y83924D01*
X46627D01*
X46645Y83914D01*
X46674D01*
X46711Y83896D01*
X46814Y83868D01*
X46946Y83821D01*
X47097Y83755D01*
X47256Y83670D01*
X47416Y83576D01*
X47566Y83454D01*
X47576Y83445D01*
X47585Y83435D01*
X47613Y83407D01*
X47651Y83379D01*
X47745Y83285D01*
X47858Y83153D01*
X47980Y82993D01*
X48112Y82806D01*
X48234Y82589D01*
X48337Y82345D01*
Y82336D01*
X48346Y82317D01*
X48365Y82279D01*
X48375Y82223D01*
X48403Y82157D01*
X48422Y82082D01*
X48440Y81997D01*
X48469Y81894D01*
X48497Y81791D01*
X48516Y81668D01*
X48563Y81405D01*
X48591Y81114D01*
X48600Y80794D01*
Y80785D01*
Y80766D01*
Y80719D01*
Y80672D01*
X48591Y80606D01*
Y80531D01*
X48581Y80353D01*
X48553Y80146D01*
X48525Y79930D01*
X48478Y79704D01*
X48422Y79479D01*
Y79469D01*
X48412Y79450D01*
X48403Y79422D01*
X48393Y79385D01*
X48356Y79281D01*
X48299Y79150D01*
X48243Y78999D01*
X48168Y78849D01*
X48074Y78689D01*
X47980Y78539D01*
X47970Y78520D01*
X47933Y78473D01*
X47877Y78407D01*
X47801Y78323D01*
X47717Y78229D01*
X47613Y78135D01*
X47510Y78031D01*
X47388Y77947D01*
X47369Y77937D01*
X47331Y77909D01*
X47266Y77872D01*
X47172Y77825D01*
X47059Y77768D01*
X46927Y77721D01*
X46777Y77665D01*
X46608Y77618D01*
X46589D01*
X46561Y77608D01*
X46533Y77599D01*
X46439Y77590D01*
X46307Y77571D01*
X46157Y77552D01*
X45978Y77533D01*
X45781Y77524D01*
X45565Y77515D01*
X43225D01*
Y84018D01*
X45724D01*
X45894Y84009D01*
D02*
G37*
G36*
X58630Y343443D02*
X58724D01*
X58818Y343434D01*
X58941Y343424D01*
X59063Y343405D01*
X59335Y343358D01*
X59636Y343293D01*
X59937Y343199D01*
X60228Y343067D01*
X60237Y343058D01*
X60266Y343048D01*
X60303Y343030D01*
X60350Y342992D01*
X60416Y342954D01*
X60491Y342907D01*
X60660Y342785D01*
X60848Y342626D01*
X61036Y342438D01*
X61224Y342221D01*
X61384Y341968D01*
X61393Y341958D01*
X61403Y341930D01*
X61422Y341892D01*
X61450Y341845D01*
X61478Y341770D01*
X61506Y341695D01*
X61544Y341601D01*
X61581Y341498D01*
X61619Y341385D01*
X61656Y341263D01*
X61713Y341000D01*
X61760Y340699D01*
X61779Y340389D01*
Y340295D01*
X61769Y340229D01*
X61760Y340144D01*
X61750Y340041D01*
X61741Y339938D01*
X61713Y339815D01*
X61656Y339562D01*
X61572Y339280D01*
X61515Y339139D01*
X61450Y339007D01*
X61365Y338876D01*
X61281Y338744D01*
X61271Y338735D01*
X61262Y338716D01*
X61234Y338678D01*
X61187Y338631D01*
X61140Y338584D01*
X61074Y338519D01*
X60999Y338453D01*
X60924Y338378D01*
X60830Y338302D01*
X60717Y338227D01*
X60604Y338143D01*
X60482Y338067D01*
X60341Y338002D01*
X60200Y337926D01*
X60050Y337870D01*
X59880Y337814D01*
X59683Y338660D01*
X59692D01*
X59711Y338669D01*
X59749Y338688D01*
X59796Y338707D01*
X59852Y338725D01*
X59927Y338754D01*
X60078Y338829D01*
X60247Y338923D01*
X60416Y339035D01*
X60576Y339176D01*
X60717Y339327D01*
X60736Y339346D01*
X60773Y339402D01*
X60820Y339496D01*
X60886Y339618D01*
X60942Y339778D01*
X60999Y339956D01*
X61036Y340173D01*
X61046Y340407D01*
Y340483D01*
X61036Y340530D01*
Y340596D01*
X61027Y340671D01*
X60999Y340849D01*
X60961Y341047D01*
X60895Y341253D01*
X60801Y341469D01*
X60679Y341667D01*
Y341676D01*
X60660Y341686D01*
X60613Y341752D01*
X60538Y341836D01*
X60425Y341939D01*
X60284Y342062D01*
X60125Y342174D01*
X59927Y342278D01*
X59711Y342372D01*
X59702D01*
X59683Y342381D01*
X59655Y342391D01*
X59608Y342400D01*
X59551Y342419D01*
X59486Y342438D01*
X59326Y342466D01*
X59138Y342503D01*
X58931Y342541D01*
X58706Y342560D01*
X58461Y342569D01*
X58452D01*
X58424D01*
X58377D01*
X58320D01*
X58254Y342560D01*
X58170D01*
X58076Y342550D01*
X57972Y342541D01*
X57747Y342513D01*
X57503Y342466D01*
X57258Y342409D01*
X57014Y342334D01*
X57004D01*
X56986Y342325D01*
X56958Y342306D01*
X56911Y342287D01*
X56798Y342231D01*
X56666Y342146D01*
X56516Y342043D01*
X56356Y341911D01*
X56215Y341761D01*
X56083Y341582D01*
Y341573D01*
X56074Y341554D01*
X56055Y341526D01*
X56037Y341488D01*
X56018Y341441D01*
X55989Y341385D01*
X55933Y341253D01*
X55877Y341084D01*
X55830Y340896D01*
X55792Y340690D01*
X55783Y340473D01*
Y340407D01*
X55792Y340351D01*
Y340285D01*
X55802Y340220D01*
X55839Y340050D01*
X55886Y339853D01*
X55961Y339656D01*
X56065Y339449D01*
X56121Y339346D01*
X56196Y339252D01*
X56206Y339242D01*
X56215Y339233D01*
X56243Y339205D01*
X56272Y339167D01*
X56318Y339129D01*
X56375Y339082D01*
X56431Y339026D01*
X56506Y338979D01*
X56591Y338923D01*
X56685Y338857D01*
X56779Y338801D01*
X56892Y338744D01*
X57014Y338697D01*
X57146Y338650D01*
X57286Y338603D01*
X57437Y338565D01*
X57221Y337701D01*
X57211D01*
X57174Y337710D01*
X57117Y337729D01*
X57042Y337757D01*
X56958Y337785D01*
X56854Y337823D01*
X56741Y337870D01*
X56619Y337926D01*
X56356Y338058D01*
X56093Y338227D01*
X55961Y338331D01*
X55830Y338434D01*
X55717Y338547D01*
X55604Y338678D01*
X55595Y338688D01*
X55576Y338707D01*
X55557Y338754D01*
X55520Y338801D01*
X55473Y338876D01*
X55426Y338951D01*
X55379Y339054D01*
X55332Y339158D01*
X55275Y339280D01*
X55228Y339411D01*
X55181Y339552D01*
X55134Y339703D01*
X55097Y339863D01*
X55078Y340032D01*
X55059Y340210D01*
X55050Y340398D01*
Y340502D01*
X55059Y340577D01*
Y340661D01*
X55068Y340765D01*
X55087Y340877D01*
X55106Y341009D01*
X55153Y341282D01*
X55228Y341563D01*
X55332Y341845D01*
X55398Y341977D01*
X55473Y342109D01*
X55482Y342118D01*
X55491Y342137D01*
X55520Y342174D01*
X55557Y342212D01*
X55595Y342268D01*
X55651Y342334D01*
X55717Y342409D01*
X55792Y342485D01*
X55877Y342560D01*
X55961Y342644D01*
X56178Y342813D01*
X56431Y342973D01*
X56713Y343114D01*
X56723D01*
X56751Y343133D01*
X56798Y343142D01*
X56854Y343171D01*
X56929Y343189D01*
X57023Y343218D01*
X57127Y343255D01*
X57239Y343283D01*
X57362Y343312D01*
X57503Y343349D01*
X57794Y343396D01*
X58123Y343434D01*
X58461Y343452D01*
X58471D01*
X58508D01*
X58565D01*
X58630Y343443D01*
D02*
G37*
G36*
X60059Y336348D02*
X60078Y336329D01*
X60087Y336291D01*
X60115Y336244D01*
X60143Y336188D01*
X60181Y336122D01*
X60275Y335962D01*
X60378Y335774D01*
X60510Y335586D01*
X60660Y335389D01*
X60820Y335192D01*
X60830Y335182D01*
X60839Y335173D01*
X60867Y335145D01*
X60895Y335107D01*
X60989Y335023D01*
X61102Y334910D01*
X61234Y334797D01*
X61384Y334675D01*
X61534Y334571D01*
X61694Y334477D01*
Y333960D01*
X55163D01*
Y334759D01*
X60247D01*
X60237Y334769D01*
X60200Y334816D01*
X60143Y334872D01*
X60078Y334966D01*
X59993Y335070D01*
X59899Y335201D01*
X59796Y335351D01*
X59692Y335521D01*
Y335530D01*
X59683Y335539D01*
X59645Y335596D01*
X59598Y335690D01*
X59542Y335802D01*
X59476Y335934D01*
X59410Y336075D01*
X59345Y336216D01*
X59288Y336357D01*
X60059D01*
Y336348D01*
D02*
G37*
G36*
X58659Y331902D02*
X58771D01*
X58893Y331893D01*
X59035Y331884D01*
X59326Y331855D01*
X59636Y331808D01*
X59946Y331752D01*
X60087Y331714D01*
X60228Y331677D01*
X60237D01*
X60256Y331667D01*
X60294Y331649D01*
X60341Y331630D01*
X60407Y331611D01*
X60472Y331573D01*
X60632Y331498D01*
X60801Y331404D01*
X60980Y331282D01*
X61158Y331141D01*
X61309Y330972D01*
Y330963D01*
X61328Y330953D01*
X61346Y330925D01*
X61365Y330887D01*
X61403Y330840D01*
X61431Y330784D01*
X61506Y330643D01*
X61572Y330474D01*
X61638Y330276D01*
X61675Y330042D01*
X61694Y329788D01*
Y329703D01*
X61685Y329600D01*
X61666Y329478D01*
X61638Y329337D01*
X61600Y329186D01*
X61553Y329027D01*
X61478Y328876D01*
Y328867D01*
X61469Y328857D01*
X61440Y328810D01*
X61393Y328735D01*
X61328Y328641D01*
X61234Y328538D01*
X61130Y328425D01*
X61008Y328322D01*
X60867Y328218D01*
X60848Y328209D01*
X60801Y328171D01*
X60717Y328134D01*
X60595Y328068D01*
X60454Y328012D01*
X60294Y327936D01*
X60106Y327871D01*
X59899Y327814D01*
X59890D01*
X59871Y327805D01*
X59843Y327795D01*
X59796Y327786D01*
X59739Y327777D01*
X59674Y327767D01*
X59589Y327748D01*
X59495Y327739D01*
X59392Y327720D01*
X59279Y327711D01*
X59147Y327701D01*
X59016Y327683D01*
X58865Y327673D01*
X58715D01*
X58546Y327664D01*
X58367D01*
X58358D01*
X58320D01*
X58254D01*
X58179D01*
X58076Y327673D01*
X57963D01*
X57841Y327683D01*
X57709Y327692D01*
X57409Y327720D01*
X57098Y327767D01*
X56798Y327824D01*
X56657Y327861D01*
X56516Y327908D01*
X56506D01*
X56488Y327918D01*
X56450Y327936D01*
X56403Y327955D01*
X56337Y327974D01*
X56272Y328012D01*
X56112Y328087D01*
X55943Y328181D01*
X55755Y328303D01*
X55585Y328444D01*
X55426Y328613D01*
Y328623D01*
X55407Y328632D01*
X55388Y328660D01*
X55369Y328698D01*
X55341Y328745D01*
X55304Y328792D01*
X55238Y328933D01*
X55172Y329102D01*
X55106Y329299D01*
X55068Y329534D01*
X55050Y329788D01*
Y329882D01*
X55059Y329948D01*
X55068Y330023D01*
X55087Y330117D01*
X55106Y330220D01*
X55134Y330333D01*
X55172Y330446D01*
X55209Y330568D01*
X55266Y330690D01*
X55332Y330812D01*
X55407Y330934D01*
X55501Y331057D01*
X55604Y331169D01*
X55717Y331273D01*
X55726Y331282D01*
X55755Y331301D01*
X55802Y331329D01*
X55877Y331376D01*
X55961Y331423D01*
X56074Y331470D01*
X56206Y331536D01*
X56356Y331592D01*
X56525Y331649D01*
X56723Y331705D01*
X56939Y331761D01*
X57183Y331808D01*
X57446Y331855D01*
X57728Y331884D01*
X58038Y331902D01*
X58367Y331912D01*
X58377D01*
X58414D01*
X58480D01*
X58555D01*
X58659Y331902D01*
D02*
G37*
G36*
X78950Y340903D02*
X79044D01*
X79138Y340894D01*
X79261Y340884D01*
X79383Y340866D01*
X79655Y340818D01*
X79956Y340753D01*
X80257Y340659D01*
X80548Y340527D01*
X80557Y340518D01*
X80586Y340508D01*
X80623Y340490D01*
X80670Y340452D01*
X80736Y340414D01*
X80811Y340367D01*
X80980Y340245D01*
X81168Y340085D01*
X81356Y339897D01*
X81544Y339681D01*
X81704Y339428D01*
X81713Y339418D01*
X81723Y339390D01*
X81742Y339352D01*
X81770Y339305D01*
X81798Y339230D01*
X81826Y339155D01*
X81864Y339061D01*
X81901Y338958D01*
X81939Y338845D01*
X81976Y338723D01*
X82033Y338460D01*
X82080Y338159D01*
X82099Y337849D01*
Y337755D01*
X82089Y337689D01*
X82080Y337604D01*
X82071Y337501D01*
X82061Y337398D01*
X82033Y337276D01*
X81976Y337022D01*
X81892Y336740D01*
X81835Y336599D01*
X81770Y336467D01*
X81685Y336336D01*
X81601Y336204D01*
X81591Y336195D01*
X81582Y336176D01*
X81554Y336138D01*
X81507Y336091D01*
X81460Y336044D01*
X81394Y335979D01*
X81319Y335913D01*
X81243Y335838D01*
X81150Y335762D01*
X81037Y335687D01*
X80924Y335603D01*
X80802Y335527D01*
X80661Y335462D01*
X80520Y335387D01*
X80370Y335330D01*
X80200Y335274D01*
X80003Y336119D01*
X80012D01*
X80031Y336129D01*
X80069Y336148D01*
X80116Y336166D01*
X80172Y336185D01*
X80247Y336213D01*
X80398Y336289D01*
X80567Y336383D01*
X80736Y336495D01*
X80896Y336636D01*
X81037Y336787D01*
X81055Y336806D01*
X81093Y336862D01*
X81140Y336956D01*
X81206Y337078D01*
X81262Y337238D01*
X81319Y337416D01*
X81356Y337633D01*
X81366Y337868D01*
Y337943D01*
X81356Y337990D01*
Y338055D01*
X81347Y338131D01*
X81319Y338309D01*
X81281Y338507D01*
X81215Y338713D01*
X81121Y338929D01*
X80999Y339127D01*
Y339136D01*
X80980Y339146D01*
X80933Y339212D01*
X80858Y339296D01*
X80745Y339399D01*
X80604Y339522D01*
X80445Y339634D01*
X80247Y339738D01*
X80031Y339832D01*
X80022D01*
X80003Y339841D01*
X79975Y339851D01*
X79928Y339860D01*
X79871Y339879D01*
X79806Y339897D01*
X79646Y339926D01*
X79458Y339963D01*
X79251Y340001D01*
X79026Y340020D01*
X78781Y340029D01*
X78772D01*
X78744D01*
X78697D01*
X78640D01*
X78574Y340020D01*
X78490D01*
X78396Y340010D01*
X78292Y340001D01*
X78067Y339973D01*
X77823Y339926D01*
X77578Y339869D01*
X77334Y339794D01*
X77325D01*
X77306Y339785D01*
X77277Y339766D01*
X77231Y339747D01*
X77118Y339691D01*
X76986Y339606D01*
X76836Y339503D01*
X76676Y339371D01*
X76535Y339221D01*
X76403Y339042D01*
Y339033D01*
X76394Y339014D01*
X76375Y338986D01*
X76357Y338948D01*
X76338Y338901D01*
X76309Y338845D01*
X76253Y338713D01*
X76197Y338544D01*
X76150Y338356D01*
X76112Y338149D01*
X76103Y337933D01*
Y337868D01*
X76112Y337811D01*
Y337745D01*
X76122Y337680D01*
X76159Y337510D01*
X76206Y337313D01*
X76281Y337116D01*
X76385Y336909D01*
X76441Y336806D01*
X76516Y336712D01*
X76526Y336702D01*
X76535Y336693D01*
X76563Y336665D01*
X76592Y336627D01*
X76638Y336589D01*
X76695Y336542D01*
X76751Y336486D01*
X76826Y336439D01*
X76911Y336383D01*
X77005Y336317D01*
X77099Y336260D01*
X77212Y336204D01*
X77334Y336157D01*
X77466Y336110D01*
X77606Y336063D01*
X77757Y336026D01*
X77541Y335161D01*
X77531D01*
X77494Y335170D01*
X77437Y335189D01*
X77362Y335217D01*
X77277Y335246D01*
X77174Y335283D01*
X77061Y335330D01*
X76939Y335387D01*
X76676Y335518D01*
X76413Y335687D01*
X76281Y335791D01*
X76150Y335894D01*
X76037Y336007D01*
X75924Y336138D01*
X75915Y336148D01*
X75896Y336166D01*
X75877Y336213D01*
X75840Y336260D01*
X75793Y336336D01*
X75746Y336411D01*
X75699Y336514D01*
X75652Y336618D01*
X75595Y336740D01*
X75548Y336871D01*
X75501Y337012D01*
X75454Y337163D01*
X75417Y337323D01*
X75398Y337492D01*
X75379Y337670D01*
X75370Y337858D01*
Y337962D01*
X75379Y338037D01*
Y338121D01*
X75388Y338225D01*
X75407Y338337D01*
X75426Y338469D01*
X75473Y338742D01*
X75548Y339024D01*
X75652Y339305D01*
X75718Y339437D01*
X75793Y339569D01*
X75802Y339578D01*
X75811Y339597D01*
X75840Y339634D01*
X75877Y339672D01*
X75915Y339728D01*
X75971Y339794D01*
X76037Y339869D01*
X76112Y339944D01*
X76197Y340020D01*
X76281Y340104D01*
X76498Y340273D01*
X76751Y340433D01*
X77033Y340574D01*
X77043D01*
X77071Y340593D01*
X77118Y340602D01*
X77174Y340631D01*
X77249Y340649D01*
X77343Y340678D01*
X77447Y340715D01*
X77559Y340743D01*
X77682Y340771D01*
X77823Y340809D01*
X78114Y340856D01*
X78443Y340894D01*
X78781Y340913D01*
X78791D01*
X78828D01*
X78885D01*
X78950Y340903D01*
D02*
G37*
G36*
X79975Y334418D02*
X80059Y334409D01*
X80163Y334400D01*
X80266Y334381D01*
X80388Y334353D01*
X80633Y334287D01*
X80764Y334240D01*
X80905Y334184D01*
X81037Y334118D01*
X81159Y334033D01*
X81291Y333949D01*
X81403Y333845D01*
X81413Y333836D01*
X81431Y333817D01*
X81460Y333789D01*
X81497Y333742D01*
X81544Y333685D01*
X81601Y333610D01*
X81648Y333535D01*
X81713Y333441D01*
X81770Y333347D01*
X81817Y333234D01*
X81920Y332981D01*
X81958Y332849D01*
X81986Y332699D01*
X82005Y332548D01*
X82014Y332388D01*
Y332323D01*
X82005Y332276D01*
Y332229D01*
X81995Y332163D01*
X81967Y332003D01*
X81930Y331825D01*
X81864Y331627D01*
X81779Y331430D01*
X81666Y331233D01*
Y331223D01*
X81648Y331214D01*
X81629Y331186D01*
X81601Y331148D01*
X81525Y331054D01*
X81422Y330932D01*
X81281Y330810D01*
X81112Y330669D01*
X80914Y330546D01*
X80689Y330434D01*
X80680D01*
X80661Y330424D01*
X80623Y330406D01*
X80576Y330387D01*
X80510Y330368D01*
X80426Y330340D01*
X80332Y330321D01*
X80229Y330293D01*
X80106Y330265D01*
X79965Y330236D01*
X79815Y330218D01*
X79655Y330199D01*
X79477Y330180D01*
X79289Y330161D01*
X79082Y330152D01*
X78866D01*
X78856D01*
X78809D01*
X78744D01*
X78659D01*
X78556Y330161D01*
X78433D01*
X78292Y330171D01*
X78151Y330189D01*
X77832Y330218D01*
X77494Y330265D01*
X77174Y330330D01*
X77014Y330377D01*
X76873Y330424D01*
X76864D01*
X76845Y330434D01*
X76808Y330452D01*
X76751Y330471D01*
X76695Y330499D01*
X76620Y330537D01*
X76460Y330631D01*
X76281Y330744D01*
X76093Y330875D01*
X75915Y331045D01*
X75755Y331233D01*
Y331242D01*
X75736Y331261D01*
X75718Y331289D01*
X75699Y331326D01*
X75670Y331383D01*
X75633Y331439D01*
X75595Y331515D01*
X75567Y331590D01*
X75492Y331768D01*
X75426Y331984D01*
X75388Y332219D01*
X75370Y332482D01*
Y332558D01*
X75379Y332605D01*
Y332671D01*
X75388Y332746D01*
X75426Y332924D01*
X75473Y333122D01*
X75548Y333328D01*
X75652Y333535D01*
X75718Y333638D01*
X75793Y333732D01*
X75802Y333742D01*
X75811Y333751D01*
X75840Y333779D01*
X75868Y333808D01*
X75915Y333845D01*
X75971Y333892D01*
X76103Y333986D01*
X76272Y334080D01*
X76479Y334174D01*
X76714Y334249D01*
X76986Y334306D01*
X77052Y333535D01*
X77043D01*
X77024Y333526D01*
X77005D01*
X76967Y333516D01*
X76864Y333488D01*
X76751Y333451D01*
X76620Y333404D01*
X76488Y333338D01*
X76366Y333262D01*
X76262Y333168D01*
X76253Y333159D01*
X76225Y333122D01*
X76187Y333056D01*
X76150Y332981D01*
X76103Y332877D01*
X76065Y332755D01*
X76037Y332614D01*
X76028Y332464D01*
Y332398D01*
X76037Y332332D01*
X76046Y332248D01*
X76065Y332144D01*
X76093Y332041D01*
X76131Y331928D01*
X76187Y331825D01*
X76197Y331815D01*
X76216Y331778D01*
X76253Y331721D01*
X76309Y331665D01*
X76375Y331590D01*
X76451Y331515D01*
X76535Y331439D01*
X76638Y331364D01*
X76648Y331355D01*
X76695Y331336D01*
X76761Y331298D01*
X76845Y331261D01*
X76958Y331214D01*
X77090Y331167D01*
X77240Y331120D01*
X77409Y331073D01*
X77418D01*
X77428Y331063D01*
X77456D01*
X77494Y331054D01*
X77588Y331035D01*
X77710Y331007D01*
X77860Y330988D01*
X78020Y330969D01*
X78198Y330960D01*
X78387Y330951D01*
X78396D01*
X78424D01*
X78471D01*
X78546D01*
X78527Y330960D01*
X78481Y330998D01*
X78415Y331054D01*
X78321Y331120D01*
X78227Y331214D01*
X78123Y331326D01*
X78020Y331458D01*
X77926Y331609D01*
X77917Y331627D01*
X77888Y331684D01*
X77851Y331768D01*
X77813Y331872D01*
X77766Y332013D01*
X77729Y332163D01*
X77700Y332332D01*
X77691Y332511D01*
Y332586D01*
X77700Y332642D01*
X77710Y332717D01*
X77719Y332793D01*
X77738Y332887D01*
X77766Y332981D01*
X77832Y333197D01*
X77879Y333310D01*
X77935Y333422D01*
X78001Y333545D01*
X78086Y333657D01*
X78170Y333770D01*
X78274Y333873D01*
X78283Y333883D01*
X78302Y333902D01*
X78330Y333920D01*
X78377Y333958D01*
X78443Y334005D01*
X78509Y334052D01*
X78593Y334099D01*
X78687Y334146D01*
X78791Y334202D01*
X78903Y334249D01*
X79035Y334296D01*
X79166Y334343D01*
X79317Y334381D01*
X79477Y334400D01*
X79636Y334418D01*
X79815Y334428D01*
X79824D01*
X79862D01*
X79909D01*
X79975Y334418D01*
D02*
G37*
%LPC*%
G36*
X136763Y415440D02*
X136692Y415172D01*
X136678Y415158D01*
X136650Y415102D01*
X136608Y415017D01*
X136566Y414905D01*
X136509Y414778D01*
X136439Y414622D01*
X136326Y414312D01*
Y414298D01*
X136312Y414284D01*
X136298Y414228D01*
X136284Y414171D01*
X136241Y414087D01*
X136213Y413974D01*
X136171Y413861D01*
X136115Y413706D01*
X136058Y413537D01*
X136002Y413354D01*
X135931Y413128D01*
X135847Y412889D01*
X135762Y412621D01*
X135663Y412339D01*
X135551Y412015D01*
X135438Y411676D01*
X136678Y411902D01*
X137863Y412085D01*
X138088Y412113D01*
X138074Y412141D01*
X138060Y412184D01*
X138032Y412240D01*
X138004Y412339D01*
X137961Y412480D01*
X137905Y412663D01*
X137877Y412762D01*
X137834Y412889D01*
Y412903D01*
X137820Y412917D01*
X137806Y413001D01*
X137764Y413128D01*
X137722Y413283D01*
X137665Y413452D01*
X137609Y413622D01*
X137552Y413791D01*
X137496Y413946D01*
X137482Y413974D01*
X137468Y414030D01*
X137425Y414129D01*
X137369Y414256D01*
X137313Y414397D01*
X137228Y414552D01*
X137059Y414890D01*
X137045Y414905D01*
X137017Y414961D01*
X136974Y415045D01*
X136932Y415130D01*
X136876Y415229D01*
X136833Y415313D01*
X136791Y415398D01*
X136763Y415440D01*
D02*
G37*
G36*
X155343Y413593D02*
X155272D01*
X155188Y413579D01*
X155089Y413565D01*
X154962Y413523D01*
X154821Y413481D01*
X154680Y413410D01*
X154525Y413312D01*
X154511Y413297D01*
X154455Y413255D01*
X154384Y413199D01*
X154300Y413114D01*
X154187Y413016D01*
X154074Y412903D01*
X153975Y412762D01*
X153863Y412621D01*
X153848Y412607D01*
X153820Y412550D01*
X153778Y412480D01*
X153722Y412395D01*
X153609Y412212D01*
X153552Y412141D01*
X153524Y412071D01*
X153538D01*
X153595Y412085D01*
X153679Y412099D01*
X153792Y412127D01*
X153933Y412156D01*
X154102Y412212D01*
X154300Y412268D01*
X154511Y412353D01*
X154525D01*
X154539Y412367D01*
X154610Y412395D01*
X154722Y412452D01*
X154864Y412522D01*
X155019Y412593D01*
X155188Y412691D01*
X155343Y412790D01*
X155498Y412889D01*
X155512Y412903D01*
X155554Y412931D01*
X155625Y412987D01*
X155695Y413044D01*
X155752Y413114D01*
X155822Y413185D01*
X155864Y413255D01*
X155878Y413312D01*
Y413326D01*
X155864Y413382D01*
X155808Y413438D01*
X155780Y413481D01*
X155723Y413509D01*
X155695Y413523D01*
X155625Y413551D01*
X155498Y413579D01*
X155343Y413593D01*
D02*
G37*
G36*
X124148Y82213D02*
X122099Y79300D01*
X124148D01*
Y82213D01*
D02*
G37*
G36*
X117729Y82739D02*
X116225D01*
Y77777D01*
X117766D01*
X117832Y77786D01*
X117973Y77796D01*
X118133Y77805D01*
X118302Y77824D01*
X118471Y77852D01*
X118612Y77890D01*
X118631Y77899D01*
X118678Y77909D01*
X118744Y77937D01*
X118828Y77975D01*
X118922Y78031D01*
X119016Y78087D01*
X119110Y78153D01*
X119204Y78228D01*
X119214Y78247D01*
X119251Y78285D01*
X119308Y78350D01*
X119373Y78444D01*
X119449Y78567D01*
X119533Y78707D01*
X119608Y78867D01*
X119674Y79046D01*
Y79055D01*
X119684Y79074D01*
X119693Y79102D01*
X119702Y79140D01*
X119712Y79187D01*
X119731Y79253D01*
X119749Y79318D01*
X119768Y79394D01*
X119796Y79582D01*
X119825Y79798D01*
X119843Y80042D01*
X119853Y80305D01*
Y80315D01*
Y80352D01*
Y80399D01*
X119843Y80474D01*
Y80559D01*
X119834Y80653D01*
X119825Y80766D01*
X119815Y80878D01*
X119768Y81132D01*
X119712Y81395D01*
X119627Y81640D01*
X119571Y81762D01*
X119514Y81865D01*
Y81875D01*
X119496Y81894D01*
X119477Y81922D01*
X119458Y81959D01*
X119383Y82053D01*
X119289Y82166D01*
X119167Y82288D01*
X119026Y82410D01*
X118866Y82514D01*
X118697Y82598D01*
X118678Y82608D01*
X118631Y82617D01*
X118546Y82645D01*
X118424Y82674D01*
X118274Y82692D01*
X118086Y82720D01*
X117973Y82730D01*
X117851D01*
X117729Y82739D01*
D02*
G37*
G36*
X99187Y83247D02*
X97683D01*
Y78285D01*
X99224D01*
X99290Y78295D01*
X99431Y78304D01*
X99591Y78313D01*
X99760Y78332D01*
X99929Y78360D01*
X100070Y78398D01*
X100089Y78407D01*
X100136Y78417D01*
X100202Y78445D01*
X100286Y78482D01*
X100380Y78539D01*
X100474Y78595D01*
X100568Y78661D01*
X100662Y78736D01*
X100672Y78755D01*
X100709Y78793D01*
X100766Y78858D01*
X100831Y78952D01*
X100907Y79075D01*
X100991Y79215D01*
X101066Y79375D01*
X101132Y79554D01*
Y79563D01*
X101142Y79582D01*
X101151Y79610D01*
X101160Y79648D01*
X101170Y79695D01*
X101189Y79761D01*
X101207Y79826D01*
X101226Y79902D01*
X101254Y80090D01*
X101283Y80306D01*
X101301Y80550D01*
X101311Y80813D01*
Y80823D01*
Y80860D01*
Y80907D01*
X101301Y80982D01*
Y81067D01*
X101292Y81161D01*
X101283Y81274D01*
X101273Y81386D01*
X101226Y81640D01*
X101170Y81903D01*
X101085Y82148D01*
X101029Y82270D01*
X100972Y82373D01*
Y82383D01*
X100954Y82402D01*
X100935Y82430D01*
X100916Y82467D01*
X100841Y82561D01*
X100747Y82674D01*
X100625Y82796D01*
X100484Y82918D01*
X100324Y83022D01*
X100155Y83106D01*
X100136Y83116D01*
X100089Y83125D01*
X100004Y83153D01*
X99882Y83181D01*
X99732Y83200D01*
X99544Y83229D01*
X99431Y83238D01*
X99309D01*
X99187Y83247D01*
D02*
G37*
G36*
X65151Y82485D02*
X63647D01*
Y77523D01*
X65188D01*
X65254Y77533D01*
X65395Y77542D01*
X65555Y77551D01*
X65724Y77570D01*
X65893Y77598D01*
X66034Y77636D01*
X66053Y77645D01*
X66100Y77655D01*
X66166Y77683D01*
X66250Y77720D01*
X66344Y77777D01*
X66438Y77833D01*
X66532Y77899D01*
X66626Y77974D01*
X66636Y77993D01*
X66673Y78031D01*
X66730Y78096D01*
X66795Y78190D01*
X66871Y78313D01*
X66955Y78453D01*
X67030Y78613D01*
X67096Y78792D01*
Y78801D01*
X67106Y78820D01*
X67115Y78848D01*
X67124Y78886D01*
X67134Y78933D01*
X67153Y78999D01*
X67171Y79064D01*
X67190Y79140D01*
X67218Y79328D01*
X67247Y79544D01*
X67265Y79788D01*
X67275Y80051D01*
Y80061D01*
Y80098D01*
Y80145D01*
X67265Y80220D01*
Y80305D01*
X67256Y80399D01*
X67247Y80512D01*
X67237Y80625D01*
X67190Y80878D01*
X67134Y81141D01*
X67049Y81386D01*
X66993Y81508D01*
X66936Y81611D01*
Y81621D01*
X66918Y81639D01*
X66899Y81668D01*
X66880Y81705D01*
X66805Y81799D01*
X66711Y81912D01*
X66589Y82034D01*
X66448Y82156D01*
X66288Y82260D01*
X66119Y82344D01*
X66100Y82354D01*
X66053Y82363D01*
X65968Y82391D01*
X65846Y82420D01*
X65696Y82438D01*
X65508Y82466D01*
X65395Y82476D01*
X65273D01*
X65151Y82485D01*
D02*
G37*
G36*
X45593Y83247D02*
X44089D01*
Y78285D01*
X45630D01*
X45696Y78295D01*
X45837Y78304D01*
X45997Y78313D01*
X46166Y78332D01*
X46335Y78360D01*
X46476Y78398D01*
X46495Y78407D01*
X46542Y78417D01*
X46608Y78445D01*
X46692Y78482D01*
X46786Y78539D01*
X46880Y78595D01*
X46974Y78661D01*
X47068Y78736D01*
X47078Y78755D01*
X47115Y78793D01*
X47172Y78858D01*
X47237Y78952D01*
X47313Y79075D01*
X47397Y79215D01*
X47472Y79375D01*
X47538Y79554D01*
Y79563D01*
X47548Y79582D01*
X47557Y79610D01*
X47566Y79648D01*
X47576Y79695D01*
X47595Y79761D01*
X47613Y79826D01*
X47632Y79902D01*
X47660Y80090D01*
X47689Y80306D01*
X47707Y80550D01*
X47717Y80813D01*
Y80823D01*
Y80860D01*
Y80907D01*
X47707Y80982D01*
Y81067D01*
X47698Y81161D01*
X47689Y81274D01*
X47679Y81386D01*
X47632Y81640D01*
X47576Y81903D01*
X47491Y82148D01*
X47435Y82270D01*
X47378Y82373D01*
Y82383D01*
X47360Y82402D01*
X47341Y82430D01*
X47322Y82467D01*
X47247Y82561D01*
X47153Y82674D01*
X47031Y82796D01*
X46890Y82918D01*
X46730Y83022D01*
X46561Y83106D01*
X46542Y83116D01*
X46495Y83125D01*
X46410Y83153D01*
X46288Y83181D01*
X46138Y83200D01*
X45950Y83229D01*
X45837Y83238D01*
X45715D01*
X45593Y83247D01*
D02*
G37*
G36*
X58367Y331094D02*
X58348D01*
X58301D01*
X58217D01*
X58104Y331085D01*
X57982D01*
X57832Y331075D01*
X57672Y331066D01*
X57503Y331047D01*
X57136Y331000D01*
X56958Y330972D01*
X56788Y330934D01*
X56629Y330897D01*
X56478Y330840D01*
X56347Y330784D01*
X56234Y330718D01*
X56224D01*
X56215Y330699D01*
X56149Y330652D01*
X56065Y330568D01*
X55971Y330465D01*
X55877Y330323D01*
X55792Y330164D01*
X55726Y329985D01*
X55717Y329891D01*
X55708Y329788D01*
Y329731D01*
X55717Y329694D01*
X55736Y329600D01*
X55773Y329468D01*
X55839Y329327D01*
X55933Y329168D01*
X55989Y329092D01*
X56065Y329017D01*
X56140Y328942D01*
X56234Y328867D01*
X56243D01*
X56262Y328848D01*
X56290Y328829D01*
X56337Y328810D01*
X56403Y328773D01*
X56488Y328745D01*
X56582Y328707D01*
X56694Y328669D01*
X56835Y328641D01*
X56986Y328604D01*
X57164Y328566D01*
X57352Y328538D01*
X57578Y328519D01*
X57813Y328500D01*
X58076Y328481D01*
X58367D01*
X58377D01*
X58386D01*
X58433D01*
X58518D01*
X58630Y328491D01*
X58752D01*
X58903Y328500D01*
X59063Y328510D01*
X59241Y328529D01*
X59598Y328576D01*
X59777Y328604D01*
X59946Y328641D01*
X60106Y328679D01*
X60256Y328735D01*
X60388Y328792D01*
X60501Y328857D01*
X60510D01*
X60519Y328876D01*
X60548Y328895D01*
X60585Y328923D01*
X60670Y329008D01*
X60773Y329111D01*
X60867Y329252D01*
X60952Y329412D01*
X60989Y329496D01*
X61017Y329590D01*
X61027Y329694D01*
X61036Y329797D01*
Y329854D01*
X61027Y329891D01*
X61008Y329995D01*
X60980Y330117D01*
X60924Y330258D01*
X60839Y330408D01*
X60782Y330483D01*
X60726Y330558D01*
X60651Y330624D01*
X60566Y330690D01*
X60557D01*
X60538Y330709D01*
X60501Y330728D01*
X60454Y330756D01*
X60378Y330784D01*
X60294Y330822D01*
X60190Y330850D01*
X60068Y330887D01*
X59927Y330925D01*
X59767Y330963D01*
X59589Y331000D01*
X59392Y331028D01*
X59166Y331057D01*
X58922Y331075D01*
X58659Y331085D01*
X58367Y331094D01*
D02*
G37*
G36*
X79787Y333610D02*
X79777D01*
X79759D01*
X79730D01*
X79683Y333601D01*
X79627D01*
X79571Y333591D01*
X79430Y333563D01*
X79270Y333516D01*
X79101Y333460D01*
X78932Y333366D01*
X78781Y333244D01*
X78762Y333225D01*
X78725Y333178D01*
X78659Y333093D01*
X78593Y332990D01*
X78518Y332849D01*
X78452Y332689D01*
X78415Y332511D01*
X78396Y332313D01*
Y332257D01*
X78405Y332219D01*
X78415Y332116D01*
X78443Y331994D01*
X78490Y331843D01*
X78556Y331693D01*
X78650Y331543D01*
X78781Y331402D01*
X78800Y331383D01*
X78856Y331345D01*
X78941Y331289D01*
X79063Y331214D01*
X79214Y331148D01*
X79392Y331092D01*
X79608Y331054D01*
X79853Y331035D01*
X79862D01*
X79881D01*
X79918D01*
X79965Y331045D01*
X80031D01*
X80097Y331054D01*
X80247Y331082D01*
X80426Y331120D01*
X80614Y331186D01*
X80792Y331280D01*
X80952Y331402D01*
X80962D01*
X80971Y331421D01*
X81018Y331468D01*
X81084Y331543D01*
X81159Y331646D01*
X81225Y331778D01*
X81291Y331928D01*
X81337Y332097D01*
X81356Y332191D01*
Y332341D01*
X81347Y332379D01*
X81337Y332482D01*
X81300Y332605D01*
X81253Y332755D01*
X81168Y332915D01*
X81065Y333075D01*
X80990Y333150D01*
X80914Y333225D01*
X80905D01*
X80896Y333244D01*
X80868Y333262D01*
X80839Y333281D01*
X80745Y333347D01*
X80614Y333413D01*
X80454Y333488D01*
X80257Y333554D01*
X80031Y333591D01*
X79787Y333610D01*
D02*
G37*
%LPD*%
D10*
X69094Y350664D02*
G03*
X69094Y350664I-500J0D01*
G01*
X90541D02*
G03*
X90541Y350664I-500J0D01*
G01*
X56414Y87676D02*
G03*
X56414Y87676I-500J0D01*
G01*
X76988D02*
G03*
X76988Y87676I-500J0D01*
G01*
X110770D02*
G03*
X110770Y87676I-500J0D01*
G01*
X129312D02*
G03*
X129312Y87676I-500J0D01*
G01*
D11*
X61642Y47664D02*
G03*
X61642Y47664I-1000J0D01*
G01*
X52793Y66804D02*
Y69805D01*
X42292Y66804D02*
Y69805D01*
X73367Y66804D02*
Y69805D01*
X62866Y66804D02*
Y69805D01*
X107149Y66804D02*
Y69805D01*
X96648Y66804D02*
Y69805D01*
X115190Y66804D02*
Y69805D01*
X125691Y66804D02*
Y69805D01*
X41802Y183179D02*
X85642Y227019D01*
Y139338D02*
X129483Y183179D01*
X85642Y227019D02*
X129483Y183179D01*
X41802D02*
X85642Y139338D01*
D12*
X82473Y238863D02*
G03*
X82473Y238863I-1250J0D01*
G01*
D13*
X88643Y212877D02*
G03*
X88643Y212877I-3000J0D01*
G01*
D14*
X40897Y275895D02*
D03*
D15*
X47543Y370377D02*
X123743D01*
Y423717D01*
X47543D02*
X123743D01*
X47543Y370377D02*
Y423717D01*
X109773Y353463D02*
X117393D01*
X140253D02*
X147872D01*
X140253Y298853D02*
X147872D01*
X109773D02*
X117393D01*
X109773D02*
Y353463D01*
X147872Y298853D02*
Y353463D01*
X63525Y298522D02*
X76253Y285795D01*
X36655Y271652D02*
X49383Y258924D01*
X59282Y274481D02*
X62110Y271652D01*
X70596Y280138D01*
X72010Y278724D01*
X43726Y290037D02*
X49383Y284380D01*
X42312Y291452D02*
X43726Y290037D01*
X40897D02*
X42312Y291452D01*
X47968Y280138D02*
X53625Y285795D01*
X56454Y282966D02*
X59282Y280138D01*
X50797Y277309D02*
X56454Y282966D01*
X50797Y277309D02*
X53625Y274481D01*
X59282Y280138D01*
X56454Y271652D02*
X62110Y277309D01*
X150920Y399116D02*
X176320D01*
X150920Y18116D02*
Y399116D01*
Y18116D02*
X176320D01*
Y399116D01*
X-5035D02*
X20364D01*
X-5035Y18116D02*
Y399116D01*
Y18116D02*
X20364D01*
Y399116D01*
D16*
X48142Y17588D02*
Y36089D01*
X123143Y17588D02*
Y36089D01*
X48142Y-6318D02*
Y-3411D01*
Y-6912D02*
Y-6318D01*
X123143Y-6912D02*
Y-3411D01*
X48142Y-6912D02*
X123143D01*
M02*
