%TF.GenerationSoftware,Altium Limited,Altium Designer,19.1.8 (144)*%
G04 Layer_Color=8388736*
%FSLAX26Y26*%
%MOIN*%
%TF.FileFunction,Soldermask,Top*%
%TF.Part,Single*%
G01*
G75*
%TA.AperFunction,Conductor*%
%ADD19C,0.010000*%
%ADD20C,0.008000*%
%TA.AperFunction,ComponentPad*%
%ADD55C,0.039496*%
%ADD56C,0.086740*%
%ADD57C,0.065087*%
%ADD58O,0.045402X0.082803*%
%TA.AperFunction,ViaPad*%
%ADD59C,0.023000*%
%ADD60C,0.028000*%
%TA.AperFunction,SMDPad,CuDef*%
%ADD64R,0.078000X0.138000*%
%ADD65R,0.067055X0.059181*%
%TA.AperFunction,ConnectorPad*%
%ADD66R,0.023748X0.061150*%
%ADD67R,0.055244X0.082803*%
%ADD68R,0.067055X0.082803*%
%ADD69R,0.057213X0.051307*%
G04:AMPARAMS|DCode=70|XSize=70.992mil|YSize=63.118mil|CornerRadius=0mil|HoleSize=0mil|Usage=FLASHONLY|Rotation=315.000|XOffset=0mil|YOffset=0mil|HoleType=Round|Shape=Rectangle|*
%AMROTATEDRECTD70*
4,1,4,-0.047415,0.002784,-0.002784,0.047415,0.047415,-0.002784,0.002784,-0.047415,-0.047415,0.002784,0.0*
%
%ADD70ROTATEDRECTD70*%

G04:AMPARAMS|DCode=71|XSize=29.654mil|YSize=67.055mil|CornerRadius=0mil|HoleSize=0mil|Usage=FLASHONLY|Rotation=45.000|XOffset=0mil|YOffset=0mil|HoleType=Round|Shape=Round|*
%AMOVALD71*
21,1,0.037402,0.029654,0.000000,0.000000,135.0*
1,1,0.029654,0.013223,-0.013223*
1,1,0.029654,-0.013223,0.013223*
%
%ADD71OVALD71*%

G04:AMPARAMS|DCode=72|XSize=29.654mil|YSize=67.055mil|CornerRadius=0mil|HoleSize=0mil|Usage=FLASHONLY|Rotation=315.000|XOffset=0mil|YOffset=0mil|HoleType=Round|Shape=Round|*
%AMOVALD72*
21,1,0.037402,0.029654,0.000000,0.000000,45.0*
1,1,0.029654,-0.013223,-0.013223*
1,1,0.029654,0.013223,0.013223*
%
%ADD72OVALD72*%

D19*
X337225Y209005D02*
X337275Y209055D01*
X337175Y136175D02*
X337225Y136225D01*
D20*
X252175Y1115801D02*
X298479Y1069497D01*
X311343D01*
X98175Y804277D02*
X140911Y761541D01*
X264073Y492175D02*
X296809Y524911D01*
X30175Y221323D02*
X92175Y283323D01*
X91675Y182823D02*
Y246675D01*
X30175Y121323D02*
X91675Y182823D01*
X112175Y490175D02*
X154175Y532175D01*
X92175Y542175D02*
X107175Y557175D01*
X92175Y483323D02*
Y542175D01*
X30175Y421323D02*
X92175Y483323D01*
X154175Y532175D02*
X214989D01*
X178175Y512175D02*
X239531D01*
X137175Y471175D02*
X178175Y512175D01*
X205175Y492175D02*
X264073D01*
X157175Y444175D02*
X205175Y492175D01*
X30175Y321323D02*
Y345846D01*
X112175Y834819D02*
Y1002175D01*
X225801Y1115801D01*
X252175D01*
X316613Y1180239D02*
Y1277727D01*
X252175Y1115801D02*
X316613Y1180239D01*
X337225Y136225D02*
Y209005D01*
X522469Y243029D02*
X644175Y121323D01*
X522469Y243029D02*
Y379985D01*
X377541Y524911D02*
X522469Y379985D01*
X112175Y834819D02*
X163183Y783813D01*
X239531Y512175D02*
X274537Y547183D01*
X214989Y532175D02*
X252267Y569453D01*
X107175Y557175D02*
X195447D01*
X229995Y591725D01*
X94137Y585285D02*
X179015D01*
X30175Y521323D02*
X94137Y585285D01*
X179015D02*
X207725Y613995D01*
X30175Y621323D02*
X83101D01*
X97249Y607175D01*
X156361D01*
X185453Y636267D01*
X131573Y627175D02*
X162935Y658537D01*
X30175Y704629D02*
Y721323D01*
Y704629D02*
X107629Y627175D01*
X131573D01*
X162935Y658537D02*
X163183D01*
X92175Y673991D02*
Y759323D01*
X30175Y821323D02*
X92175Y759323D01*
Y673991D02*
X107415Y658751D01*
X118853D01*
X140911Y680809D01*
X470213Y521323D02*
X644175D01*
X422083Y569453D02*
X470213Y521323D01*
D55*
X115443Y1371387D02*
D03*
Y1322175D02*
D03*
Y1272963D02*
D03*
X154813D02*
D03*
Y1322175D02*
D03*
Y1371387D02*
D03*
D56*
X437175Y1513175D02*
D03*
X337175D02*
D03*
X237175D02*
D03*
X437175Y1613175D02*
D03*
X337175D02*
D03*
X237175D02*
D03*
X644175Y1521323D02*
D03*
Y1421323D02*
D03*
Y1321323D02*
D03*
Y1221323D02*
D03*
Y1121323D02*
D03*
Y1021323D02*
D03*
Y921323D02*
D03*
Y821323D02*
D03*
Y721323D02*
D03*
Y621323D02*
D03*
Y521323D02*
D03*
Y421323D02*
D03*
Y321323D02*
D03*
Y221323D02*
D03*
Y121323D02*
D03*
X30175Y1521323D02*
D03*
Y1421323D02*
D03*
Y1321323D02*
D03*
Y1221323D02*
D03*
Y1121323D02*
D03*
Y1021323D02*
D03*
Y921323D02*
D03*
Y821323D02*
D03*
Y721323D02*
D03*
Y621323D02*
D03*
Y521323D02*
D03*
Y421323D02*
D03*
Y321323D02*
D03*
Y221323D02*
D03*
Y121323D02*
D03*
D57*
X238749Y136175D02*
D03*
X435601D02*
D03*
D58*
X199379Y29875D02*
D03*
X474971D02*
D03*
D59*
X113175Y210175D02*
D03*
X287175Y87175D02*
D03*
X322620Y233856D02*
D03*
X507175Y1166175D02*
D03*
X102175Y1212175D02*
D03*
X275175Y1193175D02*
D03*
X330175Y711423D02*
D03*
X330175Y639175D02*
D03*
X328175Y583175D02*
D03*
X138175Y840175D02*
D03*
X241175Y684175D02*
D03*
X271175Y727175D02*
D03*
X531175Y444175D02*
D03*
X412175Y642175D02*
D03*
X137175Y892175D02*
D03*
X383175Y1061175D02*
D03*
X340175Y254175D02*
D03*
X337275Y209055D02*
D03*
X322175Y1009175D02*
D03*
X562175Y882070D02*
D03*
X412175Y702175D02*
D03*
Y672175D02*
D03*
X413491Y747175D02*
D03*
X424675Y379985D02*
D03*
X140911Y921493D02*
D03*
X163183Y951894D02*
D03*
X200771Y976894D02*
D03*
X424675Y508183D02*
D03*
X268175Y360195D02*
D03*
X401423D02*
D03*
X270587Y414971D02*
D03*
X240685Y441442D02*
D03*
X567109Y586794D02*
D03*
X562175Y552175D02*
D03*
X441775Y970610D02*
D03*
X488897Y938968D02*
D03*
X416652Y953435D02*
D03*
X259758D02*
D03*
X553175Y144376D02*
D03*
D60*
X544004Y1530660D02*
D03*
X322175Y783175D02*
D03*
X350175Y304175D02*
D03*
X527175Y190175D02*
D03*
X530175Y1045175D02*
D03*
X511175Y867175D02*
D03*
D64*
X507175Y1216585D02*
D03*
Y1372175D02*
D03*
D65*
X232175Y1277727D02*
D03*
Y1346623D02*
D03*
X316613Y1277727D02*
D03*
Y1346623D02*
D03*
D66*
X285993Y136175D02*
D03*
X311585D02*
D03*
X337175D02*
D03*
X362765D02*
D03*
X388357D02*
D03*
D67*
X451349Y29875D02*
D03*
X223001D02*
D03*
D68*
X376545D02*
D03*
X297805D02*
D03*
D69*
X187175Y315175D02*
D03*
Y222655D02*
D03*
X268175Y315175D02*
D03*
Y222655D02*
D03*
X401175Y315175D02*
D03*
Y222655D02*
D03*
X474175D02*
D03*
Y315175D02*
D03*
D70*
X194419Y1186421D02*
D03*
X311343Y1069497D02*
D03*
X250097Y1008253D02*
D03*
X133175Y1125175D02*
D03*
D71*
X296809Y917439D02*
D03*
X274537Y895167D02*
D03*
X252267Y872897D02*
D03*
X229995Y850625D02*
D03*
X207725Y828355D02*
D03*
X185453Y806083D02*
D03*
X163183Y783813D02*
D03*
X140911Y761541D02*
D03*
X377541Y524911D02*
D03*
X399813Y547183D02*
D03*
X422083Y569453D02*
D03*
X444355Y591725D02*
D03*
X466625Y613995D02*
D03*
X488897Y636267D02*
D03*
X511167Y658537D02*
D03*
X533439Y680809D02*
D03*
D72*
X140911D02*
D03*
X163183Y658537D02*
D03*
X185453Y636267D02*
D03*
X207725Y613995D02*
D03*
X229995Y591725D02*
D03*
X252267Y569453D02*
D03*
X274537Y547183D02*
D03*
X296809Y524911D02*
D03*
X533439Y761541D02*
D03*
X511167Y783813D02*
D03*
X488897Y806083D02*
D03*
X466625Y828355D02*
D03*
X444355Y850625D02*
D03*
X422083Y872897D02*
D03*
X399813Y895167D02*
D03*
X377541Y917439D02*
D03*
%TF.MD5,fc188eb7d01167f0e90396986237fd69*%
M02*
